<?xml version="1.0" encoding="utf-8"?>
<!-- Generator: Adobe Illustrator 19.0.0, SVG Export Plug-In . SVG Version: 6.00 Build 0)  -->
<svg version="1.1" id="Layer_1" xmlns="http://www.w3.org/2000/svg" xmlns:xlink="http://www.w3.org/1999/xlink" x="0px" y="0px"
	 viewBox="219.6 245 575.9 323" style="enable-background:new 219.6 245 575.9 323;" xml:space="preserve">
<style type="text/css">
	.st0{fill:#F75A36;}
	.st1{fill:#00B0AD;}
	.st2{fill:#00B0AC;}
	.st3{fill:#F1592A;}
	.st4{fill:#FFFFFF;}
</style>
<g id="Layer_1_1_">
</g>
<g id="website">
	<g>
		<g>
			<path class="st0" d="M526.3,560.5c0.1,0.3,0.2,0.6,0.3,0.8c0.1-0.3,0.2-0.6,0.3-0.8c0.1-0.3,0.2-0.5,0.4-0.8l7.5-13.7
				c0.1-0.2,0.3-0.4,0.4-0.4s0.4-0.1,0.6-0.1h2.2v22.2h-2.6v-16.3c0-0.2,0-0.4,0-0.7c0-0.2,0-0.5,0-0.8l-7.6,13.9
				c-0.3,0.5-0.6,0.7-1.1,0.7h-0.4c-0.5,0-0.8-0.2-1.1-0.7l-7.8-13.9c0,0.3,0.1,0.5,0.1,0.8c0,0.3,0,0.5,0,0.7v16.3H515v-22.2h2.2
				c0.3,0,0.5,0,0.6,0.1c0.1,0.1,0.3,0.2,0.4,0.4l7.7,13.7C526.1,559.9,526.2,560.2,526.3,560.5z"/>
			<path class="st0" d="M553.1,567.7h-1.2c-0.3,0-0.5,0-0.7-0.1c-0.2-0.1-0.3-0.3-0.3-0.5l-0.3-1.5c-0.4,0.4-0.8,0.7-1.2,1
				c-0.4,0.3-0.8,0.5-1.2,0.7c-0.4,0.2-0.9,0.4-1.4,0.5c-0.5,0.1-1,0.2-1.6,0.2c-0.6,0-1.2-0.1-1.7-0.3c-0.5-0.2-1-0.4-1.4-0.8
				c-0.4-0.3-0.7-0.8-0.9-1.3c-0.2-0.5-0.4-1.1-0.4-1.9c0-0.6,0.2-1.2,0.5-1.8c0.3-0.6,0.9-1.1,1.7-1.5c0.8-0.4,1.8-0.8,3-1.1
				c1.2-0.3,2.7-0.4,4.5-0.4v-1.2c0-1.2-0.3-2.2-0.8-2.8c-0.5-0.6-1.3-0.9-2.3-0.9c-0.7,0-1.2,0.1-1.7,0.3c-0.5,0.2-0.9,0.4-1.2,0.6
				c-0.3,0.2-0.6,0.4-0.9,0.6c-0.2,0.2-0.5,0.3-0.7,0.3c-0.2,0-0.3,0-0.5-0.1c-0.1-0.1-0.2-0.2-0.3-0.4l-0.5-0.9
				c0.9-0.8,1.8-1.5,2.8-1.9c1-0.4,2.1-0.6,3.3-0.6c0.9,0,1.7,0.1,2.3,0.4c0.7,0.3,1.3,0.7,1.7,1.2c0.5,0.5,0.8,1.1,1.1,1.9
				c0.2,0.7,0.4,1.5,0.4,2.4L553.1,567.7L553.1,567.7z M545.9,566c0.5,0,0.9,0,1.3-0.1s0.8-0.2,1.1-0.4c0.4-0.2,0.7-0.4,1-0.7
				c0.3-0.3,0.6-0.6,1-0.9v-3.2c-1.3,0-2.4,0.1-3.2,0.2c-0.9,0.2-1.6,0.4-2.2,0.6c-0.6,0.3-1,0.6-1.2,0.9c-0.3,0.4-0.4,0.7-0.4,1.2
				c0,0.4,0.1,0.8,0.2,1.1c0.1,0.3,0.3,0.5,0.5,0.7c0.2,0.2,0.5,0.3,0.8,0.4C545.2,566,545.6,566,545.9,566z"/>
			<path class="st0" d="M555.7,567.7V552h1.6c0.3,0,0.5,0.1,0.6,0.2c0.1,0.1,0.2,0.3,0.2,0.6l0.2,2.5c0.5-1.1,1.2-2,2-2.6
				c0.8-0.6,1.7-0.9,2.8-0.9c0.4,0,0.8,0,1.2,0.1c0.4,0.1,0.7,0.2,1,0.4l-0.4,2.1c-0.1,0.3-0.2,0.4-0.5,0.4c-0.1,0-0.4,0-0.7-0.1
				c-0.3-0.1-0.7-0.1-1.3-0.1c-1,0-1.8,0.3-2.4,0.8s-1.2,1.4-1.6,2.4v10L555.7,567.7L555.7,567.7z"/>
			<path class="st0" d="M577.4,554.8c-0.1,0.1-0.2,0.2-0.2,0.3c-0.1,0.1-0.2,0.1-0.4,0.1c-0.2,0-0.3-0.1-0.5-0.2
				c-0.2-0.1-0.4-0.3-0.7-0.4s-0.6-0.3-1-0.4c-0.4-0.1-0.9-0.2-1.5-0.2c-0.8,0-1.4,0.1-2,0.4c-0.6,0.3-1.1,0.7-1.5,1.2
				c-0.4,0.5-0.7,1.1-0.9,1.9c-0.2,0.7-0.3,1.6-0.3,2.5c0,1,0.1,1.8,0.3,2.5c0.2,0.7,0.5,1.4,0.9,1.9c0.4,0.5,0.9,0.9,1.4,1.1
				c0.6,0.3,1.2,0.4,1.9,0.4c0.7,0,1.2-0.1,1.7-0.2c0.4-0.2,0.8-0.3,1.1-0.5c0.3-0.2,0.5-0.4,0.7-0.5c0.2-0.2,0.4-0.2,0.6-0.2
				c0.2,0,0.4,0.1,0.5,0.3l0.8,1c-0.7,0.8-1.5,1.5-2.6,1.8c-1,0.4-2.1,0.6-3.2,0.6c-1,0-1.9-0.2-2.7-0.5c-0.8-0.4-1.6-0.9-2.2-1.6
				c-0.6-0.7-1.1-1.5-1.5-2.5c-0.4-1-0.5-2.1-0.5-3.4c0-1.2,0.2-2.2,0.5-3.2c0.3-1,0.8-1.8,1.4-2.6c0.6-0.7,1.4-1.3,2.3-1.7
				c0.9-0.4,2-0.6,3.2-0.6c1.1,0,2.1,0.2,2.9,0.5c0.8,0.4,1.6,0.9,2.2,1.5L577.4,554.8z"/>
			<path class="st0" d="M579.6,567.7v-22.8h2.8v9.2c0.7-0.7,1.4-1.3,2.2-1.7c0.8-0.4,1.8-0.6,2.8-0.6c0.9,0,1.6,0.1,2.3,0.4
				c0.7,0.3,1.2,0.7,1.6,1.2c0.4,0.5,0.8,1.2,1,1.9c0.2,0.7,0.3,1.5,0.3,2.4v10h-2.8v-10c0-1.2-0.3-2.1-0.8-2.8
				c-0.5-0.7-1.4-1-2.5-1c-0.8,0-1.6,0.2-2.3,0.6c-0.7,0.4-1.4,0.9-2,1.6v11.6L579.6,567.7L579.6,567.7z"/>
			<path class="st0" d="M615.7,545.2c0.9,0,1.8,0.1,2.6,0.4c0.8,0.3,1.5,0.7,2.1,1.2c0.6,0.5,1.1,1.2,1.4,1.9
				c0.3,0.8,0.5,1.6,0.5,2.6c0,0.8-0.1,1.6-0.4,2.3s-0.6,1.4-1,2c-0.4,0.6-0.9,1.3-1.5,1.9c-0.6,0.6-1.1,1.2-1.8,1.9l-5.8,6
				c0.4-0.1,0.8-0.2,1.3-0.3c0.4-0.1,0.8-0.1,1.2-0.1h7.4c0.3,0,0.5,0.1,0.7,0.3s0.3,0.4,0.3,0.7v1.7H608v-0.9c0-0.2,0-0.4,0.1-0.6
				s0.2-0.4,0.4-0.6l7.1-7.2c0.6-0.6,1.1-1.2,1.6-1.7c0.5-0.6,0.9-1.1,1.2-1.7c0.3-0.6,0.6-1.1,0.8-1.7c0.2-0.6,0.3-1.2,0.3-1.8
				s-0.1-1.2-0.3-1.7c-0.2-0.5-0.5-0.9-0.9-1.2c-0.4-0.3-0.8-0.6-1.3-0.7c-0.5-0.2-1-0.2-1.6-0.2c-0.6,0-1.1,0.1-1.6,0.2
				c-0.5,0.2-0.9,0.4-1.3,0.7c-0.4,0.3-0.7,0.6-0.9,1c-0.3,0.4-0.4,0.8-0.5,1.3c-0.1,0.3-0.2,0.5-0.4,0.7c-0.2,0.1-0.4,0.2-0.7,0.2
				c-0.1,0-0.1,0-0.2,0c-0.1,0-0.1,0-0.2,0l-1.4-0.2c0.1-1,0.4-1.9,0.8-2.7c0.4-0.8,0.9-1.4,1.6-2c0.6-0.5,1.4-0.9,2.2-1.2
				C613.8,545.4,614.7,545.2,615.7,545.2z"/>
			<path class="st0" d="M639.6,545.5v1.2c0,0.4,0,0.6-0.1,0.9s-0.2,0.4-0.2,0.6l-9.2,18.6c-0.1,0.3-0.3,0.5-0.6,0.7
				c-0.2,0.2-0.6,0.3-1,0.3h-2l9.3-18.3c0.1-0.3,0.3-0.5,0.4-0.7c0.1-0.2,0.3-0.4,0.5-0.6h-11.6c-0.2,0-0.3-0.1-0.5-0.2
				s-0.2-0.3-0.2-0.5v-1.9L639.6,545.5L639.6,545.5z"/>
			<path class="st0" d="M645.2,557.3h7.7v2.3h-7.7V557.3z"/>
			<path class="st0" d="M666.9,545.2c0.9,0,1.8,0.1,2.6,0.4c0.8,0.3,1.5,0.7,2.1,1.1c0.6,0.5,1,1.1,1.3,1.8s0.5,1.5,0.5,2.3
				c0,0.7-0.1,1.3-0.3,1.9c-0.2,0.6-0.4,1-0.8,1.5c-0.3,0.4-0.7,0.8-1.2,1.1c-0.5,0.3-1,0.5-1.6,0.7c1.4,0.4,2.5,1,3.3,1.9
				s1.1,2,1.1,3.4c0,1-0.2,1.9-0.6,2.8s-0.9,1.5-1.6,2.1c-0.7,0.6-1.5,1-2.3,1.3c-0.9,0.3-1.9,0.5-2.9,0.5c-1.2,0-2.2-0.1-3-0.4
				c-0.8-0.3-1.5-0.7-2.1-1.2c-0.6-0.5-1.1-1.1-1.4-1.8c-0.4-0.7-0.7-1.5-0.9-2.3l1.2-0.5c0.2-0.1,0.4-0.1,0.7-0.1
				c0.2,0,0.4,0,0.6,0.1c0.2,0.1,0.3,0.2,0.4,0.4c0,0,0,0.1,0.1,0.1c0,0,0,0.1,0.1,0.1c0.1,0.3,0.3,0.6,0.5,1
				c0.2,0.4,0.5,0.7,0.8,1.1c0.4,0.3,0.8,0.6,1.3,0.8c0.5,0.2,1.2,0.3,1.9,0.3c0.8,0,1.5-0.1,2-0.4c0.6-0.3,1.1-0.6,1.5-1
				c0.4-0.4,0.7-0.9,0.9-1.3c0.2-0.5,0.3-1,0.3-1.5c0-0.6-0.1-1.1-0.2-1.6c-0.2-0.5-0.4-0.9-0.9-1.3c-0.4-0.4-1-0.6-1.7-0.9
				c-0.7-0.2-1.7-0.3-2.8-0.3v-2c0.9,0,1.7-0.1,2.4-0.3c0.7-0.2,1.2-0.5,1.6-0.8c0.4-0.3,0.7-0.8,0.9-1.2c0.2-0.5,0.3-1,0.3-1.6
				c0-0.6-0.1-1.2-0.3-1.7c-0.2-0.5-0.5-0.9-0.8-1.2c-0.4-0.3-0.8-0.5-1.2-0.7c-0.5-0.2-1-0.2-1.6-0.2s-1.1,0.1-1.6,0.2
				c-0.5,0.2-0.9,0.4-1.3,0.7c-0.4,0.3-0.7,0.6-0.9,1.1c-0.2,0.4-0.4,0.9-0.6,1.3c-0.1,0.3-0.2,0.5-0.4,0.6
				c-0.2,0.1-0.4,0.2-0.6,0.2c-0.1,0-0.1,0-0.2,0s-0.1,0-0.2,0l-1.4-0.2c0.1-1,0.4-1.9,0.8-2.7c0.4-0.8,0.9-1.4,1.6-2
				c0.6-0.5,1.4-0.9,2.2-1.2C665.1,545.4,666,545.2,666.9,545.2z"/>
			<path class="st0" d="M678.2,565.6h4.8v-15.2c0-0.5,0-0.9,0-1.4l-4,3.4c-0.1,0.1-0.2,0.1-0.3,0.2c-0.1,0-0.2,0.1-0.3,0.1
				c-0.2,0-0.3,0-0.4-0.1s-0.2-0.1-0.3-0.2l-0.9-1.2l6.6-5.7h2.2v20.2h4.4v2.1h-11.9L678.2,565.6L678.2,565.6z"/>
		</g>
	</g>
	<g>
		<path class="st1" d="M580.6,298.2c2.3,0,4.4-0.2,6.3-0.7c1.9-0.4,3.6-1,5.2-1.8c1.5-0.8,2.9-1.6,4.2-2.6c1.2-1,2.4-2.1,3.4-3.2
			l0.4,7.6c-0.7,1-1.6,1.9-2.7,2.8c-1,0.9-2.2,1.7-3.4,2.3c-1.2,0.7-2.5,1.2-3.9,1.6c-1.4,0.4-2.7,0.6-4,0.6c-0.2,0-0.4,0-0.6-0.1
			c-0.2,0-0.7-0.1-1.2-0.3c-0.6-0.1-1.4-0.3-2.5-0.5c-1.1-0.2-2.6-0.5-4.5-0.8v0.6c0,4.2-0.4,8-1.1,11.4c-0.7,3.4-1.7,6.3-2.9,8.7
			c-1.2,2.4-2.6,4.3-4.1,5.6c-1.6,1.3-3.2,2-4.8,2c-1.3,0-2.4-0.3-3.3-1c-0.9-0.6-1.6-1.5-2.1-2.6c-0.5-1.1-0.9-2.4-1.1-3.8
			c-0.2-1.5-0.3-3-0.3-4.6c0-0.9,0.1-2,0.4-3.2c0.3-1.2,0.7-2.4,1.2-3.7c0.5-1.3,1.1-2.6,1.7-4c0.6-1.4,1.3-2.7,1.9-3.9
			c1.6-3,3.3-6,5.3-9.2c0.3-1.7,0.5-3.5,0.8-5.3c0.3-1.8,0.6-3.6,1-5.3c0.4-1.7,1-3.6,1.9-5.5c0.9-1.9,1.8-3.5,2.7-4.6
			c1-1.2,2.1-2.1,3.5-2.8c1.4-0.7,3-1,4.9-1c1.4,0,2.7,0.2,3.9,0.6c1.2,0.4,2.3,1,3.2,1.8c0.9,0.9,1.6,2,2.2,3.3
			c0.5,1.3,0.8,3,0.8,5c0,2.1-0.2,3.7-0.7,4.9c-0.7,1.7-1.6,3.3-2.6,4.5c-1.1,1.3-2.4,2.5-3.9,3.6c-1.5,1.1-3.3,2.1-5.3,3
			L580.6,298.2z M564,319.9c0,0.2,0,0.5,0.1,0.9c0.1,0.4,0.2,0.8,0.4,1.2c0.2,0.4,0.4,0.8,0.7,1.1s0.7,0.5,1.1,0.5
			c0.4,0,0.7-0.2,1-0.6c0.3-0.4,0.5-1,0.6-1.7c0.2-0.7,0.3-1.5,0.3-2.4c0.1-0.9,0.1-1.8,0.2-2.7c0-0.9,0.1-1.8,0.1-2.7
			c0-0.9,0-1.7,0.1-2.4c0.1-1.2,0.1-2.3,0.2-3.1c0-0.9,0.1-1.6,0.1-2.1c0-0.6,0-1.2,0.1-1.7c-0.4,0.8-0.9,1.6-1.3,2.6
			c-0.4,1-0.8,2-1.2,3.1c-0.4,1.1-0.7,2.1-1,3.2s-0.6,2.1-0.8,3c-0.2,0.9-0.4,1.7-0.5,2.4C564,319.1,564,319.6,564,319.9z
			 M576.2,294.9c1.4-0.7,2.6-1.4,3.6-2.2c1-0.8,1.8-1.7,2.5-2.6c0.3,0,1-1.1,2.1-3.1c0.8-1.7,1.2-3,1.4-3.9c0.1-0.5,0.2-1.1,0.2-1.7
			c0-0.7,0-1.3-0.2-1.8c-0.2-0.6-0.5-1.1-0.9-1.5c-0.4-0.4-1-0.6-1.8-0.6c-0.8,0-1.6,0.2-2.2,0.7c-0.6,0.5-1.2,1.1-1.7,1.8
			c-0.5,0.8-0.9,1.7-1.2,2.8c-0.3,1.1-0.7,2.4-1.1,3.9c-0.4,1.6-0.7,3-0.8,4.3C576.3,292.3,576.2,293.6,576.2,294.9z"/>
		<path class="st1" d="M607.3,304.8c-2.1,0-4-0.4-5.6-1.2c-1.6-0.8-2.9-1.9-4-3.2s-1.9-2.9-2.4-4.6c-0.5-1.8-0.8-3.6-0.8-5.5
			c0-1.3,0.2-2.8,0.7-4.5c0.5-1.7,1-3.3,1.5-4.6c0.5-1.4,1.2-2.6,1.9-3.9c0.8-1.2,1.7-2.3,2.7-3.2c1-0.9,2.2-1.7,3.5-2.2
			c1.3-0.6,2.7-0.8,4.3-0.8c1.3,0,2.5,0.2,3.6,0.6c1.1,0.4,2.1,1,2.9,1.7c0.8,0.7,1.4,1.6,1.9,2.7s0.7,2.2,0.7,3.5
			c0,1.4-0.5,2.9-1.4,4.7c-0.9,1.7-2,3.2-3.2,4.4c-1.2,1.2-2.7,2.3-4.4,3.3c-1.7,1-3.6,1.7-5.5,2.2c0.3,0.6,0.7,1.1,1,1.5
			c0.3,0.4,0.7,0.7,1,0.9c0.3,0.2,0.7,0.4,1.1,0.5s0.8,0.1,1.2,0.1c1.4,0,2.8-0.3,4.3-0.8c1.5-0.5,3-1.2,4.4-2
			c1.4-0.8,2.8-1.7,4.1-2.6c1.3-0.9,2.4-1.8,3.3-2.7l4.4,4.5c-2,2.1-4.1,4-6.4,5.7c-1,0.7-2,1.4-3.2,2.1c-1.1,0.7-2.3,1.3-3.6,1.8
			c-1.2,0.5-2.5,1-3.9,1.3C610,304.7,608.6,304.8,607.3,304.8z M602.7,288.5c0.8,0,1.7-0.2,2.7-0.6c1-0.4,1.9-0.9,2.7-1.6
			c0.8-0.6,1.7-1.5,2.5-2.6s1.2-2,1.2-2.7c0-1-0.2-1.8-0.6-2.5c-0.4-0.6-0.8-1-1.4-1c-1,0-1.8,0.2-2.5,0.5c-0.7,0.4-1.3,0.8-1.8,1.4
			c-0.5,0.6-0.8,1.2-1.1,1.9c-0.3,0.7-0.6,1.6-1,2.7c-0.4,1.1-0.6,2-0.6,2.6C602.7,287.4,602.7,288,602.7,288.5z"/>
		<path class="st1" d="M621.6,297.7c0-1.5,0.1-3.2,0.3-5.2c0.2-2,0.4-4.1,0.7-6.5s0.6-4.5,0.9-6.4c0.3-1.9,0.7-3.5,1-4.9
			c0.3-1.1,0.7-1.9,1.5-2.6c0.7-0.7,1.7-1.1,2.9-1.1s2.1,0.4,2.6,1.1c0.5,0.8,0.7,1.8,0.7,3c0,0.3,0,0.8-0.1,1.4s-0.2,1.2-0.3,1.9
			c-0.1,0.7-0.2,1.4-0.3,2.2c-0.1,0.7-0.2,1.6-0.3,2.5s-0.2,1.7-0.3,2.1c-0.1,0.5-0.1,0.8-0.1,0.9h0.7c0.1-0.3,0.4-0.7,0.7-1.2
			c0.3-0.6,0.6-1.4,1-2.4c0.4-1,0.8-2,1.2-2.8c0.4-0.8,0.9-1.6,1.3-2.3c0.4-0.7,0.7-1.4,1.1-2c0.3-0.6,0.6-1,0.7-1.3
			c0.7-1.2,1.6-2.1,2.5-2.5c0.9-0.5,2-0.7,3.1-0.7c1.1,0,2.1,0.5,2.7,1.4c0.7,1,1,2.3,1,4c0,0.3-0.1,0.7-0.2,1.3
			c-0.1,0.6-0.2,1.3-0.4,2.1s-0.3,1.9-0.5,3.2c-0.2,1.3-0.4,2.5-0.5,3.5c-0.2,1-0.3,2-0.4,3.1c-0.1,1-0.2,1.9-0.2,2.8
			c0,1.4,0.2,2.6,0.5,3.5s0.9,1.4,1.7,1.4c0.3,0,0.7-0.1,1.2-0.3c0.8-0.3,1.2-0.5,1.4-0.7c1-0.8,1.5-1.2,1.6-1.1
			c0.1,0,0.8-0.4,2.3-1.4c1.8-1.2,4-2.6,6.5-4.3l0,7.7l-1.7,1.3c-0.1,0.1-1.2,0.7-3.2,1.8c-2.9,1.6-4.7,2.5-5.4,2.8
			c-1.8,0.8-2.9,1.3-3.3,1.4c-1.1,0.4-2.3,0.5-3.6,0.5c-1.3,0-2.3-0.9-3.2-2.7s-1.3-4.5-1.3-8c0-1.4,0.1-2.8,0.3-4.4
			c0.2-1.6,0.4-3.3,0.7-5.1h-0.5l-9,17.8c-0.5,1-1,1.6-1.5,1.9c-0.6,0.3-1.2,0.5-2,0.5c-0.9,0-1.7-0.2-2.3-0.6
			c-0.6-0.4-1-0.9-1.3-1.6s-0.5-1.4-0.6-2.3C621.6,299.5,621.6,298.6,621.6,297.7z"/>
	</g>
	<g>
		<path class="st1" d="M536.3,315.1c-3.4,0-6.5-0.7-9.2-2.1c-2.7-1.4-5.1-3.3-7-5.8s-3.4-5.4-4.4-8.9s-1.5-7.2-1.5-11.3
			c0-2.2,0.2-4.5,0.5-6.8c0.3-2.3,0.8-4.6,1.5-6.9c0.7-2.3,1.5-4.6,2.4-6.8c1-2.2,2.1-4.3,3.4-6.3c1.3-2,2.7-3.8,4.3-5.5
			c1.6-1.7,3.4-3.1,5.3-4.3c1.9-1.2,4-2.1,6.2-2.8c2.2-0.7,4.6-1,7.2-1c3.4,0,6.5,0.6,9.2,1.9c2.7,1.2,5,3,6.9,5.2
			c1.9,2.2,3.3,4.9,4.3,8c1,3.1,1.5,6.5,1.5,10.2c0,3.1-0.3,6.2-0.9,9.5c-0.6,3.3-1.5,6.6-2.7,9.8c-1.2,3.2-2.6,6.2-4.4,9.1
			c-1.7,2.9-3.7,5.4-6,7.6c-2.3,2.2-4.8,3.9-7.6,5.2C542.6,314.5,539.6,315.1,536.3,315.1z M537.1,307.2c1.8,0,3.5-0.4,5.1-1.1
			c1.6-0.7,3-1.7,4.3-2.9c1.3-1.2,2.5-2.7,3.6-4.4c1.1-1.7,2.1-3.5,2.9-5.4c0.8-1.9,1.6-3.9,2.2-5.9c0.6-2,1.1-4.1,1.6-6.1
			c0.4-2,0.7-3.9,0.9-5.8c0.2-1.9,0.3-3.5,0.3-5.1c0-2.2-0.2-4.3-0.7-6.2c-0.5-1.9-1.2-3.6-2.2-5.1c-1-1.4-2.2-2.6-3.7-3.4
			c-1.5-0.8-3.2-1.2-5.2-1.2c-2.1,0-4.1,0.5-6.1,1.5c-2,1-3.8,2.4-5.6,4.1c-1.7,1.7-3.3,3.8-4.8,6c-1.4,2.3-2.7,4.7-3.7,7.2
			c-1,2.5-1.8,5.1-2.4,7.7c-0.6,2.6-0.9,5.1-0.9,7.5c0,2.6,0.3,5,1,7.3c0.7,2.2,1.6,4.2,2.8,5.8s2.7,2.9,4.5,3.9
			C532.9,306.7,534.9,307.2,537.1,307.2z"/>
	</g>
	<g>
		<g>
			<path class="st2" d="M556.2,374.3c-1.9,1.9-4,3.7-6.3,5.1c-2.3,1.5-4.8,2.7-7.3,3.7c-2.5,1-5.1,1.7-7.8,2.2
				c-2.6,0.5-5.2,0.7-7.6,0.8c-2.7,0-5.2-0.3-7.5-0.9c-2.4-0.6-4.4-1.6-6.2-2.8c-1.8-1.3-3.2-2.9-4.2-4.8c-1-2-1.5-4.3-1.5-6.9
				c0-2.3,0.4-4.6,1.2-6.7c0.8-2.1,2.1-4.1,3.8-5.7c1.7-1.7,4-3,6.7-4c2.7-1,6-1.6,9.7-1.7c-2.5,0-4.7-0.4-6.5-1.1s-3.4-1.7-4.6-2.9
				c-1.2-1.2-2.1-2.7-2.7-4.3c-0.6-1.6-0.9-3.4-0.9-5.2c0-1.7,0.3-3.3,0.9-4.7c0.6-1.4,1.4-2.7,2.4-3.8c1-1.1,2.3-2.1,3.7-3
				s2.9-1.5,4.6-2.1c1.6-0.6,3.4-1,5.2-1.3c1.8-0.3,3.6-0.4,5.5-0.4c2.7,0,5.3,0.3,7.9,0.9c2.6,0.6,4.9,1.5,6.9,2.6
				c2,1.2,3.6,2.6,4.8,4.4c1.2,1.7,1.8,3.8,1.8,6.1c0,0.8-0.3,1.6-0.8,2.4c-0.6,0.8-1.2,1.5-2,2.1c-0.8,0.6-1.6,1.1-2.5,1.5
				c-0.9,0.4-1.6,0.6-2.2,0.6c-0.5,0-0.7-0.4-0.7-1.3c0-0.8,0.1-1.7,0.4-2.9c0.2-1.2,0.6-2.7,1.2-4.5c-0.6-0.5-1.5-1-2.7-1.5
				c-1.2-0.5-2.5-1-4.1-1.4c-1.5-0.4-3.1-0.7-4.8-1s-3.4-0.4-5-0.4c-1.5,0-3,0.1-4.4,0.4c-1.4,0.3-2.6,0.7-3.7,1.4s-1.9,1.5-2.6,2.5
				c-0.6,1-0.9,2.3-0.9,3.8c0,1.2,0.2,2.3,0.7,3.1c0.5,0.8,1.1,1.6,1.8,2.2c0.8,0.6,1.6,1.1,2.6,1.5c1,0.4,2,0.7,3,1
				c1,0.3,2.1,0.6,3.1,0.9c1,0.3,1.9,0.6,2.8,1c0.8,0.4,1.6,0.8,2.1,1.3c0.6,0.5,1,1.2,1.1,1.9c0,0.5,0.1,1,0.1,1.5
				c0,0.5,0.1,1,0.1,1.5c0,1.4-0.2,2.4-0.7,3c-0.5,0.6-1.4,0.9-2.9,0.9c-0.6,0-1.4,0-2.2-0.1c-0.9-0.1-1.7-0.1-2.6-0.1
				c-1.8,0-3.6,0.2-5.3,0.7c-1.7,0.5-3.3,1.1-4.7,2s-2.5,2-3.3,3.3c-0.8,1.3-1.3,2.9-1.3,4.6c0,1.7,0.2,3.1,0.7,4.2
				c0.5,1.1,1.1,2,2,2.7c0.8,0.7,1.8,1.2,3,1.5c1.1,0.3,2.4,0.4,3.7,0.4c1.6,0,3.3-0.2,5.1-0.5c1.8-0.3,3.6-0.7,5.4-1.3
				c1.8-0.5,3.5-1.2,5.2-1.9c1.7-0.7,3.3-1.5,4.7-2.4c1.5-0.9,2.7-1.8,3.8-2.7c1.1-0.9,2-1.9,2.6-2.9L556.2,374.3z"/>
			<path class="st2" d="M593,375.6c-1.6,1.3-3.2,2.5-4.8,3.6c-0.7,0.4-1.4,0.9-2.1,1.3c-0.7,0.4-1.5,0.8-2.2,1.1s-1.4,0.6-2.1,0.8
				c-0.7,0.2-1.3,0.3-1.8,0.3c-0.3,0-0.8-0.1-1.5-0.2c-0.6-0.1-1.3-0.4-2.1-0.9c-0.8-0.4-1.5-1.1-2.3-1.9c-0.8-0.8-1.4-2-2-3.4
				c-0.8,0.9-1.7,1.7-2.7,2.5c-0.9,0.8-1.9,1.5-3,2.1c-1,0.6-2,1-3.1,1.4c-1,0.4-2.1,0.5-3.1,0.5c-1.5,0-2.8-0.3-3.9-0.9
				c-1.1-0.6-2-1.4-2.7-2.5c-0.7-1-1.3-2.2-1.6-3.5c-0.4-1.3-0.5-2.6-0.5-4c0-1.5,0.2-3,0.6-4.5c0.4-1.5,0.9-3,1.6-4.4
				c0.7-1.4,1.5-2.9,2.4-4.5c0.9-1.6,2-3,3.5-4.2c1.5-1.3,2.9-2.2,4.5-2.9c1.5-0.6,3.2-1.1,4.9-1.2c0.1-3,0.4-5.6,0.9-7.8
				c0.6-2.3,1.2-4.7,1.8-7.3c0.6-2.6,1.5-5,2.5-7.2c1-2.2,2.1-4.1,3.4-5.7s2.5-2.9,3.9-3.8c1.4-0.9,2.8-1.4,4.3-1.4
				c1.1,0,2,0.3,2.7,0.8c0.8,0.6,1.4,1.3,1.8,2.2c0.5,0.9,0.8,2,1,3.2s0.3,2.5,0.3,3.8c0,0.8,0,1.7,0,2.5c-0.1,3.3-0.6,6.3-1.5,9.2
				c-0.9,2.8-1.9,5.6-2.8,8.4c-0.9,2.8-2,5.5-3.3,8.2c-2,4.1-3.3,6.9-3.8,8.4c-0.1,0.3-0.2,0.7-0.4,1.2s-0.2,1-0.3,1.5
				c-0.1,0.5-0.2,1.1-0.3,1.7c-0.1,0.6-0.1,1.1-0.1,1.6c0,0.7,0,1.3,0.1,1.9c0.1,0.6,0.2,1.1,0.4,1.6c0.2,0.5,0.4,0.8,0.7,1.1
				c0.3,0.3,0.7,0.4,1.1,0.4c0.4,0,0.9-0.1,1.4-0.3c0.5-0.2,1.1-0.4,1.6-0.7c0.6-0.3,1.1-0.6,1.7-1c0.6-0.4,1.1-0.8,1.7-1.2
				c1.3-0.9,2.6-2,3.9-3.1L593,375.6z M569.3,355.4c-1.5,0.7-2.9,1.7-4,2.9c-1.2,1.2-2.2,2.8-2.9,4.8c-0.8,2-1.4,3.7-1.8,5.1
				c-0.4,1.4-0.6,2.7-0.6,3.9c0,0.4,0.1,0.7,0.2,1.1s0.3,0.7,0.6,1c0.3,0.3,0.7,0.5,1.2,0.7c0.5,0.2,1.2,0.3,2,0.3
				c0.4,0,0.8-0.1,1.2-0.3c0.4-0.2,0.8-0.4,1.1-0.7c0.4-0.3,0.7-0.6,1-1c0.3-0.4,0.6-0.8,0.9-1.2c0.6-0.9,1.2-2,1.7-3.2
				c-0.1-0.3-0.1-0.8-0.2-1.5c0-0.7-0.1-1.8-0.1-3.2c0-1.4,0-2.6-0.1-3.5s0-1.8-0.1-2.5c0-0.8,0-1.4-0.1-1.9
				C569.3,355.6,569.3,355.4,569.3,355.4z M585.4,332c0.1-1.6,0.2-2.9,0.2-3.8c0-1.2-0.1-2.1-0.3-2.6c-0.2-0.5-0.5-0.7-1-0.7
				c-0.7,0-1.4,0.5-2,1.4c-0.6,0.9-1.1,2.1-1.5,3.6c-0.4,1.5-0.8,3-1.2,4.8c-0.4,1.7-0.7,3.4-0.9,5c-0.2,1.6-0.4,3.1-0.5,4.4
				c-0.1,1.3-0.2,2.3-0.3,2.8c-0.1,1.1-0.2,2.2-0.2,3.3c-0.1,1.1-0.1,2-0.1,2.9c0,0.9,0,1.6,0,2.3c0,0.6,0,1.1,0,1.5v0.3
				c1.3-3,2.4-6.1,3.5-9.1c0.4-1.3,0.9-2.6,1.3-4s0.9-2.8,1.3-4.2c0.4-1.4,0.8-2.7,1.1-4.1C585.1,334.5,585.3,333.2,585.4,332z"/>
			<path class="st2" d="M616.8,350.8c0,0.6,0,1.5-0.1,2.5c0,1.1-0.2,2.2-0.4,3.5c-0.2,1.3-0.5,2.8-0.8,4.6c-0.3,1.8-0.6,3.3-0.8,4.4
				c-0.2,1.2-0.4,2.2-0.6,3.1c-0.2,0.9-0.2,1.5-0.2,1.9c0,0.6,0,1.2,0,1.8c0,0.5,0.1,1,0.2,1.4c0.1,0.4,0.3,0.7,0.5,0.9
				c0.2,0.2,0.5,0.3,0.9,0.3c0.5,0,1.1-0.1,1.8-0.4c0.7-0.3,1.5-0.6,2.3-1c0.8-0.4,1.6-0.9,2.5-1.4c0.8-0.5,1.6-1.1,2.4-1.7
				c0.8-0.6,1.5-1.2,2.1-1.8c0.6-0.6,1.1-1.1,1.5-1.6c0,0.8,0,1.4,0,2.1c0,0.6,0,1.2,0,1.8c0,0.6,0,1.1,0,1.7c0,0.6,0,1.3,0,2
				c-0.5,0.5-1.1,1-1.9,1.6c-0.7,0.6-1.6,1.1-2.5,1.7c-0.9,0.6-1.9,1.1-2.9,1.6c-1,0.5-2,1-3.1,1.4s-2,0.7-3,0.9
				c-1,0.2-1.9,0.4-2.7,0.4c-0.9,0-1.6-0.2-2.2-0.5c-0.6-0.3-1.1-0.8-1.6-1.4c-0.4-0.6-0.8-1.3-1.1-2.2s-0.6-1.8-0.8-2.8
				c-0.8,1.1-1.7,2-2.6,2.9s-1.8,1.7-2.8,2.3c-0.9,0.7-1.9,1.2-2.9,1.5c-1,0.4-1.9,0.6-2.8,0.6c-0.8,0-1.5-0.1-2.1-0.4
				s-1.2-0.7-1.8-1.3c-0.5-0.6-0.9-1.4-1.2-2.3c-0.3-1-0.4-2.2-0.4-3.6c0-3,0.2-5.3,0.7-6.9c0.7-2.3,1.3-5.8,1.9-10.4
				c0.1-0.3,0.1-0.8,0.3-1.4s0.3-1.2,0.5-1.9c0.2-0.7,0.5-1.4,0.8-2.1c0.3-0.7,0.7-1.3,1.1-1.9c0.4-0.6,0.9-1,1.5-1.4
				c0.6-0.4,1.2-0.6,2-0.6c1.2,0.1,2.1,0.3,2.6,0.6c0.5,0.3,0.8,0.7,0.8,1.2c-0.2,1.5-0.4,3-0.7,4.4c-0.3,1.4-0.5,2.9-0.8,4.3
				c-0.3,1.4-0.5,3-0.9,4.8c-0.3,1.8-0.6,3.2-0.8,4.2c-0.2,1.1-0.3,1.9-0.5,2.6c-0.1,0.7-0.2,1-0.2,1c0,0.4,0,0.8,0.1,1.2
				c0.1,0.4,0.2,0.7,0.4,1c0.2,0.3,0.4,0.6,0.6,0.7c0.3,0.2,0.6,0.3,0.9,0.3c0.5,0,1-0.1,1.5-0.4c0.5-0.3,1-0.7,1.5-1.2
				c0.5-0.5,0.9-1.1,1.3-1.8c0.4-0.7,0.6-1.6,0.8-2.5l3.8-18.7c0.1-0.5,0.6-1,1.3-1.4s1.7-0.6,2.7-0.6c1.1,0,2,0.2,2.7,0.6
				C616.5,349.6,616.8,350.2,616.8,350.8z"/>
			<path class="st2" d="M635,382.7c-2.1,0-4-0.4-5.6-1.2c-1.6-0.8-2.9-1.8-4-3.1c-1.1-1.3-1.9-2.8-2.5-4.5c-0.6-1.7-0.8-3.5-0.8-5.3
				c0-1.3,0.2-2.9,0.7-4.8c0.5-1.9,1-3.5,1.5-4.8c0.5-1.4,1.2-2.7,2-4s1.7-2.4,2.8-3.3c1-0.9,2.2-1.7,3.5-2.3
				c1.3-0.6,2.7-0.8,4.2-0.8c1.4,0,2.7,0.2,3.8,0.6s2.2,1,3,1.7c0.8,0.7,1.5,1.5,2,2.5c0.5,1,0.7,2,0.7,3.1c0,0.8-0.1,1.5-0.3,2.3
				c-0.2,0.8-0.7,1.6-1.3,2.7c-0.6,1-1.3,1.7-1.9,2.1c-0.6,0.4-1.3,0.5-2.1,0.5c-1.2,0-1.9-0.3-2.2-0.9c-0.6-0.9-0.7-1.7-0.5-2.4
				c0.1-0.4,0.3-1.2,0.6-2.5c0-0.2,0.1-0.6,0-1.2c0-0.5-0.1-1-0.2-1.4c-0.1-0.4-0.4-0.5-0.8-0.5c-0.9,0-1.7,0.2-2.4,0.7
				c-0.7,0.4-1.2,1-1.7,1.7c-0.5,0.7-0.9,1.7-1.4,3c-0.5,1.3-0.8,2.4-1,3.3c-0.2,0.9-0.3,1.7-0.4,2.6s-0.1,1.5-0.1,2
				c0,0.8,0.1,1.7,0.2,2.6c0.1,0.9,0.4,1.7,0.9,2.4c0.4,0.7,1,1.4,1.7,1.9s1.6,0.7,2.7,0.7c1.1,0,2.3-0.3,3.6-1
				c1.3-0.7,2.7-1.5,4-2.6c1.3-1,2.6-2.2,3.8-3.4c1.2-1.2,2.2-2.4,3.1-3.5l2.4,4c-1.7,2.4-3.6,4.6-5.5,6.5c-0.8,0.8-1.8,1.6-2.8,2.4
				c-1,0.8-2,1.5-3.1,2.1c-1.1,0.6-2.2,1.1-3.4,1.5C637.4,382.5,636.2,382.7,635,382.7z"/>
			<path class="st2" d="M686.2,374.2c-0.5,0.7-1.2,1.6-2.1,2.6c-0.9,1-1.9,1.9-3,2.8c-1.1,0.9-2.3,1.7-3.5,2.3
				c-1.3,0.6-2.5,0.9-3.8,0.9c-1.5,0-2.8-0.5-3.8-1.4c-1-1-1.9-2.4-2.6-4.2c-0.6,0.6-1.2,1.3-2,1.9c-0.8,0.7-1.7,1.2-2.6,1.8
				c-1,0.5-2,1-3,1.3s-2.1,0.5-3.1,0.5c-1.1,0-2.2-0.2-3.2-0.7c-1-0.4-2-1.1-2.8-1.9c-0.8-0.8-1.4-1.9-1.9-3.1s-0.7-2.6-0.7-4.1
				c0-1.7,0.2-3.5,0.7-5.3c0.5-1.8,1.2-3.7,2.2-5.8c1-2.1,2.1-3.9,3.3-5.4c1.2-1.5,2.4-2.9,3.8-4c1.4-1.1,2.8-2,4.4-2.7
				c1.5-0.7,3.1-1,4.7-1c0.5,0,0.9,0.1,1.2,0.3c0.3,0.2,0.5,0.4,0.7,0.7c0.2,0.3,0.4,0.5,0.6,0.8c0.2,0.3,0.4,0.4,0.7,0.6
				c0.3,0.1,0.6,0.2,0.8,0.2c0.3,0,0.6,0.1,0.9,0.1c0.3,0,0.5,0,0.8,0c0.3,0,0.5,0,0.8,0c0.3,0,0.7,0,1,0.1c0.3,0.1,0.6,0.2,0.8,0.4
				c0.2,0.2,0.4,0.6,0.5,1c0.1,0.4,0.2,1,0.2,1.7c0,1.1-0.1,2.3-0.3,3.6c-0.2,1.3-0.5,2.7-0.8,4.1c-0.3,1.4-0.6,3-1,4.8
				c-0.4,1.8-0.6,3.3-0.6,4.5c0,1,0.1,1.9,0.3,2.5c0.2,0.6,0.6,0.9,1.2,0.9c0.5,0,1-0.1,1.5-0.4s1.1-0.5,1.6-0.9
				c0.5-0.4,1.1-0.8,1.6-1.3c0.5-0.5,1-1,1.5-1.5c1.1-1.2,2.2-2.6,3.4-4.1L686.2,374.2z M656.8,371.5c0,0.6,0,1.2,0.1,1.7
				s0.2,1,0.4,1.5c0.2,0.4,0.5,0.8,0.8,1.1s0.8,0.4,1.3,0.4c0.8,0,1.6-0.4,2.3-1.1s1.3-1.6,1.8-2.7c0.5-1,0.9-2.1,1.2-3.2
				c0.3-1.1,0.5-2,0.6-2.8l2.6-11.1c-0.9,0-1.8,0.2-2.7,0.7c-0.9,0.5-1.7,1.1-2.5,1.9c-0.8,0.8-1.5,1.7-2.2,2.7
				c-0.7,1-1.3,2.3-2,3.8c-0.6,1.5-1.1,2.8-1.4,3.9C656.9,369.5,656.8,370.5,656.8,371.5z"/>
			<path class="st2" d="M711.9,375c-2.2,1.3-4.2,2.4-5.9,3.4c-1.7,1-3.2,1.8-4.6,2.4c-1.3,0.6-2.5,1.1-3.6,1.4c-1,0.3-2,0.5-2.8,0.5
				c-1.7,0-3.2-0.5-4.6-1.6c-1.3-1-2.4-2.6-3.3-4.5c-0.9-2-1.6-4.4-2-7.2c-0.4-2.8-0.7-6-0.7-9.5c0-1.4,0.1-2.8,0.2-4.4
				c0.1-1.6,0.3-3.1,0.5-4.6c-0.7-0.1-1.2-0.2-1.6-0.3c-0.4-0.1-0.8-0.2-1.2-0.3c-0.4-0.1-1-0.2-1.6-0.3c-0.7-0.1-1.6-0.2-2.8-0.4
				c-0.6-0.1-1-0.2-1.3-0.4c-0.3-0.2-0.5-0.5-0.7-0.8s-0.2-0.6-0.2-0.9c0-0.3,0-0.6,0-0.8c0-0.4,0.2-0.6,0.7-0.8
				c0.4-0.2,1-0.3,1.7-0.4s1.5-0.1,2.3-0.2c0.8,0,1.6,0,2.4,0c0.8,0,1.5,0,2.1,0.1c0.6,0,1,0,1.3-0.1c0.6-3.1,1.4-6.1,2.3-8.9
				s2-5.4,3.2-7.7c1.2-2.2,2.5-4,3.8-5.4c1.4-1.4,2.8-2,4.4-2c1,0,1.9,0.3,2.7,0.8c0.8,0.5,1.5,1.3,2.1,2.2s1,2,1.3,3.2
				c0.3,1.2,0.5,2.5,0.5,3.8c0,1.1-0.2,2.3-0.5,3.5c-0.3,1.2-0.8,2.5-1.3,3.7c-0.5,1.3-1.2,2.5-1.9,3.8c-0.7,1.3-1.5,2.6-2.3,3.9
				c0.2-0.1,0.5-0.1,1,0c0.5,0,1,0.1,1.7,0.1c0.6,0,1.3,0,2,0.1c0.7,0,1.4,0,2.1,0.1c0.7,0,1.3,0,1.9,0.1c0.6,0,1.1,0,1.5,0.1
				c0.5,0,0.8,0.3,1,0.8s0.3,1.1,0.3,1.8c0,0.9-0.2,1.5-0.7,2.1c-0.5,0.5-1,0.8-1.5,0.8l-13.2,0c-0.7,0.9-1.3,1.8-2,2.7
				c-0.7,0.9-1.3,1.7-1.9,2.4c-0.1,1.4-0.2,2.8-0.2,4.2c0,0.6,0,1.2-0.1,1.8c0,0.6,0,1.2-0.1,1.9c0,0.6,0,1.2-0.1,1.8
				c0,0.6,0,1.1,0,1.6c0,1.2,0.1,2.3,0.3,3.1c0.2,0.8,0.6,1.5,1,2.1c0.4,0.5,1,0.9,1.6,1.2c0.6,0.2,1.3,0.4,2.1,0.4
				c0.5,0,1.1-0.1,1.8-0.3c0.7-0.2,1.5-0.5,2.4-0.9c0.9-0.4,1.8-0.9,2.7-1.4c0.9-0.5,1.9-1.1,2.8-1.8c0.9-0.7,1.8-1.3,2.7-2.1
				s1.6-1.5,2.3-2.2L711.9,375z M700.9,331.6c0-0.2,0-0.5-0.1-0.8c0-0.3-0.1-0.6-0.2-0.9c-0.1-0.3-0.3-0.5-0.5-0.7
				c-0.2-0.2-0.6-0.3-1-0.3c-0.6,0-1.2,0.5-1.8,1.6c-0.6,1-1.2,2.4-1.8,4c-0.6,1.6-1.1,3.4-1.6,5.4c-0.5,1.9-0.9,3.8-1.4,5.7
				c0.3,0,0.7,0.1,1,0.1c0.3,0,0.7,0.1,1.1,0.1c0.7-1.2,1.4-2.4,2.1-3.7c0.7-1.3,1.4-2.7,2-4c0.6-1.3,1.1-2.5,1.5-3.6
				C700.7,333.3,700.9,332.4,700.9,331.6z"/>
			<path class="st2" d="M730.1,375.4c-0.8,0.8-1.8,1.6-3.1,2.4c-1.2,0.9-2.5,1.6-4,2.4c-1.4,0.7-2.9,1.3-4.3,1.8
				c-1.5,0.5-2.9,0.7-4.2,0.7c-1.2,0-2.2-0.2-3-0.5c-0.8-0.3-1.5-0.8-2-1.4s-0.9-1.3-1.1-2.2c-0.2-0.9-0.3-1.8-0.3-2.8
				c0-1.4,0.2-3.1,0.5-5c0.7-4,1.1-6.2,1.3-6.7c0.3-1,0.9-3.1,1.9-6.5c0.9-2.7,1.4-4.5,1.6-5.3c0.1-0.6,0.4-1.1,0.9-1.6
				c0.5-0.4,1-0.8,1.6-1c0.6-0.3,1.2-0.5,1.9-0.6c0.6-0.1,1.2-0.2,1.7-0.2c0.9,0,1.6,0.2,1.9,0.5c0.3,0.4,0.5,0.8,0.5,1.4
				c0,0.5-0.1,1.2-0.4,2.1c-0.2,0.9-0.5,2-0.8,3.1c-0.3,1.2-0.7,2.7-1.3,4.5s-1,3.4-1.2,4.7c-0.2,1.3-0.5,2.6-0.8,3.9
				c-0.3,1.3-0.5,2.5-0.5,3.5c0,1,0.1,1.8,0.3,2.4c0.2,0.6,0.7,0.9,1.4,0.9c0.8,0,1.7-0.3,2.7-0.9c1-0.6,2-1.3,3-2.1
				c1-0.8,2-1.7,3-2.5c1-0.9,1.9-1.6,2.6-2.2L730.1,375.4z M714.8,339.4c0-0.5,0.1-1.1,0.3-1.8c0.2-0.7,0.6-1.3,1.1-1.9
				c0.5-0.6,1.2-1.1,2.1-1.5c0.9-0.4,1.9-0.6,3.2-0.6c0.8,0,1.6,0.1,2.3,0.3c0.7,0.2,1.3,0.5,1.9,0.8c0.5,0.4,0.9,0.9,1.2,1.5
				c0.3,0.6,0.5,1.4,0.5,2.2c0,0.8-0.1,1.5-0.4,2.3c-0.3,0.7-0.7,1.4-1.2,2c-0.5,0.6-1.2,1-2.1,1.4c-0.8,0.4-1.8,0.5-3,0.5
				c-2,0-3.5-0.5-4.5-1.4C715.2,342.3,714.8,341,714.8,339.4z"/>
			<path class="st2" d="M748.7,356.3c0.7,1.3,1.2,2.7,1.5,4.2c0.3,1.5,0.5,3.1,0.5,5c0,1.3-0.1,2.7-0.4,4.1c-0.3,1.4-0.7,2.7-1.3,4
				c-0.6,1.3-1.2,2.5-2.1,3.6c-0.8,1.1-1.7,2.1-2.8,2.9c-1,0.8-2.2,1.5-3.4,2c-1.2,0.5-2.5,0.7-3.9,0.7c-2,0-3.7-0.4-5.2-1.3
				c-1.4-0.9-2.6-2-3.5-3.4s-1.6-3-2-4.8c-0.4-1.8-0.6-3.6-0.6-5.4c0-3,0.4-5.6,1.1-7.8c0.8-2.2,1.8-4.1,3.2-5.7s3.1-2.9,5.2-3.8
				s4.3-1.4,6.9-1.4c2.2,0,4.2,0.3,6.1,1c1.9,0.7,3.7,1.6,5.3,2.7c1.7,1.1,3.2,2.6,4.6,4.3c1.4,1.7,2.8,3.3,4,4.9l-0.6,4.8
				c-0.6-0.8-1.5-1.7-2.5-2.7c-1.1-1-2.2-2-3.3-3.2s-2.3-2.2-3.5-3c-1.1-0.8-2.1-1.5-2.9-2L748.7,356.3z M738.1,376.1
				c0.8,0,1.5-0.4,2.3-1.2c0.7-0.8,1.4-1.8,1.9-3s1-2.6,1.3-4.4s0.5-3.2,0.5-4.5c0-1-0.1-2-0.2-2.9c-0.2-0.9-0.4-1.7-0.7-2.3
				c-0.3-0.7-0.7-1.2-1.2-1.6c-0.5-0.4-1.1-0.6-1.8-0.6c-0.9,0-1.8,0.4-2.7,1.2c-0.8,0.8-1.6,1.8-2.2,3.1c-0.6,1.2-1.1,2.6-1.5,4.1
				c-0.4,1.5-0.5,3.2-0.5,5.1c0,1,0.1,1.9,0.3,2.7s0.5,1.6,0.9,2.2s0.9,1.1,1.5,1.5C736.5,375.9,737.2,376.1,738.1,376.1z"/>
			<path class="st2" d="M757.2,375.5c0-1.5,0.1-3.2,0.3-5.2c0.2-2,0.4-4.1,0.7-6.5s0.6-4.5,0.9-6.4c0.3-1.9,0.7-3.5,1-4.9
				c0.2-1.1,0.7-1.9,1.5-2.6c0.7-0.7,1.7-1.1,2.9-1.1c1.2,0,2.1,0.4,2.6,1.1c0.5,0.8,0.7,1.8,0.7,3c0,0.3,0,0.8-0.1,1.4
				s-0.2,1.2-0.3,1.9c-0.1,0.7-0.2,1.4-0.3,2.2c-0.1,0.7-0.2,1.6-0.3,2.5c-0.1,0.9-0.2,1.7-0.3,2.1c-0.1,0.5-0.1,0.8-0.1,0.9h0.7
				c0.1-0.3,0.4-0.7,0.7-1.2c0.3-0.6,0.6-1.4,1-2.4c0.4-1,0.8-2,1.2-2.8c0.4-0.8,0.9-1.6,1.2-2.3c0.4-0.7,0.7-1.4,1.1-2
				c0.3-0.6,0.6-1,0.7-1.3c0.7-1.2,1.6-2.1,2.5-2.5c0.9-0.5,2-0.7,3.1-0.7c1.1,0,2.1,0.5,2.7,1.4c0.7,1,1,2.3,1,4
				c0,0.3-0.1,0.7-0.2,1.3c-0.1,0.6-0.2,1.3-0.4,2.1s-0.3,1.9-0.5,3.2c-0.2,1.3-0.4,2.5-0.5,3.5c-0.2,1-0.3,2-0.4,3
				c-0.1,1-0.2,1.9-0.2,2.8c0,1.4,0.2,2.6,0.5,3.5c0.4,0.9,0.9,1.4,1.7,1.4c0.3,0,0.7-0.1,1.2-0.3c0.8-0.3,1.2-0.5,1.4-0.7
				c1-0.8,1.5-1.2,1.6-1.1c0.1,0,0.8-0.4,2.3-1.4c1.8-1.2,4-2.6,6.5-4.3l0,7.7l-1.7,1.3c-0.1,0.1-1.2,0.7-3.2,1.8
				c-2.9,1.6-4.7,2.5-5.4,2.8c-1.8,0.8-2.9,1.3-3.3,1.4c-1.1,0.4-2.3,0.5-3.6,0.5c-1.3,0-2.3-0.9-3.2-2.7c-0.9-1.8-1.3-4.5-1.3-8
				c0-1.4,0.1-2.8,0.3-4.4c0.2-1.6,0.4-3.3,0.7-5.1h-0.5l-9,17.8c-0.5,1-1,1.6-1.5,1.9c-0.6,0.3-1.2,0.5-2,0.5
				c-0.9,0-1.7-0.2-2.3-0.6c-0.6-0.4-1-0.9-1.3-1.6c-0.3-0.7-0.5-1.4-0.6-2.3C757.3,377.3,757.2,376.4,757.2,375.5z"/>
		</g>
	</g>
	<g>
		<g>
			<path class="st2" d="M530.4,400.4c0,0.8-0.2,2-0.6,3.5c-0.4,1.5-0.9,3.3-1.4,5.3c-0.6,2-1.2,4.2-1.9,6.6
				c-0.7,2.4-1.3,4.8-1.9,7.2c-0.6,2.4-1,4.8-1.4,7.2c-0.4,2.4-0.6,4.5-0.6,6.6c0,1.6,0.1,3.2,0.3,4.6c0.2,1.4,0.6,2.7,1,3.7
				c0.5,1.1,1,1.9,1.7,2.5c0.7,0.6,1.5,0.9,2.4,0.9c0.9,0,1.8-0.3,2.7-0.8c0.9-0.6,1.7-1.3,2.6-2.3c0.8-1,1.6-2.1,2.4-3.5
				c0.8-1.3,1.5-2.8,2.2-4.4c0.7-1.6,1.4-3.2,2-5c0.6-1.7,1.2-3.5,1.7-5.2c1.9-6.2,3.6-13.3,5.1-21.2c0.3-1.3,0.6-2.4,1-3.2
				c0.4-0.9,0.8-1.5,1.4-2.1c0.5-0.5,1.1-0.9,1.9-1.1c0.7-0.2,1.5-0.3,2.4-0.3c0.9,0,1.6,0.1,2.1,0.2c0.6,0.2,1,0.4,1.3,0.7
				c0.3,0.3,0.6,0.6,0.7,1c0.1,0.4,0.2,0.8,0.2,1.3c0,0.2-0.1,0.8-0.3,2c-0.2,1.2-0.4,2.7-0.7,4.5c-0.3,1.8-0.6,3.9-0.9,6.3
				c-0.3,2.3-0.6,4.7-0.9,7.2c-0.3,2.5-0.5,4.9-0.7,7.3c-0.2,2.4-0.3,4.6-0.3,6.6c0,2.1,0.1,3.9,0.2,5.6c0.1,1.7,0.4,3.1,0.8,4.2
				c0.3,1.2,0.8,2.1,1.4,2.7c0.6,0.6,1.3,0.9,2.1,0.9c1.5,0,2.8-0.6,4-1.7c1.2-1.1,2.3-2.7,3.3-4.6c1-1.9,1.9-4.1,2.7-6.6
				c0.8-2.5,1.6-5.8,2.3-9.8c0.8-4,1.1-6.1,1.1-6.1c0,0,0.3-2.2,0.8-6.6c0.5-4.4,0.9-7.4,1.1-9.1c0.2-1.6,0.3-2.9,0.5-3.8
				c0.1-1,0.3-1.8,0.7-2.4c0.4-0.6,0.9-1.1,1.5-1.4c0.6-0.3,1.3-0.6,2-0.7c0.8-0.1,1.5-0.2,2.3-0.2c0.6,0,1.2,0.1,1.7,0.2
				c0.5,0.1,1,0.3,1.3,0.6c0.4,0.3,0.7,0.7,0.9,1.1c0.2,0.5,0.3,1.1,0.3,1.8c0,2-0.2,4.3-0.6,6.7c-0.4,2.4-0.9,4.9-1.5,7.3
				c-0.6,2.5-1,4.9-1.1,7.2c-0.1,2.4-0.6,4.6-1.4,6.9c-0.8,2.2-1.4,4-1.7,5.4c-0.3,1.4-0.4,2.3-0.4,2.8c0,1.1,0.1,2,0.4,2.8
				c0.3,0.8,0.6,1.4,1,1.9c0.4,0.5,0.9,0.9,1.5,1.1c0.6,0.2,1.2,0.3,1.9,0.3c0.7,0,1.3-0.2,2-0.5c0.7-0.3,1.4-0.7,2-1.3
				c0.6-0.5,1.2-1.2,1.8-2c0.5-0.8,1-1.6,1.4-2.5l0.6,7c-1.7,1.8-3.4,3.2-5.2,4.3c-1.8,1-3.5,1.6-5.1,1.6c-0.8,0-1.5-0.1-2.1-0.3
				c-0.7-0.2-1.2-0.6-1.8-1c-0.5-0.5-0.9-1.1-1.3-1.8c-0.3-0.7-0.6-1.6-0.7-2.6c-1.1,1.9-2.4,3.7-3.7,5.3c-1.3,1.6-2.7,2.9-4.2,4
				c-1.5,1.1-3,1.9-4.6,2.5c-1.6,0.6-3.3,0.9-5,0.9c-2.2,0-4-0.6-5.5-1.7c-1.5-1.1-2.7-2.7-3.7-4.7c-1-2-1.6-4.3-2.1-6.9
				c-0.4-2.7-0.6-5.5-0.6-8.5c0-1.1,0.1-2.1,0.2-3.1c0.1-1,0.2-1.8,0.3-2.6c-0.8,5.2-1.9,9.6-3.1,13.1c-1.2,3.5-2.7,6.3-4.4,8.4
				c-1.7,2.1-3.6,3.6-5.8,4.5c-2.2,0.9-4.6,1.4-7.2,1.4c-1.5,0-2.9-0.5-4.3-1.5c-1.4-1-2.6-2.5-3.6-4.4c-1-2-1.9-4.4-2.5-7.4
				c-0.6-3-0.9-6.4-0.9-10.4c0-2.4,0.1-4.9,0.4-7.5c0.3-2.5,0.7-5.1,1.2-7.7c0.5-2.6,1.1-5.1,1.9-7.6c0.8-2.5,1.6-5,2.6-7.3
				c0.6-1.3,1.1-2.4,1.7-3.1c0.6-0.7,1.2-1.3,1.7-1.6c0.6-0.4,1.2-0.6,1.8-0.6c0.6-0.1,1.2-0.1,1.8-0.1c0.5,0,1,0,1.4,0.1
				c0.4,0.1,0.8,0.2,1.1,0.4c0.3,0.2,0.5,0.5,0.6,0.9C530.3,399.1,530.4,399.7,530.4,400.4z"/>
			<path class="st2" d="M597.9,453.1c-2.1,0-4-0.4-5.6-1.2c-1.6-0.8-2.9-1.9-4-3.2c-1.1-1.3-1.9-2.9-2.4-4.6
				c-0.5-1.8-0.8-3.6-0.8-5.5c0-1.3,0.2-2.8,0.7-4.5c0.5-1.7,1-3.3,1.5-4.6c0.5-1.4,1.2-2.6,1.9-3.9c0.8-1.2,1.7-2.3,2.7-3.2
				c1-0.9,2.2-1.7,3.5-2.2c1.3-0.6,2.7-0.8,4.3-0.8c1.3,0,2.5,0.2,3.6,0.6c1.1,0.4,2.1,1,2.9,1.7c0.8,0.7,1.4,1.6,1.9,2.7
				c0.5,1.1,0.7,2.2,0.7,3.5c0,1.4-0.5,2.9-1.4,4.7c-0.9,1.7-2,3.2-3.2,4.4c-1.2,1.2-2.7,2.3-4.4,3.3c-1.7,1-3.6,1.7-5.5,2.2
				c0.3,0.6,0.7,1.1,1,1.5c0.3,0.4,0.7,0.7,1,0.9c0.3,0.2,0.7,0.4,1.1,0.5c0.4,0.1,0.8,0.1,1.2,0.1c1.4,0,2.8-0.3,4.3-0.8
				c1.5-0.5,3-1.2,4.4-2c1.4-0.8,2.8-1.7,4.1-2.6c1.3-0.9,2.4-1.9,3.3-2.7l4.4,4.5c-2,2.1-4.2,4-6.4,5.7c-1,0.7-2,1.4-3.2,2.1
				c-1.1,0.7-2.3,1.3-3.6,1.8c-1.2,0.5-2.5,1-3.9,1.3C600.6,453,599.2,453.1,597.9,453.1z M593.3,436.8c0.8,0,1.7-0.2,2.7-0.6
				c1-0.4,1.9-0.9,2.7-1.6c0.8-0.6,1.7-1.5,2.5-2.6c0.8-1.1,1.2-2,1.2-2.7c0-1-0.2-1.8-0.6-2.5c-0.4-0.6-0.8-1-1.4-1
				c-1,0-1.8,0.2-2.5,0.5c-0.7,0.4-1.3,0.8-1.8,1.4c-0.5,0.6-0.8,1.2-1.1,1.9c-0.3,0.7-0.6,1.6-1,2.7c-0.4,1.1-0.6,1.9-0.6,2.6
				C593.3,435.7,593.3,436.3,593.3,436.8z"/>
			<path class="st2" d="M623.7,453.1c-2.1,0-4-0.4-5.6-1.2c-1.6-0.8-2.9-1.9-4-3.2c-1.1-1.3-1.9-2.9-2.4-4.6
				c-0.5-1.8-0.8-3.6-0.8-5.5c0-1.3,0.2-2.8,0.7-4.5c0.5-1.7,1-3.3,1.5-4.6c0.5-1.4,1.1-2.6,1.9-3.9c0.8-1.2,1.7-2.3,2.7-3.2
				c1-0.9,2.2-1.7,3.5-2.2c1.3-0.6,2.7-0.8,4.3-0.8c1.3,0,2.5,0.2,3.6,0.6c1.1,0.4,2.1,1,2.9,1.7c0.8,0.7,1.5,1.6,1.9,2.7
				c0.5,1.1,0.7,2.2,0.7,3.5c0,1.4-0.5,2.9-1.4,4.7c-0.9,1.7-2,3.2-3.2,4.4c-1.2,1.2-2.7,2.3-4.4,3.3c-1.7,1-3.6,1.7-5.5,2.2
				c0.3,0.6,0.7,1.1,1,1.5c0.3,0.4,0.7,0.7,1,0.9c0.3,0.2,0.7,0.4,1.1,0.5c0.4,0.1,0.8,0.1,1.2,0.1c1.4,0,2.8-0.3,4.3-0.8
				c1.5-0.5,3-1.2,4.4-2c1.4-0.8,2.8-1.7,4.1-2.6c1.3-0.9,2.4-1.9,3.3-2.7l4.4,4.5c-2,2.1-4.2,4-6.4,5.7c-1,0.7-2,1.4-3.2,2.1
				c-1.1,0.7-2.3,1.3-3.6,1.8c-1.2,0.5-2.5,1-3.9,1.3C626.4,453,625.1,453.1,623.7,453.1z M619.1,436.8c0.8,0,1.7-0.2,2.7-0.6
				s1.9-0.9,2.7-1.6c0.8-0.6,1.7-1.5,2.5-2.6c0.8-1.1,1.2-2,1.2-2.7c0-1-0.2-1.8-0.6-2.5c-0.4-0.6-0.8-1-1.4-1c-1,0-1.8,0.2-2.5,0.5
				c-0.7,0.4-1.3,0.8-1.8,1.4c-0.5,0.6-0.8,1.2-1.1,1.9c-0.3,0.7-0.6,1.6-1,2.7c-0.4,1.1-0.6,1.9-0.6,2.6
				C619.2,435.7,619.1,436.3,619.1,436.8z"/>
		</g>
	</g>
	<g>
		<path class="st0" d="M534.3,473.5c2.3,0,4.3,0.3,6.2,1c1.9,0.7,3.5,1.6,4.8,2.8c1.3,1.2,2.4,2.7,3.1,4.4c0.7,1.7,1.1,3.6,1.1,5.7
			c0,1.8-0.3,3.5-0.8,5c-0.5,1.5-1.2,3-2.1,4.4c-0.9,1.4-1.9,2.8-3.1,4.1c-1.2,1.3-2.5,2.6-3.8,4l-11.1,11.3
			c1.1-0.3,2.1-0.6,3.2-0.7c1-0.2,2-0.3,3-0.3h12.6c0.9,0,1.6,0.3,2.2,0.8c0.5,0.5,0.8,1.2,0.8,2v5h-33.6v-2.8
			c0-0.6,0.1-1.2,0.4-1.8s0.6-1.2,1.1-1.7l14.9-14.9c1.2-1.3,2.4-2.5,3.3-3.6c1-1.2,1.8-2.3,2.5-3.4c0.7-1.1,1.2-2.3,1.5-3.4
			c0.4-1.2,0.5-2.4,0.5-3.7c0-1.2-0.2-2.2-0.5-3.1c-0.3-0.9-0.8-1.6-1.5-2.3c-0.6-0.6-1.4-1.1-2.3-1.4c-0.9-0.3-1.8-0.5-2.9-0.5
			c-2,0-3.7,0.5-5,1.5s-2.2,2.4-2.7,4.1c-0.2,0.9-0.6,1.5-1.1,1.8c-0.5,0.4-1.1,0.6-1.9,0.6c-0.3,0-0.7,0-1.1-0.1l-4.4-0.8
			c0.3-2.4,1-4.4,2-6.2c1-1.8,2.2-3.3,3.6-4.4c1.5-1.2,3.1-2.1,5-2.7C530.1,473.8,532.2,473.5,534.3,473.5z"/>
		<path class="st0" d="M587.5,498.6c0,4.3-0.5,8-1.4,11.1c-0.9,3.2-2.2,5.8-3.8,7.8c-1.6,2.1-3.5,3.6-5.7,4.6
			c-2.2,1-4.6,1.5-7.1,1.5c-2.6,0-4.9-0.5-7.1-1.5c-2.2-1-4.1-2.5-5.7-4.6c-1.6-2.1-2.9-4.7-3.8-7.8c-0.9-3.2-1.4-6.9-1.4-11.1
			c0-4.3,0.5-8,1.4-11.2c0.9-3.1,2.2-5.7,3.8-7.8c1.6-2.1,3.5-3.6,5.7-4.6c2.2-1,4.5-1.5,7.1-1.5c2.6,0,4.9,0.5,7.1,1.5
			s4.1,2.5,5.7,4.6c1.6,2.1,2.9,4.7,3.8,7.8C587,490.5,587.5,494.3,587.5,498.6z M578.8,498.6c0-3.5-0.3-6.5-0.8-8.8
			c-0.5-2.3-1.2-4.2-2.1-5.6c-0.9-1.4-1.9-2.3-3-2.9s-2.3-0.8-3.5-0.8c-1.2,0-2.4,0.3-3.5,0.8c-1.1,0.6-2.1,1.5-3,2.9
			c-0.9,1.4-1.5,3.2-2.1,5.6c-0.5,2.3-0.8,5.3-0.8,8.8c0,3.5,0.3,6.5,0.8,8.8c0.5,2.3,1.2,4.2,2.1,5.6c0.9,1.4,1.8,2.3,3,2.9
			c1.1,0.6,2.3,0.8,3.5,0.8c1.2,0,2.4-0.3,3.5-0.8c1.1-0.6,2.1-1.5,3-2.9c0.9-1.4,1.6-3.2,2.1-5.6
			C578.6,505,578.8,502.1,578.8,498.6z"/>
		<path class="st0" d="M594.9,516.8h9.9v-28.6c0-1.1,0-2.3,0.1-3.5l-7.1,5.9c-0.3,0.2-0.6,0.4-0.9,0.5c-0.3,0.1-0.6,0.1-0.9,0.1
			c-0.5,0-0.9-0.1-1.2-0.3c-0.4-0.2-0.6-0.4-0.8-0.7l-2.6-3.6l15-12.7h6.9v42.8h8.8v6.3h-27.1L594.9,516.8L594.9,516.8z"/>
		<path class="st0" d="M658.9,474v3.6c0,1.1-0.1,2-0.4,2.6c-0.2,0.7-0.5,1.2-0.7,1.7l-18.5,38.2c-0.4,0.8-0.9,1.5-1.6,2
			c-0.7,0.6-1.7,0.8-2.8,0.8h-6.1l19-37.5c0.8-1.5,1.7-2.9,2.6-4h-23.5c-0.5,0-1-0.2-1.4-0.6c-0.4-0.4-0.6-0.8-0.6-1.4V474
			L658.9,474L658.9,474z"/>
	</g>
	<path class="st2" d="M669.7,454c3.1,0,4.3-2.2,1.4-3.1c-8.1-2.5-10.5-4.5-13.5-8.2c-2-2.4-4.2-5.2-5.1-8.2
		c-0.6-1.8,11.3-10.5,13.5-12.1c0.8-0.6,6.9-5.6,3.6-6.1c-3.1-0.5-5.2,1.3-7.9,3c-6.7,4.2-12.3,11-17.5,16.7
		c0.8-0.9,6.4,1.3,7.7-0.1c2.5-2.8,5.1-5.5,7.7-8.1c1.9-1.9,3.9-3.8,5.9-5.6c1.1-1,2.3-2,3.6-2.8c1.2-0.8-2.5-0.6,0.8-0.8
		c-1.9,0-3.8-0.1-5.7-0.1c1.5,0.3-4.3,4.6-4.9,5c-4.5,3.4-9.1,6.6-13.6,10c-3.2,2.4,4,9.9,6,11.8C659,452.3,666.1,454,669.7,454z"/>
	<g>
		<g>
			<path class="st2" d="M632.2,448.4c7.2-4.9,14.3-11.1,15.9-20c1-5.9,1.8-11.8,2.5-17.7c0.2-2.1,2-10.8-0.1-12.4
				c-0.4-0.3-2.3,0.7-2.7,0.8c-2.7,1.2-2.2,4-2.4,6.6c-0.5,5.5-0.6,11-0.8,16.5c-0.4,10.5-2.3,21-2.4,31.6c0-0.2,4.1-0.8,4.1-1.6
				c0-9.8,1.7-19.5,2.3-29.2c0.3-4.2,0.3-8.5,0.5-12.7c0.1-2.4,0.3-4.7,0.5-7.1c0.1-1.4,1.4-5-0.5-4.1c-0.9,0.3-1.8,0.6-2.7,0.8
				c1.8,1.3,0.5,8.3,0.3,10c-0.5,5.7-1.3,11.3-2.2,17c-0.9,5.7-2.2,9.9-6.1,14.3c-2.8,3.2-6.3,6-9.8,8.4
				C628.3,449.8,631.5,448.9,632.2,448.4L632.2,448.4z"/>
		</g>
	</g>
	<path class="st3" d="M219.6,342.3L462.5,245l13.4,33l-8.2,3.2l4.6,24.5c0,0,8.7,0.3,9.6,5.8c0.9,5.6-5.4,7.4-5.4,7.4l20,57.2
		l-22.8,4.2l-3.5-59.9c0,0-9-0.7-9.6-6.3s8.1-7.7,8.1-7.7l-4.4-23.6l-46.6,18.6l16.3,47.3c0,0,2.3,1.7,5.3,6
		c1.6,2.3,4.7,6.7,4.7,6.7l13.6-2.3l26.2,140.7l-226.9,42.3l-26.2-140.8l65.8-12c0,0,2.3-5.4,4.5-8.8c2.1-3.4,4.1-6.3,4.1-6.3
		l0.2-27.3l-78.8,31.2L219.6,342.3z"/>
	<path class="st4" d="M432.7,469.9c-33.8,44-86.6,62.2-122.7,37.1c-36.1-25.1-36.7-79.1-8.7-127c27.8-47.7,87.8-63.9,124-38.8
		C461.3,366.2,466.5,425.9,432.7,469.9z"/>
	<path class="st3" d="M377,448.8c-2.4,1-4.8,1.9-7.6,2.5c-0.8,0.1-1.5,0.3-2.2,0.4c-0.4,0.1-1,0.2-1.5,0.2c-0.2,0-0.6-0.1-0.7,0.1
		c-0.3,0-0.7-0.1-0.8,0.1c-0.4,0-1.1-0.1-1.4,0.1c-0.6,0-1.3,0-1.9,0c-0.3-0.2-1,0-1.4-0.1c-0.1-0.2-0.6,0-0.8-0.1
		c-2.2-0.2-4.2-0.6-6-1.2c-0.2-0.1-0.4-0.2-0.6-0.2c-0.3,0-0.5-0.1-0.6-0.2c0,0,0,0,0-0.1c-0.8-0.2-1.4-0.6-2.2-0.8
		c-0.6-0.2-1-0.5-1.5-0.7c0,0,0,0,0-0.1c0,0,0,0,0-0.1c-2-1-3.7-2.3-5.3-3.6c-0.1-0.2-0.3-0.3-0.4-0.4c0,0,0,0,0-0.1
		c-0.6-0.3-0.8-1-1.4-1.3c-0.2-0.1-0.3-0.3-0.4-0.6c-0.2-0.2-0.4-0.5-0.6-0.7c-0.2-0.2-0.3-0.4-0.5-0.6c-1.1-1.3-1.9-2.9-2.8-4.4
		c-0.3-0.4-0.5-0.9-0.7-1.4c-0.1-0.2-0.1-0.4-0.2-0.5c-0.8-1.8-1.5-3.7-2-5.9c-0.2-1-0.4-2.1-0.6-3.1c-0.1-0.3-0.1-0.7-0.1-1.2
		c0-0.9-0.1-1.5-0.1-2.4c0-0.3,0.1-0.8-0.1-1c0-0.6,0-1.2,0-1.8c0.1-0.8,0.1-1.7,0.1-2.6c0.2-0.1,0-0.5,0.1-0.7
		c0.2-2.1,0.5-3.9,1-5.7c0.1-0.3,0.2-0.6,0.3-1c0-0.2,0-0.4,0.1-0.5c0,0,0,0,0.1,0c0-0.5,0.2-0.7,0.3-1.1c0-0.1,0-0.2,0.1-0.2
		c0.1-0.2,0.2-0.4,0.2-0.6c0.2-0.6,0.4-1.2,0.6-1.8c0,0,0,0,0.1,0c0-0.4,0.3-0.6,0.4-1.1c0-0.1,0-0.2,0.1-0.3c0,0,0,0,0.1,0
		c0-0.3,0.2-0.4,0.2-0.6c0-0.1,0-0.1,0.1-0.1c0,0,0,0,0.1,0c0-0.2,0.1-0.3,0.1-0.5c0-0.1,0-0.2,0.1-0.2c0,0,0,0,0.1,0
		c0.2-0.6,0.6-1.2,0.8-1.8c0-0.1,0-0.1,0.1-0.1c0,0,0,0,0.1,0c1.3-2.8,3-5.2,4.8-7.5c0.1-0.1,0.1-0.1,0.1-0.2c0,0,0,0,0.1,0
		c0.2-0.4,0.6-0.7,0.8-1.1c0.3,0,0.3-0.4,0.5-0.6c0.3-0.2,0.5-0.6,0.8-0.8c0.2-0.1,0.4-0.3,0.5-0.5c0.3-0.2,0.5-0.6,0.8-0.8
		c0.4-0.4,0.8-0.8,1.2-1.2c0.1-0.2,0.3-0.3,0.5-0.4c0,0,0,0,0.1,0c0.3-0.4,0.8-0.7,1.1-1.1c0.4-0.5,1-0.8,1.5-1.3
		c0.1-0.1,0.2-0.1,0.3-0.1c0,0,0,0,0-0.1c0.6-0.4,1.2-0.9,1.8-1.3c0-0.2,0.3-0.1,0.3-0.3c0,0,0.1,0,0.1,0c0.4-0.3,0.9-0.5,1.3-0.8
		c0-0.1,0.1-0.1,0.1-0.1c1.2-0.7,2.3-1.4,3.5-2c0.2-0.1,0.5-0.2,0.7-0.4c0,0,0,0,0-0.1c0.6-0.2,1.1-0.5,1.8-0.8
		c0.1-0.1,0.3-0.2,0.6-0.3c0.2,0,0.4-0.1,0.5-0.2c0.2,0,0.3-0.2,0.5-0.2c0.7-0.3,1.5-0.5,2-0.8c0.2,0,0.4,0,0.6-0.1
		c0.5-0.1,0.9-0.2,1.3-0.4c0-0.1,0.2-0.1,0.3-0.1c0.5-0.1,1-0.2,1.5-0.4c0.7-0.1,1.2-0.4,2-0.5c0.6-0.1,1.3-0.2,2-0.4
		c0.7,0.1,0.9-0.2,1.5-0.2c0.2,0,0.6,0.1,0.7-0.1c0.2,0,0.7,0.1,0.8-0.1c0.4,0,1,0.1,1.3-0.1c0.8,0,1.6,0,2.4,0
		c0.3,0.2,0.8,0,1.2,0.1c0.1,0.2,0.6,0,0.8,0.1c1.5,0.1,2.9,0.4,4.1,0.7c0,0,0,0,0,0.1c0.8,0.1,1.3,0.4,2,0.6c0,0.1,0.1,0.1,0.2,0.1
		c0,0,0,0,0,0.1c0.3,0,0.3,0.2,0.6,0.1c0,0.1,0.1,0.1,0.2,0.1c0,0,0,0,0,0.1c0.7,0.2,1.2,0.5,1.8,0.7c3.7,1.8,6.6,4.4,9.1,7.4
		c0,0.2,0.1,0.2,0.2,0.3c0.1,0.3,0.3,0.4,0.4,0.6c0.2,0.4,0.5,0.8,0.8,1.2c0.1,0.3,0.2,0.5,0.4,0.7c0.1,0.3,0.3,0.5,0.4,0.7
		c0,0.3,0.2,0.5,0.4,0.7c0.2,0.2,0.3,0.4,0.4,0.7c0.1,0.2,0.1,0.5,0.3,0.6c0.2,0.1,0.1,0.5,0.3,0.6c0.1,0.2,0.1,0.4,0.2,0.5
		c0.1,0.1,0.2,0.3,0.2,0.5c0,0.2,0.1,0.4,0.2,0.6c0.1,0,0,0.2,0.1,0.2c0.1,0.5,0.3,0.8,0.4,1.3c0,0.3,0.1,0.5,0.2,0.7
		c0.1,0.2,0.2,0.5,0.2,0.8c0,0.2,0,0.4,0.1,0.6c0.1,0.4,0.1,0.8,0.3,1.1c0.1,0.3,0.2,0.7,0.2,1.1c0,0.3,0,0.6,0.1,0.8
		c0,0.4,0,0.9,0.1,1.2c0,0.2-0.1,0.5,0.1,0.6c0,0.2-0.1,0.6,0.1,0.7c0,0.2-0.1,0.6,0.1,0.8c0,0.3-0.1,0.8,0.1,1c0,0.3,0,0.6,0,0.8
		c0,1,0,1.9,0,2.9c0,0.9-0.1,1.7-0.1,2.7c-0.1,1.1-0.2,2.1-0.4,3.1c-0.1,0.2-0.1,0.5-0.1,0.8c0,0.4-0.1,0.8-0.2,1.1c0,0,0,0-0.1,0
		c0,0.3-0.1,0.3-0.1,0.6c-0.1,0.5-0.2,1-0.4,1.5c0,0,0,0-0.1,0c-0.1,0.8-0.4,1.3-0.5,2c0,0.1,0,0.1,0,0.2c0,0,0,0-0.1,0
		c-0.1,0.5-0.3,0.8-0.4,1.3c0,0,0,0-0.1,0c0,0,0,0-0.1,0c0,0.3-0.2,0.3-0.1,0.6c-0.2,0,0,0.2-0.1,0.4c-0.3,0.2-0.3,0.6-0.4,1
		c0,0,0,0.1,0,0.1c-0.1,0.1-0.1,0.4-0.2,0.5c-0.6,1.3-1.2,2.7-1.9,4c-0.1,0.3-0.3,0.4-0.4,0.7c0,0,0,0-0.1,0c-0.3,1-1,1.6-1.3,2.5
		c0,0.1,0,0.1-0.1,0.1c-1.3,1.8-2.6,3.7-3.9,5.5c-0.2,0-0.3,0.2-0.4,0.4c-0.4,0.5-0.8,0.9-1.2,1.4c-0.2,0.1-0.3,0.3-0.4,0.4
		c-0.7,0.7-1.5,1.5-2.2,2.2c-0.1,0.2-0.2,0.2-0.4,0.3c-0.4,0.3-0.8,0.7-1.2,1.1c-0.5,0.4-0.8,0.8-1.3,1.1c-0.1,0-0.2,0.1-0.2,0.2
		c-0.5,0.4-1.1,0.7-1.5,1.2c-1.6,1-3.2,2.1-4.8,3c-0.3,0.1-0.6,0.2-0.8,0.4c-0.3,0.2-0.6,0.4-1,0.5C377.4,448.6,377,448.6,377,448.8
		z"/>
</g>
</svg>
