<?xml version="1.0" encoding="utf-8"?>
<!-- Generator: Adobe Illustrator 15.0.0, SVG Export Plug-In . SVG Version: 6.00 Build 0)  -->
<!DOCTYPE svg PUBLIC "-//W3C//DTD SVG 1.1//EN" "http://www.w3.org/Graphics/SVG/1.1/DTD/svg11.dtd">
<svg version="1.1" id="Layer_1" xmlns="http://www.w3.org/2000/svg" xmlns:xlink="http://www.w3.org/1999/xlink" x="0px" y="0px"
	 width="353.827px" height="201px" viewBox="-31.044 21.5 353.827 201" enable-background="new -31.044 21.5 353.827 201"
	 xml:space="preserve">
<g id="Layer_1_1_" display="none">
	<g display="inline">
		<g>
			<path fill="#00AFAB" d="M209.116,36.303c1.36,0,2.604-0.131,3.725-0.394c1.121-0.262,2.142-0.615,3.054-1.061
				c0.914-0.444,1.737-0.966,2.478-1.562c0.736-0.595,1.402-1.233,2.002-1.916l0.221,4.501c-0.432,0.562-0.956,1.107-1.571,1.635
				c-0.616,0.525-1.289,0.988-2.021,1.385c-0.73,0.396-1.5,0.715-2.306,0.952c-0.806,0.238-1.601,0.357-2.384,0.357
				c-0.098,0-0.213-0.015-0.354-0.043c-0.143-0.03-0.388-0.081-0.737-0.155c-0.351-0.071-0.853-0.17-1.507-0.294
				c-0.653-0.125-1.541-0.274-2.658-0.449v0.367c0,2.473-0.213,4.718-0.639,6.736c-0.426,2.017-0.992,3.738-1.703,5.166
				c-0.711,1.426-1.526,2.527-2.446,3.302c-0.92,0.773-1.875,1.162-2.864,1.162c-0.771,0-1.414-0.191-1.928-0.573
				c-0.514-0.381-0.926-0.895-1.229-1.543c-0.307-0.646-0.521-1.402-0.649-2.267c-0.13-0.866-0.192-1.782-0.192-2.75
				c0-0.562,0.088-1.195,0.264-1.901c0.178-0.705,0.412-1.444,0.711-2.221c0.299-0.773,0.633-1.561,1.004-2.363
				c0.373-0.802,0.756-1.58,1.148-2.334c0.92-1.754,1.969-3.562,3.146-5.428c0.148-1.021,0.305-2.069,0.463-3.143
				c0.156-1.075,0.355-2.13,0.602-3.163c0.241-1.033,0.616-2.118,1.125-3.254c0.506-1.136,1.047-2.046,1.621-2.729
				c0.576-0.688,1.268-1.229,2.072-1.633c0.805-0.401,1.773-0.604,2.913-0.604c0.823,0,1.594,0.112,2.312,0.337
				c0.715,0.225,1.344,0.59,1.885,1.095c0.539,0.503,0.968,1.153,1.276,1.95c0.31,0.797,0.466,1.774,0.466,2.932
				c0,1.231-0.136,2.194-0.404,2.889c-0.404,1.035-0.93,1.933-1.569,2.691c-0.644,0.76-1.403,1.471-2.289,2.133
				c-0.885,0.662-1.937,1.254-3.149,1.778L209.116,36.303z M199.28,49.103c0,0.107,0.021,0.282,0.069,0.525
				c0.049,0.241,0.126,0.484,0.233,0.727s0.252,0.457,0.428,0.645c0.175,0.189,0.392,0.283,0.648,0.283
				c0.229,0,0.42-0.125,0.566-0.373c0.148-0.25,0.271-0.582,0.365-0.999c0.096-0.418,0.162-0.889,0.203-1.413
				c0.039-0.525,0.07-1.062,0.096-1.614c0.023-0.552,0.037-1.091,0.046-1.615c0.008-0.525,0.022-0.995,0.056-1.413
				c0.039-0.727,0.072-1.344,0.096-1.847c0.021-0.505,0.039-0.927,0.055-1.263c0.013-0.378,0.027-0.705,0.041-0.982
				c-0.26,0.445-0.508,0.963-0.752,1.55c-0.242,0.587-0.475,1.197-0.689,1.833c-0.217,0.635-0.412,1.271-0.59,1.904
				c-0.175,0.636-0.328,1.227-0.456,1.773c-0.129,0.547-0.231,1.02-0.304,1.418C199.317,48.64,199.28,48.927,199.28,49.103z
				 M206.542,34.318c0.813-0.394,1.519-0.831,2.113-1.316c0.568-0.484,1.069-1.002,1.504-1.553c0.174-0.026,0.596-0.628,1.258-1.808
				c0.445-1.008,0.73-1.781,0.854-2.318c0.065-0.288,0.11-0.626,0.132-1.013c0.021-0.386-0.021-0.749-0.121-1.09
				c-0.102-0.34-0.275-0.633-0.525-0.875c-0.25-0.242-0.598-0.363-1.041-0.363c-0.5,0-0.941,0.135-1.32,0.403
				c-0.379,0.268-0.707,0.632-0.984,1.091c-0.277,0.458-0.508,1.002-0.688,1.63c-0.186,0.629-0.4,1.405-0.65,2.329
				c-0.25,0.924-0.4,1.775-0.449,2.555C206.567,32.771,206.542,33.545,206.542,34.318z"/>
			<path fill="#00AFAB" d="M224.926,40.2c-1.264,0-2.369-0.233-3.317-0.703c-0.946-0.468-1.735-1.099-2.368-1.889
				c-0.632-0.793-1.104-1.709-1.423-2.748c-0.315-1.04-0.473-2.131-0.473-3.275c0-0.748,0.142-1.64,0.424-2.675
				c0.282-1.034,0.573-1.952,0.878-2.754c0.303-0.801,0.684-1.566,1.141-2.294c0.459-0.728,0.992-1.368,1.604-1.923
				s1.301-0.995,2.06-1.323c0.762-0.326,1.605-0.49,2.534-0.49c0.759,0,1.464,0.122,2.112,0.366c0.65,0.242,1.216,0.583,1.697,1.022
				c0.479,0.439,0.855,0.971,1.127,1.593c0.271,0.621,0.408,1.316,0.408,2.086c0,0.821-0.274,1.741-0.824,2.76
				c-0.551,1.019-1.19,1.892-1.924,2.619c-0.731,0.729-1.604,1.377-2.613,1.945c-1.01,0.57-2.104,1.013-3.284,1.33
				c0.203,0.357,0.403,0.654,0.603,0.893c0.194,0.239,0.396,0.426,0.603,0.557c0.2,0.132,0.416,0.225,0.642,0.276
				c0.225,0.055,0.465,0.08,0.723,0.08c0.812,0,1.668-0.158,2.567-0.477c0.899-0.316,1.775-0.715,2.63-1.19
				c0.854-0.477,1.655-0.996,2.414-1.557c0.758-0.563,1.4-1.096,1.928-1.599l2.621,2.66c-1.19,1.267-2.455,2.39-3.797,3.363
				c-0.582,0.419-1.207,0.83-1.877,1.234c-0.672,0.403-1.375,0.765-2.111,1.076c-0.737,0.314-1.502,0.564-2.293,0.753
				C226.542,40.106,225.737,40.2,224.926,40.2z M222.217,30.532c0.488,0,1.021-0.121,1.6-0.366c0.575-0.244,1.112-0.559,1.607-0.942
				c0.496-0.385,0.979-0.9,1.457-1.549c0.477-0.647,0.714-1.185,0.714-1.608c0-0.595-0.112-1.083-0.335-1.468
				c-0.227-0.385-0.502-0.575-0.826-0.575c-0.584,0-1.083,0.105-1.497,0.317c-0.415,0.212-0.763,0.487-1.039,0.823
				c-0.278,0.338-0.503,0.722-0.672,1.151c-0.171,0.431-0.368,0.963-0.593,1.598c-0.225,0.635-0.35,1.158-0.377,1.568
				S222.217,30.243,222.217,30.532z"/>
			<path fill="#00AFAB" d="M233.42,35.958c0-0.893,0.054-1.924,0.162-3.095c0.106-1.17,0.244-2.457,0.405-3.856
				c0.162-1.4,0.347-2.663,0.548-3.786c0.202-1.122,0.398-2.084,0.588-2.882c0.148-0.623,0.438-1.145,0.863-1.563
				c0.428-0.419,1.006-0.628,1.734-0.628c0.73,0,1.236,0.223,1.521,0.669c0.282,0.446,0.428,1.042,0.428,1.786
				c0,0.204-0.021,0.477-0.062,0.822c-0.04,0.344-0.091,0.724-0.151,1.137c-0.062,0.413-0.125,0.838-0.191,1.278
				c-0.068,0.439-0.133,0.94-0.193,1.502c-0.062,0.562-0.111,0.981-0.152,1.259c-0.039,0.277-0.061,0.463-0.061,0.558h0.406
				c0.081-0.147,0.21-0.389,0.386-0.721c0.177-0.331,0.38-0.808,0.609-1.431c0.229-0.622,0.476-1.175,0.741-1.655
				c0.264-0.479,0.511-0.939,0.74-1.379c0.229-0.439,0.438-0.828,0.627-1.166c0.189-0.339,0.332-0.59,0.428-0.753
				c0.434-0.729,0.928-1.23,1.48-1.5c0.555-0.271,1.17-0.406,1.85-0.406c0.675,0,1.213,0.283,1.61,0.853
				c0.399,0.567,0.601,1.352,0.601,2.353c0,0.15-0.03,0.399-0.092,0.752c-0.061,0.353-0.14,0.771-0.231,1.258
				c-0.097,0.487-0.201,1.117-0.315,1.889c-0.115,0.771-0.22,1.461-0.313,2.07c-0.097,0.609-0.173,1.211-0.233,1.805
				c-0.062,0.598-0.091,1.145-0.091,1.645c0,0.841,0.104,1.53,0.313,2.071c0.209,0.542,0.539,0.812,0.982,0.812
				c0.164,0,0.393-0.062,0.689-0.184c0.449-0.16,0.731-0.303,0.854-0.426c0.596-0.459,0.905-0.683,0.934-0.669
				c0.041,0.013,0.494-0.257,1.358-0.812c1.083-0.69,2.375-1.535,3.879-2.537l-0.021,4.545l-1.016,0.773
				c-0.08,0.067-0.72,0.419-1.908,1.055c-1.719,0.92-2.795,1.476-3.228,1.664c-1.058,0.474-1.713,0.745-1.969,0.812
				c-0.679,0.217-1.39,0.325-2.134,0.325c-0.742,0-1.368-0.537-1.877-1.613c-0.508-1.077-0.762-2.648-0.762-4.72
				c0-0.812,0.053-1.687,0.164-2.628c0.106-0.939,0.241-1.952,0.403-3.035h-0.323l-5.318,10.556
				c-0.283,0.568-0.59,0.946-0.914,1.136c-0.338,0.203-0.729,0.305-1.176,0.305c-0.557,0-1.002-0.118-1.34-0.354
				c-0.339-0.237-0.599-0.555-0.783-0.954c-0.183-0.399-0.304-0.853-0.365-1.36C233.45,37.023,233.42,36.499,233.42,35.958z"/>
		</g>
		<g>
			<path fill="#00AFAB" d="M182.899,46.31c-2.018,0-3.833-0.41-5.449-1.229c-1.617-0.817-2.992-1.96-4.131-3.429
				c-1.136-1.469-2.009-3.217-2.619-5.249c-0.607-2.032-0.912-4.262-0.912-6.689c0-1.307,0.095-2.648,0.283-4.023
				c0.19-1.374,0.478-2.747,0.864-4.115c0.385-1.368,0.864-2.71,1.44-4.024c0.576-1.312,1.244-2.556,2.008-3.728
				c0.765-1.171,1.621-2.25,2.568-3.236c0.946-0.988,1.991-1.84,3.137-2.555c1.142-0.714,2.373-1.273,3.692-1.675
				s2.736-0.603,4.253-0.603c2.028,0,3.846,0.368,5.449,1.104c1.604,0.732,2.955,1.76,4.061,3.08
				c1.104,1.32,1.949,2.895,2.537,4.725c0.59,1.829,0.883,3.846,0.883,6.051c0,1.808-0.178,3.692-0.537,5.655
				s-0.883,3.891-1.574,5.787c-0.689,1.896-1.549,3.699-2.577,5.412c-1.026,1.714-2.211,3.217-3.552,4.513
				c-1.34,1.294-2.83,2.322-4.477,3.085C186.604,45.929,184.82,46.31,182.899,46.31z M183.389,41.601
				c1.081,0,2.089-0.211,3.021-0.635c0.935-0.422,1.789-1.003,2.566-1.739c0.777-0.735,1.486-1.599,2.131-2.587
				c0.645-0.989,1.217-2.05,1.717-3.182c0.502-1.132,0.938-2.306,1.309-3.52c0.373-1.213,0.682-2.413,0.926-3.6
				c0.242-1.186,0.422-2.328,0.538-3.426c0.114-1.099,0.172-2.097,0.172-2.998c0-1.31-0.144-2.54-0.427-3.693
				c-0.283-1.151-0.713-2.153-1.289-3.005c-0.574-0.854-1.299-1.525-2.172-2.017c-0.873-0.49-1.891-0.735-3.055-0.735
				c-1.244,0-2.449,0.303-3.613,0.91c-1.164,0.606-2.26,1.425-3.289,2.453c-1.026,1.03-1.969,2.225-2.819,3.581
				c-0.853,1.357-1.584,2.786-2.192,4.286c-0.607,1.501-1.082,3.027-1.42,4.582c-0.338,1.555-0.509,3.042-0.509,4.46
				c0,1.541,0.192,2.977,0.579,4.306c0.387,1.331,0.939,2.479,1.664,3.448c0.725,0.968,1.604,1.729,2.641,2.281
				C180.9,41.324,182.075,41.601,183.389,41.601z"/>
		</g>
		<g>
			<g>
				<path fill="#00AEAB" d="M194.661,81.349c-1.104,1.152-2.349,2.163-3.729,3.028c-1.386,0.866-2.83,1.59-4.336,2.173
					c-1.509,0.585-3.039,1.023-4.595,1.319c-1.555,0.296-3.062,0.444-4.521,0.444c-1.584,0.001-3.071-0.183-4.468-0.548
					c-1.394-0.368-2.613-0.929-3.661-1.681c-1.046-0.755-1.874-1.709-2.485-2.864c-0.61-1.154-0.916-2.526-0.916-4.115
					c-0.002-1.382,0.244-2.711,0.733-3.984c0.49-1.272,1.247-2.403,2.275-3.388c1.027-0.986,2.343-1.781,3.949-2.385
					c1.604-0.603,3.527-0.931,5.771-0.987c-1.473,0.001-2.758-0.212-3.855-0.638c-1.1-0.426-2.009-1.002-2.732-1.727
					c-0.721-0.725-1.264-1.571-1.625-2.54c-0.362-0.969-0.543-1.994-0.543-3.077c-0.002-1.015,0.173-1.941,0.524-2.778
					c0.349-0.838,0.831-1.593,1.444-2.262c0.61-0.669,1.335-1.255,2.17-1.755c0.835-0.502,1.739-0.917,2.717-1.248
					c0.979-0.332,2.001-0.582,3.07-0.752s2.151-0.255,3.243-0.255c1.596-0.001,3.156,0.171,4.687,0.515
					c1.528,0.345,2.886,0.861,4.07,1.55c1.188,0.688,2.144,1.55,2.866,2.583c0.724,1.033,1.084,2.24,1.084,3.618
					c0.002,0.488-0.166,0.97-0.5,1.445c-0.334,0.476-0.732,0.899-1.196,1.272c-0.463,0.372-0.95,0.672-1.461,0.896
					c-0.515,0.224-0.938,0.337-1.28,0.337c-0.285,0-0.43-0.25-0.43-0.753c-0.002-0.448,0.068-1.024,0.214-1.73
					c0.146-0.705,0.385-1.588,0.728-2.646c-0.369-0.299-0.908-0.596-1.617-0.896c-0.709-0.297-1.512-0.568-2.404-0.813
					c-0.893-0.243-1.846-0.442-2.854-0.599c-1.011-0.154-2.004-0.232-2.986-0.232c-0.914,0-1.787,0.082-2.619,0.244
					c-0.831,0.165-1.562,0.434-2.198,0.806c-0.632,0.373-1.138,0.866-1.512,1.477c-0.375,0.611-0.563,1.364-0.562,2.26
					c0,0.732,0.133,1.348,0.399,1.849c0.267,0.501,0.623,0.929,1.065,1.279c0.447,0.354,0.957,0.641,1.531,0.863
					c0.574,0.224,1.17,0.423,1.787,0.601c0.616,0.176,1.223,0.344,1.818,0.506c0.596,0.163,1.145,0.354,1.643,0.569
					c0.5,0.218,0.922,0.479,1.264,0.786c0.344,0.308,0.568,0.691,0.681,1.154c0.026,0.293,0.058,0.59,0.083,0.892
					c0.025,0.301,0.04,0.591,0.04,0.87c0.001,0.822-0.146,1.418-0.433,1.788c-0.289,0.372-0.854,0.558-1.69,0.558
					c-0.356,0-0.802-0.02-1.331-0.061c-0.529-0.04-1.035-0.06-1.52-0.06c-1.07,0-2.125,0.136-3.154,0.407
					c-1.032,0.27-1.956,0.671-2.773,1.207c-0.818,0.534-1.479,1.193-1.98,1.979c-0.502,0.783-0.752,1.696-0.752,2.737
					c0,0.989,0.143,1.813,0.43,2.473c0.285,0.658,0.68,1.19,1.176,1.592c0.497,0.402,1.086,0.688,1.764,0.859
					c0.677,0.17,1.408,0.255,2.19,0.255c0.97,0,1.985-0.093,3.048-0.277c1.064-0.188,2.125-0.438,3.182-0.762
					c1.058-0.323,2.086-0.707,3.091-1.148c1-0.442,1.933-0.917,2.793-1.426c0.856-0.508,1.612-1.041,2.269-1.603
					c0.654-0.561,1.159-1.125,1.514-1.69L194.661,81.349z"/>
				<path fill="#00AEAB" d="M216.495,82.126c-0.961,0.792-1.908,1.494-2.842,2.114c-0.392,0.259-0.804,0.514-1.236,0.766
					c-0.435,0.251-0.858,0.475-1.278,0.669c-0.421,0.194-0.827,0.354-1.224,0.475c-0.396,0.123-0.758,0.183-1.088,0.183
					c-0.195,0-0.48-0.041-0.863-0.129c-0.381-0.086-0.795-0.262-1.246-0.527c-0.449-0.265-0.898-0.649-1.352-1.153
					c-0.451-0.501-0.843-1.17-1.175-2.004c-0.503,0.517-1.035,1.011-1.599,1.477c-0.562,0.468-1.146,0.874-1.75,1.219
					c-0.604,0.346-1.215,0.622-1.832,0.831c-0.617,0.208-1.238,0.312-1.862,0.312c-0.88,0.002-1.64-0.181-2.283-0.547
					c-0.643-0.366-1.177-0.852-1.604-1.459c-0.426-0.608-0.743-1.296-0.954-2.068c-0.208-0.771-0.313-1.568-0.313-2.393
					c0-0.878,0.109-1.767,0.334-2.667c0.223-0.899,0.547-1.772,0.973-2.617c0.428-0.844,0.897-1.728,1.422-2.646
					c0.521-0.921,1.209-1.759,2.066-2.515c0.859-0.757,1.742-1.327,2.647-1.712c0.905-0.385,1.873-0.625,2.901-0.722
					c0.039-1.758,0.228-3.307,0.559-4.646c0.332-1.34,0.689-2.782,1.072-4.325s0.875-2.964,1.479-4.263
					c0.604-1.3,1.269-2.422,1.99-3.37c0.722-0.946,1.487-1.688,2.306-2.222c0.816-0.535,1.66-0.804,2.531-0.805
					c0.637,0,1.178,0.166,1.623,0.499c0.447,0.331,0.811,0.771,1.088,1.32c0.275,0.549,0.477,1.188,0.598,1.911
					c0.125,0.725,0.187,1.474,0.187,2.246c0,0.482-0.005,0.979-0.013,1.488c-0.039,1.943-0.338,3.753-0.896,5.426
					c-0.562,1.674-1.113,3.328-1.66,4.963c-0.547,1.637-1.205,3.254-1.98,4.855c-1.18,2.45-1.934,4.112-2.256,4.987
					c-0.07,0.193-0.143,0.426-0.211,0.698c-0.068,0.274-0.137,0.571-0.199,0.893c-0.062,0.321-0.115,0.65-0.157,0.985
					c-0.044,0.335-0.063,0.661-0.063,0.976c0,0.396,0.023,0.772,0.069,1.128s0.122,0.675,0.228,0.954
					c0.104,0.281,0.248,0.504,0.427,0.667c0.18,0.164,0.397,0.246,0.661,0.246c0.259,0,0.537-0.05,0.845-0.154
					c0.303-0.102,0.625-0.241,0.962-0.419c0.338-0.178,0.682-0.379,1.023-0.604c0.349-0.225,0.683-0.454,1.007-0.688
					c0.743-0.546,1.521-1.166,2.334-1.863L216.495,82.126z M202.418,70.146c-0.894,0.437-1.688,1.013-2.383,1.729
					c-0.697,0.716-1.277,1.662-1.744,2.836c-0.467,1.173-0.821,2.183-1.065,3.029c-0.242,0.846-0.363,1.608-0.363,2.291
					c0,0.212,0.03,0.424,0.093,0.636c0.061,0.212,0.172,0.402,0.334,0.571c0.162,0.171,0.395,0.308,0.69,0.413
					c0.298,0.106,0.685,0.159,1.156,0.159c0.243,0,0.485-0.055,0.723-0.162c0.236-0.108,0.464-0.249,0.679-0.423
					c0.217-0.175,0.424-0.373,0.619-0.596c0.197-0.222,0.377-0.453,0.538-0.692c0.382-0.553,0.728-1.177,1.035-1.872
					c-0.04-0.192-0.076-0.494-0.103-0.911c-0.026-0.416-0.049-1.051-0.062-1.904c-0.016-0.852-0.025-1.553-0.042-2.097
					c-0.015-0.546-0.022-1.044-0.03-1.494c-0.007-0.45-0.018-0.818-0.031-1.105C202.446,70.268,202.433,70.131,202.418,70.146z
					 M211.991,56.293c0.084-0.948,0.125-1.697,0.125-2.255c0-0.729-0.066-1.237-0.197-1.522c-0.131-0.284-0.318-0.426-0.565-0.426
					c-0.438,0-0.839,0.274-1.194,0.822c-0.357,0.549-0.646,1.256-0.863,2.12c-0.217,0.866-0.453,1.807-0.707,2.823
					c-0.256,1.015-0.44,2.01-0.562,2.983c-0.116,0.973-0.211,1.852-0.28,2.633c-0.072,0.782-0.121,1.337-0.15,1.668
					c-0.059,0.673-0.106,1.318-0.145,1.943c-0.035,0.624-0.062,1.194-0.074,1.707c-0.017,0.515-0.022,0.963-0.022,1.347
					c0,0.384,0,0.68,0,0.885v0.207c0.753-1.804,1.444-3.6,2.079-5.39c0.264-0.763,0.523-1.558,0.781-2.387
					c0.259-0.827,0.514-1.649,0.768-2.463c0.254-0.815,0.469-1.622,0.645-2.42C211.797,57.769,211.92,57.011,211.991,56.293z"/>
				<path fill="#00AEAB" d="M230.592,67.427c0,0.367-0.012,0.864-0.035,1.493c-0.023,0.63-0.105,1.317-0.243,2.061
					c-0.14,0.745-0.308,1.646-0.502,2.703c-0.196,1.056-0.358,1.93-0.485,2.622c-0.129,0.691-0.242,1.297-0.339,1.815
					c-0.096,0.519-0.143,0.894-0.143,1.131c0,0.38,0.006,0.729,0.018,1.048c0.013,0.319,0.046,0.598,0.104,0.836
					c0.059,0.238,0.15,0.422,0.273,0.551c0.122,0.128,0.303,0.193,0.534,0.193c0.3,0,0.66-0.076,1.086-0.226
					c0.429-0.148,0.88-0.349,1.36-0.602c0.479-0.251,0.97-0.537,1.47-0.856c0.502-0.319,0.978-0.654,1.433-1.009
					c0.453-0.354,0.864-0.704,1.236-1.05c0.372-0.346,0.674-0.67,0.903-0.969c0,0.449,0.003,0.857,0.01,1.223
					c0.008,0.368,0.013,0.718,0.013,1.05c0,0.333,0.004,0.676,0.01,1.03c0.008,0.353,0.011,0.746,0.013,1.181
					c-0.298,0.294-0.667,0.608-1.106,0.941c-0.438,0.335-0.927,0.668-1.461,1.002c-0.535,0.335-1.103,0.655-1.705,0.963
					c-0.603,0.307-1.207,0.578-1.815,0.811c-0.607,0.235-1.203,0.422-1.783,0.562c-0.582,0.141-1.12,0.21-1.618,0.21
					c-0.504,0-0.938-0.099-1.297-0.299c-0.357-0.199-0.668-0.48-0.926-0.84c-0.262-0.36-0.479-0.791-0.66-1.292
					c-0.182-0.499-0.336-1.056-0.471-1.67c-0.486,0.627-1.004,1.206-1.545,1.732c-0.539,0.528-1.092,0.986-1.653,1.373
					c-0.562,0.389-1.134,0.692-1.707,0.911c-0.576,0.222-1.136,0.332-1.679,0.332c-0.442,0-0.86-0.073-1.252-0.222
					s-0.736-0.399-1.041-0.751s-0.545-0.814-0.721-1.391c-0.175-0.574-0.262-1.288-0.262-2.14c0.014-1.772,0.146-3.13,0.404-4.078
					c0.404-1.382,0.779-3.439,1.132-6.177c0.035-0.198,0.086-0.471,0.149-0.818c0.062-0.346,0.158-0.723,0.289-1.128
					c0.127-0.405,0.287-0.818,0.476-1.239c0.188-0.418,0.411-0.798,0.668-1.136c0.258-0.339,0.56-0.615,0.903-0.833
					c0.346-0.216,0.732-0.332,1.168-0.346c0.717,0.034,1.229,0.151,1.541,0.349c0.312,0.198,0.469,0.443,0.469,0.736
					c-0.121,0.912-0.258,1.789-0.409,2.631c-0.151,0.843-0.306,1.69-0.457,2.546c-0.153,0.854-0.323,1.805-0.511,2.85
					c-0.188,1.046-0.34,1.885-0.451,2.516c-0.113,0.631-0.204,1.142-0.275,1.531c-0.066,0.39-0.104,0.591-0.104,0.605
					c0,0.25,0.023,0.492,0.072,0.722c0.047,0.231,0.117,0.436,0.213,0.617c0.098,0.181,0.219,0.329,0.369,0.439
					c0.146,0.112,0.324,0.169,0.529,0.169c0.299,0,0.604-0.08,0.916-0.238c0.311-0.158,0.602-0.39,0.875-0.693
					c0.283-0.275,0.535-0.634,0.754-1.074c0.217-0.426,0.381-0.924,0.487-1.488l2.231-11.062c0.064-0.325,0.328-0.599,0.793-0.822
					c0.465-0.223,0.99-0.336,1.578-0.336c0.666,0,1.195,0.122,1.586,0.365C230.397,66.737,230.592,67.049,230.592,67.427z"/>
				<path fill="#00AEAB" d="M241.366,86.341c-1.252,0-2.354-0.23-3.3-0.689s-1.739-1.075-2.381-1.845
					c-0.642-0.773-1.124-1.665-1.45-2.68c-0.328-1.015-0.492-2.07-0.492-3.166c0-0.785,0.135-1.727,0.405-2.822
					c0.272-1.096,0.567-2.055,0.888-2.873c0.318-0.817,0.713-1.6,1.182-2.344c0.471-0.745,1.016-1.397,1.634-1.96
					c0.616-0.562,1.312-1.008,2.069-1.34c0.763-0.332,1.601-0.498,2.511-0.498c0.819-0.001,1.58,0.117,2.278,0.354
					c0.697,0.237,1.295,0.564,1.791,0.984c0.498,0.419,0.888,0.916,1.168,1.49c0.279,0.576,0.42,1.194,0.42,1.858
					c0,0.459-0.062,0.912-0.195,1.358c-0.131,0.448-0.389,0.973-0.77,1.574c-0.379,0.603-0.75,1.012-1.105,1.228
					c-0.359,0.218-0.768,0.326-1.223,0.326c-0.684,0-1.125-0.168-1.323-0.508c-0.327-0.527-0.433-0.993-0.312-1.399
					c0.039-0.217,0.162-0.719,0.362-1.502c0.026-0.107,0.034-0.353,0.021-0.729c0-0.325-0.035-0.595-0.104-0.812
					c-0.066-0.216-0.214-0.324-0.443-0.324c-0.553,0.002-1.021,0.133-1.414,0.397c-0.391,0.264-0.725,0.608-1,1.034
					c-0.273,0.428-0.549,1.029-0.815,1.808c-0.271,0.778-0.461,1.433-0.575,1.96c-0.113,0.527-0.188,1.03-0.212,1.511
					c-0.026,0.48-0.04,0.883-0.04,1.208c0,0.486,0.044,0.994,0.132,1.521c0.089,0.529,0.265,1.014,0.526,1.452
					c0.262,0.44,0.604,0.805,1.021,1.096s0.957,0.435,1.616,0.435c0.647,0,1.366-0.2,2.151-0.599
					c0.783-0.399,1.568-0.904,2.361-1.514c0.791-0.608,1.545-1.278,2.263-2.01c0.717-0.732,1.334-1.421,1.849-2.071l1.398,2.354
					c-1.014,1.448-2.108,2.741-3.284,3.88c-0.502,0.486-1.046,0.96-1.636,1.42c-0.588,0.461-1.202,0.871-1.846,1.229
					c-0.644,0.358-1.312,0.648-2.012,0.874C242.788,86.228,242.081,86.34,241.366,86.341z"/>
				<path fill="#00AEAB" d="M271.659,81.298c-0.312,0.438-0.729,0.951-1.25,1.54c-0.521,0.589-1.104,1.149-1.755,1.685
					c-0.647,0.533-1.347,0.984-2.09,1.354c-0.745,0.368-1.489,0.555-2.233,0.555c-0.896,0.001-1.646-0.283-2.248-0.853
					c-0.602-0.569-1.119-1.396-1.556-2.48c-0.327,0.375-0.729,0.756-1.206,1.146c-0.479,0.39-1,0.741-1.564,1.055
					c-0.565,0.315-1.155,0.574-1.771,0.774c-0.614,0.202-1.228,0.303-1.842,0.303c-0.649,0-1.282-0.134-1.897-0.399
					c-0.617-0.266-1.16-0.647-1.635-1.146s-0.854-1.105-1.138-1.822c-0.284-0.717-0.427-1.525-0.427-2.427
					c0-1.011,0.141-2.048,0.428-3.115c0.285-1.065,0.727-2.217,1.326-3.458c0.597-1.241,1.24-2.312,1.927-3.217
					c0.687-0.904,1.438-1.693,2.257-2.367c0.814-0.674,1.678-1.211,2.581-1.609c0.905-0.398,1.827-0.598,2.769-0.598
					c0.312,0,0.559,0.061,0.733,0.185c0.179,0.123,0.323,0.263,0.438,0.421c0.115,0.156,0.229,0.311,0.338,0.46
					c0.107,0.151,0.244,0.26,0.408,0.329c0.162,0.068,0.33,0.111,0.502,0.133c0.168,0.021,0.342,0.029,0.521,0.029
					c0.149,0,0.302-0.002,0.459-0.01c0.156-0.007,0.31-0.01,0.459-0.01c0.204-0.001,0.396,0.02,0.572,0.06
					c0.177,0.043,0.334,0.13,0.47,0.268c0.137,0.137,0.24,0.329,0.315,0.574c0.073,0.247,0.11,0.581,0.11,1.005
					c0,0.648-0.065,1.364-0.201,2.154c-0.137,0.787-0.291,1.595-0.465,2.423c-0.174,0.827-0.371,1.771-0.597,2.829
					c-0.224,1.06-0.334,1.952-0.334,2.678c0,0.62,0.06,1.104,0.172,1.454c0.116,0.35,0.364,0.524,0.743,0.524
					c0.284,0,0.58-0.071,0.895-0.212c0.312-0.143,0.625-0.325,0.94-0.553c0.319-0.229,0.638-0.487,0.954-0.776
					c0.316-0.288,0.619-0.587,0.902-0.896c0.662-0.724,1.332-1.544,2.009-2.455L271.659,81.298z M254.243,79.715
					c0,0.349,0.023,0.688,0.071,1.016c0.048,0.326,0.132,0.621,0.255,0.88c0.123,0.257,0.285,0.467,0.488,0.626
					c0.203,0.161,0.461,0.242,0.773,0.242c0.5-0.002,0.955-0.219,1.359-0.655c0.407-0.438,0.757-0.961,1.059-1.573
					c0.297-0.614,0.537-1.247,0.721-1.902c0.184-0.653,0.301-1.198,0.355-1.634l1.512-6.599c-0.558,0-1.098,0.138-1.625,0.412
					c-0.527,0.275-1.024,0.647-1.49,1.117c-0.469,0.471-0.896,1.007-1.289,1.61c-0.393,0.604-0.777,1.35-1.156,2.233
					c-0.378,0.886-0.645,1.665-0.801,2.334C254.32,78.494,254.243,79.125,254.243,79.715z"/>
				<path fill="#00AEAB" d="M286.902,81.776c-1.3,0.758-2.46,1.42-3.476,1.988c-1.016,0.57-1.92,1.044-2.713,1.423
					c-0.791,0.38-1.496,0.663-2.113,0.854c-0.615,0.189-1.176,0.284-1.676,0.284c-1.024,0-1.926-0.31-2.707-0.932
					c-0.78-0.622-1.434-1.518-1.959-2.688c-0.523-1.171-0.92-2.589-1.184-4.252c-0.264-1.665-0.395-3.539-0.396-5.623
					c0-0.812,0.031-1.678,0.1-2.598c0.066-0.921,0.161-1.833,0.281-2.74c-0.409-0.061-0.729-0.116-0.951-0.169
					c-0.225-0.053-0.463-0.105-0.715-0.158c-0.252-0.053-0.571-0.109-0.96-0.169c-0.39-0.06-0.95-0.135-1.688-0.225
					c-0.324-0.045-0.578-0.132-0.754-0.259c-0.179-0.129-0.307-0.28-0.389-0.452c-0.083-0.175-0.13-0.355-0.145-0.544
					c-0.015-0.188-0.021-0.349-0.021-0.484c0-0.215,0.132-0.376,0.396-0.488c0.266-0.114,0.604-0.197,1.02-0.254
					s0.871-0.087,1.368-0.095c0.497-0.008,0.973-0.005,1.429,0.009c0.456,0.014,0.863,0.023,1.225,0.03
					c0.359,0.007,0.607-0.003,0.744-0.03c0.363-1.822,0.826-3.588,1.387-5.294c0.562-1.706,1.188-3.224,1.883-4.554
					c0.695-1.33,1.457-2.395,2.277-3.199c0.824-0.804,1.688-1.204,2.594-1.207c0.584,0,1.113,0.163,1.596,0.487
					c0.479,0.325,0.891,0.758,1.229,1.298s0.602,1.172,0.783,1.896c0.184,0.723,0.274,1.477,0.274,2.26
					c0,0.648-0.097,1.335-0.284,2.056c-0.189,0.723-0.447,1.457-0.771,2.205s-0.707,1.506-1.146,2.274
					c-0.438,0.768-0.9,1.528-1.391,2.282c0.123-0.045,0.326-0.052,0.609-0.024c0.285,0.026,0.613,0.045,0.985,0.057
					c0.372,0.01,0.774,0.021,1.208,0.032c0.434,0.01,0.854,0.021,1.258,0.036c0.406,0.013,0.785,0.025,1.137,0.04
					c0.354,0.013,0.645,0.026,0.873,0.039c0.271,0.015,0.469,0.166,0.59,0.452c0.123,0.286,0.185,0.647,0.185,1.085
					c0,0.505-0.138,0.917-0.407,1.234c-0.271,0.317-0.566,0.476-0.895,0.478l-7.803,0.003c-0.395,0.541-0.791,1.071-1.193,1.593
					c-0.399,0.522-0.77,0.991-1.107,1.412c-0.054,0.838-0.104,1.664-0.143,2.476c-0.014,0.352-0.025,0.714-0.039,1.086
					c-0.016,0.373-0.029,0.741-0.041,1.106c-0.014,0.365-0.021,0.717-0.028,1.056c-0.008,0.338-0.011,0.649-0.011,0.934
					c0,0.729,0.068,1.347,0.205,1.847c0.136,0.501,0.332,0.91,0.59,1.228c0.259,0.317,0.574,0.548,0.949,0.688
					c0.373,0.144,0.789,0.215,1.254,0.214c0.281,0,0.639-0.067,1.066-0.204c0.426-0.134,0.893-0.319,1.398-0.559
					c0.508-0.235,1.043-0.518,1.605-0.843c0.562-0.324,1.117-0.68,1.664-1.064c0.551-0.387,1.072-0.793,1.572-1.22
					c0.503-0.427,0.955-0.862,1.363-1.31L286.902,81.776z M280.397,56.074c0-0.148-0.011-0.312-0.031-0.495
					c-0.02-0.182-0.064-0.354-0.133-0.514c-0.066-0.162-0.172-0.298-0.314-0.406c-0.144-0.106-0.344-0.161-0.603-0.161
					c-0.353,0.001-0.71,0.31-1.069,0.928c-0.358,0.617-0.707,1.407-1.037,2.368c-0.332,0.96-0.646,2.02-0.938,3.175
					c-0.292,1.155-0.561,2.276-0.805,3.365c0.203,0.02,0.408,0.037,0.611,0.052c0.203,0.016,0.414,0.033,0.633,0.053
					c0.408-0.682,0.83-1.421,1.271-2.217c0.439-0.796,0.837-1.577,1.189-2.347c0.354-0.769,0.646-1.487,0.875-2.156
					C280.28,57.051,280.397,56.502,280.397,56.074z"/>
				<path fill="#00AEAB" d="M297.681,81.994c-0.487,0.446-1.093,0.924-1.815,1.433c-0.727,0.508-1.506,0.974-2.345,1.4
					c-0.839,0.426-1.694,0.782-2.567,1.067c-0.871,0.284-1.701,0.427-2.486,0.427c-0.702,0-1.295-0.097-1.774-0.293
					c-0.479-0.196-0.868-0.471-1.166-0.823c-0.299-0.351-0.512-0.78-0.641-1.288c-0.132-0.509-0.193-1.064-0.193-1.676
					c0-0.851,0.095-1.846,0.283-2.981c0.39-2.353,0.64-3.673,0.75-3.963c0.185-0.577,0.554-1.859,1.104-3.842
					c0.515-1.616,0.83-2.669,0.951-3.157c0.065-0.341,0.252-0.649,0.557-0.924c0.279-0.245,0.596-0.447,0.947-0.604
					c0.354-0.158,0.719-0.275,1.1-0.351c0.377-0.075,0.721-0.112,1.025-0.113c0.557,0,0.938,0.104,1.137,0.315
					c0.199,0.208,0.299,0.489,0.299,0.84c0,0.299-0.066,0.72-0.207,1.263c-0.139,0.544-0.297,1.163-0.475,1.859
					c-0.18,0.694-0.44,1.589-0.789,2.682c-0.351,1.093-0.586,2.025-0.713,2.796c-0.127,0.772-0.289,1.538-0.482,2.299
					c-0.194,0.761-0.292,1.454-0.292,2.075c0,0.607,0.069,1.091,0.204,1.449c0.136,0.359,0.412,0.538,0.832,0.538
					c0.488-0.001,1.027-0.169,1.623-0.507c0.597-0.339,1.197-0.748,1.807-1.229c0.609-0.48,1.205-0.979,1.785-1.493
					c0.583-0.514,1.096-0.954,1.543-1.32L297.681,81.994z M288.6,60.697c0-0.312,0.066-0.67,0.201-1.066
					c0.135-0.395,0.355-0.768,0.658-1.116c0.307-0.348,0.711-0.642,1.22-0.881c0.507-0.239,1.14-0.359,1.897-0.359
					c0.473-0.002,0.92,0.055,1.34,0.163c0.418,0.108,0.783,0.276,1.096,0.502c0.311,0.225,0.56,0.521,0.74,0.89
					c0.184,0.37,0.272,0.807,0.273,1.312c0,0.466-0.072,0.916-0.223,1.353s-0.387,0.826-0.711,1.169
					c-0.324,0.343-0.732,0.617-1.229,0.829c-0.492,0.213-1.085,0.318-1.773,0.318c-1.191,0.001-2.071-0.283-2.641-0.849
					C288.883,62.394,288.6,61.64,288.6,60.697z"/>
				<path fill="#00AEAB" d="M308.717,70.664c0.395,0.784,0.688,1.613,0.885,2.486c0.195,0.873,0.295,1.856,0.296,2.952
					c0,0.799-0.087,1.604-0.265,2.415c-0.174,0.813-0.428,1.597-0.76,2.355s-0.736,1.468-1.218,2.132
					c-0.479,0.662-1.026,1.238-1.643,1.726c-0.616,0.487-1.289,0.874-2.021,1.158c-0.729,0.284-1.51,0.427-2.334,0.427
					c-1.191,0.001-2.21-0.259-3.056-0.78c-0.847-0.52-1.539-1.2-2.081-2.038c-0.541-0.839-0.938-1.787-1.188-2.841
					c-0.25-1.057-0.375-2.125-0.375-3.207c-0.002-1.788,0.221-3.325,0.666-4.619c0.446-1.292,1.084-2.415,1.918-3.37
					c0.83-0.954,1.849-1.705,3.053-2.254c1.205-0.548,2.559-0.822,4.061-0.823c1.284-0.001,2.489,0.198,3.612,0.597
					c1.124,0.4,2.177,0.933,3.155,1.604c0.981,0.668,1.896,1.51,2.742,2.525c0.847,1.014,1.635,1.98,2.367,2.901l-0.387,2.862
					c-0.363-0.487-0.859-1.015-1.482-1.582c-0.623-0.568-1.281-1.199-1.979-1.887c-0.699-0.691-1.387-1.275-2.062-1.757
					c-0.678-0.479-1.258-0.882-1.746-1.206L308.717,70.664z M302.45,82.417c0.461,0,0.907-0.232,1.342-0.699
					c0.433-0.468,0.811-1.056,1.136-1.767c0.323-0.711,0.584-1.571,0.778-2.578c0.197-1.008,0.293-1.904,0.293-2.689
					c0-0.622-0.047-1.199-0.143-1.735c-0.095-0.534-0.236-0.997-0.426-1.39c-0.189-0.394-0.434-0.704-0.73-0.935
					c-0.3-0.23-0.656-0.344-1.078-0.344c-0.555,0-1.082,0.237-1.58,0.711c-0.502,0.475-0.939,1.08-1.319,1.817
					c-0.38,0.737-0.677,1.553-0.894,2.445c-0.213,0.893-0.324,1.902-0.324,3.024c0.002,0.568,0.058,1.103,0.166,1.603
					c0.106,0.501,0.275,0.938,0.506,1.31c0.23,0.374,0.535,0.67,0.916,0.893C301.469,82.308,301.922,82.419,302.45,82.417z"/>
				<path fill="#00AEAB" d="M313.758,82.067c-0.002-0.891,0.051-1.924,0.16-3.093c0.105-1.172,0.242-2.457,0.402-3.858
					c0.162-1.4,0.346-2.662,0.547-3.785s0.398-2.084,0.588-2.882c0.146-0.623,0.437-1.145,0.861-1.564
					c0.428-0.418,1.006-0.63,1.734-0.63c0.73,0,1.238,0.223,1.521,0.67C319.857,67.37,320,67.967,320,68.71
					c0,0.203-0.021,0.477-0.062,0.822c-0.04,0.345-0.091,0.725-0.149,1.137c-0.062,0.413-0.127,0.84-0.191,1.28
					c-0.069,0.438-0.135,0.94-0.191,1.501c-0.062,0.562-0.111,0.982-0.152,1.258c-0.039,0.277-0.062,0.465-0.062,0.559h0.406
					c0.081-0.148,0.209-0.39,0.386-0.719c0.176-0.333,0.378-0.811,0.605-1.434c0.229-0.622,0.478-1.174,0.742-1.654
					s0.51-0.939,0.738-1.38c0.23-0.438,0.44-0.829,0.629-1.167c0.19-0.339,0.332-0.589,0.428-0.751
					c0.433-0.73,0.926-1.232,1.479-1.503s1.171-0.406,1.849-0.406c0.674,0,1.213,0.284,1.612,0.852s0.599,1.352,0.599,2.354
					c0,0.148-0.027,0.399-0.09,0.751c-0.06,0.353-0.139,0.771-0.23,1.257c-0.096,0.489-0.201,1.118-0.312,1.891
					c-0.115,0.771-0.222,1.46-0.314,2.07c-0.094,0.608-0.172,1.21-0.232,1.806c-0.061,0.596-0.092,1.144-0.09,1.644
					c0,0.84,0.104,1.529,0.314,2.071c0.211,0.54,0.539,0.811,0.986,0.811c0.161,0,0.391-0.06,0.688-0.184
					c0.445-0.162,0.729-0.303,0.854-0.425c0.596-0.461,0.905-0.684,0.932-0.671c0.043,0.014,0.494-0.256,1.361-0.812
					c1.08-0.691,2.372-1.537,3.877-2.539l-0.021,4.546l-1.017,0.772c-0.082,0.067-0.719,0.42-1.908,1.057
					c-1.717,0.92-2.793,1.476-3.225,1.664c-1.057,0.475-1.714,0.746-1.971,0.813c-0.676,0.217-1.389,0.325-2.132,0.325
					c-0.744,0-1.37-0.537-1.878-1.613c-0.508-1.074-0.762-2.648-0.764-4.718c0-0.812,0.053-1.688,0.162-2.629
					c0.106-0.94,0.241-1.952,0.402-3.034h-0.322l-5.314,10.557c-0.282,0.567-0.588,0.947-0.914,1.137
					c-0.338,0.202-0.729,0.305-1.176,0.305c-0.557,0-1.002-0.117-1.34-0.354c-0.338-0.238-0.6-0.555-0.781-0.953
					c-0.184-0.4-0.305-0.854-0.365-1.36C313.788,83.135,313.758,82.609,313.758,82.067z"/>
			</g>
		</g>
		<g>
			<g>
				<path fill="#00AEAB" d="M179.377,96.795c0,0.469-0.111,1.158-0.336,2.073c-0.226,0.915-0.504,1.971-0.842,3.167
					c-0.339,1.197-0.703,2.496-1.098,3.896c-0.393,1.402-0.758,2.827-1.098,4.271c-0.338,1.442-0.618,2.864-0.842,4.261
					c-0.225,1.396-0.334,2.689-0.334,3.889c0,0.977,0.062,1.889,0.19,2.733c0.129,0.847,0.328,1.581,0.601,2.207
					c0.271,0.624,0.607,1.117,1.014,1.476c0.408,0.355,0.889,0.537,1.443,0.537s1.092-0.166,1.612-0.496s1.024-0.783,1.515-1.361
					c0.486-0.578,0.955-1.268,1.4-2.064c0.445-0.799,0.876-1.662,1.289-2.592c0.414-0.93,0.803-1.905,1.167-2.932
					c0.366-1.023,0.712-2.062,1.037-3.106c1.137-3.688,2.146-7.878,3.024-12.571c0.164-0.756,0.356-1.39,0.584-1.897
					c0.227-0.511,0.494-0.915,0.81-1.218c0.313-0.305,0.677-0.518,1.094-0.642c0.416-0.125,0.897-0.185,1.442-0.185
					c0.517,0,0.939,0.047,1.271,0.141c0.33,0.094,0.595,0.223,0.791,0.387c0.193,0.162,0.334,0.356,0.414,0.586
					c0.084,0.231,0.123,0.489,0.123,0.773c0,0.096-0.053,0.488-0.159,1.188c-0.109,0.697-0.25,1.59-0.419,2.679
					c-0.168,1.092-0.354,2.321-0.549,3.705c-0.194,1.38-0.379,2.8-0.548,4.253s-0.309,2.893-0.416,4.312s-0.162,2.728-0.162,3.916
					c0,1.219,0.044,2.316,0.132,3.299c0.089,0.981,0.234,1.817,0.444,2.508c0.209,0.689,0.48,1.219,0.818,1.582
					c0.336,0.365,0.752,0.55,1.252,0.55c0.859,0,1.646-0.338,2.354-1.017c0.706-0.676,1.354-1.578,1.938-2.709
					c0.588-1.131,1.11-2.438,1.574-3.928c0.467-1.488,0.924-3.43,1.377-5.824c0.448-2.395,0.676-3.594,0.676-3.591
					c0,0.002,0.158-1.302,0.475-3.911c0.316-2.611,0.531-4.397,0.648-5.367c0.117-0.969,0.207-1.727,0.274-2.272
					c0.043-0.601,0.179-1.079,0.406-1.442c0.229-0.363,0.519-0.646,0.871-0.846c0.354-0.199,0.754-0.331,1.202-0.396
					c0.449-0.064,0.908-0.098,1.382-0.098c0.366,0,0.7,0.033,1.001,0.104c0.304,0.066,0.562,0.186,0.785,0.354
					c0.221,0.169,0.39,0.393,0.507,0.67c0.116,0.279,0.176,0.637,0.176,1.069c0,1.203-0.11,2.524-0.344,3.969
					c-0.229,1.442-0.521,2.894-0.87,4.349c-0.354,1.455-0.57,2.885-0.654,4.285c-0.082,1.4-0.365,2.754-0.848,4.057
					c-0.479,1.303-0.811,2.369-0.982,3.203c-0.173,0.832-0.259,1.383-0.259,1.646c0,0.646,0.069,1.199,0.222,1.656
					c0.148,0.457,0.349,0.836,0.598,1.134c0.25,0.3,0.55,0.517,0.895,0.647c0.346,0.135,0.713,0.197,1.107,0.197
					c0.393,0,0.794-0.09,1.206-0.271c0.413-0.186,0.81-0.438,1.188-0.762c0.377-0.324,0.729-0.715,1.045-1.168
					s0.586-0.957,0.803-1.514l0.346,4.169c-1.002,1.064-2.035,1.906-3.096,2.522c-1.062,0.613-2.062,0.921-2.994,0.921
					c-0.447,0-0.865-0.065-1.258-0.198c-0.394-0.131-0.74-0.337-1.043-0.611c-0.303-0.273-0.555-0.634-0.758-1.069
					c-0.201-0.439-0.345-0.96-0.425-1.562c-0.677,1.15-1.397,2.188-2.176,3.109c-0.772,0.923-1.599,1.708-2.466,2.357
					c-0.87,0.65-1.781,1.15-2.73,1.506c-0.951,0.354-1.932,0.527-2.939,0.527c-1.281,0-2.37-0.34-3.268-1.015
					c-0.896-0.679-1.625-1.597-2.186-2.763c-0.562-1.161-0.969-2.529-1.225-4.098c-0.256-1.57-0.385-3.24-0.385-5.017
					c0-0.646,0.032-1.258,0.104-1.826c0.064-0.565,0.121-1.073,0.16-1.521c-0.486,3.086-1.1,5.668-1.836,7.744
					c-0.737,2.076-1.604,3.744-2.598,5.002c-0.996,1.258-2.133,2.154-3.412,2.688c-1.277,0.536-2.695,0.803-4.252,0.803
					c-0.893,0-1.744-0.296-2.558-0.883c-0.812-0.589-1.524-1.465-2.141-2.628c-0.616-1.165-1.109-2.623-1.482-4.375
					c-0.372-1.751-0.557-3.799-0.557-6.142c0-1.434,0.081-2.903,0.242-4.414c0.164-1.51,0.395-3.021,0.7-4.535
					c0.305-1.518,0.681-3.018,1.127-4.505c0.445-1.488,0.955-2.938,1.522-4.345c0.338-0.785,0.676-1.396,1.015-1.84
					c0.339-0.438,0.685-0.764,1.036-0.974c0.352-0.209,0.707-0.334,1.064-0.377c0.356-0.04,0.721-0.06,1.088-0.06
					c0.295,0,0.567,0.021,0.809,0.062c0.246,0.041,0.453,0.127,0.622,0.258c0.168,0.132,0.297,0.315,0.385,0.558
					C179.329,96.055,179.377,96.384,179.377,96.795z"/>
				<path fill="#00AEAB" d="M219.374,128.064c-1.265,0-2.369-0.234-3.315-0.705c-0.948-0.465-1.737-1.096-2.37-1.889
					c-0.632-0.791-1.104-1.707-1.421-2.748c-0.315-1.039-0.474-2.133-0.474-3.273c0-0.748,0.141-1.641,0.422-2.674
					c0.283-1.035,0.576-1.955,0.881-2.756c0.303-0.803,0.682-1.564,1.14-2.293c0.458-0.729,0.992-1.371,1.604-1.925
					c0.611-0.554,1.301-0.993,2.06-1.321c0.763-0.328,1.604-0.49,2.534-0.49c0.759,0,1.463,0.121,2.111,0.363
					c0.651,0.244,1.217,0.586,1.695,1.023c0.482,0.438,0.857,0.971,1.129,1.591c0.271,0.622,0.406,1.319,0.406,2.089
					c0,0.819-0.273,1.739-0.822,2.762c-0.549,1.017-1.189,1.891-1.924,2.617c-0.732,0.729-1.604,1.377-2.611,1.944
					c-1.012,0.568-2.104,1.015-3.285,1.329c0.203,0.357,0.402,0.657,0.6,0.895c0.198,0.237,0.396,0.424,0.604,0.556
					c0.205,0.134,0.418,0.227,0.643,0.278c0.225,0.051,0.466,0.08,0.723,0.08c0.812,0,1.668-0.16,2.569-0.479
					c0.897-0.316,1.774-0.715,2.628-1.188c0.852-0.479,1.657-0.998,2.416-1.562c0.756-0.562,1.4-1.095,1.928-1.599l2.618,2.66
					c-1.19,1.269-2.457,2.391-3.796,3.363c-0.582,0.42-1.208,0.83-1.878,1.234c-0.669,0.402-1.373,0.763-2.108,1.076
					c-0.738,0.312-1.504,0.563-2.295,0.752C220.987,127.971,220.184,128.064,219.374,128.064z M216.665,118.396
					c0.488,0,1.021-0.123,1.6-0.367c0.576-0.243,1.111-0.559,1.607-0.941c0.496-0.385,0.981-0.9,1.457-1.548
					c0.477-0.647,0.715-1.185,0.715-1.608c0-0.597-0.111-1.084-0.338-1.468c-0.225-0.386-0.5-0.577-0.824-0.577
					c-0.586,0-1.084,0.106-1.498,0.316c-0.413,0.214-0.76,0.486-1.041,0.824c-0.274,0.339-0.5,0.722-0.67,1.152
					c-0.17,0.43-0.366,0.961-0.592,1.598c-0.225,0.634-0.349,1.156-0.377,1.565C216.678,117.756,216.665,118.104,216.665,118.396z"
					/>
				<path fill="#00AEAB" d="M234.676,128.064c-1.264,0-2.368-0.234-3.316-0.705c-0.945-0.465-1.736-1.096-2.369-1.889
					c-0.632-0.791-1.104-1.707-1.42-2.748c-0.316-1.039-0.475-2.133-0.475-3.273c0-0.748,0.141-1.641,0.424-2.674
					c0.281-1.035,0.576-1.955,0.879-2.756c0.303-0.803,0.682-1.564,1.141-2.293c0.457-0.729,0.992-1.371,1.604-1.925
					s1.299-0.993,2.058-1.321c0.762-0.328,1.606-0.49,2.534-0.49c0.761,0,1.464,0.121,2.114,0.363
					c0.65,0.244,1.216,0.586,1.695,1.023c0.48,0.438,0.855,0.971,1.129,1.591c0.27,0.622,0.406,1.319,0.406,2.089
					c0,0.819-0.274,1.739-0.824,2.762c-0.549,1.017-1.189,1.891-1.922,2.617c-0.732,0.729-1.604,1.377-2.612,1.944
					c-1.011,0.568-2.106,1.015-3.285,1.329c0.203,0.357,0.401,0.657,0.601,0.895c0.196,0.237,0.396,0.424,0.603,0.556
					c0.202,0.134,0.416,0.227,0.642,0.278c0.227,0.051,0.465,0.08,0.725,0.08c0.812,0,1.668-0.16,2.566-0.479
					c0.897-0.316,1.776-0.715,2.629-1.188c0.854-0.479,1.656-0.998,2.418-1.562c0.756-0.562,1.397-1.095,1.928-1.599l2.617,2.66
					c-1.19,1.269-2.455,2.391-3.795,3.363c-0.582,0.42-1.207,0.83-1.877,1.234c-0.672,0.402-1.375,0.763-2.111,1.076
					c-0.738,0.312-1.502,0.563-2.295,0.752C236.292,127.971,235.488,128.064,234.676,128.064z M231.967,118.396
					c0.488,0,1.021-0.123,1.601-0.367c0.577-0.243,1.112-0.559,1.608-0.941c0.494-0.385,0.979-0.9,1.457-1.548
					c0.475-0.647,0.714-1.185,0.714-1.608c0-0.597-0.112-1.084-0.337-1.468c-0.227-0.386-0.499-0.577-0.825-0.577
					c-0.585,0-1.083,0.106-1.498,0.316c-0.414,0.214-0.761,0.486-1.039,0.824c-0.276,0.339-0.502,0.722-0.672,1.152
					c-0.17,0.43-0.365,0.961-0.591,1.598c-0.225,0.634-0.35,1.156-0.377,1.565C231.98,117.756,231.967,118.104,231.967,118.396z"/>
			</g>
		</g>
		<path fill="#00AEAB" d="M261.904,128.604c1.854,0,2.526-1.311,0.829-1.832c-4.816-1.479-6.227-2.69-8.009-4.869
			c-1.156-1.41-2.513-3.098-3.031-4.851c-0.323-1.095,6.697-6.213,8.017-7.188c0.487-0.362,4.076-3.354,2.125-3.636
			c-1.864-0.269-3.057,0.754-4.666,1.754c-3.996,2.476-7.285,6.498-10.353,9.92c0.452-0.502,3.765,0.801,4.55-0.076
			c1.473-1.641,3-3.236,4.551-4.811c1.133-1.143,2.301-2.25,3.508-3.32c0.678-0.6,1.388-1.16,2.137-1.676
			c0.73-0.502-1.488-0.34,0.498-0.498c-1.116-0.022-2.23-0.049-3.348-0.072c0.869,0.199-2.562,2.728-2.879,2.968
			c-2.646,2.019-5.389,3.924-8.051,5.924c-1.914,1.441,2.396,5.854,3.543,7C255.581,127.594,259.797,128.604,261.904,128.604z"/>
		<path fill="#00AEAB" d="M240.637,124.93c4.021-2.734,8.498-6.336,9.439-11.349c0.641-3.423,1.094-6.886,1.483-10.345
			c0.219-1.936,1.276-6.34,0.032-8.096c-0.356-0.502-4.021,1.361-4.461,1.719c-0.922,0.748-0.67,3.714-0.744,4.744
			c-0.227,3.092-0.324,6.192-0.434,9.291c-0.207,6.021-1.307,11.996-1.386,18.021c0.005-0.255,4.507-0.879,4.519-1.812
			c0.074-5.809,0.973-11.599,1.354-17.391c0.167-2.52,0.192-5.054,0.322-7.576c0.062-1.255-0.332-6.011,0.771-6.908
			c-1.486,0.574-2.975,1.147-4.459,1.723c0.899,1.271,0.312,4.044,0.213,5.463c-0.244,3.604-0.789,7.193-1.353,10.758
			c-0.937,5.93-4.418,9.775-9.295,13.094C236.274,126.518,239.834,125.475,240.637,124.93L240.637,124.93z"/>
		<path fill="#F1592A" d="M59.517,51.06l84.105-33.705l4.635,11.43l-2.84,1.116l1.602,8.493c0,0,3.006,0.087,3.325,2.014
			c0.319,1.927-1.869,2.548-1.869,2.548l6.94,19.801l-7.911,1.456l-1.213-20.747c0,0-3.104-0.238-3.324-2.185
			c-0.22-1.947,2.814-2.669,2.814-2.669l-1.528-8.178l-16.137,6.455l5.632,16.367c0,0,0.787,0.59,1.851,2.077
			c0.566,0.792,1.631,2.334,1.631,2.334l4.693-0.808l9.076,48.726l-78.573,14.657l-9.075-48.774l22.785-4.149
			c0,0,0.801-1.869,1.541-3.046c0.74-1.177,1.42-2.195,1.42-2.195l0.072-9.439L61.87,63.46L59.517,51.06z"/>
		<path fill="#FFFFFF" d="M133.312,95.245c-11.701,15.237-29.987,21.528-42.51,12.84c-12.52-8.692-12.704-27.397-3.021-43.993
			c9.645-16.529,30.41-22.135,42.931-13.444S145.03,79.985,133.312,95.245z"/>
		<path fill="#F1592A" d="M114.018,87.944c-0.834,0.33-1.672,0.657-2.621,0.873c-0.262,0.046-0.512,0.103-0.776,0.146
			c-0.151,0.052-0.338,0.066-0.534,0.073c-0.073,0.016-0.209-0.031-0.242,0.024c-0.09,0.016-0.242-0.031-0.291,0.024
			c-0.154,0.016-0.372-0.032-0.485,0.023c-0.219,0-0.438,0-0.655,0c-0.114-0.056-0.331-0.008-0.485-0.023
			c-0.05-0.056-0.201-0.009-0.291-0.024c-0.777-0.057-1.453-0.214-2.087-0.413c-0.057-0.04-0.131-0.062-0.219-0.072
			c-0.088-0.01-0.162-0.032-0.218-0.073c0-0.008,0-0.016,0-0.024c-0.279-0.068-0.497-0.199-0.753-0.291
			c-0.197-0.062-0.337-0.181-0.533-0.242c0-0.008,0-0.017,0-0.024s0-0.017,0-0.024c-0.706-0.33-1.272-0.799-1.845-1.262
			c-0.023-0.074-0.093-0.102-0.146-0.146c0-0.009,0-0.017,0-0.024c-0.212-0.096-0.282-0.332-0.485-0.437
			c-0.062-0.052-0.107-0.119-0.146-0.194c-0.074-0.079-0.122-0.186-0.219-0.242c-0.058-0.064-0.089-0.153-0.17-0.194
			c-0.38-0.453-0.67-0.996-0.971-1.529c-0.094-0.147-0.175-0.31-0.242-0.485c-0.019-0.062-0.024-0.138-0.073-0.17
			c-0.287-0.618-0.529-1.281-0.679-2.038c-0.064-0.356-0.129-0.713-0.194-1.067c-0.039-0.114-0.05-0.258-0.049-0.413
			c0.005-0.296-0.051-0.531-0.049-0.825c-0.016-0.105,0.032-0.273-0.023-0.339c0-0.211,0-0.421,0-0.631
			c0.039-0.277,0.034-0.597,0.048-0.898c0.056-0.033,0.01-0.169,0.024-0.242c0.053-0.716,0.18-1.357,0.34-1.966
			c0.047-0.099,0.077-0.214,0.097-0.34c-0.002-0.075,0.012-0.135,0.049-0.17c0.008,0,0.017,0,0.024,0
			c-0.002-0.163,0.075-0.248,0.097-0.388c-0.002-0.035-0.004-0.069,0.024-0.073c0.041-0.057,0.063-0.131,0.073-0.219
			c0.059-0.216,0.135-0.414,0.218-0.606c0.009,0,0.017,0,0.024,0c0.011-0.151,0.108-0.216,0.122-0.364
			c0.003-0.045,0.016-0.08,0.048-0.097c0.008,0,0.017,0,0.024,0c0.008-0.089,0.06-0.134,0.073-0.218
			c-0.005-0.028,0.005-0.044,0.023-0.049c0.009,0,0.017,0,0.024,0c0.004-0.069,0.045-0.102,0.049-0.17
			c-0.002-0.034-0.004-0.068,0.024-0.073c0.008,0,0.016,0,0.024,0c0.08-0.218,0.196-0.401,0.291-0.606
			c-0.004-0.028,0.005-0.043,0.024-0.049c0.008,0,0.016,0,0.024,0c0.457-0.966,1.052-1.795,1.674-2.596
			c0.022-0.019,0.037-0.045,0.049-0.073c0.008,0,0.016,0,0.024,0c0.078-0.147,0.21-0.242,0.291-0.388
			c0.105-0.016,0.094-0.149,0.17-0.194c0.108-0.077,0.174-0.198,0.267-0.292c0.066-0.046,0.123-0.103,0.17-0.169
			c0.112-0.074,0.177-0.196,0.267-0.292c0.147-0.127,0.285-0.265,0.413-0.412c0.032-0.072,0.109-0.101,0.17-0.146
			c0.008,0,0.016,0,0.024,0c0.118-0.132,0.271-0.229,0.388-0.364c0.146-0.177,0.354-0.292,0.51-0.461
			c0.021-0.019,0.055-0.026,0.097-0.024c0-0.008,0-0.016,0-0.024c0.205-0.15,0.409-0.303,0.606-0.461
			c0.003-0.062,0.096-0.034,0.098-0.097c0.016,0,0.032,0,0.049,0c0.153-0.089,0.299-0.187,0.437-0.291
			c0.005-0.02,0.024-0.024,0.024-0.049c0.409-0.229,0.789-0.489,1.213-0.704c0.083-0.038,0.184-0.059,0.243-0.121
			c0-0.008,0-0.016,0-0.024c0.205-0.086,0.398-0.184,0.606-0.267c0.051-0.047,0.115-0.078,0.194-0.097
			c0.081,0,0.128-0.034,0.17-0.073c0.084,0.004,0.103-0.059,0.169-0.072c0.246-0.087,0.507-0.157,0.704-0.292
			c0.085,0.004,0.155-0.006,0.194-0.048c0.16-0.033,0.307-0.082,0.437-0.146c0.008-0.032,0.061-0.02,0.098-0.023
			c0.177-0.041,0.351-0.086,0.509-0.146c0.238-0.046,0.433-0.134,0.68-0.17c0.224-0.043,0.453-0.081,0.68-0.122
			c0.226,0.023,0.318-0.086,0.533-0.072c0.074-0.016,0.21,0.031,0.243-0.024c0.082-0.016,0.226,0.031,0.267-0.024
			c0.146-0.016,0.355,0.032,0.461-0.024c0.275,0,0.551,0,0.825,0c0.09,0.057,0.283,0.009,0.413,0.024
			c0.049,0.056,0.201,0.009,0.291,0.024c0.524,0.033,0.992,0.124,1.432,0.243c0,0.008,0,0.016,0,0.023
			c0.266,0.034,0.46,0.139,0.703,0.194c0.004,0.028,0.045,0.021,0.073,0.024c0,0.008,0,0.016,0,0.024
			c0.097-0.016,0.098,0.064,0.194,0.048c0.004,0.029,0.044,0.021,0.072,0.024c0,0.009,0,0.017,0,0.024
			c0.227,0.065,0.399,0.184,0.631,0.243c1.283,0.626,2.3,1.519,3.155,2.572c-0.005,0.061,0.037,0.075,0.072,0.097
			c0.023,0.098,0.095,0.148,0.146,0.219c0.077,0.149,0.185,0.268,0.268,0.412c0.034,0.095,0.085,0.174,0.146,0.242
			c0.04,0.09,0.093,0.166,0.146,0.243c0.014,0.108,0.075,0.167,0.121,0.243c0.055,0.066,0.095,0.147,0.121,0.242
			c0.028,0.077,0.045,0.166,0.098,0.219c0.071,0.033,0.033,0.176,0.097,0.218c0.019,0.062,0.024,0.138,0.073,0.17
			c0.048,0.032,0.054,0.108,0.072,0.17c0.008,0.081,0.025,0.153,0.073,0.194c0.035,0.006,0.008,0.072,0.048,0.072
			c0.019,0.168,0.104,0.27,0.122,0.438c0.016,0.089,0.024,0.186,0.072,0.242c0.043,0.07,0.056,0.172,0.073,0.268
			c0.002,0.078,0.013,0.148,0.049,0.193c0.026,0.135,0.038,0.285,0.097,0.389c0.038,0.115,0.062,0.244,0.072,0.389
			c-0.001,0.106,0.01,0.2,0.049,0.267c0.004,0.15,0.012,0.296,0.049,0.412c0.015,0.059-0.03,0.177,0.024,0.194
			c0.015,0.074-0.031,0.209,0.023,0.242c0.016,0.082-0.031,0.226,0.024,0.268c0.016,0.105-0.031,0.274,0.024,0.34
			c0,0.097,0,0.193,0,0.291c0,0.332,0,0.663,0,0.995c0.004,0.326-0.049,0.598-0.049,0.922c-0.021,0.383-0.066,0.742-0.146,1.067
			c-0.036,0.068-0.042,0.168-0.048,0.268c-0.003,0.15-0.03,0.277-0.073,0.388c-0.008,0-0.016,0-0.024,0
			c0.014,0.094-0.043,0.118-0.023,0.219c-0.024,0.187-0.061,0.36-0.122,0.51c-0.008,0-0.016,0-0.024,0
			c-0.021,0.262-0.127,0.438-0.17,0.679c0,0.024,0,0.049,0,0.073c-0.008,0-0.016,0-0.023,0c-0.019,0.167-0.104,0.27-0.122,0.437
			c-0.008,0-0.016,0-0.023,0c-0.009,0-0.017,0-0.024,0c0.016,0.097-0.064,0.098-0.049,0.194c-0.053-0.004-0.011,0.086-0.024,0.121
			c-0.096,0.066-0.104,0.22-0.146,0.34c0,0.017,0,0.032,0,0.049c-0.036,0.044-0.025,0.136-0.072,0.17
			c-0.223,0.456-0.416,0.942-0.655,1.383c-0.023,0.099-0.101,0.142-0.122,0.243c-0.008,0-0.016,0-0.023,0
			c-0.114,0.331-0.338,0.553-0.462,0.873c0.004,0.028-0.005,0.043-0.023,0.049c-0.447,0.637-0.893,1.275-1.359,1.893
			c-0.083-0.002-0.091,0.071-0.121,0.121c-0.137,0.163-0.29,0.309-0.413,0.485c-0.073,0.023-0.101,0.093-0.146,0.146
			c-0.251,0.259-0.511,0.508-0.752,0.776c-0.018,0.056-0.073,0.073-0.121,0.098c-0.149,0.109-0.285,0.232-0.413,0.364
			c-0.16,0.122-0.287,0.278-0.461,0.388c-0.035,0.014-0.059,0.038-0.072,0.073c-0.19,0.125-0.38,0.251-0.534,0.412
			c-0.562,0.345-1.097,0.716-1.675,1.043c-0.109,0.036-0.206,0.085-0.291,0.146c-0.1,0.07-0.213,0.126-0.34,0.17
			C114.163,87.863,114.038,87.852,114.018,87.944z"/>
	</g>
</g>
<g id="Layer_1_copy">
	<g>
		<g>
			<path fill="#00AEAB" d="M183.75,62.652c-0.373,0.803-0.707,1.59-1.004,2.363c-0.299,0.776-0.535,1.516-0.711,2.221
				c-0.176,0.706-0.265,1.34-0.265,1.901c0,0.968,0.062,1.884,0.192,2.75c0.128,0.864,0.345,1.62,0.648,2.267
				c0.303,0.648,0.715,1.162,1.229,1.543c0.514,0.382,1.155,0.573,1.928,0.573c0.989,0,1.942-0.389,2.864-1.162
				c0.92-0.774,1.734-1.876,2.445-3.302c0.711-1.428,1.207-3.149,1.633-5.166c0.426-2.019,0.566-4.264,0.566-6.736v-0.367
				c1,0.175,2.075,0.324,2.729,0.449c0.653,0.124,1.192,0.223,1.542,0.294c0.352,0.074,0.615,0.125,0.756,0.155
				c0.143,0.028,0.268,0.043,0.363,0.043c0.783,0,1.582-0.119,2.388-0.357c0.806-0.237,1.575-0.556,2.306-0.952
				c0.731-0.396,1.406-0.859,2.022-1.385c0.032-0.027,0.058-0.055,0.088-0.083c0.045,0.061,0.085,0.125,0.133,0.185
				c0.632,0.79,1.421,1.421,2.369,1.889c0.948,0.47,2.056,0.703,3.317,0.703c0.812,0,1.615-0.094,2.406-0.282
				s1.555-0.438,2.293-0.753c0.736-0.312,1.439-0.673,2.11-1.076c0.619-0.374,1.194-0.754,1.74-1.141
				c0.014,0.193,0.011,0.395,0.032,0.583c0.062,0.508,0.184,0.961,0.365,1.36c0.186,0.399,0.443,0.717,0.781,0.954
				c0.338,0.236,0.784,0.354,1.34,0.354c0.447,0,0.84-0.102,1.178-0.305c0.324-0.189,0.629-0.503,0.914-1.071l5.317-10.491h0.323
				c-0.162,1-0.297,2.031-0.404,2.971c-0.109,0.941-0.164,1.784-0.164,2.596c0,2.071,0.254,3.626,0.764,4.704
				c0.508,1.076,1.133,1.605,1.875,1.605c0.744,0,1.455-0.112,2.135-0.329c0.256-0.066,0.91-0.34,1.969-0.813
				c0.434-0.188,1.507-0.745,3.227-1.665c1.189-0.636,1.828-0.988,1.908-1.055l1.016-0.774l0.021-4.545
				c-1.503,1.002-2.795,1.847-3.878,2.537c-0.865,0.555-1.316,0.824-1.357,0.812c-0.027-0.014-0.338,0.21-0.935,0.669
				c-0.122,0.123-0.405,0.266-0.854,0.426c-0.299,0.123-0.525,0.184-0.689,0.184c-0.443,0-0.771-0.271-0.982-0.812
				c-0.209-0.541-0.313-1.23-0.313-2.071c0-0.5,0.03-1.047,0.091-1.645c0.062-0.594,0.139-1.195,0.232-1.805
				c0.097-0.609,0.201-1.299,0.315-2.07c0.113-0.771,0.22-1.401,0.313-1.889c0.095-0.486,0.174-0.905,0.232-1.258
				c0.061-0.353,0.09-0.602,0.09-0.752c0-1.001-0.197-1.785-0.599-2.353c-0.399-0.569-0.938-0.853-1.612-0.853
				c-0.679,0-1.293,0.135-1.848,0.406c-0.555,0.271-1.049,0.771-1.482,1.5c-0.094,0.163-0.234,0.414-0.426,0.753
				c-0.188,0.338-0.396,0.727-0.629,1.166c-0.229,0.439-0.477,0.9-0.74,1.379c-0.266,0.48-0.511,1.033-0.74,1.655
				c-0.229,0.623-0.434,1.187-0.608,1.518c-0.176,0.332-0.306,0.808-0.386,0.808h-0.406c0,0,0.021-0.368,0.062-0.645
				s0.09-0.74,0.15-1.302c0.062-0.562,0.125-1.084,0.193-1.524c0.066-0.44,0.132-0.876,0.189-1.29
				c0.062-0.413,0.113-0.798,0.153-1.142c0.041-0.346,0.062-0.621,0.062-0.825c0-0.744-0.145-1.341-0.428-1.788
				c-0.283-0.446-0.791-0.67-1.521-0.67c-0.729,0-1.309,0.209-1.733,0.628c-0.427,0.419-0.715,0.94-0.862,1.563
				c-0.188,0.798-0.387,1.76-0.588,2.882c-0.203,1.123-0.387,2.386-0.549,3.786c-0.113,0.989-0.212,1.9-0.299,2.775
				c-0.264,0.212-0.527,0.426-0.828,0.647c-0.758,0.561-1.562,1.08-2.414,1.557c-0.854,0.476-1.729,0.874-2.629,1.19
				c-0.898,0.318-1.756,0.477-2.566,0.477c-0.259,0-0.498-0.025-0.725-0.08c-0.227-0.052-0.438-0.145-0.643-0.276
				c-0.203-0.131-0.404-0.317-0.602-0.557c-0.197-0.238-0.398-0.535-0.602-0.893c1.18-0.317,2.275-0.76,3.285-1.33
				c1.01-0.568,1.881-1.217,2.613-1.945c0.73-0.728,1.372-1.601,1.922-2.619c0.551-1.018,0.823-1.938,0.823-2.76
				c0-0.77-0.138-1.465-0.405-2.086c-0.271-0.622-0.647-1.153-1.127-1.593c-0.482-0.438-1.047-0.78-1.699-1.021
				c-0.648-0.244-1.354-0.366-2.111-0.366c-0.93,0-1.773,0.164-2.533,0.49c-0.76,0.328-1.447,0.769-2.061,1.323
				c-0.612,0.555-1.146,1.195-1.604,1.923s-0.84,1.493-1.142,2.294c-0.305,0.802-0.596,1.72-0.879,2.754
				c-0.281,1.035-0.424,1.927-0.424,2.675c0,0.783,0.078,1.539,0.228,2.272c-0.524,0.359-1.076,0.699-1.679,0.992
				c-0.912,0.445-1.932,0.799-3.053,1.061c-1.123,0.263-2.363,0.394-3.727,0.394l-0.121-0.412c1.217-0.524,2.268-1.116,3.15-1.778
				c0.885-0.662,1.647-1.373,2.289-2.133c0.643-0.759,1.166-1.656,1.57-2.691c0.271-0.694,0.404-1.657,0.404-2.889
				c0-1.157-0.154-2.135-0.466-2.932c-0.312-0.797-0.736-1.447-1.277-1.95c-0.539-0.505-1.168-0.87-1.885-1.095
				c-0.718-0.225-1.485-0.337-2.312-0.337c-1.14,0-2.108,0.202-2.912,0.604c-0.808,0.404-1.496,0.947-2.072,1.633
				c-0.575,0.685-1.115,1.595-1.623,2.729c-0.508,1.135-0.883,2.221-1.125,3.254c-0.242,1.033-0.441,2.088-0.6,3.163
				c-0.158,1.073-0.312,2.121-0.463,3.143c-1.179,1.865-2.227,3.674-3.146,5.428C184.504,61.072,184.123,61.851,183.75,62.652z
				 M208.625,49.759c0.027-0.41,0.152-0.934,0.377-1.568c0.225-0.635,0.422-1.167,0.593-1.598c0.169-0.43,0.394-0.813,0.672-1.151
				c0.276-0.336,0.624-0.611,1.039-0.823c0.414-0.212,0.913-0.317,1.497-0.317c0.324,0,0.602,0.19,0.826,0.575
				c0.223,0.385,0.335,0.873,0.335,1.468c0,0.424-0.237,0.961-0.714,1.608c-0.478,0.648-0.961,1.164-1.457,1.549
				c-0.495,0.384-1.032,0.698-1.607,0.942c-0.579,0.245-1.109,0.366-1.6,0.366C208.585,50.521,208.597,50.169,208.625,49.759z
				 M192.986,52.269c0.049-0.779,0.199-1.631,0.449-2.555c0.251-0.924,0.469-1.7,0.65-2.329c0.183-0.628,0.412-1.172,0.688-1.63
				c0.277-0.459,0.604-0.822,0.984-1.091c0.379-0.269,0.819-0.403,1.319-0.403c0.443,0,0.791,0.121,1.041,0.363
				c0.25,0.242,0.426,0.535,0.525,0.875c0.102,0.341,0.143,0.704,0.122,1.09c-0.021,0.387-0.065,0.725-0.132,1.013
				c-0.123,0.537-0.408,1.311-0.854,2.318c-0.662,1.18-1.084,1.781-1.26,1.808c-0.434,0.551-0.936,1.068-1.503,1.553
				c-0.597,0.485-1.3,0.923-2.112,1.316C192.91,53.823,192.935,53.049,192.986,52.269z M185.76,68.52
				c0.071-0.398,0.175-0.871,0.304-1.418c0.129-0.547,0.281-1.138,0.456-1.773c0.177-0.634,0.373-1.27,0.589-1.904
				c0.217-0.636,0.448-1.246,0.69-1.833c0.243-0.587,0.493-1.104,0.752-1.55c-0.015,0.277-0.028,0.604-0.041,0.982
				c-0.017,0.336-0.033,0.758-0.054,1.263c-0.022,0.503-0.058,1.12-0.098,1.847c-0.029,0.418-0.047,0.888-0.055,1.413
				c-0.008,0.524-0.021,1.063-0.046,1.615c-0.022,0.552-0.056,1.089-0.097,1.614c-0.041,0.524-0.106,0.995-0.201,1.413
				c-0.096,0.417-0.219,0.749-0.366,0.999c-0.147,0.248-0.338,0.373-0.567,0.373c-0.258,0-0.475-0.094-0.648-0.283
				c-0.176-0.188-0.317-0.402-0.426-0.645c-0.109-0.243-0.188-0.485-0.234-0.727c-0.047-0.243-0.068-0.418-0.068-0.525
				C185.648,69.205,185.685,68.918,185.76,68.52z"/>
			<path fill="#00AEAB" d="M159.687,61.93c1.139,1.469,2.514,2.611,4.131,3.429c1.616,0.818,3.434,1.229,5.449,1.229
				c1.921,0,3.704-0.381,5.35-1.144c1.646-0.763,3.135-1.791,4.477-3.085c1.341-1.296,2.523-2.799,3.552-4.513
				c1.028-1.713,1.89-3.517,2.577-5.412c0.689-1.896,1.215-3.824,1.572-5.787c0.359-1.963,0.539-3.848,0.539-5.655
				c0-2.205-0.295-4.222-0.883-6.051c-0.59-1.83-1.436-3.404-2.537-4.725c-1.104-1.32-2.457-2.348-4.061-3.08
				c-1.604-0.735-3.421-1.104-5.449-1.104c-1.517,0-2.934,0.2-4.252,0.603c-1.32,0.401-2.554,0.961-3.695,1.675
				c-1.144,0.715-2.188,1.566-3.135,2.555c-0.949,0.986-1.806,2.065-2.567,3.236c-0.765,1.172-1.435,2.414-2.011,3.728
				c-0.576,1.314-1.056,2.656-1.438,4.024c-0.388,1.368-0.674,2.741-0.864,4.115c-0.188,1.375-0.281,2.717-0.281,4.023
				c0,2.428,0.305,4.657,0.912,6.689C157.679,58.714,158.552,60.462,159.687,61.93z M161.859,46.555
				c0.338-1.555,0.812-3.081,1.422-4.582c0.607-1.5,1.34-2.929,2.191-4.286c0.852-1.356,1.793-2.551,2.82-3.581
				c1.029-1.028,2.125-1.847,3.289-2.453c1.162-0.607,2.367-0.91,3.613-0.91c1.161,0,2.18,0.245,3.053,0.735
				c0.875,0.491,1.599,1.163,2.172,2.017c0.578,0.852,1.007,1.854,1.291,3.005c0.283,1.153,0.426,2.384,0.426,3.693
				c0,0.901-0.059,1.899-0.172,2.998c-0.116,1.098-0.295,2.24-0.538,3.426c-0.244,1.187-0.552,2.387-0.925,3.6
				c-0.371,1.214-0.807,2.388-1.312,3.52c-0.497,1.132-1.069,2.192-1.715,3.182c-0.644,0.988-1.354,1.852-2.131,2.587
				c-0.776,0.736-1.636,1.317-2.565,1.739c-0.936,0.424-1.941,0.635-3.022,0.635c-1.313,0-2.488-0.276-3.522-0.828
				c-1.035-0.553-1.914-1.313-2.64-2.281c-0.724-0.969-1.278-2.117-1.664-3.448c-0.386-1.329-0.579-2.765-0.579-4.306
				C161.351,49.597,161.522,48.11,161.859,46.555z"/>
			<path fill="#00AEAB" d="M255.041,99.565c-0.283,0.31-0.584,0.606-0.902,0.896s-0.635,0.549-0.954,0.776
				c-0.317,0.228-0.631,0.41-0.942,0.554c-0.312,0.141-0.606,0.211-0.893,0.211c-0.379,0-0.627-0.175-0.743-0.523
				c-0.114-0.35-0.172-0.834-0.172-1.454c0-0.726,0.11-1.618,0.334-2.679c0.224-1.059,0.422-2.002,0.597-2.828
				c0.174-0.828,0.328-1.637,0.463-2.423c0.138-0.79,0.203-1.506,0.203-2.154c0-0.424-0.037-0.758-0.111-1.005
				c-0.074-0.245-0.18-0.438-0.314-0.574c-0.136-0.138-0.293-0.225-0.47-0.268c-0.179-0.04-0.368-0.061-0.572-0.06
				c-0.147,0-0.303,0.003-0.459,0.01c-0.155,0.008-0.312,0.01-0.459,0.01c-0.179,0-0.353-0.009-0.521-0.029
				c-0.17-0.021-0.338-0.064-0.502-0.133c-0.162-0.069-0.299-0.178-0.408-0.329c-0.107-0.149-0.221-0.304-0.338-0.46
				c-0.113-0.158-0.26-0.298-0.438-0.421c-0.177-0.124-0.422-0.185-0.733-0.185c-0.939,0-1.861,0.199-2.769,0.598
				c-0.903,0.398-1.769,0.936-2.581,1.609c-0.816,0.674-1.568,1.463-2.257,2.367c-0.687,0.904-1.33,1.977-1.929,3.217
				c-0.6,1.241-1.041,2.393-1.324,3.458c-0.042,0.154-0.059,0.304-0.094,0.456c-0.127,0.133-0.238,0.26-0.373,0.396
				c-0.717,0.73-1.469,1.4-2.26,2.01c-0.793,0.609-1.58,1.113-2.362,1.514c-0.785,0.398-1.505,0.6-2.151,0.6
				c-0.66,0-1.199-0.145-1.615-0.436c-0.42-0.291-0.762-0.654-1.021-1.096c-0.264-0.438-0.438-0.923-0.525-1.452
				c-0.089-0.526-0.133-1.035-0.133-1.521c0-0.325,0.014-0.729,0.04-1.209c0.026-0.479,0.097-0.982,0.212-1.511
				c0.114-0.526,0.307-1.182,0.575-1.96c0.269-0.777,0.542-1.38,0.817-1.808c0.273-0.426,0.607-0.771,0.998-1.034
				c0.393-0.265,0.861-0.396,1.416-0.397c0.229,0,0.377,0.108,0.441,0.324c0.066,0.218,0.104,0.487,0.104,0.812
				c0.015,0.379,0.006,0.624-0.021,0.731c-0.2,0.783-0.321,1.285-0.362,1.502c-0.119,0.405-0.018,0.871,0.312,1.398
				c0.2,0.34,0.642,0.508,1.325,0.508c0.455,0,0.859-0.107,1.221-0.326c0.357-0.216,0.729-0.625,1.105-1.228
				c0.381-0.603,0.639-1.126,0.77-1.574c0.133-0.446,0.197-0.899,0.197-1.358c0-0.664-0.143-1.282-0.422-1.858
				c-0.281-0.574-0.668-1.071-1.166-1.49c-0.498-0.42-1.096-0.747-1.793-0.984c-0.699-0.236-1.459-0.354-2.279-0.354
				c-0.909,0-1.747,0.166-2.51,0.498c-0.76,0.332-1.451,0.778-2.069,1.34s-1.163,1.215-1.632,1.96
				c-0.469,0.744-0.863,1.526-1.184,2.345c-0.318,0.817-0.613,1.776-0.888,2.873c-0.271,1.096-0.403,2.036-0.403,2.821
				c0,0.701,0.072,1.384,0.207,2.052c-0.09,0.06-0.17,0.125-0.261,0.185c-0.5,0.319-0.991,0.604-1.471,0.856
				c-0.481,0.252-0.935,0.452-1.359,0.602c-0.426,0.148-0.788,0.226-1.086,0.226c-0.231,0-0.411-0.065-0.534-0.192
				c-0.125-0.129-0.217-0.312-0.273-0.551c-0.059-0.24-0.092-0.518-0.104-0.837c-0.013-0.317-0.02-0.668-0.02-1.048
				c0-0.236,0.048-0.611,0.145-1.131c0.096-0.52,0.209-1.124,0.338-1.814c0.127-0.692,0.289-1.566,0.485-2.623
				c0.194-1.057,0.362-1.958,0.502-2.703c0.138-0.743,0.22-1.431,0.243-2.061c0.023-0.629,0.035-1.126,0.035-1.493
				c0-0.378-0.194-0.689-0.588-0.933c-0.394-0.243-0.922-0.365-1.588-0.365c-0.588,0-1.113,0.112-1.578,0.336
				c-0.463,0.224-0.729,0.497-0.793,0.822l-2.231,11.062c-0.108,0.563-0.272,1.062-0.489,1.487c-0.217,0.44-0.469,0.8-0.752,1.074
				c-0.273,0.304-0.564,0.535-0.875,0.692c-0.312,0.158-0.619,0.238-0.918,0.238c-0.203,0-0.381-0.057-0.529-0.169
				c-0.148-0.11-0.271-0.259-0.367-0.438c-0.096-0.182-0.168-0.387-0.215-0.617c-0.049-0.229-0.071-0.473-0.071-0.723
				c0-0.015,0.036-0.215,0.104-0.604c0.07-0.39,0.161-0.899,0.274-1.531c0.112-0.631,0.265-1.47,0.45-2.516
				c0.188-1.045,0.357-1.996,0.512-2.851c0.152-0.854,0.307-1.703,0.457-2.545c0.15-0.842,0.287-1.719,0.408-2.631
				c0-0.293-0.154-0.538-0.467-0.736c-0.312-0.197-0.826-0.314-1.543-0.349c-0.435,0.014-0.822,0.13-1.166,0.346
				c-0.346,0.218-0.646,0.494-0.904,0.833c-0.258,0.338-0.479,0.718-0.668,1.136c-0.188,0.421-0.35,0.834-0.477,1.239
				c-0.131,0.405-0.228,0.782-0.287,1.128c-0.064,0.348-0.115,0.62-0.15,0.818c-0.352,2.737-0.729,4.795-1.133,6.178
				c-0.076,0.283-0.141,0.615-0.193,0.974c-0.432,0.347-0.854,0.676-1.266,0.977c-0.324,0.232-0.658,0.462-1.004,0.688
				c-0.346,0.226-0.688,0.427-1.025,0.604c-0.338,0.178-0.659,0.317-0.963,0.42c-0.305,0.104-0.586,0.153-0.842,0.153
				c-0.266,0-0.483-0.082-0.664-0.246c-0.178-0.163-0.319-0.386-0.424-0.667c-0.105-0.279-0.184-0.598-0.229-0.954
				c-0.046-0.354-0.067-0.731-0.069-1.128c0-0.314,0.021-0.641,0.063-0.976c0.042-0.335,0.095-0.664,0.155-0.985
				c0.063-0.32,0.132-0.618,0.201-0.893c0.068-0.272,0.14-0.506,0.209-0.698c0.324-0.875,1.076-2.537,2.258-4.987
				c0.773-1.602,1.436-3.219,1.979-4.855c0.548-1.635,1.101-3.289,1.661-4.963c0.561-1.673,0.859-3.482,0.896-5.426
				c0.008-0.509,0.012-1.006,0.012-1.488c0-0.772-0.061-1.521-0.184-2.246c-0.121-0.724-0.322-1.362-0.6-1.911
				c-0.277-0.549-0.643-0.989-1.088-1.32c-0.446-0.333-0.987-0.499-1.623-0.499c-0.871,0.001-1.716,0.27-2.531,0.805
				c-0.816,0.534-1.584,1.275-2.306,2.222c-0.724,0.948-1.386,2.07-1.99,3.37c-0.604,1.299-1.101,2.72-1.479,4.263
				c-0.383,1.543-0.74,2.985-1.072,4.325c-0.331,1.34-0.518,2.889-0.559,4.646c-1.029,0.097-1.996,0.337-2.902,0.722
				c-0.904,0.385-1.787,0.955-2.646,1.712c-0.859,0.756-1.548,1.594-2.068,2.515c-0.521,0.919-0.993,1.804-1.42,2.646
				c-0.428,0.846-0.75,1.719-0.974,2.617c-0.077,0.311-0.122,0.615-0.172,0.922c-0.14,0.137-0.261,0.271-0.418,0.406
				c-0.653,0.562-1.41,1.096-2.269,1.604c-0.86,0.509-1.793,0.983-2.793,1.426c-1.004,0.44-2.033,0.825-3.09,1.147
				c-1.058,0.324-2.117,0.576-3.183,0.763c-1.062,0.185-2.079,0.276-3.048,0.276c-0.783,0-1.516-0.084-2.191-0.254
				c-0.677-0.173-1.266-0.457-1.763-0.859c-0.497-0.401-0.892-0.934-1.176-1.592c-0.287-0.659-0.431-1.483-0.431-2.474
				c0-1.041,0.25-1.954,0.752-2.737c0.504-0.785,1.162-1.443,1.981-1.979c0.817-0.536,1.741-0.938,2.772-1.207
				c1.031-0.271,2.084-0.406,3.156-0.406c0.481,0,0.986,0.021,1.518,0.06c0.531,0.041,0.975,0.061,1.332,0.061
				c0.838,0,1.402-0.186,1.689-0.558c0.288-0.37,0.434-0.966,0.434-1.788c0-0.279-0.014-0.569-0.041-0.87
				c-0.026-0.302-0.055-0.599-0.082-0.892c-0.11-0.463-0.338-0.847-0.68-1.154c-0.344-0.308-0.765-0.568-1.265-0.786
				c-0.499-0.216-1.047-0.406-1.644-0.569c-0.596-0.162-1.202-0.33-1.817-0.506c-0.617-0.178-1.213-0.377-1.787-0.601
				c-0.573-0.223-1.085-0.51-1.53-0.863c-0.443-0.351-0.803-0.778-1.066-1.279c-0.268-0.501-0.401-1.116-0.401-1.849
				c-0.002-0.896,0.187-1.648,0.562-2.26c0.375-0.61,0.882-1.104,1.514-1.477c0.635-0.372,1.365-0.641,2.197-0.806
				c0.832-0.162,1.705-0.244,2.619-0.244c0.981,0,1.979,0.078,2.985,0.232c1.009,0.156,1.962,0.354,2.854,0.599
				c0.894,0.245,1.695,0.517,2.404,0.813c0.709,0.3,1.248,0.597,1.615,0.896c-0.341,1.058-0.582,1.94-0.726,2.646
				c-0.146,0.706-0.218,1.282-0.216,1.73c0,0.503,0.146,0.753,0.432,0.753c0.341,0,0.77-0.113,1.279-0.337
				c0.512-0.224,0.998-0.523,1.461-0.896c0.465-0.373,0.863-0.797,1.197-1.272c0.334-0.476,0.502-0.957,0.5-1.445
				c0-1.378-0.36-2.585-1.084-3.618c-0.726-1.033-1.681-1.895-2.867-2.583c-1.188-0.688-2.543-1.205-4.069-1.55
				c-1.528-0.344-3.092-0.516-4.687-0.515c-1.092,0-2.174,0.085-3.244,0.255c-1.068,0.17-2.094,0.42-3.069,0.752
				c-0.978,0.331-1.883,0.746-2.718,1.248c-0.836,0.5-1.559,1.086-2.17,1.755c-0.612,0.669-1.096,1.424-1.443,2.262
				c-0.354,0.837-0.525,1.764-0.523,2.778c0,1.083,0.182,2.108,0.543,3.077c0.36,0.969,0.903,1.815,1.627,2.54
				c0.725,0.725,1.633,1.301,2.731,1.727s2.384,0.639,3.854,0.638c-2.244,0.057-4.166,0.385-5.771,0.987
				c-1.604,0.604-2.922,1.398-3.948,2.385c-1.029,0.983-1.786,2.114-2.276,3.388c-0.489,1.273-0.735,2.604-0.733,3.984
				c0,1.589,0.306,2.961,0.916,4.115c0.611,1.154,1.438,2.108,2.483,2.863c1.05,0.752,2.27,1.312,3.662,1.682
				c1.396,0.364,2.884,0.549,4.468,0.547c1.46,0,2.967-0.147,4.521-0.443c1.555-0.296,3.086-0.734,4.594-1.318
				c1.506-0.584,2.951-1.308,4.336-2.174c0.596-0.373,1.152-0.785,1.695-1.211c0.178,0.421,0.381,0.822,0.637,1.186
				c0.428,0.606,0.961,1.093,1.604,1.459c0.646,0.365,1.401,0.549,2.283,0.547c0.624,0,1.243-0.104,1.862-0.312
				c0.617-0.209,1.229-0.484,1.832-0.831c0.604-0.345,1.188-0.751,1.75-1.219c0.562-0.466,1.096-0.96,1.599-1.478
				c0.332,0.834,0.724,1.504,1.175,2.004c0.451,0.505,0.898,0.89,1.354,1.154c0.449,0.266,0.865,0.44,1.246,0.526
				c0.381,0.088,0.668,0.129,0.861,0.129c0.33,0,0.69-0.06,1.09-0.183c0.395-0.121,0.803-0.28,1.221-0.475
				c0.42-0.195,0.847-0.419,1.279-0.67c0.434-0.252,0.846-0.507,1.236-0.766c0.361-0.242,0.73-0.508,1.1-0.773
				c0.035,0.189,0.062,0.394,0.113,0.561c0.178,0.576,0.415,1.039,0.721,1.391c0.305,0.352,0.649,0.602,1.041,0.751
				c0.391,0.147,0.81,0.222,1.254,0.222c0.543,0,1.101-0.109,1.676-0.332c0.576-0.219,1.146-0.521,1.707-0.91
				c0.562-0.387,1.115-0.846,1.656-1.373c0.541-0.526,1.057-1.105,1.545-1.732c0.133,0.614,0.289,1.171,0.469,1.67
				c0.181,0.501,0.398,0.932,0.66,1.292c0.258,0.359,0.565,0.642,0.926,0.841c0.359,0.199,0.793,0.299,1.297,0.299
				c0.498,0,1.035-0.069,1.617-0.211c0.58-0.141,1.177-0.326,1.783-0.562c0.609-0.231,1.215-0.504,1.816-0.812
				c0.604-0.308,1.169-0.627,1.704-0.963c0.187-0.115,0.354-0.23,0.529-0.346c0.132,0.191,0.271,0.378,0.418,0.557
				c0.641,0.771,1.435,1.387,2.381,1.846c0.944,0.459,2.048,0.688,3.3,0.688c0.715-0.001,1.422-0.113,2.116-0.336
				c0.696-0.226,1.366-0.516,2.011-0.874s1.26-0.769,1.848-1.229s1.133-0.935,1.635-1.421c0.093-0.09,0.183-0.188,0.275-0.279
				c0.063,0.275,0.125,0.555,0.225,0.809c0.285,0.717,0.664,1.322,1.139,1.821c0.475,0.498,1.018,0.88,1.635,1.146
				c0.615,0.267,1.248,0.399,1.896,0.399c0.615,0,1.229-0.101,1.843-0.303c0.612-0.2,1.203-0.459,1.771-0.774
				c0.564-0.312,1.086-0.664,1.564-1.055c0.477-0.391,0.878-0.771,1.206-1.146c0.437,1.086,0.954,1.912,1.556,2.48
				c0.603,0.568,1.351,0.854,2.248,0.854c0.744,0,1.488-0.188,2.233-0.556c0.743-0.37,1.44-0.821,2.09-1.354
				c0.649-0.534,1.233-1.096,1.755-1.685s0.938-1.102,1.249-1.54l-0.978-4.466C256.373,98.021,255.705,98.842,255.041,99.565z
				 M188.062,100.217c-0.162,0.238-0.341,0.471-0.537,0.691c-0.197,0.223-0.404,0.421-0.621,0.596
				c-0.215,0.174-0.439,0.314-0.678,0.424c-0.236,0.106-0.479,0.162-0.723,0.162c-0.473,0-0.858-0.054-1.156-0.16
				c-0.298-0.104-0.527-0.241-0.689-0.412c-0.164-0.17-0.274-0.359-0.336-0.571s-0.092-0.424-0.092-0.636
				c0-0.684,0.121-1.445,0.363-2.291c0.244-0.848,0.6-1.856,1.066-3.029c0.467-1.174,1.047-2.119,1.742-2.836
				s1.49-1.293,2.385-1.729c0.014-0.015,0.025,0.122,0.041,0.408c0.015,0.287,0.023,0.655,0.031,1.105
				c0.008,0.45,0.016,0.948,0.029,1.493c0.018,0.545,0.025,1.246,0.042,2.098c0.017,0.854,0.036,1.488,0.062,1.904
				c0.025,0.417,0.062,0.719,0.104,0.91C188.789,99.039,188.443,99.663,188.062,100.217z M193.279,91.507V91.3
				c0-0.205,0-0.501,0-0.885c0-0.384,0.229-0.832,0.244-1.347c0.014-0.513,0.148-1.083,0.184-1.707
				c0.037-0.625,0.143-1.271,0.199-1.943c0.03-0.331,0.107-0.886,0.178-1.668c0.072-0.781,0.18-1.66,0.298-2.633
				c0.118-0.974,0.312-1.969,0.565-2.983c0.254-1.017,0.493-1.957,0.711-2.823c0.217-0.864,0.506-1.571,0.863-2.12
				c0.357-0.548,0.758-0.822,1.197-0.822c0.247,0,0.438,0.142,0.568,0.426c0.131,0.285,0.197,0.793,0.197,1.522
				c0,0.558-0.041,1.307-0.125,2.255c-0.07,0.718-0.193,1.476-0.367,2.276c-0.178,0.798-0.392,1.604-0.646,2.42
				c-0.254,0.812-0.509,1.636-0.769,2.463c-0.258,0.829-0.737,1.624-1.002,2.387C194.945,87.907,194.279,89.703,193.279,91.507z
				 M245.695,96.992c-0.057,0.436-0.174,0.98-0.355,1.635c-0.184,0.654-0.424,1.287-0.723,1.901
				c-0.299,0.612-0.647,1.138-1.057,1.573c-0.406,0.437-0.861,0.652-1.361,0.654c-0.312,0-0.569-0.08-0.771-0.242
				c-0.203-0.158-0.365-0.368-0.488-0.625c-0.123-0.26-0.207-0.555-0.255-0.881c-0.048-0.328-0.069-0.666-0.069-1.016
				c0-0.59,0.075-1.221,0.23-1.893c0.154-0.67,0.423-1.448,0.801-2.334c0.379-0.885,0.766-1.629,1.156-2.233
				c0.395-0.604,0.82-1.14,1.289-1.61c0.466-0.47,0.963-0.842,1.488-1.117c0.529-0.274,1.07-0.412,1.625-0.412L245.695,96.992z"/>
			<path fill="#00AEAB" d="M278.46,84.088c0.689,0,1.281-0.105,1.775-0.318c0.492-0.212,0.9-0.486,1.229-0.829
				c0.322-0.343,0.561-0.732,0.709-1.169s0.223-0.887,0.223-1.353c-0.001-0.505-0.092-0.941-0.273-1.312
				c-0.183-0.368-0.432-0.665-0.74-0.89c-0.312-0.226-0.678-0.394-1.098-0.502c-0.418-0.108-0.864-0.165-1.34-0.163
				c-0.758,0-1.391,0.12-1.896,0.359c-0.509,0.239-0.913,0.533-1.22,0.881c-0.305,0.349-0.523,0.722-0.657,1.116
				c-0.136,0.396-0.202,0.754-0.202,1.066c0,0.942,0.282,1.696,0.854,2.264C276.389,83.804,277.268,84.089,278.46,84.088z"/>
			<path fill="#00AEAB" d="M318.898,99.945c-0.865,0.557-1.318,0.825-1.359,0.812c-0.024-0.014-0.336,0.209-0.933,0.67
				c-0.122,0.123-0.405,0.264-0.853,0.426c-0.299,0.124-0.526,0.184-0.689,0.184c-0.447,0-0.775-0.271-0.984-0.811
				c-0.211-0.542-0.314-1.231-0.314-2.071c-0.002-0.5,0.027-1.048,0.09-1.644s0.141-1.197,0.23-1.807
				c0.097-0.609,0.201-1.3,0.314-2.07c0.113-0.771,0.221-1.4,0.314-1.891c0.094-0.486,0.173-0.904,0.23-1.257
				c0.062-0.352,0.092-0.603,0.092-0.751c0-1.002-0.199-1.786-0.601-2.354s-0.938-0.852-1.612-0.852
				c-0.678,0-1.293,0.135-1.849,0.406c-0.558,0.271-1.049,0.772-1.479,1.503c-0.097,0.162-0.235,0.412-0.426,0.751
				c-0.188,0.338-0.398,0.729-0.631,1.167c-0.229,0.44-0.477,0.899-0.738,1.38c-0.267,0.48-0.513,1.032-0.74,1.653
				c-0.229,0.623-0.434,1.135-0.607,1.468c-0.177,0.329-0.305,0.752-0.386,0.752h-0.406c0,0,0.021-0.313,0.062-0.592
				c0.041-0.275,0.093-0.714,0.152-1.274c0.059-0.561,0.122-1.07,0.191-1.509c0.066-0.44,0.131-0.872,0.191-1.285
				c0.061-0.412,0.109-0.794,0.149-1.139c0.041-0.346,0.062-0.62,0.062-0.823c0-0.743-0.145-1.34-0.428-1.786
				c-0.285-0.447-0.794-0.67-1.523-0.67c-0.729,0-1.309,0.211-1.733,0.629c-0.427,0.42-0.715,0.941-0.86,1.564
				c-0.188,0.798-0.388,1.759-0.588,2.882c-0.031,0.165-0.058,0.354-0.084,0.524c-0.207-0.249-0.404-0.492-0.617-0.747
				c-0.848-1.016-1.761-1.857-2.742-2.525c-0.979-0.671-2.031-1.203-3.155-1.604c-1.123-0.398-2.328-0.598-3.612-0.597
				c-1.502,0.001-2.855,0.275-4.061,0.823c-1.204,0.549-2.223,1.3-3.053,2.254c-0.834,0.955-1.473,2.078-1.918,3.37
				c-0.445,1.294-0.668,2.831-0.666,4.619c0,0.848,0.1,1.684,0.252,2.516c-0.287,0.24-0.567,0.489-0.861,0.721
				c-0.607,0.481-1.21,0.892-1.807,1.229s-1.135,0.506-1.623,0.507c-0.42,0-0.696-0.179-0.832-0.538
				c-0.135-0.358-0.205-0.842-0.205-1.448c0-0.621,0.099-1.314,0.293-2.076c0.193-0.76,0.354-1.525,0.482-2.299
				c0.127-0.771,0.362-1.703,0.713-2.795c0.348-1.094,0.609-1.988,0.789-2.683c0.178-0.696,0.336-1.315,0.475-1.859
				c0.14-0.543,0.207-0.964,0.207-1.263c0-0.351-0.1-0.632-0.299-0.84c-0.199-0.211-0.58-0.315-1.137-0.315
				c-0.307,0.001-0.648,0.038-1.025,0.113c-0.381,0.075-0.746,0.192-1.1,0.351c-0.355,0.156-0.669,0.358-0.947,0.604
				c-0.306,0.274-0.49,0.583-0.558,0.924c-0.12,0.488-0.438,1.541-0.95,3.157c-0.552,1.982-0.923,3.265-1.104,3.842
				c-0.095,0.242-0.284,1.212-0.57,2.891c-0.387,0.314-0.772,0.629-1.188,0.922c-0.547,0.385-1.104,0.74-1.664,1.063
				c-0.562,0.325-1.098,0.606-1.605,0.843c-0.508,0.239-0.975,0.426-1.398,0.56c-0.43,0.137-0.785,0.204-1.066,0.204
				c-0.463,0-0.88-0.07-1.253-0.215c-0.374-0.141-0.69-0.371-0.95-0.688c-0.257-0.316-0.454-0.727-0.59-1.229
				c-0.137-0.5-0.205-1.117-0.205-1.847c0-0.284,0.003-0.596,0.012-0.934c0.008-0.339,0.018-0.69,0.027-1.056
				c0.012-0.367,0.025-0.733,0.041-1.106c0.016-0.372,0.025-0.734,0.041-1.086c0.039-0.812,0.087-1.638,0.143-2.476
				c0.34-0.421,0.707-0.89,1.107-1.412c0.4-0.521,0.799-1.052,1.191-1.593l7.804-0.003c0.323-0.002,0.622-0.16,0.894-0.478
				c0.271-0.317,0.407-0.729,0.407-1.234c0-0.438-0.062-0.799-0.185-1.085c-0.121-0.286-0.317-0.438-0.59-0.452
				c-0.229-0.013-0.521-0.026-0.873-0.039c-0.352-0.015-0.729-0.027-1.137-0.04c-0.404-0.015-0.824-0.026-1.258-0.036
				c-0.434-0.011-0.836-0.022-1.208-0.032c-0.372-0.012-0.7-0.03-0.985-0.057c-0.283-0.027-0.484-0.021-0.607,0.024
				c0.484-0.754,0.949-1.515,1.389-2.282c0.44-0.769,0.823-1.526,1.146-2.274c0.324-0.748,0.582-1.482,0.771-2.205
				c0.188-0.721,0.284-1.407,0.284-2.056c0-0.783-0.092-1.537-0.274-2.26c-0.184-0.724-0.443-1.355-0.783-1.896
				c-0.34-0.54-0.75-0.973-1.229-1.298c-0.479-0.324-1.011-0.487-1.595-0.487c-0.903,0.003-1.771,0.403-2.595,1.207
				c-0.82,0.805-1.582,1.869-2.277,3.199c-0.691,1.33-1.32,2.848-1.882,4.554c-0.562,1.706-1.021,3.472-1.388,5.294
				c-0.137,0.027-0.385,0.037-0.744,0.03s-0.768-0.017-1.225-0.03c-0.455-0.013-0.932-0.017-1.429-0.009
				c-0.497,0.008-0.952,0.038-1.368,0.095c-0.414,0.057-0.754,0.14-1.02,0.254c-0.266,0.112-0.396,0.273-0.396,0.488
				c0,0.136,0.008,0.297,0.021,0.484c0.015,0.188,0.062,0.369,0.145,0.544c0.082,0.172,0.21,0.323,0.389,0.452
				c0.176,0.127,0.432,0.214,0.754,0.259c0.736,0.09,1.3,0.165,1.688,0.225c0.39,0.06,0.708,0.116,0.96,0.169
				c0.252,0.053,0.49,0.105,0.717,0.158c0.225,0.053,0.541,0.108,0.949,0.169c-0.119,0.907-0.214,1.819-0.279,2.74
				c-0.066,0.92-0.102,1.786-0.102,2.598c0.002,2.084,0.133,3.958,0.396,5.623c0.264,1.663,0.658,3.081,1.185,4.252
				c0.524,1.171,1.178,2.065,1.959,2.688c0.78,0.621,1.683,0.932,2.706,0.932c0.501,0,1.061-0.096,1.676-0.284
				c0.617-0.19,1.322-0.474,2.113-0.854c0.794-0.379,1.697-0.853,2.713-1.423c0.406-0.228,0.854-0.481,1.307-0.739
				c0.031,0.312,0.078,0.61,0.15,0.893c0.129,0.508,0.342,0.938,0.641,1.288c0.297,0.353,0.687,0.627,1.166,0.823
				c0.48,0.195,1.072,0.293,1.776,0.293c0.784,0,1.614-0.144,2.485-0.428c0.873-0.285,1.729-0.641,2.566-1.066
				c0.84-0.426,1.618-0.893,2.346-1.4c0.162-0.113,0.297-0.222,0.446-0.333c0.075,0.132,0.13,0.277,0.212,0.403
				c0.542,0.838,1.235,1.52,2.081,2.038c0.847,0.521,1.863,0.78,3.056,0.78c0.824,0,1.604-0.144,2.334-0.428
				c0.73-0.283,1.403-0.671,2.021-1.158c0.614-0.486,1.163-1.062,1.644-1.726c0.479-0.664,0.885-1.374,1.217-2.132
				c0.332-0.76,0.586-1.542,0.761-2.355c0.177-0.812,0.265-1.615,0.265-2.414c-0.002-1.097-0.102-2.08-0.297-2.953
				c-0.197-0.873-0.49-1.702-0.885-2.485l0.162-0.224c0.488,0.324,1.07,0.727,1.746,1.206c0.679,0.481,1.363,1.065,2.062,1.757
				c0.578,0.57,1.124,1.092,1.65,1.58c-0.005,0.047-0.013,0.086-0.017,0.133c-0.162,1.4-0.297,2.687-0.404,3.857
				c-0.108,1.17-0.161,2.202-0.158,3.094c0,0.541,0.027,1.066,0.09,1.574s0.184,0.961,0.364,1.36
				c0.185,0.397,0.444,0.715,0.782,0.953c0.338,0.235,0.783,0.354,1.34,0.354c0.445,0,0.839-0.104,1.177-0.306
				c0.323-0.188,0.631-0.56,0.914-1.126l5.313-10.546h0.322c-0.16,1-0.296,2.083-0.402,3.022c-0.108,0.94-0.162,1.812-0.162,2.625
				c0,2.068,0.254,3.641,0.765,4.715c0.507,1.076,1.133,1.611,1.877,1.611s1.456-0.109,2.132-0.326
				c0.258-0.066,0.914-0.338,1.971-0.812c0.432-0.188,1.508-0.745,3.227-1.665c1.189-0.638,1.826-0.989,1.906-1.058l1.017-0.771
				l0.019-4.546C321.272,98.408,319.98,99.254,318.898,99.945z M262.64,81.247c0.291-1.155,0.604-2.215,0.938-3.175
				c0.33-0.961,0.679-1.751,1.037-2.368c0.359-0.618,0.717-0.927,1.069-0.928c0.259,0,0.459,0.055,0.603,0.161
				c0.145,0.108,0.248,0.244,0.314,0.406c0.068,0.16,0.113,0.332,0.133,0.514c0.02,0.184,0.031,0.347,0.031,0.495
				c0,0.428-0.117,0.977-0.346,1.645c-0.231,0.669-0.523,1.388-0.875,2.156c-0.354,0.77-0.75,1.551-1.191,2.347
				c-0.441,0.796-0.865,1.535-1.273,2.217c-0.217-0.02-0.428-0.037-0.631-0.053c-0.205-0.015-0.41-0.032-0.611-0.052
				C262.082,83.523,262.348,82.402,262.64,81.247z M292.074,97.651c-0.195,1.007-0.455,1.867-0.779,2.578s-0.702,1.299-1.135,1.767
				c-0.435,0.467-0.881,0.699-1.342,0.699c-0.527,0.002-0.98-0.109-1.357-0.334c-0.381-0.223-0.687-0.52-0.916-0.893
				c-0.229-0.371-0.397-0.81-0.506-1.311c-0.108-0.5-0.164-1.033-0.166-1.604c0-1.121,0.111-2.131,0.324-3.023
				c0.217-0.893,0.514-1.708,0.894-2.445c0.38-0.737,0.817-1.343,1.319-1.816c0.498-0.474,1.025-0.711,1.58-0.711
				c0.422,0,0.778,0.113,1.078,0.344c0.297,0.23,0.541,0.541,0.73,0.935c0.189,0.393,0.33,0.855,0.426,1.39
				c0.096,0.536,0.143,1.112,0.143,1.735C292.367,95.747,292.271,96.644,292.074,97.651z"/>
			<path fill="#00AEAB" d="M249.101,147.05c-4.816-1.481-6.227-2.692-8.009-4.869c-1.089-1.332-2.347-2.905-2.925-4.549
				c1.34-1.474,2.716-2.918,4.117-4.338c0.446-0.453,0.905-0.896,1.367-1.336c1.09-0.837,2.021-1.521,2.424-1.816
				c0.487-0.362,4.078-3.353,2.125-3.635c-1.865-0.27-3.057,0.754-4.664,1.754c-2.633,1.629-4.953,3.931-7.109,6.289
				c0.041-0.424,0.079-0.849,0.117-1.271c0.585-3.232,1.015-6.5,1.384-9.762c0.219-1.937,1.276-6.34,0.032-8.096
				c-0.356-0.502-4.021,1.36-4.459,1.719c-0.922,0.748-0.67,3.713-0.746,4.744c-0.225,3.09-0.324,6.191-0.432,9.289
				c-0.037,1.063-0.107,2.127-0.189,3.188c-0.434,2.062-1.189,3.861-2.217,5.479c-0.291,0.237-0.6,0.48-0.938,0.731
				c-0.76,0.562-1.562,1.081-2.417,1.562c-0.853,0.475-1.729,0.871-2.628,1.188s-1.756,0.479-2.566,0.479
				c-0.26,0-0.498-0.028-0.725-0.08c-0.227-0.054-0.438-0.146-0.643-0.278c-0.203-0.132-0.403-0.315-0.602-0.556
				c-0.197-0.235-0.396-0.535-0.601-0.895c1.179-0.314,2.274-0.761,3.284-1.329c1.01-0.567,1.881-1.217,2.613-1.944
				c0.73-0.729,1.373-1.603,1.922-2.617c0.549-1.021,0.824-1.94,0.824-2.762c0-0.77-0.139-1.467-0.406-2.088
				c-0.271-0.621-0.646-1.15-1.129-1.592c-0.479-0.438-1.045-0.779-1.695-1.023c-0.65-0.241-1.354-0.363-2.114-0.363
				c-0.929,0-1.772,0.162-2.534,0.49c-0.759,0.328-1.445,0.77-2.058,1.322c-0.613,0.551-1.147,1.193-1.604,1.924
				c-0.459,0.729-0.839,1.492-1.141,2.293c-0.303,0.802-0.598,1.721-0.879,2.756c-0.283,1.033-0.424,1.926-0.424,2.674
				c0,0.326,0.017,0.646,0.041,0.963c-0.709,0.516-1.453,0.997-2.241,1.439c-0.853,0.475-1.729,0.871-2.628,1.188
				c-0.901,0.316-1.758,0.479-2.569,0.479c-0.257,0-0.499-0.028-0.723-0.08c-0.226-0.054-0.437-0.146-0.642-0.278
				s-0.404-0.315-0.604-0.556c-0.195-0.235-0.396-0.535-0.601-0.895c1.182-0.314,2.274-0.761,3.285-1.329
				c1.01-0.567,1.881-1.217,2.612-1.944c0.731-0.729,1.375-1.603,1.923-2.617c0.551-1.021,0.823-1.94,0.823-2.762
				c0-0.77-0.136-1.467-0.407-2.088s-0.646-1.15-1.128-1.592c-0.479-0.438-1.044-0.779-1.696-1.023
				c-0.647-0.241-1.354-0.363-2.111-0.363c-0.928,0-1.771,0.162-2.533,0.49c-0.76,0.328-1.446,0.77-2.061,1.322
				c-0.611,0.553-1.146,1.193-1.604,1.924c-0.458,0.729-0.837,1.49-1.141,2.293c-0.303,0.802-0.598,1.721-0.879,2.756
				c-0.283,1.033-0.424,1.926-0.424,2.674c0,0.758,0.076,1.49,0.215,2.203c-0.08,0.043-0.156,0.094-0.238,0.13
				c-0.411,0.184-0.813,0.272-1.205,0.272c-0.396,0-0.764-0.063-1.105-0.197c-0.347-0.133-0.646-0.352-0.896-0.648
				c-0.249-0.298-0.447-0.677-0.598-1.134s-0.223-1.009-0.223-1.656c0-0.267,0.086-0.815,0.26-1.647
				c0.174-0.834,0.502-1.899,0.982-3.203c0.48-1.303,0.766-2.653,0.848-4.057c0.084-1.4,0.303-2.83,0.654-4.285
				s0.643-2.903,0.87-4.348c0.231-1.441,0.344-2.766,0.344-3.969c0-0.434-0.06-0.79-0.176-1.069
				c-0.117-0.278-0.286-0.501-0.507-0.67c-0.221-0.168-0.482-0.284-0.785-0.353c-0.301-0.069-0.635-0.104-1.001-0.104
				c-0.472,0-0.933,0.032-1.382,0.099c-0.448,0.062-0.848,0.193-1.202,0.396c-0.354,0.198-0.644,0.481-0.871,0.845
				c-0.229,0.364-0.362,0.846-0.407,1.443c-0.066,0.548-0.158,1.307-0.273,2.273c-0.117,0.969-0.334,2.756-0.648,5.367
				c-0.314,2.608-0.475,3.912-0.475,3.91c0-0.003-0.227,1.196-0.676,3.592c-0.453,2.396-0.91,4.336-1.377,5.823
				c-0.465,1.488-0.986,2.797-1.576,3.929c-0.584,1.131-1.23,2.032-1.938,2.709c-0.709,0.678-1.494,1.016-2.355,1.016
				c-0.498,0-0.916-0.184-1.252-0.549c-0.338-0.364-0.608-0.894-0.817-1.582c-0.21-0.689-0.356-1.525-0.445-2.508
				c-0.087-0.981-0.131-2.08-0.131-3.299c0-1.189,0.056-2.496,0.162-3.916c0.106-1.423,0.247-2.859,0.416-4.313
				c0.169-1.453,0.353-2.873,0.548-4.253c0.195-1.383,0.38-2.613,0.548-3.705c0.171-1.088,0.31-1.979,0.418-2.678
				c0.108-0.698,0.161-1.092,0.161-1.188c0-0.284-0.039-0.542-0.123-0.772c-0.079-0.229-0.221-0.424-0.413-0.586
				c-0.196-0.164-0.462-0.293-0.793-0.388c-0.332-0.094-0.755-0.142-1.271-0.142c-0.547,0-1.026,0.061-1.442,0.186
				c-0.417,0.124-0.778,0.337-1.094,0.643c-0.313,0.302-0.583,0.707-0.81,1.217c-0.228,0.51-0.42,1.144-0.584,1.898
				c-0.879,4.692-1.89,8.885-3.024,12.57c-0.325,1.047-0.671,2.083-1.037,3.105c-0.365,1.025-0.753,2.002-1.167,2.933
				c-0.413,0.93-0.846,1.793-1.289,2.592c-0.445,0.8-0.914,1.486-1.4,2.063c-0.488,0.578-0.992,1.031-1.515,1.361
				s-1.06,0.496-1.612,0.496c-0.557,0-1.035-0.181-1.443-0.537c-0.404-0.355-0.743-0.851-1.014-1.475
				c-0.271-0.626-0.472-1.361-0.601-2.207c-0.128-0.848-0.19-1.759-0.19-2.734c0-1.195,0.109-2.492,0.334-3.888
				c0.223-1.396,0.504-2.815,0.842-4.261c0.34-1.442,0.705-2.867,1.098-4.271c0.393-1.4,0.759-2.699,1.096-3.896
				c0.338-1.196,0.618-2.252,0.842-3.167c0.227-0.915,0.338-1.604,0.338-2.073c0-0.411-0.045-0.737-0.133-0.979
				c-0.089-0.239-0.218-0.426-0.386-0.558c-0.169-0.131-0.376-0.217-0.622-0.258c-0.24-0.041-0.513-0.062-0.809-0.062
				c-0.367,0-0.729,0.02-1.088,0.06c-0.357,0.043-0.713,0.168-1.064,0.377c-0.354,0.21-0.697,0.535-1.035,0.974
				c-0.34,0.441-0.678,1.055-1.015,1.84c-0.567,1.404-1.078,2.854-1.522,4.345c-0.447,1.487-0.822,2.987-1.127,4.505
				c-0.307,1.518-0.537,3.025-0.701,4.536c-0.16,1.51-0.242,2.979-0.242,4.413c0,2.343,0.187,4.391,0.559,6.142
				c0.373,1.752,0.866,3.21,1.48,4.375c0.615,1.163,1.33,2.039,2.143,2.628c0.812,0.587,1.665,0.883,2.559,0.883
				c1.557,0,2.976-0.267,4.252-0.803c1.278-0.531,2.416-1.432,3.412-2.688c0.992-1.258,1.857-2.926,2.598-5.002
				c0.736-2.076,1.349-4.658,1.836-7.744c-0.039,0.447-0.096,0.955-0.161,1.521c-0.069,0.568-0.103,1.181-0.103,1.826
				c0,1.772,0.129,3.444,0.385,5.017c0.256,1.566,0.662,2.937,1.224,4.098c0.56,1.166,1.287,2.085,2.185,2.763
				c0.896,0.675,1.985,1.015,3.269,1.015c1.01,0,1.987-0.176,2.938-0.526c0.951-0.354,1.861-0.854,2.731-1.507
				c0.868-0.649,1.692-1.437,2.466-2.357c0.776-0.922,1.499-1.959,2.176-3.109c0.08,0.604,0.223,1.123,0.424,1.562
				c0.203,0.438,0.455,0.796,0.758,1.069c0.304,0.274,0.65,0.48,1.044,0.611c0.393,0.133,0.811,0.198,1.258,0.198
				c0.935,0,1.935-0.308,2.994-0.921c0.313-0.184,0.626-0.393,0.937-0.614c0.209,0.371,0.437,0.726,0.696,1.054
				c0.633,0.793,1.422,1.424,2.37,1.891c0.945,0.47,2.053,0.703,3.314,0.703c0.812,0,1.615-0.096,2.408-0.281
				c0.791-0.188,1.557-0.439,2.293-0.752s1.44-0.676,2.109-1.077c0.67-0.403,1.296-0.813,1.878-1.233
				c0.095-0.068,0.183-0.152,0.276-0.224c0.197,0.342,0.41,0.671,0.651,0.978c0.634,0.793,1.425,1.422,2.369,1.889
				c0.948,0.47,2.056,0.703,3.317,0.703c0.812,0,1.613-0.094,2.404-0.281c0.793-0.188,1.558-0.439,2.295-0.752
				c0.736-0.314,1.44-0.674,2.111-1.077c0.67-0.403,1.295-0.813,1.877-1.233c0.516-0.375,1.012-0.793,1.506-1.213
				c-0.156,1.801-0.275,3.604-0.301,5.41c0.004-0.255,4.506-0.879,4.518-1.811c0.025-1.957,0.148-3.911,0.311-5.864
				c0.764,0.916,1.533,1.701,1.93,2.097c4.256,4.256,8.471,5.264,10.577,5.264C250.126,148.882,250.799,147.571,249.101,147.05z
				 M203.072,137.624c0.028-0.41,0.152-0.935,0.377-1.568c0.226-0.635,0.422-1.166,0.592-1.598c0.17-0.431,0.396-0.812,0.67-1.15
				c0.281-0.34,0.628-0.61,1.041-0.824c0.414-0.21,0.912-0.314,1.498-0.314c0.324,0,0.602,0.189,0.824,0.575
				c0.227,0.384,0.338,0.871,0.338,1.47c0,0.424-0.238,0.959-0.715,1.606c-0.476,0.646-0.961,1.163-1.457,1.548
				s-1.031,0.698-1.607,0.942c-0.578,0.241-1.109,0.366-1.6,0.366C203.033,138.382,203.046,138.034,203.072,137.624z
				 M218.376,137.624c0.027-0.41,0.152-0.935,0.377-1.568c0.226-0.635,0.421-1.166,0.591-1.598c0.17-0.431,0.396-0.812,0.672-1.15
				c0.278-0.34,0.625-0.61,1.039-0.824c0.415-0.21,0.913-0.314,1.498-0.314c0.326,0,0.601,0.189,0.825,0.575
				c0.225,0.384,0.337,0.871,0.337,1.47c0,0.424-0.239,0.959-0.714,1.606c-0.479,0.646-0.963,1.163-1.457,1.548
				c-0.496,0.385-1.031,0.698-1.608,0.942c-0.579,0.241-1.11,0.366-1.601,0.366C218.335,138.382,218.348,138.034,218.376,137.624z"
				/>
		</g>
		<path fill="#F1592A" d="M-23.817,86.891L124.05,27.632l8.148,20.095l-4.993,1.962l2.815,14.932c0,0,5.285,0.153,5.846,3.54
			c0.562,3.388-3.286,4.48-3.286,4.48l12.203,34.812l-13.909,2.56l-2.133-36.476c0,0-5.456-0.418-5.845-3.841
			c-0.389-3.422,4.949-4.692,4.949-4.692l-2.688-14.377l-28.37,11.349l9.902,28.775c0,0,1.384,1.037,3.254,3.651
			c0.996,1.394,2.867,4.104,2.867,4.104l8.251-1.42l15.957,85.665L-1.122,208.521l-15.956-85.752l40.059-7.294
			c0,0,1.408-3.286,2.709-5.355s2.497-3.86,2.497-3.86l0.127-16.596l-47.994,19.029L-23.817,86.891z"/>
		<path fill="#FFFFFF" d="M105.924,164.573c-20.572,26.792-52.721,37.852-74.737,22.574c-22.01-15.284-22.336-48.167-5.311-77.345
			c16.956-29.06,53.464-38.916,75.477-23.637C123.366,101.446,126.526,137.746,105.924,164.573z"/>
		<path fill="#F1592A" d="M72.001,151.738c-1.466,0.58-2.939,1.155-4.607,1.536c-0.461,0.079-0.9,0.18-1.365,0.255
			c-0.267,0.09-0.594,0.116-0.939,0.128c-0.128,0.028-0.367-0.055-0.425,0.044c-0.157,0.026-0.425-0.056-0.512,0.042
			c-0.271,0.027-0.654-0.057-0.854,0.041c-0.384,0-0.769,0-1.152,0c-0.201-0.097-0.582-0.014-0.853-0.041
			c-0.088-0.098-0.354-0.016-0.512-0.042c-1.366-0.101-2.554-0.377-3.668-0.728c-0.099-0.069-0.23-0.109-0.384-0.127
			s-0.285-0.057-0.382-0.129c0-0.015,0-0.026,0-0.044c-0.491-0.119-0.875-0.35-1.324-0.512c-0.347-0.107-0.592-0.316-0.937-0.426
			c0-0.014,0-0.027,0-0.042s0-0.028,0-0.044c-1.241-0.579-2.237-1.404-3.243-2.216c-0.042-0.131-0.163-0.179-0.256-0.257
			c0-0.017,0-0.026,0-0.042c-0.372-0.167-0.496-0.584-0.854-0.769c-0.108-0.091-0.188-0.209-0.256-0.342
			c-0.13-0.139-0.214-0.326-0.384-0.425c-0.102-0.112-0.157-0.268-0.299-0.341c-0.668-0.797-1.178-1.751-1.706-2.688
			c-0.166-0.259-0.308-0.543-0.425-0.854c-0.032-0.109-0.043-0.243-0.129-0.299c-0.504-1.088-0.931-2.253-1.193-3.583
			c-0.113-0.628-0.226-1.253-0.341-1.877c-0.068-0.202-0.088-0.454-0.086-0.726c0.009-0.521-0.089-0.936-0.086-1.451
			c-0.027-0.185,0.057-0.48-0.041-0.595c0-0.372,0-0.74,0-1.111c0.069-0.487,0.06-1.049,0.085-1.58
			c0.098-0.059,0.017-0.296,0.042-0.424c0.092-1.259,0.316-2.388,0.598-3.458c0.083-0.171,0.135-0.375,0.17-0.597
			c-0.004-0.133,0.021-0.237,0.085-0.3c0.014,0,0.029,0,0.043,0c-0.003-0.286,0.133-0.434,0.17-0.681
			c-0.003-0.062-0.006-0.122,0.043-0.128c0.072-0.1,0.111-0.23,0.13-0.385c0.103-0.379,0.236-0.728,0.382-1.064
			c0.015,0,0.029,0,0.042,0c0.02-0.268,0.19-0.38,0.214-0.643c0.005-0.077,0.028-0.14,0.084-0.169c0.014,0,0.029,0,0.043,0
			c0.014-0.157,0.105-0.236,0.128-0.382c-0.009-0.049,0.008-0.077,0.042-0.086c0.016,0,0.029,0,0.043,0
			c0.006-0.122,0.079-0.179,0.086-0.299c-0.004-0.06-0.007-0.12,0.042-0.129c0.014,0,0.028,0,0.044,0
			c0.141-0.382,0.345-0.705,0.512-1.066c-0.006-0.049,0.009-0.074,0.043-0.086c0.014,0,0.026,0,0.043,0
			c0.803-1.696,1.85-3.153,2.943-4.563c0.04-0.033,0.065-0.079,0.086-0.13c0.014,0,0.028,0,0.043,0
			c0.137-0.259,0.369-0.424,0.512-0.681c0.186-0.028,0.165-0.263,0.299-0.342c0.191-0.136,0.305-0.35,0.469-0.513
			c0.117-0.081,0.216-0.181,0.299-0.298c0.198-0.13,0.311-0.344,0.469-0.512c0.259-0.224,0.501-0.466,0.726-0.726
			c0.057-0.128,0.193-0.177,0.299-0.256c0.014,0,0.028,0,0.044,0c0.208-0.231,0.477-0.403,0.681-0.641
			c0.257-0.311,0.624-0.513,0.896-0.81c0.039-0.032,0.097-0.047,0.17-0.043c0-0.014,0-0.028,0-0.043
			c0.36-0.265,0.718-0.532,1.066-0.811c0.005-0.11,0.167-0.061,0.172-0.17c0.027,0,0.057,0,0.086,0
			c0.269-0.156,0.525-0.328,0.767-0.513c0.008-0.034,0.042-0.042,0.042-0.085c0.72-0.404,1.387-0.86,2.132-1.239
			c0.146-0.065,0.322-0.103,0.427-0.212c0-0.015,0-0.028,0-0.043c0.361-0.152,0.701-0.324,1.067-0.47
			c0.089-0.083,0.203-0.138,0.342-0.171c0.143,0,0.225-0.059,0.299-0.128c0.147,0.007,0.18-0.103,0.297-0.128
			c0.433-0.152,0.891-0.276,1.238-0.513c0.15,0.007,0.273-0.011,0.342-0.085c0.282-0.059,0.539-0.145,0.767-0.258
			c0.014-0.057,0.107-0.034,0.171-0.041c0.312-0.072,0.617-0.151,0.894-0.257c0.419-0.08,0.761-0.235,1.195-0.298
			c0.393-0.076,0.797-0.143,1.195-0.215c0.396,0.041,0.559-0.15,0.938-0.128c0.13-0.027,0.37,0.056,0.427-0.042
			c0.144-0.028,0.396,0.055,0.469-0.043c0.257-0.028,0.625,0.057,0.81-0.043c0.484,0,0.968,0,1.452,0
			c0.157,0.1,0.498,0.015,0.726,0.043c0.086,0.098,0.354,0.015,0.512,0.043c0.921,0.057,1.744,0.218,2.517,0.428
			c0,0.013,0,0.027,0,0.041c0.467,0.06,0.809,0.244,1.236,0.342c0.007,0.049,0.079,0.036,0.128,0.043c0,0.014,0,0.027,0,0.043
			c0.17-0.027,0.173,0.113,0.342,0.084c0.006,0.052,0.077,0.037,0.127,0.043c0,0.016,0,0.029,0,0.043
			c0.398,0.115,0.701,0.323,1.109,0.428c2.255,1.1,4.043,2.67,5.547,4.521c-0.008,0.107,0.065,0.133,0.128,0.171
			c0.041,0.171,0.166,0.261,0.256,0.384c0.135,0.263,0.325,0.471,0.47,0.725c0.06,0.166,0.15,0.305,0.256,0.424
			c0.071,0.157,0.163,0.291,0.256,0.428c0.023,0.19,0.133,0.293,0.213,0.427c0.095,0.117,0.166,0.259,0.213,0.426
			c0.049,0.136,0.079,0.291,0.171,0.384c0.125,0.059,0.059,0.309,0.17,0.383c0.032,0.11,0.043,0.242,0.129,0.299
			c0.084,0.057,0.094,0.19,0.127,0.299c0.014,0.143,0.045,0.27,0.129,0.342c0.062,0.011,0.014,0.127,0.084,0.127
			c0.034,0.296,0.182,0.474,0.215,0.769c0.027,0.157,0.043,0.329,0.127,0.426c0.075,0.123,0.098,0.301,0.128,0.47
			c0.003,0.136,0.022,0.261,0.086,0.339c0.046,0.236,0.066,0.501,0.17,0.684c0.066,0.202,0.11,0.43,0.127,0.683
			c-0.001,0.189,0.017,0.354,0.086,0.47c0.006,0.265,0.02,0.521,0.085,0.725c0.026,0.103-0.053,0.312,0.043,0.342
			c0.026,0.131-0.055,0.367,0.042,0.426c0.028,0.145-0.055,0.397,0.043,0.469c0.027,0.186-0.055,0.482,0.043,0.599
			c0,0.171,0,0.339,0,0.513c0,0.583,0,1.165,0,1.748c0.006,0.573-0.086,1.051-0.086,1.622c-0.037,0.671-0.117,1.303-0.256,1.876
			c-0.064,0.119-0.074,0.295-0.084,0.47c-0.006,0.265-0.054,0.487-0.129,0.681c-0.014,0-0.028,0-0.043,0
			c0.024,0.166-0.076,0.208-0.042,0.385c-0.043,0.329-0.107,0.634-0.214,0.896c-0.014,0-0.028,0-0.044,0
			c-0.036,0.462-0.223,0.771-0.299,1.193c0,0.042,0,0.086,0,0.128c-0.014,0-0.027,0-0.042,0c-0.032,0.293-0.182,0.473-0.214,0.769
			c-0.014,0-0.027,0-0.042,0c-0.016,0-0.029,0-0.043,0c0.027,0.171-0.113,0.171-0.086,0.343c-0.092-0.007-0.02,0.15-0.043,0.211
			c-0.168,0.117-0.182,0.387-0.256,0.599c0,0.027,0,0.057,0,0.088c-0.064,0.077-0.045,0.238-0.127,0.299
			c-0.392,0.8-0.731,1.656-1.152,2.431c-0.042,0.174-0.177,0.249-0.214,0.427c-0.014,0-0.028,0-0.042,0
			c-0.202,0.581-0.595,0.971-0.812,1.535c0.007,0.05-0.008,0.075-0.042,0.086c-0.786,1.119-1.569,2.242-2.39,3.325
			c-0.146-0.003-0.16,0.126-0.213,0.214c-0.24,0.287-0.51,0.542-0.727,0.853c-0.129,0.042-0.178,0.162-0.255,0.257
			c-0.441,0.455-0.897,0.893-1.322,1.364c-0.031,0.096-0.129,0.127-0.213,0.17c-0.262,0.193-0.501,0.409-0.726,0.642
			c-0.282,0.213-0.504,0.489-0.811,0.682c-0.062,0.023-0.103,0.067-0.127,0.13c-0.334,0.218-0.668,0.439-0.938,0.724
			c-0.987,0.604-1.927,1.258-2.945,1.834c-0.191,0.065-0.362,0.151-0.512,0.258c-0.175,0.121-0.375,0.222-0.597,0.297
			C72.258,151.596,72.038,151.575,72.001,151.738z"/>
		<text transform="matrix(1 0 0 1 154.2793 192.0078)" fill="#F1592A" font-family="'MyriadPro-Semibold'" font-size="44.8743">2016</text>
		
			<text transform="matrix(1 0 0 1 153.8228 213.6211)" fill="#F1592A" font-family="'MyriadPro-Semibold'" font-size="16.7503" letter-spacing="1">March 7-11</text>
	</g>
</g>
</svg>
