<?xml version="1.0" encoding="utf-8"?>
<!-- Generator: Adobe Illustrator 15.0.0, SVG Export Plug-In . SVG Version: 6.00 Build 0)  -->
<!DOCTYPE svg PUBLIC "-//W3C//DTD SVG 1.1//EN" "http://www.w3.org/Graphics/SVG/1.1/DTD/svg11.dtd">
<svg version="1.1" id="Layer_1" xmlns="http://www.w3.org/2000/svg" xmlns:xlink="http://www.w3.org/1999/xlink" x="0px" y="0px"
	 width="287.229px" height="124.258px" viewBox="125.605 117.422 287.229 124.258"
	 enable-background="new 125.605 117.422 287.229 124.258" xml:space="preserve">
<g>
	<g>
		<path fill="#00AFAB" d="M275.205,147.97c1.36,0,2.604-0.131,3.726-0.394c1.12-0.262,2.14-0.615,3.052-1.061
			c0.914-0.444,1.739-0.966,2.477-1.562c0.737-0.595,1.403-1.233,2.002-1.916l0.222,4.501c-0.433,0.562-0.957,1.107-1.572,1.635
			c-0.616,0.525-1.289,0.988-2.021,1.385c-0.73,0.396-1.5,0.715-2.305,0.952c-0.806,0.238-1.601,0.357-2.384,0.357
			c-0.096,0-0.213-0.015-0.354-0.043c-0.141-0.03-0.387-0.081-0.737-0.155c-0.351-0.071-0.853-0.17-1.506-0.294
			c-0.654-0.125-1.541-0.274-2.659-0.449v0.367c0,2.473-0.213,4.718-0.639,6.736c-0.426,2.017-0.992,3.738-1.702,5.166
			c-0.712,1.426-1.527,2.527-2.447,3.302c-0.92,0.773-1.875,1.162-2.864,1.162c-0.771,0-1.414-0.191-1.928-0.573
			c-0.514-0.381-0.926-0.895-1.229-1.543c-0.306-0.646-0.521-1.402-0.649-2.267c-0.129-0.866-0.192-1.782-0.192-2.75
			c0-0.562,0.088-1.195,0.264-1.901c0.177-0.705,0.412-1.444,0.712-2.221c0.297-0.773,0.631-1.561,1.003-2.363
			c0.374-0.802,0.755-1.58,1.148-2.334c0.92-1.754,1.969-3.562,3.146-5.428c0.149-1.021,0.305-2.069,0.463-3.143
			c0.157-1.075,0.356-2.13,0.601-3.163c0.242-1.033,0.617-2.118,1.125-3.254c0.506-1.136,1.047-2.046,1.623-2.729
			c0.575-0.686,1.266-1.229,2.071-1.633c0.804-0.401,1.774-0.604,2.913-0.604c0.824,0,1.594,0.112,2.312,0.337
			c0.715,0.225,1.345,0.59,1.885,1.095c0.539,0.503,0.967,1.153,1.277,1.95c0.31,0.797,0.465,1.774,0.465,2.932
			c0,1.231-0.135,2.194-0.404,2.889c-0.405,1.035-0.93,1.933-1.57,2.691c-0.642,0.76-1.404,1.471-2.289,2.133
			c-0.885,0.662-1.936,1.254-3.15,1.778L275.205,147.97z M265.369,160.77c0,0.107,0.022,0.282,0.069,0.525
			c0.049,0.241,0.126,0.484,0.233,0.727c0.108,0.243,0.252,0.457,0.428,0.645c0.175,0.189,0.393,0.283,0.648,0.283
			c0.229,0,0.42-0.125,0.567-0.373c0.149-0.25,0.271-0.582,0.367-0.999c0.094-0.418,0.161-0.889,0.202-1.413
			c0.039-0.525,0.07-1.062,0.095-1.614c0.024-0.552,0.038-1.091,0.046-1.615c0.008-0.525,0.023-0.995,0.055-1.413
			c0.041-0.727,0.073-1.344,0.096-1.847c0.021-0.505,0.039-0.927,0.055-1.263c0.014-0.378,0.027-0.705,0.041-0.982
			c-0.26,0.445-0.508,0.963-0.752,1.55c-0.242,0.587-0.475,1.197-0.689,1.833c-0.217,0.635-0.412,1.271-0.59,1.904
			c-0.175,0.636-0.328,1.227-0.455,1.773c-0.13,0.547-0.232,1.02-0.305,1.418C265.406,160.307,265.369,160.594,265.369,160.77z
			 M272.63,145.985c0.813-0.394,1.518-0.831,2.113-1.316c0.568-0.484,1.069-1.002,1.504-1.553c0.174-0.026,0.596-0.628,1.258-1.808
			c0.445-1.008,0.73-1.781,0.854-2.318c0.066-0.288,0.111-0.626,0.133-1.013c0.02-0.386-0.021-0.749-0.123-1.09
			c-0.101-0.34-0.275-0.633-0.525-0.875c-0.25-0.242-0.598-0.363-1.04-0.363c-0.501,0-0.942,0.135-1.321,0.403
			c-0.379,0.268-0.707,0.632-0.984,1.091c-0.277,0.458-0.508,1.002-0.688,1.63c-0.185,0.629-0.399,1.405-0.651,2.329
			c-0.25,0.924-0.4,1.775-0.449,2.555C272.656,144.438,272.63,145.212,272.63,145.985z"/>
		<path fill="#00AFAB" d="M291.015,151.867c-1.264,0-2.369-0.233-3.316-0.703c-0.947-0.468-1.736-1.099-2.369-1.889
			c-0.631-0.793-1.104-1.709-1.422-2.748c-0.316-1.04-0.474-2.131-0.474-3.275c0-0.748,0.142-1.64,0.424-2.675
			c0.283-1.034,0.574-1.952,0.878-2.754c0.303-0.801,0.684-1.566,1.141-2.294c0.459-0.728,0.992-1.368,1.604-1.923
			c0.613-0.555,1.302-0.995,2.06-1.323c0.762-0.326,1.605-0.49,2.535-0.49c0.758,0,1.463,0.122,2.111,0.366
			c0.65,0.242,1.216,0.583,1.697,1.022c0.48,0.439,0.857,0.971,1.128,1.593c0.271,0.621,0.407,1.316,0.407,2.086
			c0,0.821-0.274,1.741-0.824,2.76c-0.551,1.019-1.189,1.892-1.924,2.619c-0.731,0.729-1.604,1.377-2.612,1.945
			c-1.011,0.57-2.104,1.013-3.285,1.33c0.203,0.357,0.404,0.654,0.603,0.893c0.194,0.239,0.396,0.426,0.602,0.557
			c0.202,0.132,0.416,0.225,0.641,0.276c0.225,0.055,0.465,0.08,0.723,0.08c0.812,0,1.668-0.158,2.568-0.477
			c0.899-0.316,1.775-0.715,2.629-1.19c0.854-0.477,1.656-0.996,2.414-1.557c0.758-0.563,1.401-1.096,1.928-1.599l2.621,2.66
			c-1.19,1.267-2.455,2.39-3.797,3.363c-0.582,0.419-1.207,0.83-1.877,1.234c-0.67,0.403-1.373,0.765-2.111,1.076
			c-0.737,0.314-1.502,0.564-2.293,0.753C292.63,151.773,291.826,151.867,291.015,151.867z M288.306,142.199
			c0.488,0,1.021-0.121,1.6-0.366c0.575-0.244,1.112-0.559,1.608-0.942c0.495-0.385,0.979-0.9,1.456-1.549
			c0.477-0.647,0.714-1.185,0.714-1.608c0-0.595-0.112-1.083-0.335-1.468c-0.227-0.385-0.501-0.575-0.826-0.575
			c-0.584,0-1.083,0.105-1.497,0.317c-0.415,0.212-0.762,0.487-1.039,0.823c-0.278,0.338-0.503,0.722-0.672,1.151
			c-0.171,0.431-0.368,0.963-0.593,1.598c-0.225,0.635-0.35,1.158-0.377,1.568C288.318,141.558,288.306,141.91,288.306,142.199z"/>
		<path fill="#00AFAB" d="M299.509,147.625c0-0.893,0.054-1.924,0.162-3.095c0.107-1.17,0.244-2.457,0.406-3.856
			c0.162-1.4,0.346-2.663,0.547-3.786c0.203-1.122,0.399-2.084,0.588-2.882c0.149-0.623,0.438-1.145,0.865-1.563
			c0.426-0.419,1.004-0.628,1.733-0.628c0.731,0,1.237,0.223,1.522,0.669c0.283,0.446,0.428,1.042,0.428,1.786
			c0,0.204-0.021,0.477-0.062,0.822c-0.039,0.344-0.091,0.724-0.152,1.137c-0.061,0.413-0.125,0.838-0.191,1.278
			c-0.068,0.439-0.132,0.94-0.193,1.502s-0.111,0.981-0.152,1.259c-0.039,0.277-0.061,0.463-0.061,0.558h0.406
			c0.081-0.147,0.21-0.389,0.387-0.721c0.176-0.331,0.379-0.808,0.608-1.431c0.229-0.622,0.476-1.175,0.741-1.655
			c0.264-0.479,0.511-0.939,0.74-1.379c0.229-0.439,0.438-0.828,0.627-1.166c0.19-0.339,0.332-0.59,0.428-0.753
			c0.434-0.729,0.928-1.23,1.482-1.5c0.553-0.271,1.168-0.406,1.848-0.406c0.675,0,1.213,0.283,1.611,0.853
			c0.399,0.567,0.6,1.352,0.6,2.353c0,0.15-0.03,0.399-0.092,0.752c-0.06,0.353-0.139,0.771-0.231,1.258
			c-0.097,0.487-0.201,1.117-0.315,1.889c-0.115,0.771-0.22,1.461-0.314,2.07c-0.096,0.609-0.172,1.211-0.232,1.805
			c-0.062,0.598-0.092,1.145-0.092,1.645c0,0.841,0.104,1.53,0.314,2.071c0.209,0.542,0.539,0.812,0.982,0.812
			c0.164,0,0.393-0.062,0.689-0.184c0.449-0.16,0.732-0.303,0.855-0.426c0.594-0.459,0.904-0.683,0.932-0.669
			c0.041,0.013,0.494-0.257,1.359-0.812c1.084-0.69,2.375-1.535,3.879-2.537l-0.021,4.545l-1.016,0.773
			c-0.08,0.067-0.719,0.419-1.908,1.055c-1.719,0.92-2.795,1.476-3.227,1.664c-1.057,0.474-1.713,0.745-1.969,0.812
			c-0.678,0.217-1.389,0.325-2.133,0.325c-0.743,0-1.369-0.537-1.876-1.613c-0.509-1.077-0.763-2.648-0.763-4.72
			c0-0.812,0.053-1.687,0.164-2.628c0.106-0.939,0.241-1.952,0.403-3.035h-0.323l-5.318,10.556c-0.283,0.568-0.59,0.946-0.913,1.136
			c-0.339,0.203-0.729,0.305-1.177,0.305c-0.557,0-1.002-0.118-1.34-0.354c-0.338-0.237-0.599-0.555-0.783-0.954
			c-0.183-0.399-0.303-0.853-0.364-1.36C299.539,148.69,299.509,148.166,299.509,147.625z"/>
	</g>
	<g>
		<path fill="#00AFAB" d="M248.988,157.977c-2.017,0-3.833-0.41-5.449-1.229c-1.618-0.817-2.993-1.96-4.131-3.429
			c-1.136-1.469-2.009-3.217-2.619-5.249c-0.607-2.032-0.912-4.262-0.912-6.689c0-1.307,0.095-2.648,0.283-4.023
			c0.19-1.374,0.478-2.747,0.864-4.115c0.385-1.368,0.864-2.71,1.44-4.024c0.576-1.312,1.245-2.556,2.009-3.728
			c0.764-1.171,1.62-2.25,2.568-3.236c0.947-0.988,1.992-1.84,3.136-2.555c1.142-0.714,2.374-1.273,3.694-1.675
			c1.319-0.402,2.736-0.603,4.251-0.603c2.029,0,3.846,0.368,5.451,1.104c1.604,0.732,2.954,1.76,4.059,3.08
			c1.104,1.32,1.949,2.895,2.537,4.725c0.59,1.829,0.883,3.846,0.883,6.051c0,1.808-0.178,3.692-0.537,5.655
			s-0.883,3.891-1.574,5.787c-0.689,1.896-1.549,3.699-2.577,5.412c-1.026,1.714-2.211,3.217-3.552,4.513
			c-1.34,1.294-2.83,2.322-4.477,3.085C252.692,157.596,250.909,157.977,248.988,157.977z M249.478,153.268
			c1.081,0,2.089-0.211,3.022-0.635c0.934-0.422,1.789-1.003,2.567-1.739c0.778-0.735,1.488-1.599,2.132-2.587
			c0.643-0.989,1.215-2.05,1.715-3.182c0.502-1.132,0.938-2.306,1.31-3.52c0.373-1.213,0.681-2.413,0.925-3.6
			c0.243-1.186,0.422-2.328,0.538-3.426c0.114-1.099,0.172-2.097,0.172-2.998c0-1.31-0.144-2.54-0.426-3.693
			c-0.284-1.151-0.714-2.153-1.29-3.005c-0.574-0.854-1.299-1.525-2.172-2.017c-0.873-0.49-1.891-0.735-3.055-0.735
			c-1.245,0-2.45,0.303-3.613,0.91c-1.164,0.606-2.26,1.425-3.289,2.453c-1.027,1.03-1.969,2.225-2.82,3.581
			c-0.853,1.357-1.584,2.786-2.192,4.286c-0.609,1.501-1.083,3.027-1.421,4.582c-0.337,1.555-0.508,3.042-0.508,4.46
			c0,1.541,0.193,2.977,0.579,4.306c0.386,1.331,0.94,2.479,1.664,3.448c0.725,0.968,1.604,1.729,2.64,2.281
			C246.989,152.991,248.163,153.268,249.478,153.268z"/>
	</g>
	<g>
		<g>
			<path fill="#00AEAB" d="M260.75,193.016c-1.104,1.152-2.349,2.164-3.73,3.028c-1.385,0.866-2.83,1.59-4.336,2.173
				c-1.507,0.585-3.039,1.023-4.593,1.319c-1.555,0.296-3.062,0.444-4.521,0.444c-1.584,0-3.071-0.184-4.468-0.549
				c-1.394-0.367-2.613-0.929-3.661-1.681c-1.046-0.755-1.874-1.709-2.485-2.864c-0.61-1.154-0.916-2.525-0.916-4.115
				c-0.002-1.381,0.244-2.71,0.733-3.983c0.49-1.272,1.247-2.403,2.275-3.388c1.027-0.986,2.343-1.781,3.949-2.385
				c1.604-0.603,3.527-0.931,5.771-0.987c-1.472,0.001-2.758-0.212-3.855-0.638c-1.1-0.426-2.009-1.002-2.732-1.727
				c-0.723-0.725-1.266-1.571-1.627-2.54c-0.362-0.969-0.543-1.994-0.543-3.077c-0.002-1.015,0.173-1.941,0.524-2.778
				c0.349-0.838,0.831-1.593,1.444-2.262c0.611-0.669,1.335-1.255,2.17-1.755c0.835-0.502,1.74-0.917,2.717-1.248
				c0.978-0.332,2.001-0.582,3.07-0.752c1.07-0.17,2.152-0.255,3.244-0.255c1.595-0.001,3.157,0.171,4.686,0.515
				c1.528,0.345,2.885,0.861,4.07,1.55c1.188,0.688,2.143,1.55,2.867,2.583c0.723,1.033,1.084,2.24,1.084,3.618
				c0.002,0.488-0.165,0.97-0.5,1.445c-0.333,0.476-0.733,0.899-1.197,1.272c-0.463,0.372-0.949,0.672-1.461,0.896
				c-0.514,0.224-0.939,0.337-1.279,0.337c-0.287,0-0.431-0.25-0.431-0.753c-0.002-0.448,0.069-1.024,0.214-1.73
				c0.145-0.705,0.385-1.588,0.727-2.646c-0.369-0.299-0.908-0.596-1.617-0.896c-0.709-0.297-1.512-0.568-2.404-0.813
				c-0.893-0.243-1.845-0.442-2.854-0.599c-1.009-0.154-2.004-0.232-2.985-0.232c-0.915,0-1.788,0.082-2.62,0.244
				c-0.831,0.165-1.563,0.434-2.198,0.806c-0.632,0.373-1.138,0.866-1.512,1.477c-0.375,0.611-0.563,1.364-0.562,2.26
				c0,0.732,0.134,1.348,0.401,1.849c0.266,0.501,0.623,0.929,1.067,1.279c0.446,0.354,0.956,0.641,1.531,0.863
				c0.574,0.224,1.17,0.423,1.787,0.601c0.616,0.176,1.223,0.344,1.818,0.506c0.596,0.163,1.144,0.354,1.643,0.569
				c0.5,0.218,0.921,0.479,1.264,0.786c0.342,0.308,0.568,0.691,0.679,1.154c0.028,0.293,0.056,0.59,0.083,0.892
				c0.026,0.301,0.04,0.591,0.04,0.87c0.001,0.822-0.144,1.418-0.432,1.788c-0.289,0.372-0.854,0.558-1.691,0.558
				c-0.357,0-0.801-0.02-1.331-0.061c-0.53-0.04-1.035-0.06-1.518-0.06c-1.072,0-2.125,0.136-3.156,0.407
				c-1.032,0.27-1.956,0.671-2.773,1.207c-0.819,0.534-1.479,1.193-1.981,1.979c-0.502,0.783-0.753,1.696-0.753,2.737
				c0,0.989,0.143,1.812,0.43,2.473c0.285,0.658,0.679,1.19,1.176,1.592c0.497,0.402,1.086,0.688,1.763,0.859
				c0.677,0.17,1.408,0.256,2.191,0.256c0.969,0,1.985-0.094,3.048-0.277c1.064-0.186,2.125-0.438,3.182-0.762
				c1.056-0.323,2.086-0.707,3.089-1.148c1.001-0.441,1.934-0.917,2.793-1.426c0.857-0.508,1.613-1.041,2.27-1.604
				c0.653-0.561,1.158-1.125,1.512-1.69L260.75,193.016z"/>
			<path fill="#00AEAB" d="M282.583,193.793c-0.961,0.792-1.908,1.494-2.842,2.114c-0.392,0.259-0.804,0.514-1.236,0.766
				c-0.435,0.251-0.859,0.476-1.279,0.669c-0.419,0.194-0.827,0.354-1.223,0.475c-0.396,0.123-0.758,0.184-1.088,0.184
				c-0.194,0-0.481-0.041-0.862-0.129c-0.382-0.086-0.796-0.262-1.246-0.527c-0.451-0.265-0.899-0.648-1.353-1.152
				c-0.451-0.502-0.843-1.17-1.174-2.004c-0.504,0.517-1.035,1.011-1.599,1.477c-0.562,0.468-1.146,0.874-1.75,1.219
				c-0.604,0.346-1.216,0.622-1.832,0.831c-0.618,0.208-1.239,0.312-1.863,0.312c-0.88,0.002-1.64-0.18-2.282-0.547
				c-0.644-0.365-1.178-0.852-1.604-1.459s-0.745-1.295-0.956-2.067c-0.208-0.771-0.314-1.568-0.314-2.394
				c0-0.877,0.11-1.767,0.334-2.667c0.224-0.899,0.547-1.772,0.974-2.617c0.427-0.844,0.897-1.728,1.421-2.646
				c0.521-0.921,1.209-1.759,2.066-2.515c0.86-0.757,1.744-1.327,2.648-1.712c0.906-0.385,1.873-0.625,2.902-0.722
				c0.039-1.758,0.227-3.307,0.558-4.646c0.332-1.34,0.69-2.782,1.073-4.325c0.382-1.543,0.876-2.964,1.48-4.263
				c0.604-1.3,1.269-2.422,1.989-3.37c0.722-0.946,1.488-1.688,2.306-2.222c0.816-0.535,1.66-0.804,2.531-0.805
				c0.637,0,1.178,0.166,1.623,0.499c0.447,0.331,0.811,0.771,1.088,1.32c0.276,0.549,0.478,1.188,0.598,1.911
				c0.125,0.725,0.186,1.474,0.186,2.246c0,0.482-0.005,0.979-0.012,1.488c-0.038,1.943-0.338,3.753-0.896,5.426
				c-0.562,1.674-1.115,3.328-1.662,4.963c-0.545,1.637-1.205,3.254-1.979,4.855c-1.181,2.45-1.935,4.112-2.257,4.987
				c-0.07,0.193-0.141,0.426-0.211,0.698c-0.068,0.274-0.137,0.571-0.199,0.893c-0.062,0.321-0.115,0.65-0.157,0.985
				c-0.044,0.335-0.063,0.661-0.063,0.976c0,0.396,0.023,0.772,0.07,1.128c0.045,0.356,0.121,0.676,0.227,0.954
				c0.105,0.281,0.248,0.504,0.426,0.667c0.18,0.164,0.398,0.246,0.663,0.246c0.257,0,0.536-0.05,0.843-0.154
				c0.303-0.102,0.625-0.24,0.962-0.419c0.339-0.178,0.681-0.379,1.024-0.604c0.348-0.226,0.682-0.454,1.006-0.688
				c0.744-0.546,1.521-1.166,2.334-1.863L282.583,193.793z M268.507,181.812c-0.893,0.437-1.688,1.013-2.383,1.729
				c-0.697,0.716-1.276,1.662-1.744,2.836c-0.467,1.173-0.821,2.183-1.065,3.029c-0.242,0.846-0.362,1.607-0.362,2.291
				c0,0.212,0.029,0.424,0.092,0.636c0.06,0.212,0.172,0.401,0.334,0.571c0.162,0.171,0.394,0.308,0.69,0.412
				c0.298,0.106,0.685,0.16,1.156,0.16c0.243,0,0.485-0.056,0.723-0.162c0.236-0.108,0.464-0.25,0.679-0.424
				c0.217-0.175,0.424-0.373,0.619-0.596c0.197-0.222,0.377-0.453,0.539-0.691c0.381-0.554,0.727-1.178,1.034-1.873
				c-0.04-0.192-0.075-0.494-0.103-0.911c-0.026-0.416-0.049-1.051-0.062-1.904c-0.015-0.852-0.025-1.553-0.042-2.097
				c-0.015-0.546-0.022-1.044-0.03-1.494c-0.006-0.45-0.018-0.818-0.031-1.105C268.535,181.935,268.521,181.798,268.507,181.812z
				 M278.08,167.96c0.084-0.948,0.125-1.697,0.125-2.255c0-0.729-0.065-1.237-0.197-1.522c-0.131-0.284-0.319-0.426-0.566-0.426
				c-0.439,0-0.839,0.274-1.195,0.822c-0.357,0.549-0.646,1.256-0.863,2.12c-0.217,0.866-0.453,1.807-0.707,2.823
				c-0.256,1.015-0.44,2.01-0.561,2.983c-0.117,0.973-0.211,1.852-0.281,2.633c-0.071,0.782-0.121,1.337-0.15,1.668
				c-0.059,0.673-0.105,1.318-0.145,1.943c-0.035,0.624-0.061,1.194-0.074,1.707c-0.016,0.515-0.022,0.963-0.022,1.347
				c0,0.384,0,0.68,0,0.885v0.207c0.753-1.804,1.444-3.6,2.079-5.39c0.264-0.763,0.523-1.558,0.782-2.387
				c0.258-0.827,0.513-1.649,0.767-2.463c0.254-0.815,0.469-1.622,0.645-2.42C277.887,169.436,278.009,168.678,278.08,167.96z"/>
			<path fill="#00AEAB" d="M296.682,179.094c0,0.367-0.013,0.864-0.036,1.493c-0.023,0.63-0.105,1.317-0.243,2.061
				c-0.139,0.745-0.307,1.646-0.502,2.703c-0.196,1.056-0.358,1.93-0.485,2.622c-0.129,0.691-0.242,1.297-0.338,1.815
				c-0.097,0.519-0.144,0.894-0.144,1.131c0,0.38,0.006,0.729,0.019,1.048c0.012,0.319,0.045,0.598,0.104,0.836
				s0.15,0.422,0.273,0.551s0.303,0.193,0.535,0.193c0.299,0,0.66-0.076,1.086-0.227c0.428-0.147,0.879-0.348,1.36-0.602
				c0.479-0.251,0.97-0.537,1.47-0.855c0.502-0.319,0.977-0.654,1.432-1.01c0.453-0.354,0.865-0.704,1.238-1.05
				c0.371-0.346,0.672-0.67,0.902-0.969c0,0.449,0.003,0.857,0.01,1.223c0.008,0.368,0.012,0.717,0.012,1.049
				c0,0.334,0.004,0.677,0.01,1.031c0.008,0.353,0.011,0.745,0.013,1.18c-0.298,0.295-0.667,0.608-1.106,0.941
				c-0.439,0.335-0.927,0.668-1.461,1.002c-0.535,0.336-1.103,0.655-1.705,0.963s-1.207,0.578-1.816,0.812
				c-0.607,0.235-1.203,0.422-1.783,0.562c-0.582,0.141-1.12,0.211-1.617,0.211c-0.505,0-0.938-0.1-1.298-0.3
				c-0.358-0.198-0.668-0.479-0.926-0.84c-0.261-0.36-0.479-0.791-0.66-1.292c-0.181-0.499-0.336-1.057-0.469-1.67
				c-0.488,0.627-1.005,1.206-1.546,1.732c-0.539,0.527-1.092,0.985-1.654,1.373c-0.562,0.389-1.132,0.691-1.707,0.91
				c-0.576,0.223-1.134,0.332-1.677,0.332c-0.444,0-0.862-0.072-1.253-0.222s-0.737-0.399-1.041-0.751
				c-0.305-0.352-0.545-0.814-0.721-1.391c-0.174-0.574-0.262-1.289-0.262-2.141c0.014-1.771,0.146-3.13,0.404-4.078
				c0.404-1.382,0.779-3.439,1.132-6.177c0.035-0.198,0.086-0.471,0.149-0.818c0.062-0.346,0.158-0.723,0.289-1.128
				c0.127-0.405,0.287-0.818,0.476-1.239c0.188-0.418,0.411-0.798,0.668-1.136c0.258-0.339,0.56-0.615,0.903-0.833
				c0.346-0.216,0.734-0.332,1.168-0.346c0.717,0.034,1.229,0.151,1.541,0.349c0.312,0.198,0.469,0.443,0.469,0.736
				c-0.121,0.912-0.258,1.789-0.409,2.631c-0.151,0.843-0.305,1.69-0.457,2.546c-0.153,0.854-0.323,1.805-0.511,2.85
				c-0.188,1.046-0.34,1.885-0.451,2.516c-0.113,0.631-0.204,1.143-0.275,1.531c-0.067,0.39-0.104,0.591-0.104,0.605
				c0,0.25,0.023,0.491,0.072,0.722c0.047,0.231,0.117,0.436,0.214,0.616c0.097,0.182,0.218,0.33,0.368,0.439
				c0.147,0.112,0.324,0.169,0.529,0.169c0.299,0,0.604-0.08,0.916-0.237c0.312-0.158,0.603-0.391,0.875-0.693
				c0.284-0.275,0.536-0.635,0.754-1.074c0.217-0.426,0.381-0.924,0.488-1.488l2.232-11.062c0.064-0.325,0.328-0.599,0.793-0.822
				c0.464-0.223,0.99-0.336,1.578-0.336c0.666,0,1.195,0.122,1.586,0.365C296.486,178.404,296.682,178.716,296.682,179.094z"/>
			<path fill="#00AEAB" d="M307.455,198.008c-1.252,0-2.354-0.23-3.3-0.689s-1.739-1.074-2.381-1.844
				c-0.642-0.773-1.124-1.666-1.45-2.681c-0.328-1.015-0.492-2.069-0.492-3.166c0-0.785,0.135-1.727,0.405-2.822
				c0.272-1.096,0.567-2.055,0.888-2.873c0.318-0.817,0.713-1.6,1.183-2.344c0.469-0.745,1.014-1.397,1.632-1.96
				c0.618-0.562,1.311-1.008,2.07-1.34c0.762-0.332,1.6-0.498,2.51-0.498c0.82-0.001,1.58,0.117,2.279,0.354
				c0.697,0.237,1.295,0.564,1.791,0.984c0.498,0.419,0.887,0.916,1.168,1.49c0.279,0.576,0.42,1.194,0.42,1.858
				c0,0.459-0.063,0.912-0.196,1.358c-0.131,0.448-0.388,0.973-0.769,1.574c-0.379,0.603-0.75,1.012-1.106,1.228
				c-0.36,0.218-0.767,0.326-1.222,0.326c-0.684,0-1.125-0.168-1.324-0.508c-0.327-0.527-0.432-0.993-0.311-1.399
				c0.039-0.217,0.162-0.719,0.362-1.502c0.027-0.107,0.034-0.353,0.021-0.731c0-0.325-0.034-0.595-0.104-0.812
				c-0.066-0.216-0.214-0.324-0.443-0.324c-0.553,0.002-1.022,0.133-1.414,0.397c-0.391,0.264-0.725,0.608-1,1.034
				c-0.274,0.428-0.549,1.029-0.816,1.808c-0.27,0.778-0.461,1.433-0.575,1.96c-0.114,0.527-0.187,1.03-0.212,1.511
				c-0.027,0.48-0.04,0.883-0.04,1.208c0,0.486,0.044,0.995,0.132,1.521c0.088,0.529,0.264,1.015,0.526,1.452
				c0.262,0.439,0.603,0.805,1.021,1.096s0.957,0.436,1.617,0.436c0.648,0,1.366-0.2,2.151-0.6c0.784-0.398,1.569-0.904,2.362-1.514
				c0.791-0.607,1.545-1.278,2.262-2.01s1.334-1.421,1.849-2.071l1.399,2.354c-1.014,1.448-2.109,2.741-3.285,3.879
				c-0.502,0.486-1.046,0.961-1.635,1.42c-0.588,0.461-1.203,0.871-1.846,1.229c-0.644,0.358-1.313,0.647-2.012,0.874
				C308.876,197.895,308.169,198.007,307.455,198.008z"/>
			<path fill="#00AEAB" d="M337.748,192.965c-0.312,0.438-0.729,0.951-1.25,1.54c-0.521,0.589-1.104,1.149-1.754,1.685
				c-0.648,0.533-1.348,0.984-2.091,1.354c-0.745,0.368-1.489,0.556-2.233,0.556c-0.897,0-1.646-0.283-2.248-0.854
				c-0.602-0.569-1.118-1.396-1.555-2.48c-0.328,0.375-0.73,0.756-1.207,1.146c-0.479,0.39-1,0.74-1.563,1.055
				c-0.567,0.315-1.157,0.574-1.771,0.774c-0.615,0.202-1.229,0.303-1.843,0.303c-0.649,0-1.282-0.134-1.897-0.399
				c-0.616-0.266-1.16-0.646-1.635-1.146s-0.853-1.104-1.138-1.822c-0.284-0.717-0.427-1.524-0.427-2.427
				c0-1.012,0.141-2.048,0.428-3.115c0.285-1.065,0.727-2.217,1.326-3.458c0.597-1.241,1.24-2.312,1.927-3.217
				c0.687-0.904,1.438-1.693,2.257-2.367c0.814-0.674,1.678-1.211,2.581-1.609c0.905-0.398,1.827-0.598,2.769-0.598
				c0.312,0,0.558,0.061,0.734,0.185c0.178,0.123,0.322,0.263,0.438,0.421c0.115,0.156,0.229,0.311,0.338,0.46
				c0.107,0.151,0.245,0.26,0.408,0.329c0.162,0.068,0.33,0.111,0.502,0.133c0.169,0.021,0.342,0.029,0.521,0.029
				c0.148,0,0.301-0.002,0.459-0.01c0.155-0.007,0.309-0.01,0.459-0.01c0.203-0.001,0.395,0.02,0.571,0.06
				c0.177,0.043,0.334,0.13,0.47,0.268c0.137,0.137,0.24,0.329,0.315,0.574c0.073,0.247,0.11,0.581,0.11,1.005
				c0,0.648-0.065,1.364-0.201,2.154c-0.137,0.787-0.291,1.595-0.465,2.423c-0.174,0.827-0.371,1.771-0.596,2.829
				c-0.224,1.06-0.334,1.952-0.334,2.678c0,0.62,0.059,1.104,0.172,1.454c0.116,0.35,0.364,0.524,0.743,0.524
				c0.284,0,0.58-0.072,0.894-0.213c0.312-0.143,0.625-0.324,0.941-0.553c0.319-0.229,0.637-0.486,0.954-0.775
				s0.619-0.588,0.903-0.896c0.662-0.724,1.332-1.544,2.008-2.455L337.748,192.965z M320.332,191.382
				c0,0.349,0.023,0.688,0.071,1.017c0.048,0.326,0.132,0.621,0.255,0.879s0.285,0.468,0.488,0.627
				c0.203,0.16,0.461,0.242,0.773,0.242c0.5-0.002,0.955-0.219,1.361-0.655s0.756-0.961,1.057-1.573
				c0.298-0.613,0.537-1.247,0.721-1.902c0.184-0.653,0.301-1.198,0.355-1.634l1.512-6.599c-0.557,0-1.098,0.138-1.625,0.412
				c-0.527,0.275-1.024,0.647-1.49,1.117c-0.469,0.471-0.896,1.007-1.289,1.61c-0.393,0.604-0.777,1.35-1.156,2.233
				c-0.378,0.886-0.645,1.665-0.801,2.334C320.41,190.161,320.332,190.792,320.332,191.382z"/>
			<path fill="#00AEAB" d="M352.992,193.443c-1.301,0.758-2.461,1.42-3.477,1.988c-1.016,0.569-1.919,1.043-2.713,1.422
				c-0.791,0.381-1.496,0.664-2.113,0.854c-0.615,0.188-1.175,0.284-1.676,0.284c-1.024,0-1.926-0.311-2.706-0.932
				c-0.781-0.623-1.435-1.519-1.959-2.688c-0.524-1.171-0.921-2.589-1.185-4.252c-0.263-1.665-0.394-3.539-0.396-5.623
				c0-0.812,0.032-1.678,0.101-2.598c0.066-0.921,0.16-1.833,0.28-2.74c-0.409-0.061-0.728-0.116-0.95-0.169
				c-0.225-0.053-0.464-0.105-0.716-0.158c-0.252-0.053-0.571-0.109-0.96-0.169s-0.949-0.135-1.688-0.225
				c-0.323-0.045-0.578-0.132-0.754-0.259c-0.179-0.129-0.307-0.28-0.389-0.452c-0.083-0.175-0.13-0.355-0.145-0.544
				c-0.014-0.188-0.021-0.349-0.021-0.484c0-0.215,0.133-0.376,0.396-0.488c0.266-0.114,0.604-0.197,1.02-0.254
				c0.416-0.057,0.871-0.087,1.368-0.095c0.497-0.008,0.974-0.005,1.429,0.009c0.456,0.014,0.863,0.023,1.225,0.03
				c0.359,0.007,0.607-0.003,0.744-0.03c0.363-1.822,0.826-3.588,1.387-5.294s1.188-3.224,1.882-4.554
				c0.696-1.33,1.457-2.395,2.278-3.199c0.824-0.804,1.688-1.204,2.594-1.207c0.584,0,1.113,0.163,1.595,0.487
				c0.479,0.325,0.89,0.758,1.229,1.298c0.339,0.54,0.601,1.172,0.783,1.896c0.184,0.723,0.274,1.477,0.274,2.26
				c0,0.648-0.097,1.335-0.284,2.056c-0.189,0.723-0.447,1.457-0.771,2.205s-0.707,1.506-1.147,2.274
				c-0.438,0.768-0.901,1.528-1.389,2.282c0.122-0.045,0.325-0.052,0.608-0.024c0.285,0.026,0.613,0.045,0.985,0.057
				c0.372,0.01,0.774,0.021,1.208,0.032c0.434,0.01,0.854,0.021,1.258,0.036c0.406,0.013,0.785,0.025,1.137,0.04
				c0.354,0.013,0.644,0.026,0.873,0.039c0.271,0.015,0.469,0.166,0.59,0.452c0.123,0.286,0.184,0.647,0.184,1.085
				c0,0.505-0.137,0.917-0.407,1.234c-0.271,0.317-0.567,0.476-0.894,0.478l-7.803,0.003c-0.395,0.541-0.791,1.071-1.192,1.593
				s-0.771,0.991-1.108,1.412c-0.055,0.838-0.103,1.664-0.142,2.476c-0.015,0.352-0.027,0.714-0.041,1.086
				c-0.015,0.373-0.029,0.741-0.041,1.106c-0.013,0.365-0.021,0.717-0.028,1.056c-0.008,0.338-0.011,0.649-0.011,0.934
				c0,0.729,0.069,1.347,0.205,1.847c0.136,0.502,0.333,0.91,0.59,1.229c0.259,0.316,0.576,0.548,0.95,0.688
				c0.373,0.145,0.79,0.215,1.253,0.215c0.282,0,0.64-0.067,1.067-0.204c0.426-0.134,0.892-0.319,1.398-0.56
				c0.508-0.234,1.043-0.518,1.605-0.843c0.562-0.323,1.117-0.68,1.664-1.063c0.551-0.387,1.074-0.793,1.574-1.22
				c0.502-0.427,0.955-0.862,1.362-1.31L352.992,193.443z M346.486,167.741c0-0.148-0.011-0.312-0.031-0.495
				c-0.02-0.182-0.063-0.354-0.133-0.514c-0.066-0.162-0.172-0.298-0.314-0.406c-0.144-0.106-0.344-0.161-0.603-0.161
				c-0.353,0.001-0.71,0.31-1.069,0.928c-0.359,0.617-0.707,1.407-1.037,2.368c-0.332,0.96-0.646,2.02-0.938,3.175
				c-0.292,1.155-0.561,2.276-0.804,3.365c0.202,0.02,0.407,0.037,0.61,0.052c0.203,0.016,0.414,0.033,0.633,0.053
				c0.408-0.682,0.83-1.421,1.273-2.217c0.44-0.796,0.836-1.577,1.19-2.347c0.353-0.769,0.644-1.487,0.875-2.156
				C346.369,168.718,346.486,168.169,346.486,167.741z"/>
			<path fill="#00AEAB" d="M363.77,193.661c-0.487,0.446-1.093,0.924-1.815,1.433c-0.727,0.508-1.506,0.975-2.345,1.4
				s-1.694,0.781-2.567,1.066c-0.871,0.284-1.701,0.428-2.485,0.428c-0.704,0-1.296-0.098-1.776-0.293
				c-0.48-0.196-0.869-0.471-1.166-0.823c-0.299-0.351-0.512-0.78-0.641-1.288c-0.131-0.509-0.193-1.064-0.193-1.676
				c0-0.852,0.094-1.846,0.283-2.981c0.389-2.353,0.639-3.673,0.75-3.963c0.184-0.577,0.555-1.859,1.104-3.842
				c0.515-1.616,0.83-2.669,0.951-3.157c0.066-0.341,0.252-0.649,0.557-0.924c0.279-0.245,0.596-0.447,0.947-0.604
				c0.354-0.158,0.719-0.275,1.1-0.351c0.377-0.075,0.721-0.112,1.025-0.113c0.558,0,0.938,0.104,1.137,0.315
				c0.199,0.208,0.299,0.489,0.299,0.84c0,0.299-0.066,0.72-0.207,1.263c-0.139,0.544-0.297,1.163-0.475,1.859
				c-0.178,0.694-0.44,1.589-0.789,2.682c-0.35,1.093-0.586,2.025-0.713,2.796c-0.127,0.772-0.289,1.538-0.482,2.299
				c-0.193,0.761-0.292,1.454-0.292,2.075c0,0.607,0.069,1.092,0.204,1.449c0.136,0.359,0.412,0.538,0.833,0.538
				c0.487-0.001,1.026-0.169,1.622-0.507c0.597-0.339,1.197-0.748,1.807-1.229s1.205-0.979,1.785-1.494
				c0.583-0.513,1.096-0.953,1.543-1.319L363.77,193.661z M354.688,172.364c0-0.312,0.067-0.67,0.202-1.066
				c0.134-0.395,0.354-0.768,0.658-1.116c0.306-0.348,0.711-0.642,1.219-0.881c0.507-0.239,1.141-0.359,1.896-0.359
				c0.475-0.002,0.922,0.055,1.34,0.163c0.42,0.108,0.785,0.276,1.097,0.502c0.312,0.225,0.56,0.521,0.741,0.89
				c0.183,0.37,0.272,0.807,0.273,1.312c0,0.466-0.074,0.916-0.223,1.353s-0.387,0.826-0.709,1.169
				c-0.326,0.343-0.734,0.617-1.229,0.829c-0.494,0.213-1.086,0.318-1.774,0.318c-1.192,0.001-2.072-0.283-2.64-0.849
				C354.972,174.061,354.688,173.307,354.688,172.364z"/>
			<path fill="#00AEAB" d="M374.806,182.331c0.395,0.784,0.688,1.613,0.885,2.486c0.196,0.873,0.295,1.856,0.296,2.952
				c0,0.799-0.087,1.604-0.264,2.415c-0.175,0.813-0.429,1.597-0.761,2.355s-0.736,1.468-1.217,2.132
				c-0.479,0.662-1.027,1.238-1.643,1.726c-0.616,0.487-1.289,0.875-2.021,1.158c-0.729,0.284-1.508,0.428-2.334,0.428
				c-1.19,0-2.209-0.26-3.055-0.78s-1.539-1.2-2.081-2.038c-0.541-0.839-0.938-1.787-1.188-2.841
				c-0.25-1.058-0.375-2.125-0.375-3.207c-0.002-1.788,0.221-3.325,0.666-4.619c0.447-1.292,1.084-2.415,1.918-3.37
				c0.83-0.954,1.849-1.705,3.053-2.254c1.205-0.548,2.559-0.822,4.061-0.823c1.284-0.001,2.489,0.198,3.612,0.597
				c1.124,0.4,2.177,0.933,3.156,1.604c0.981,0.668,1.896,1.51,2.741,2.525c0.847,1.014,1.635,1.98,2.367,2.901l-0.386,2.862
				c-0.364-0.487-0.86-1.015-1.483-1.582c-0.623-0.568-1.28-1.199-1.978-1.887c-0.698-0.691-1.385-1.275-2.062-1.757
				c-0.678-0.479-1.258-0.882-1.746-1.206L374.806,182.331z M368.539,194.084c0.461,0,0.907-0.232,1.342-0.699
				c0.432-0.468,0.81-1.056,1.135-1.767c0.324-0.711,0.584-1.571,0.779-2.578c0.197-1.008,0.293-1.904,0.293-2.689
				c0-0.622-0.047-1.199-0.143-1.735c-0.095-0.534-0.236-0.997-0.426-1.39c-0.189-0.394-0.434-0.704-0.73-0.935
				c-0.299-0.23-0.656-0.344-1.078-0.344c-0.555,0-1.082,0.237-1.58,0.711c-0.502,0.475-0.94,1.08-1.32,1.817
				c-0.378,0.737-0.676,1.553-0.893,2.445c-0.213,0.893-0.324,1.902-0.324,3.024c0.003,0.568,0.057,1.103,0.166,1.603
				c0.107,0.501,0.275,0.938,0.507,1.311c0.229,0.373,0.534,0.67,0.915,0.893C367.558,193.975,368.012,194.086,368.539,194.084z"/>
			<path fill="#00AEAB" d="M379.848,193.734c-0.003-0.892,0.05-1.924,0.159-3.094c0.106-1.172,0.242-2.457,0.404-3.857
				c0.161-1.4,0.344-2.662,0.545-3.785c0.203-1.123,0.399-2.084,0.588-2.882c0.147-0.623,0.437-1.145,0.863-1.564
				c0.426-0.418,1.004-0.63,1.734-0.63c0.729,0,1.238,0.223,1.521,0.67c0.284,0.445,0.428,1.042,0.428,1.785
				c0,0.203-0.021,0.477-0.062,0.822c-0.04,0.345-0.091,0.725-0.149,1.137c-0.062,0.413-0.127,0.84-0.192,1.28
				c-0.069,0.438-0.133,0.94-0.192,1.501c-0.061,0.562-0.111,0.982-0.152,1.258c-0.039,0.277-0.061,0.465-0.061,0.559h0.406
				c0.081-0.148,0.209-0.39,0.387-0.719c0.174-0.333,0.377-0.811,0.606-1.434c0.229-0.622,0.476-1.174,0.741-1.654
				c0.264-0.48,0.51-0.939,0.738-1.38c0.23-0.438,0.44-0.829,0.629-1.167c0.19-0.339,0.332-0.589,0.428-0.751
				c0.432-0.73,0.925-1.232,1.48-1.503c0.553-0.271,1.17-0.406,1.848-0.406c0.675,0,1.213,0.284,1.613,0.852
				c0.398,0.568,0.598,1.352,0.598,2.354c0,0.148-0.028,0.399-0.09,0.751c-0.06,0.353-0.139,0.771-0.231,1.257
				c-0.095,0.489-0.201,1.118-0.313,1.891c-0.115,0.771-0.221,1.46-0.314,2.07c-0.094,0.608-0.171,1.21-0.232,1.806
				c-0.061,0.596-0.092,1.144-0.09,1.644c0,0.84,0.104,1.529,0.314,2.071c0.211,0.54,0.539,0.811,0.986,0.811
				c0.162,0,0.391-0.06,0.688-0.184c0.446-0.162,0.729-0.304,0.853-0.425c0.596-0.461,0.906-0.685,0.932-0.672
				c0.043,0.015,0.494-0.256,1.361-0.812c1.082-0.69,2.373-1.537,3.877-2.539l-0.02,4.546l-1.016,0.771
				c-0.082,0.068-0.719,0.421-1.908,1.058c-1.717,0.92-2.793,1.476-3.225,1.664c-1.057,0.476-1.713,0.746-1.971,0.813
				c-0.676,0.217-1.388,0.324-2.132,0.324s-1.37-0.537-1.877-1.613c-0.509-1.073-0.763-2.647-0.765-4.717
				c0-0.812,0.054-1.688,0.162-2.629c0.107-0.94,0.242-1.952,0.403-3.034h-0.323l-5.313,10.557
				c-0.283,0.567-0.589,0.946-0.914,1.137c-0.339,0.202-0.729,0.306-1.177,0.306c-0.555,0-1.002-0.117-1.34-0.354
				c-0.338-0.238-0.599-0.556-0.781-0.953c-0.184-0.399-0.305-0.854-0.365-1.36C379.876,194.802,379.848,194.275,379.848,193.734z"
				/>
		</g>
	</g>
	<g>
		<g>
			<path fill="#00AEAB" d="M245.467,208.462c0,0.468-0.112,1.158-0.337,2.073c-0.224,0.915-0.504,1.971-0.842,3.167
				c-0.337,1.196-0.703,2.496-1.096,3.897c-0.392,1.402-0.758,2.827-1.097,4.271c-0.338,1.444-0.619,2.864-0.842,4.261
				c-0.224,1.396-0.334,2.691-0.334,3.889c0,0.976,0.063,1.888,0.191,2.733c0.129,0.847,0.328,1.581,0.6,2.207
				c0.27,0.624,0.608,1.117,1.014,1.476c0.408,0.355,0.888,0.537,1.443,0.537s1.093-0.166,1.613-0.496
				c0.521-0.332,1.025-0.785,1.514-1.362c0.487-0.578,0.955-1.267,1.401-2.064c0.445-0.799,0.876-1.661,1.289-2.592
				c0.414-0.931,0.802-1.905,1.167-2.931c0.366-1.024,0.712-2.062,1.037-3.107c1.137-3.688,2.146-7.878,3.024-12.57
				c0.164-0.757,0.357-1.391,0.584-1.899s0.494-0.915,0.81-1.216c0.313-0.305,0.677-0.519,1.095-0.643
				c0.416-0.125,0.896-0.185,1.441-0.185c0.518,0,0.939,0.047,1.271,0.141c0.33,0.095,0.594,0.222,0.791,0.386
				c0.193,0.162,0.334,0.357,0.414,0.588c0.084,0.23,0.123,0.488,0.123,0.772c0,0.095-0.053,0.488-0.16,1.187
				c-0.109,0.699-0.25,1.592-0.418,2.679c-0.168,1.092-0.354,2.323-0.549,3.705c-0.195,1.38-0.379,2.8-0.548,4.253
				c-0.169,1.455-0.308,2.893-0.416,4.312s-0.162,2.728-0.162,3.918c0,1.217,0.044,2.315,0.132,3.299
				c0.088,0.98,0.234,1.816,0.444,2.506c0.209,0.691,0.481,1.219,0.819,1.584c0.336,0.365,0.753,0.548,1.252,0.548
				c0.859,0,1.646-0.337,2.355-1.017c0.705-0.675,1.354-1.578,1.938-2.709c0.588-1.129,1.111-2.438,1.574-3.927
				c0.468-1.487,0.925-3.43,1.377-5.823c0.449-2.396,0.677-3.595,0.677-3.592c0,0.002,0.157-1.302,0.474-3.912
				c0.316-2.609,0.531-4.397,0.649-5.365c0.116-0.969,0.207-1.728,0.274-2.274c0.043-0.599,0.178-1.079,0.406-1.442
				s0.518-0.646,0.871-0.846s0.754-0.331,1.203-0.395c0.449-0.065,0.909-0.099,1.381-0.099c0.367,0,0.701,0.033,1.001,0.103
				c0.304,0.068,0.563,0.186,0.786,0.354c0.221,0.169,0.389,0.393,0.506,0.67c0.117,0.279,0.176,0.637,0.176,1.069
				c0,1.203-0.111,2.526-0.344,3.969c-0.229,1.442-0.52,2.892-0.869,4.349c-0.354,1.453-0.572,2.884-0.656,4.283
				c-0.082,1.402-0.364,2.754-0.846,4.059c-0.48,1.302-0.811,2.369-0.984,3.201c-0.172,0.834-0.258,1.384-0.258,1.648
				c0,0.648,0.069,1.199,0.221,1.656c0.15,0.457,0.349,0.836,0.598,1.134c0.25,0.299,0.551,0.517,0.895,0.647
				c0.347,0.135,0.713,0.199,1.107,0.199c0.393,0,0.794-0.091,1.206-0.273c0.413-0.184,0.81-0.438,1.188-0.762
				c0.377-0.324,0.729-0.713,1.045-1.166c0.317-0.455,0.586-0.957,0.804-1.515l0.345,4.169c-1.002,1.064-2.035,1.906-3.096,2.522
				c-1.062,0.614-2.062,0.921-2.994,0.921c-0.447,0-0.865-0.064-1.258-0.198c-0.393-0.131-0.74-0.337-1.043-0.61
				c-0.303-0.275-0.555-0.635-0.758-1.071c-0.201-0.439-0.344-0.96-0.424-1.562c-0.676,1.15-1.398,2.188-2.176,3.109
				c-0.773,0.923-1.598,1.708-2.466,2.357c-0.87,0.651-1.78,1.151-2.731,1.506c-0.951,0.354-1.931,0.527-2.939,0.527
				c-1.281,0-2.37-0.339-3.268-1.014c-0.896-0.678-1.625-1.598-2.185-2.762c-0.562-1.162-0.968-2.53-1.223-4.098
				c-0.257-1.57-0.386-3.242-0.386-5.017c0-0.647,0.033-1.258,0.103-1.826c0.065-0.567,0.122-1.075,0.161-1.522
				c-0.487,3.086-1.1,5.668-1.836,7.744c-0.738,2.078-1.604,3.746-2.598,5.004c-0.995,1.258-2.132,2.154-3.411,2.688
				c-1.277,0.536-2.696,0.803-4.253,0.803c-0.892,0-1.743-0.296-2.557-0.883c-0.812-0.589-1.525-1.465-2.141-2.628
				c-0.616-1.165-1.109-2.623-1.482-4.375c-0.372-1.751-0.557-3.799-0.557-6.142c0-1.433,0.081-2.903,0.242-4.414
				c0.164-1.508,0.395-3.021,0.7-4.535c0.305-1.516,0.681-3.018,1.127-4.505c0.445-1.488,0.955-2.938,1.523-4.345
				c0.337-0.785,0.675-1.396,1.014-1.838c0.339-0.438,0.684-0.765,1.036-0.975c0.352-0.209,0.707-0.334,1.064-0.377
				c0.358-0.04,0.721-0.061,1.088-0.061c0.296,0,0.568,0.021,0.809,0.062c0.246,0.041,0.453,0.127,0.622,0.258
				c0.168,0.131,0.297,0.316,0.385,0.557C245.417,207.723,245.467,208.051,245.467,208.462z"/>
			<path fill="#00AEAB" d="M285.462,239.73c-1.264,0-2.369-0.233-3.316-0.703c-0.947-0.467-1.736-1.096-2.37-1.889
				c-0.632-0.791-1.104-1.709-1.421-2.748c-0.316-1.041-0.473-2.133-0.473-3.274c0-0.748,0.14-1.642,0.423-2.675
				c0.282-1.034,0.575-1.953,0.879-2.754c0.303-0.803,0.683-1.565,1.14-2.295c0.459-0.729,0.992-1.369,1.605-1.923
				c0.611-0.554,1.3-0.995,2.059-1.321c0.762-0.328,1.606-0.491,2.534-0.491c0.759,0,1.463,0.122,2.112,0.364
				c0.652,0.244,1.216,0.584,1.695,1.023c0.482,0.439,0.857,0.971,1.129,1.591c0.271,0.622,0.406,1.319,0.406,2.089
				c0,0.819-0.273,1.739-0.822,2.76c-0.549,1.018-1.19,1.892-1.924,2.617c-0.731,0.729-1.604,1.377-2.611,1.946
				c-1.012,0.568-2.105,1.013-3.285,1.329c0.203,0.357,0.402,0.657,0.6,0.895s0.397,0.424,0.602,0.555
				c0.205,0.134,0.418,0.227,0.643,0.279c0.225,0.051,0.467,0.078,0.723,0.078c0.812,0,1.668-0.158,2.569-0.477
				c0.897-0.316,1.774-0.715,2.628-1.189c0.852-0.479,1.657-0.996,2.416-1.56c0.756-0.562,1.4-1.095,1.928-1.597l2.619,2.658
				c-1.191,1.269-2.457,2.391-3.797,3.364c-0.582,0.42-1.208,0.83-1.878,1.234c-0.669,0.403-1.373,0.763-2.108,1.077
				c-0.737,0.312-1.504,0.563-2.295,0.752C287.076,239.637,286.272,239.73,285.462,239.73z M282.753,230.064
				c0.488,0,1.021-0.125,1.599-0.367c0.577-0.244,1.112-0.559,1.608-0.942c0.496-0.385,0.981-0.901,1.457-1.548
				c0.476-0.648,0.715-1.186,0.715-1.607c0-0.598-0.112-1.086-0.338-1.469c-0.225-0.386-0.5-0.576-0.824-0.576
				c-0.586,0-1.084,0.105-1.498,0.315c-0.414,0.214-0.76,0.485-1.04,0.825c-0.276,0.338-0.501,0.721-0.671,1.15
				s-0.367,0.963-0.592,1.598s-0.349,1.158-0.377,1.567C282.767,229.423,282.753,229.771,282.753,230.064z"/>
			<path fill="#00AEAB" d="M300.766,239.73c-1.265,0-2.369-0.233-3.317-0.703c-0.945-0.467-1.736-1.096-2.369-1.889
				c-0.631-0.791-1.104-1.709-1.42-2.748c-0.316-1.041-0.475-2.133-0.475-3.274c0-0.748,0.141-1.642,0.424-2.675
				c0.282-1.034,0.576-1.953,0.879-2.754c0.303-0.803,0.682-1.565,1.141-2.295c0.457-0.729,0.992-1.369,1.604-1.923
				s1.3-0.995,2.058-1.321c0.763-0.328,1.606-0.491,2.535-0.491c0.76,0,1.463,0.122,2.113,0.364c0.65,0.244,1.217,0.584,1.696,1.023
				c0.481,0.439,0.856,0.971,1.128,1.591c0.27,0.622,0.406,1.319,0.406,2.089c0,0.819-0.274,1.739-0.824,2.76
				c-0.549,1.018-1.189,1.892-1.922,2.617c-0.732,0.729-1.604,1.377-2.612,1.946c-1.01,0.568-2.106,1.013-3.285,1.329
				c0.203,0.357,0.402,0.657,0.601,0.895c0.197,0.237,0.396,0.424,0.602,0.555c0.204,0.134,0.416,0.227,0.643,0.279
				c0.225,0.051,0.463,0.078,0.724,0.078c0.812,0,1.667-0.158,2.567-0.477c0.897-0.316,1.775-0.715,2.627-1.189
				c0.854-0.479,1.658-0.996,2.418-1.56c0.756-0.562,1.398-1.095,1.928-1.597l2.617,2.658c-1.19,1.269-2.455,2.391-3.795,3.364
				c-0.582,0.42-1.207,0.83-1.877,1.234c-0.67,0.403-1.375,0.763-2.111,1.077c-0.738,0.312-1.502,0.563-2.295,0.752
				C302.38,239.637,301.578,239.73,300.766,239.73z M298.057,230.064c0.487,0,1.021-0.125,1.601-0.367
				c0.576-0.244,1.111-0.559,1.607-0.942c0.494-0.385,0.98-0.901,1.457-1.548c0.475-0.648,0.714-1.186,0.714-1.607
				c0-0.598-0.112-1.086-0.337-1.469c-0.227-0.386-0.499-0.576-0.825-0.576c-0.585,0-1.083,0.105-1.498,0.315
				c-0.414,0.214-0.76,0.485-1.039,0.825c-0.276,0.338-0.502,0.721-0.672,1.15s-0.364,0.963-0.591,1.598
				c-0.225,0.635-0.35,1.158-0.377,1.567C298.069,229.423,298.057,229.771,298.057,230.064z"/>
		</g>
	</g>
	<path fill="#00AEAB" d="M327.994,240.27c1.854,0,2.525-1.31,0.828-1.83c-4.816-1.481-6.227-2.692-8.009-4.869
		c-1.155-1.412-2.513-3.1-3.03-4.852c-0.324-1.095,6.696-6.213,8.016-7.188c0.488-0.362,4.076-3.353,2.125-3.634
		c-1.865-0.27-3.057,0.752-4.666,1.752c-3.996,2.476-7.284,6.5-10.353,9.922c0.452-0.504,3.765,0.799,4.55-0.078
		c1.473-1.639,3-3.236,4.551-4.809c1.133-1.144,2.301-2.252,3.509-3.322c0.676-0.598,1.386-1.16,2.135-1.674
		c0.731-0.502-1.487-0.342,0.498-0.5c-1.116-0.022-2.231-0.047-3.347-0.072c0.869,0.199-2.563,2.728-2.879,2.968
		c-2.646,2.017-5.389,3.924-8.051,5.924c-1.914,1.441,2.396,5.853,3.543,7C321.669,239.261,325.886,240.27,327.994,240.27z"/>
	<path fill="#00AEAB" d="M306.726,236.596c4.021-2.734,8.499-6.335,9.439-11.348c0.642-3.423,1.094-6.887,1.484-10.344
		c0.219-1.936,1.277-6.34,0.033-8.096c-0.357-0.502-4.021,1.361-4.46,1.719c-0.923,0.748-0.671,3.713-0.746,4.744
		c-0.226,3.09-0.324,6.192-0.433,9.289c-0.207,6.021-1.307,11.996-1.385,18.022c0.004-0.255,4.506-0.879,4.518-1.812
		c0.074-5.808,0.972-11.598,1.354-17.39c0.168-2.521,0.194-5.054,0.322-7.575c0.062-1.256-0.332-6.012,0.771-6.908
		c-1.485,0.574-2.975,1.146-4.459,1.721c0.899,1.271,0.311,4.044,0.213,5.463c-0.244,3.604-0.789,7.193-1.353,10.758
		c-0.937,5.93-4.418,9.775-9.295,13.092C302.363,238.184,305.923,237.141,306.726,236.596L306.726,236.596z"/>
	<path fill="#F1592A" d="M125.605,162.727l84.105-33.705l4.635,11.43l-2.84,1.116l1.602,8.493c0,0,3.006,0.087,3.325,2.014
		c0.319,1.927-1.869,2.548-1.869,2.548l6.94,19.801l-7.911,1.456l-1.213-20.747c0,0-3.104-0.238-3.324-2.185
		c-0.22-1.947,2.814-2.669,2.814-2.669l-1.528-8.178l-16.137,6.455l5.632,16.367c0,0,0.787,0.59,1.851,2.077
		c0.566,0.792,1.631,2.334,1.631,2.334l4.693-0.808l9.076,48.726l-78.573,14.657l-9.075-48.774l22.785-4.149
		c0,0,0.801-1.869,1.541-3.046c0.74-1.177,1.42-2.195,1.42-2.195l0.072-9.439l-27.299,10.822L125.605,162.727z"/>
	<path fill="#FFFFFF" d="M199.401,206.912c-11.701,15.238-29.987,21.529-42.51,12.84c-12.52-8.693-12.704-27.396-3.021-43.993
		c9.645-16.529,30.41-22.135,42.931-13.444S211.119,191.652,199.401,206.912z"/>
	<path fill="#F1592A" d="M180.106,199.611c-0.834,0.33-1.672,0.656-2.621,0.873c-0.262,0.045-0.512,0.103-0.776,0.146
		c-0.151,0.052-0.338,0.065-0.534,0.073c-0.073,0.016-0.209-0.031-0.242,0.023c-0.09,0.017-0.242-0.031-0.291,0.024
		c-0.154,0.017-0.372-0.032-0.485,0.022c-0.219,0-0.438,0-0.655,0c-0.114-0.056-0.331-0.008-0.485-0.022
		c-0.05-0.056-0.201-0.009-0.291-0.024c-0.777-0.057-1.453-0.213-2.087-0.412c-0.057-0.041-0.131-0.062-0.219-0.072
		s-0.162-0.032-0.218-0.073c0-0.008,0-0.017,0-0.024c-0.279-0.067-0.497-0.199-0.753-0.291c-0.197-0.062-0.337-0.181-0.533-0.242
		c0-0.008,0-0.017,0-0.023s0-0.018,0-0.023c-0.706-0.33-1.272-0.799-1.845-1.263c-0.023-0.073-0.093-0.102-0.146-0.146
		c0-0.01,0-0.018,0-0.024c-0.212-0.096-0.282-0.332-0.485-0.437c-0.062-0.053-0.107-0.119-0.146-0.194
		c-0.074-0.079-0.122-0.187-0.219-0.242c-0.058-0.063-0.089-0.153-0.17-0.194c-0.38-0.453-0.67-0.996-0.971-1.528
		c-0.094-0.147-0.175-0.31-0.242-0.485c-0.019-0.062-0.024-0.138-0.073-0.17c-0.287-0.617-0.529-1.281-0.679-2.038
		c-0.064-0.356-0.129-0.713-0.194-1.067c-0.039-0.113-0.05-0.258-0.049-0.412c0.005-0.297-0.051-0.531-0.049-0.825
		c-0.016-0.105,0.032-0.273-0.023-0.339c0-0.211,0-0.421,0-0.631c0.039-0.277,0.034-0.597,0.048-0.898
		c0.056-0.033,0.01-0.169,0.024-0.242c0.053-0.716,0.18-1.357,0.34-1.966c0.047-0.099,0.077-0.214,0.097-0.34
		c-0.002-0.075,0.012-0.135,0.049-0.17c0.008,0,0.017,0,0.024,0c-0.002-0.163,0.075-0.248,0.097-0.388
		c-0.002-0.035-0.004-0.069,0.024-0.073c0.041-0.057,0.063-0.131,0.073-0.219c0.059-0.216,0.135-0.414,0.218-0.606
		c0.009,0,0.017,0,0.024,0c0.011-0.151,0.108-0.216,0.122-0.364c0.003-0.045,0.016-0.08,0.048-0.097c0.008,0,0.017,0,0.024,0
		c0.008-0.089,0.06-0.134,0.073-0.218c-0.005-0.028,0.005-0.044,0.023-0.049c0.009,0,0.017,0,0.024,0
		c0.004-0.069,0.045-0.102,0.049-0.17c-0.002-0.034-0.004-0.068,0.024-0.073c0.008,0,0.016,0,0.024,0
		c0.08-0.218,0.196-0.401,0.291-0.606c-0.004-0.028,0.005-0.043,0.024-0.049c0.008,0,0.016,0,0.024,0
		c0.457-0.966,1.052-1.795,1.674-2.596c0.022-0.019,0.037-0.045,0.049-0.073c0.008,0,0.016,0,0.024,0
		c0.078-0.147,0.21-0.242,0.291-0.388c0.105-0.016,0.094-0.149,0.17-0.194c0.108-0.077,0.174-0.198,0.267-0.292
		c0.066-0.046,0.123-0.103,0.17-0.169c0.112-0.074,0.177-0.196,0.267-0.292c0.147-0.127,0.285-0.265,0.413-0.412
		c0.032-0.072,0.109-0.101,0.17-0.146c0.008,0,0.016,0,0.024,0c0.118-0.132,0.271-0.229,0.388-0.364
		c0.146-0.177,0.354-0.292,0.51-0.461c0.021-0.019,0.055-0.026,0.097-0.024c0-0.008,0-0.016,0-0.024
		c0.205-0.15,0.409-0.303,0.606-0.461c0.003-0.062,0.096-0.034,0.098-0.097c0.016,0,0.032,0,0.049,0
		c0.153-0.089,0.299-0.187,0.437-0.291c0.005-0.02,0.024-0.024,0.024-0.049c0.409-0.229,0.789-0.489,1.213-0.704
		c0.083-0.038,0.184-0.059,0.243-0.121c0-0.008,0-0.016,0-0.024c0.205-0.086,0.398-0.184,0.606-0.267
		c0.051-0.047,0.115-0.078,0.194-0.097c0.081,0,0.128-0.034,0.17-0.073c0.084,0.004,0.103-0.059,0.169-0.072
		c0.246-0.087,0.507-0.157,0.704-0.292c0.085,0.004,0.155-0.006,0.194-0.048c0.16-0.033,0.307-0.082,0.437-0.146
		c0.008-0.032,0.061-0.02,0.098-0.023c0.177-0.041,0.351-0.086,0.509-0.146c0.238-0.046,0.433-0.134,0.68-0.17
		c0.224-0.043,0.453-0.081,0.68-0.122c0.226,0.023,0.318-0.086,0.533-0.072c0.074-0.016,0.21,0.031,0.243-0.024
		c0.082-0.016,0.226,0.031,0.267-0.024c0.146-0.016,0.355,0.032,0.461-0.024c0.275,0,0.551,0,0.825,0
		c0.09,0.057,0.283,0.009,0.413,0.024c0.049,0.056,0.201,0.009,0.291,0.024c0.524,0.033,0.992,0.124,1.432,0.243
		c0,0.008,0,0.016,0,0.023c0.266,0.034,0.46,0.139,0.703,0.194c0.004,0.028,0.045,0.021,0.073,0.024c0,0.008,0,0.016,0,0.024
		c0.097-0.016,0.098,0.064,0.194,0.048c0.004,0.029,0.044,0.021,0.072,0.024c0,0.009,0,0.017,0,0.024
		c0.227,0.065,0.399,0.184,0.631,0.243c1.283,0.626,2.3,1.519,3.155,2.572c-0.005,0.061,0.037,0.075,0.072,0.097
		c0.023,0.098,0.095,0.148,0.146,0.219c0.077,0.149,0.185,0.268,0.268,0.412c0.034,0.095,0.085,0.174,0.146,0.242
		c0.04,0.09,0.093,0.166,0.146,0.243c0.014,0.108,0.075,0.167,0.121,0.243c0.055,0.066,0.095,0.147,0.121,0.242
		c0.028,0.077,0.045,0.166,0.098,0.219c0.071,0.033,0.033,0.176,0.097,0.218c0.019,0.062,0.024,0.138,0.073,0.17
		c0.048,0.032,0.054,0.108,0.072,0.17c0.008,0.081,0.025,0.153,0.073,0.194c0.035,0.006,0.008,0.072,0.048,0.072
		c0.019,0.168,0.104,0.27,0.122,0.438c0.016,0.089,0.024,0.186,0.072,0.242c0.043,0.07,0.056,0.172,0.073,0.268
		c0.002,0.078,0.013,0.148,0.049,0.193c0.026,0.135,0.038,0.285,0.097,0.389c0.038,0.115,0.062,0.244,0.072,0.389
		c-0.001,0.106,0.01,0.2,0.049,0.267c0.004,0.15,0.012,0.296,0.049,0.412c0.015,0.059-0.03,0.177,0.024,0.194
		c0.015,0.074-0.031,0.209,0.023,0.242c0.016,0.082-0.031,0.226,0.024,0.268c0.016,0.105-0.031,0.274,0.024,0.34
		c0,0.097,0,0.193,0,0.291c0,0.332,0,0.663,0,0.995c0.004,0.326-0.049,0.598-0.049,0.922c-0.021,0.383-0.066,0.742-0.146,1.067
		c-0.036,0.068-0.042,0.168-0.048,0.268c-0.003,0.15-0.03,0.277-0.073,0.388c-0.008,0-0.016,0-0.024,0
		c0.014,0.094-0.043,0.118-0.023,0.219c-0.024,0.187-0.061,0.36-0.122,0.51c-0.008,0-0.016,0-0.024,0
		c-0.021,0.262-0.127,0.438-0.17,0.679c0,0.024,0,0.049,0,0.073c-0.008,0-0.016,0-0.023,0c-0.019,0.167-0.104,0.27-0.122,0.437
		c-0.008,0-0.016,0-0.023,0c-0.009,0-0.017,0-0.024,0c0.016,0.097-0.064,0.098-0.049,0.194c-0.053-0.004-0.011,0.086-0.024,0.121
		c-0.096,0.066-0.104,0.22-0.146,0.339c0,0.018,0,0.033,0,0.05c-0.036,0.044-0.025,0.136-0.072,0.17
		c-0.223,0.456-0.416,0.942-0.655,1.383c-0.023,0.099-0.101,0.142-0.122,0.243c-0.008,0-0.016,0-0.023,0
		c-0.114,0.331-0.338,0.553-0.462,0.873c0.004,0.027-0.005,0.043-0.023,0.049c-0.447,0.637-0.893,1.275-1.359,1.893
		c-0.083-0.002-0.091,0.071-0.121,0.121c-0.137,0.164-0.29,0.31-0.413,0.485c-0.073,0.022-0.101,0.093-0.146,0.146
		c-0.251,0.26-0.511,0.509-0.752,0.776c-0.018,0.056-0.073,0.073-0.121,0.099c-0.149,0.108-0.285,0.231-0.413,0.363
		c-0.16,0.122-0.287,0.278-0.461,0.389c-0.035,0.014-0.059,0.037-0.072,0.072c-0.19,0.125-0.38,0.252-0.534,0.412
		c-0.562,0.346-1.097,0.717-1.675,1.043c-0.109,0.036-0.206,0.086-0.291,0.146c-0.1,0.07-0.213,0.126-0.34,0.17
		C180.252,199.529,180.127,199.52,180.106,199.611z"/>
</g>
</svg>
