<?xml version="1.0" encoding="UTF-8" standalone="no"?>
<svg width="135px" height="61px" viewBox="0 0 135 61" version="1.1" xmlns="http://www.w3.org/2000/svg" xmlns:xlink="http://www.w3.org/1999/xlink" xmlns:sketch="http://www.bohemiancoding.com/sketch/ns">
    <!-- Generator: Sketch 3.4.4 (17249) - http://www.bohemiancoding.com/sketch -->
    <title>Logo</title>
    <desc>Created with Sketch.</desc>
    <defs>
        <path id="path-1" d="M0,0.362584 L134.946877,0.362584 L134.946877,61 L0,61"></path>
        <path id="path-3" d="M0,0.362584 L134.946877,0.362584 L134.946877,61 L0,61"></path>
    </defs>
    <g id="Pages" stroke="none" stroke-width="1" fill="none" fill-rule="evenodd" sketch:type="MSPage">
        <g id="Desktop-HD" sketch:type="MSArtboardGroup" transform="translate(-246.000000, -27.000000)">
            <g id="Logo" sketch:type="MSLayerGroup" transform="translate(246.000000, 27.000000)">
                <g id="Page-1">
                    <path d="M71.6549783,14.3016696 C72.0512058,14.1093976 72.3943105,13.8961416 72.6847798,13.6589736 C72.9620903,13.4227816 73.2062599,13.1704856 73.4172888,12.9015976 C73.5025776,12.8884216 73.7077581,12.5951336 74.0303935,12.0192936 C74.2477581,11.5273896 74.386657,11.1501656 74.4470903,10.8881096 C74.4792563,10.7475656 74.5011877,10.5826216 74.510935,10.3937656 C74.5206823,10.2053976 74.5011877,10.0282536 74.4514765,9.8618456 C74.4027401,9.6959256 74.3169639,9.5534296 74.1956101,9.4348456 C74.073769,9.3167496 73.9041661,9.2577016 73.6882635,9.2577016 C73.4440939,9.2577016 73.2291661,9.3235816 73.0444549,9.4543656 C72.8597437,9.5856376 72.6998881,9.7627816 72.5644007,9.9867736 C72.4289134,10.2102776 72.3168195,10.4757496 72.2286065,10.7822136 C72.1389314,11.0891656 72.0331733,11.4678536 71.9108448,11.9187656 C71.7890036,12.3696776 71.7158989,12.7854536 71.6915307,13.1656056 C71.6671625,13.5462456 71.6549783,13.9244456 71.6549783,14.3016696 L71.6549783,14.3016696 Z M68.1157365,21.5162616 C68.1157365,21.5689656 68.1269458,21.6538776 68.149852,21.7724616 C68.1732455,21.8905576 68.2112599,22.0091416 68.2638953,22.1272376 C68.3165307,22.2453336 68.3862238,22.3502536 68.472,22.4419976 C68.5572888,22.5342296 68.6625596,22.5801016 68.7878123,22.5801016 C68.9003935,22.5801016 68.9925054,22.5191016 69.0651227,22.3980776 C69.1377401,22.2760776 69.1971986,22.1140616 69.2439856,21.9105656 C69.2893105,21.7065816 69.3224513,21.4767336 69.3424332,21.2210216 C69.3619278,20.9643336 69.3770361,20.7022776 69.3887329,20.4329016 C69.3999422,20.1640136 69.4072527,19.9009816 69.4111516,19.6447816 C69.4145632,19.3885816 69.4228484,19.1592216 69.4369819,18.9552376 C69.4569639,18.6004616 69.4730469,18.2993656 69.4842563,18.0539016 C69.4940036,17.8074616 69.5027762,17.6020136 69.510574,17.4380456 C69.5164224,17.2535816 69.5237329,17.0940056 69.530556,16.9583416 C69.4043285,17.1759896 69.2829747,17.4282856 69.1640578,17.7147416 C69.0456282,18.0011976 68.9330469,18.2988776 68.8272888,18.6092456 C68.7220181,18.9191256 68.6264946,19.2294936 68.540231,19.5383976 C68.4554296,19.8487656 68.3803755,20.1371736 68.3179928,20.4041096 C68.2551227,20.6710456 68.2054116,20.9013816 68.1703213,21.0960936 C68.133769,21.2903176 68.1157365,21.4303736 68.1157365,21.5162616 L68.1157365,21.5162616 Z M72.9089675,15.2698616 C73.5727581,15.2698616 74.178065,15.2064216 74.7248881,15.0780776 C75.2712238,14.9502216 75.767361,14.7774696 76.2123249,14.5603096 C76.6577762,14.3436376 77.059852,14.0889016 77.4190397,13.7980536 C77.7782274,13.5076936 78.1028123,13.1958616 78.3942563,12.8630456 L78.5024513,15.0595336 C78.2914224,15.3337896 78.0360433,15.5997496 77.7363141,15.8574136 C77.4356101,16.1136136 77.1076137,16.3395576 76.7513502,16.5328056 C76.395574,16.7265416 76.0207906,16.8817256 75.6284621,16.9973816 C75.2361336,17.1140136 74.8486787,17.1720856 74.4670722,17.1720856 C74.4202852,17.1720856 74.3632635,17.1647656 74.2940578,17.1511016 C74.224852,17.1359736 74.1054477,17.1115736 73.9343827,17.0749736 C73.7638051,17.0403256 73.5186606,16.9925016 73.2004116,16.9319896 C72.8816751,16.8709896 72.4493827,16.7977896 71.904509,16.7123896 L71.904509,16.8919736 C71.904509,18.0983096 71.8007004,19.1938696 71.5935704,20.1791416 C71.3859531,21.1634376 71.1096173,22.0032856 70.7635884,22.7001496 C70.4165848,23.3960376 70.0193827,23.9333256 69.5710072,24.3115256 C69.1226318,24.6887496 68.6571986,24.8785816 68.1747076,24.8785816 C67.7989495,24.8785816 67.485574,24.7848856 67.235556,24.5984696 C66.9850505,24.4130296 66.7842563,24.1621976 66.6370722,23.8459736 C66.4879386,23.5302376 66.3826679,23.1613096 66.3202852,22.7396776 C66.2574152,22.3170696 66.2262238,21.8700616 66.2262238,21.3976776 C66.2262238,21.1234216 66.2686245,20.8145176 66.3548881,20.4699896 C66.4406643,20.1254616 66.5556823,19.7648296 66.7014043,19.3861416 C66.8461516,19.0084296 67.0089314,18.6243736 67.190231,18.2329976 C67.3725054,17.8416216 67.5581913,17.4614696 67.7497256,17.0940056 C68.1985884,16.2380536 68.7093466,15.3552616 69.2829747,14.4451416 C69.3560794,13.9464056 69.4316209,13.4354696 69.5086245,12.9113576 C69.5851408,12.3867576 69.6826137,11.8719176 69.800556,11.3678136 C69.9189856,10.8637096 70.1017473,10.3342296 70.3488412,9.7798616 C70.595935,9.2259816 70.8595993,8.7814136 71.1398339,8.4476216 C71.4210433,8.1128536 71.7568375,7.8478696 72.1501408,7.6507176 C72.5414946,7.4550296 73.0147256,7.3564536 73.5698339,7.3564536 C73.9714224,7.3564536 74.3462058,7.4111096 74.6961336,7.5204216 C75.0450866,7.6302216 75.351639,7.8083416 75.6148159,8.0547816 C75.8779928,8.3002456 76.0860975,8.6174456 76.2371805,9.0063816 C76.3887509,9.3953176 76.4642924,9.8725816 76.4642924,10.4371976 C76.4642924,11.0384136 76.3980108,11.5078696 76.2669097,11.8470296 C76.0695271,12.3521096 75.814148,12.7898456 75.5017473,13.1602376 C75.1888592,13.5311176 74.8165126,13.8780856 74.3861697,14.2011416 C73.954852,14.5241976 73.4426318,14.8130936 72.8499964,15.0688056 L72.9089675,15.2698616 Z" id="Fill-1" fill="#00AFAB" sketch:type="MSShapeGroup"></path>
                    <path d="M79.2943213,12.454004 C79.5326426,12.454004 79.7919206,12.394956 80.0741047,12.275396 C80.3543394,12.156324 80.6160542,12.002604 80.857787,11.815212 C81.0990325,11.62782 81.3354043,11.376012 81.5673899,11.059788 C81.7998628,10.743564 81.9153682,10.481508 81.9153682,10.274596 C81.9153682,9.984236 81.8607834,9.746092 81.7521011,9.558212 C81.6419567,9.37082 81.5079314,9.277612 81.3495379,9.277612 C81.064917,9.277612 80.821722,9.32934 80.6199531,9.432796 C80.4176968,9.536252 80.2485812,9.670452 80.1135812,9.83442 C79.9771191,9.999364 79.8684368,10.186756 79.7860722,10.396108 C79.7027329,10.606436 79.606722,10.866052 79.497065,11.175932 C79.3878953,11.485812 79.3269747,11.741036 79.3133285,11.941116 C79.300657,12.140708 79.2943213,12.312972 79.2943213,12.454004 M80.6145921,17.171988 C79.9990505,17.171988 79.4600253,17.058284 78.9980036,16.828924 C78.5359819,16.60054 78.1514513,16.292612 77.8434368,15.907092 C77.5359097,15.520108 77.3048989,15.0731 77.1504043,14.566068 C76.9963971,14.058548 76.9198809,13.52614 76.9198809,12.967868 C76.9198809,12.602844 76.9890866,12.167548 77.1265235,11.662468 C77.2644477,11.157876 77.4062708,10.709892 77.5544296,10.318516 C77.7011264,9.927628 77.8872996,9.554308 78.1100253,9.199044 C78.3332383,8.844268 78.5939783,8.53146 78.8922455,8.26062 C79.191,7.990268 79.5263069,7.77506 79.8957292,7.614996 C80.2666137,7.455908 80.6784368,7.375876 81.1307112,7.375876 C81.5001336,7.375876 81.8437256,7.435412 82.1605126,7.554484 C82.477787,7.67258 82.753148,7.838988 82.9880578,8.05322 C83.2219928,8.26794 83.4057292,8.527068 83.5373177,8.830604 C83.6689061,9.133652 83.7356751,9.4733 83.7356751,9.848572 C83.7356751,10.24922 83.6021372,10.69818 83.3340866,11.195452 C83.0660361,11.692236 82.7541227,12.118748 82.3968845,12.473524 C82.0401336,12.829276 81.615639,13.1455 81.1234007,13.422684 C80.6311625,13.701332 80.0970108,13.917028 79.5224079,14.071724 C79.621343,14.246428 79.7193032,14.391364 79.8153141,14.507508 C79.9108375,14.62414 80.0087978,14.715396 80.1087076,14.779324 C80.2071552,14.843252 80.3114513,14.888636 80.4206209,14.914012 C80.530278,14.940852 80.6472455,14.953052 80.7729856,14.953052 C81.169213,14.953052 81.5859097,14.875948 82.0245379,14.720764 C82.4631661,14.566068 82.8900975,14.371844 83.3058195,14.139556 C83.7215415,13.907268 84.1133827,13.653508 84.4828051,13.380228 C84.8517401,13.104996 85.1656029,12.84538 85.4219567,12.599916 L86.698852,13.897996 C86.1188881,14.516292 85.5023718,15.064316 84.8488159,15.53914 C84.5646823,15.743612 84.2600794,15.94418 83.9345199,16.14182 C83.6074982,16.338484 83.2643935,16.514652 82.9052058,16.666908 C82.5455307,16.82014 82.1731841,16.94214 81.7871913,17.034372 C81.4016859,17.126116 81.0103321,17.171988 80.6145921,17.171988" id="Fill-3" fill="#00AFAB" sketch:type="MSShapeGroup"></path>
                    <path d="M84.7548032,15.1017944 C84.7548032,14.6660104 84.7806336,14.1628824 84.8337563,13.5914344 C84.8863917,13.0204744 84.9521859,12.3924184 85.0316264,11.7097064 C85.1105794,11.0260184 85.1997671,10.4101624 85.2982148,9.8621384 C85.3971498,9.3146024 85.4931606,8.8451464 85.5847852,8.4557224 C85.6574025,8.1516984 85.7982509,7.8969624 86.0058682,7.6924904 C86.2134856,7.4880184 86.4951823,7.3865144 86.8514458,7.3865144 C87.2077094,7.3865144 87.4548032,7.4948504 87.5932148,7.7124984 C87.731139,7.9306344 87.8018069,8.2209944 87.8018069,8.5845544 C87.8018069,8.6841064 87.7910848,8.8168424 87.7711029,8.9856904 C87.7516083,9.1535624 87.7272401,9.3385144 87.6965361,9.5405464 C87.6677816,9.7420904 87.6361029,9.9490024 87.6034495,10.1642104 C87.5698213,10.3784424 87.5391173,10.6229304 87.5089007,10.8971864 C87.4791715,11.1714424 87.4548032,11.3759144 87.4348213,11.5115784 C87.4153267,11.6467544 87.4050921,11.7375224 87.4050921,11.7833944 L87.6034495,11.7833944 C87.642926,11.7116584 87.705796,11.5940504 87.7910848,11.4320344 C87.876861,11.2700184 87.975796,11.0377304 88.0883773,10.7337064 C88.2004711,10.4301704 88.3198755,10.1603064 88.4495144,9.9260664 C88.5781787,9.6923144 88.6985578,9.4673464 88.8101643,9.2531144 C88.9227455,9.0383944 89.0246047,8.8490504 89.1162292,8.6841064 C89.2093159,8.5186744 89.2780343,8.3961864 89.3243339,8.3166424 C89.5353628,7.9604024 89.7766083,7.7159144 90.0466083,7.5846424 C90.3166083,7.4519064 90.6163375,7.3865144 90.9472581,7.3865144 C91.2762292,7.3865144 91.5384314,7.5246184 91.7328899,7.8022904 C91.9278357,8.0789864 92.0248213,8.4620664 92.0248213,8.9505544 C92.0248213,9.0237544 92.0102004,9.1452664 91.9804711,9.3170424 C91.9517166,9.4893064 91.9132148,9.6937784 91.8674025,9.9309464 C91.8206155,10.1690904 91.7694422,10.4760424 91.7133953,10.8527784 C91.6573484,11.2295144 91.6066625,11.5657464 91.5598755,11.8629384 C91.5135758,12.1606184 91.4760487,12.4539064 91.4458321,12.7437784 C91.4165903,13.0356024 91.4019693,13.3020504 91.4019693,13.5460504 C91.4019693,13.9564584 91.4526552,14.2931784 91.5550018,14.5571864 C91.6573484,14.8216824 91.8176913,14.9529544 92.0340812,14.9529544 C92.1144964,14.9529544 92.2256155,14.9236744 92.3708502,14.8636504 C92.5891895,14.7855704 92.7276011,14.7157864 92.7870596,14.6557624 C93.0770415,14.4317704 93.2286119,14.3224584 93.2417708,14.3292904 C93.2617527,14.3356344 93.4820415,14.2038744 93.9040993,13.9335224 C94.4319152,13.5963144 95.0615903,13.1839544 95.7940993,12.6949784 L95.784352,14.9129384 L95.2891895,15.2906504 C95.2502004,15.3233464 94.9392617,15.4951224 94.3592978,15.8050024 C93.5215181,16.2539624 92.9976011,16.5252904 92.7870596,16.6175224 C92.2724025,16.8483464 91.952204,16.9810824 91.827926,17.0132904 C91.4974928,17.1191864 91.1509765,17.1718904 90.7883773,17.1718904 C90.4262653,17.1718904 90.1211751,16.9098344 89.8740812,16.3847464 C89.6260126,15.8591704 89.502222,15.0925224 89.502222,14.0813864 C89.502222,13.6856184 89.5285397,13.2586184 89.5821498,12.7989224 C89.6347852,12.3406904 89.7000921,11.8463464 89.7790451,11.3178424 L89.6216264,11.3178424 L87.0298213,16.4691704 C86.8914097,16.7463544 86.7422762,16.9308184 86.58437,17.0235384 C86.4196408,17.1226024 86.2285939,17.1718904 86.0107419,17.1718904 C85.7397671,17.1718904 85.5224025,17.1143064 85.3576733,16.9991384 C85.192944,16.8829944 85.0667166,16.7282984 84.9765542,16.5335864 C84.8873664,16.3383864 84.8283953,16.1173224 84.7986661,15.8694184 C84.7689368,15.6215144 84.7548032,15.3658024 84.7548032,15.1017944" id="Fill-5" fill="#00AFAB" sketch:type="MSShapeGroup"></path>
                    <g id="Group-9">
                        <mask id="mask-2" sketch:name="Clip 8" fill="white">
                            <use xlink:href="#path-1"></use>
                        </mask>
                        <g id="Clip-8"></g>
                        <path d="M60.3708303,17.8553832 C60.8976715,17.8553832 61.388935,17.7524152 61.8441336,17.5455032 C62.2988448,17.3395672 62.7160289,17.0560392 63.0951986,16.6968712 C63.4743682,16.3381912 63.8203971,15.9165592 64.1337726,15.4344152 C64.447148,14.9517832 64.7264079,14.4340152 64.9696029,13.8815992 C65.2147473,13.3296712 65.4267509,12.7567592 65.6075632,12.1643272 C65.7893502,11.5723832 65.9394585,10.9867832 66.0583755,10.4075272 C66.1768051,9.8292472 66.2640433,9.2714632 66.3205776,8.7361272 C66.3761372,8.1998152 66.4044043,7.7127912 66.4044043,7.2726152 C66.4044043,6.6338232 66.3347112,6.0330952 66.196787,5.4704312 C66.0583755,4.9087432 65.849296,4.4197672 65.5680866,4.0039912 C65.2883394,3.5877272 64.9354874,3.2597912 64.5095307,3.0201832 C64.0840614,2.7805752 63.5884116,2.6610152 63.0216065,2.6610152 C62.4143502,2.6610152 61.8270758,2.8088792 61.2602708,3.1050952 C60.6929783,3.4013112 60.1593141,3.8004952 59.6573285,4.3021592 C59.1568051,4.8052872 58.6977076,5.3879592 58.2829603,6.0501752 C57.8672383,6.7123912 57.5109747,7.4097432 57.214657,8.1417432 C56.9173646,8.8742312 56.6868412,9.6189192 56.5221119,10.3777592 C56.35787,11.1361112 56.2745307,11.8622552 56.2745307,12.5542392 C56.2745307,13.3062472 56.3685921,14.0065272 56.5567148,14.6550792 C56.7448375,15.3046072 57.0148375,15.8653192 57.3676895,16.3381912 C57.7210289,16.8100872 58.148935,17.1814552 58.6543321,17.4513192 C59.1582671,17.7206952 59.7304332,17.8553832 60.3708303,17.8553832 M60.132509,20.1533752 C59.1494946,20.1533752 58.2644404,19.9532952 57.4768592,19.5536232 C56.6878159,19.1549272 56.0176895,18.5971432 55.463556,17.8807592 C54.9099097,17.1638872 54.4844404,16.3108632 54.187148,15.3192472 C53.8908303,14.3271432 53.7426715,13.2393912 53.7426715,12.0545272 C53.7426715,11.4171992 53.7884838,10.7623032 53.8805957,10.0913032 C53.9731949,9.4207912 54.1130686,8.7507672 54.3016787,8.0831832 C54.4893141,7.4151112 54.7227617,6.7607032 55.0034838,6.1189832 C55.2846931,5.4782392 55.6107401,4.8721432 55.9825993,4.3002072 C56.3549458,3.7287592 56.77213,3.2022072 57.234639,2.7205512 C57.6961733,2.2384072 58.2054693,1.8226312 58.7625271,1.4741992 C59.3190975,1.1257672 59.9195307,0.8524872 60.5633394,0.6567992 C61.2061733,0.4601352 61.896769,0.3625352 62.6356137,0.3625352 C63.6244765,0.3625352 64.5095307,0.5421192 65.2917509,0.9012872 C66.0729964,1.2585032 66.7319134,1.7601672 67.2699639,2.4043272 C67.8075271,3.0484872 68.2198375,3.8165992 68.5064079,4.7101272 C68.7934657,5.6026792 68.9367509,6.5864872 68.9367509,7.6625272 C68.9367509,8.5448312 68.85,9.4647112 68.6745487,10.4221672 C68.4995848,11.3801112 68.2442058,12.3209752 67.9074368,13.2467112 C67.5716426,14.1714712 67.152509,15.0518232 66.6514982,15.8877672 C66.1504874,16.7241992 65.573935,17.4571752 64.9203791,18.0896232 C64.2673105,18.7210952 63.5411372,19.2232472 62.738935,19.5951032 C61.9377076,19.9674472 61.0687365,20.1533752 60.132509,20.1533752" id="Fill-7" fill="#00AFAB" sketch:type="MSShapeGroup" mask="url(#mask-2)"></path>
                    </g>
                    <path d="M65.864648,37.2524072 C65.3265975,37.8145832 64.7198285,38.3079512 64.0462906,38.7300712 C63.3712906,39.1531672 62.6665614,39.5059912 61.9330776,39.7904952 C61.1986191,40.0759752 60.4519765,40.2902072 59.6946119,40.4341672 C58.9367599,40.5786152 58.2023014,40.6513272 57.4912365,40.6513272 C56.7192509,40.6518152 55.9945397,40.5620232 55.3141787,40.3839032 C54.6347924,40.2043192 54.0402076,39.9305512 53.5294495,39.5635752 C53.0196661,39.1956232 52.6161282,38.7295832 52.3183484,38.1659432 C52.021056,37.6027912 51.8719224,36.9332552 51.8719224,36.1578232 C51.8709477,35.4834072 51.9908394,34.8348552 52.2291606,34.2136312 C52.4684567,33.5924072 52.8369043,33.0404792 53.3384025,32.5602872 C53.838926,32.0786312 54.4802978,31.6911592 55.2630054,31.3964072 C56.0452256,31.1026312 56.9819404,30.9420792 58.0755866,30.9147512 C57.3581859,30.9152392 56.731435,30.8112952 56.1963087,30.6034072 C55.6602076,30.3955192 55.2171931,30.1144312 54.8648285,29.7606312 C54.5124639,29.4073192 54.2478249,28.9939832 54.0718863,28.5211112 C53.8949729,28.0487272 53.8072473,27.5480392 53.8072473,27.0195352 C53.8062726,26.5247032 53.8915614,26.0723272 54.0626264,25.6638712 C54.2327166,25.2549272 54.4676264,24.8864872 54.7663809,24.5600152 C55.064648,24.2335432 55.4170126,23.9475752 55.8239621,23.7035752 C56.2309116,23.4585992 56.6724639,23.2560792 57.1481318,23.0945512 C57.6247744,22.9325352 58.1233484,22.8105352 58.6443412,22.7275752 C59.1663087,22.6446152 59.6936372,22.6031352 60.2258394,22.6031352 C61.0026986,22.6026472 61.7644495,22.6865832 62.5091426,22.8544552 C63.2543231,23.0228152 63.9147022,23.2746232 64.4927166,23.6108552 C65.0717058,23.9465992 65.537139,24.3672552 65.8904783,24.8713592 C66.2423556,25.3754632 66.4187816,25.9644792 66.4187816,26.6369432 C66.4197563,26.8750872 66.3383664,27.1103032 66.1750993,27.3421032 C66.0128069,27.5743912 65.8173736,27.7813032 65.5912365,27.9633272 C65.366074,28.1448632 65.1282401,28.2912632 64.8791968,28.4000872 C64.6296661,28.5093992 64.4215614,28.5645432 64.25537,28.5645432 C64.1159838,28.5645432 64.0462906,28.4425432 64.0462906,28.1970792 C64.0453159,27.9784552 64.0799188,27.6973672 64.1500993,27.3528392 C64.2202798,27.0087992 64.3377347,26.5778952 64.503926,26.0615912 C64.3245758,25.9161672 64.0613989,25.7712312 63.7158574,25.6248312 C63.3708032,25.4798952 62.9794495,25.3471592 62.5437455,25.2275992 C62.1090162,25.1090152 61.6450451,25.0119032 61.1532942,24.9357752 C60.6615433,24.8601352 60.1766155,24.8220712 59.6985108,24.8220712 C59.2525722,24.8220712 58.8271029,24.8620872 58.4211282,24.9411432 C58.0161282,25.0221512 57.6593773,25.1529352 57.3499007,25.3344712 C57.0418863,25.5164952 56.7957671,25.7570792 56.6134928,26.0552472 C56.430731,26.3534152 56.3386191,26.7208792 56.3395939,27.1576392 C56.3395939,27.5153432 56.4049007,27.8154632 56.5350271,28.0599512 C56.6646661,28.3044392 56.8386552,28.5133032 57.0555325,28.6841032 C57.2728971,28.8568552 57.5214531,28.9969112 57.8016877,29.1057352 C58.081435,29.2145592 58.3719043,29.3121592 58.6726083,29.3985352 C58.9728249,29.4844232 59.2686552,29.5664072 59.5586372,29.6454632 C59.8491065,29.7250072 60.1161823,29.8182152 60.3593773,29.9236232 C60.6030596,30.0295192 60.8082401,30.1568872 60.9754061,30.3071912 C61.1420848,30.4570072 61.2522292,30.6443992 61.3058394,30.8703432 C61.3199729,31.0133272 61.3331318,31.1582632 61.3462906,31.3051512 C61.3594495,31.4520392 61.3657852,31.5935592 61.3657852,31.7301992 C61.3662726,32.1313352 61.2960921,32.4221832 61.155731,32.6027432 C61.0148827,32.7842792 60.7395217,32.8745592 60.3311101,32.8745592 C60.1571209,32.8745592 59.9412184,32.8652872 59.6824278,32.8452792 C59.4241245,32.8257592 59.1780054,32.8159992 58.9430957,32.8159992 C58.4206408,32.8159992 57.9074458,32.8823672 57.4049729,33.0146152 C56.9015253,33.1463752 56.4512004,33.3420632 56.0530235,33.6036312 C55.6538718,33.8647112 55.3326986,34.1863032 55.0875542,34.5693832 C54.8428971,34.9514872 54.7205686,35.3970312 54.7205686,35.9050392 C54.7205686,36.3881592 54.7897744,36.7902712 54.929648,37.1118632 C55.0690343,37.4329672 55.2605686,37.6925832 55.5027888,37.8887592 C55.745009,38.0849352 56.0320668,38.2240152 56.3620126,38.3079512 C56.6919585,38.3909112 57.048222,38.4323912 57.4298285,38.4323912 C57.9020848,38.4323912 58.3977347,38.3870072 58.9153159,38.2972152 C59.4343592,38.2064472 59.9509657,38.0829832 60.4661101,37.9253592 C60.9802798,37.7677352 61.4827527,37.5803432 61.9715794,37.3646472 C62.4594314,37.1489512 62.9131679,36.9171512 63.3327888,36.6692472 C63.7509477,36.4213432 64.1193953,36.1612392 64.4381318,35.8869832 C64.7568682,35.6137032 65.0029874,35.3379832 65.1755144,35.0622632 L65.864648,37.2524072 Z" id="Fill-10" fill="#00AEAB" sketch:type="MSShapeGroup"></path>
                    <path d="M74.3102383,25.0252744 C74.3511769,24.5626504 74.3716462,24.1971384 74.3716462,23.9248344 C74.3716462,23.5690824 74.3394801,23.3211784 74.2756354,23.1820984 C74.2117906,23.0430184 74.1191913,22.9742104 73.9988123,22.9742104 C73.7848592,22.9742104 73.5899134,23.1079224 73.4159242,23.3753464 C73.241935,23.6432584 73.101574,23.9882744 72.9958159,24.4099064 C72.8895704,24.8325144 72.7745523,25.2917224 72.6507617,25.7875304 C72.5259964,26.2828504 72.4358339,26.7684104 72.3778375,27.2437224 C72.3203285,27.7180584 72.2750036,28.1470104 72.2404007,28.5286264 C72.2057978,28.9102424 72.181917,29.1810824 72.1668087,29.3426104 C72.1390289,29.6710344 72.115148,29.9857944 72.0971155,30.2907944 C72.0795704,30.5953064 72.0673863,30.8734664 72.0610505,31.1238104 C72.0532527,31.3751304 72.0493538,31.5937544 72.0493538,31.7811464 L72.0493538,32.2130264 L72.0493538,32.3140424 C72.4163394,31.4336904 72.7535957,30.5572424 73.0625848,29.6837224 C73.1912491,29.3113784 73.3179639,28.9234184 73.4441913,28.5188664 C73.569444,28.1152904 73.693722,27.7141544 73.8175126,27.3169224 C73.9413032,26.9192024 74.0455993,26.5253864 74.1313755,26.1359624 C74.2166643,25.7450744 74.2766101,25.3756584 74.3102383,25.0252744 L74.3102383,25.0252744 Z M69.6456715,31.7855384 C69.2104549,31.9983064 68.823,32.2793944 68.4837942,32.6292904 C68.1445884,32.9791864 67.861917,33.4403464 67.6343177,34.0132584 C67.406231,34.5856824 67.2332166,35.0785624 67.1142996,35.4914104 C66.9963574,35.9042584 66.9373863,36.2766024 66.9373863,36.6094184 C66.9373863,36.7128744 66.9520072,36.8163304 66.9822238,36.9197864 C67.0109783,37.0232424 67.0660505,37.1159624 67.145491,37.1984344 C67.224444,37.2818824 67.3365379,37.3487384 67.4817726,37.3999784 C67.6270072,37.4521944 67.81513,37.4780584 68.0451661,37.4780584 C68.1645704,37.4780584 68.2820253,37.4512184 68.3975307,37.3985144 C68.5125487,37.3458104 68.6231805,37.2770024 68.7279639,37.1925784 C68.833722,37.1071784 68.9346065,37.0105544 69.03013,36.9017304 C69.1261408,36.7933944 69.2133791,36.6806664 69.2923321,36.5640344 C69.4780181,36.2941704 69.6466462,35.9896584 69.7967545,35.6500104 C69.7772599,35.5563144 69.7597148,35.4089384 69.7475307,35.2054424 C69.7338845,35.0024344 69.7236498,34.6930424 69.7163394,34.2762904 C69.7095162,33.8605144 69.7036679,33.5184264 69.69587,33.2529544 C69.6890469,32.9865064 69.6846606,32.7434824 69.6807617,32.5238824 C69.6778375,32.3042824 69.6724765,32.1246984 69.6656534,31.9846424 C69.6588303,31.8450744 69.6520072,31.7782184 69.6456715,31.7855384 L69.6456715,31.7855384 Z M76.5053285,37.6317784 C76.0374585,38.0182744 75.5754368,38.3608504 75.1207256,38.6634104 C74.9296787,38.7898024 74.7288845,38.9142424 74.5178556,39.0372184 C74.3063394,39.1597064 74.098722,39.2685304 73.8940289,39.3636904 C73.6898231,39.4583624 73.4909783,39.5359544 73.2989567,39.5950024 C73.1049856,39.6555144 72.9295343,39.6843064 72.768704,39.6843064 C72.6736679,39.6843064 72.5333069,39.6642984 72.3481083,39.6213544 C72.1624224,39.5793864 71.9601661,39.4934984 71.7403646,39.3641784 C71.5205632,39.2348584 71.3017365,39.0469784 71.081935,38.8015144 C70.8621336,38.5570264 70.6710866,38.2305544 70.5092816,37.8235624 C70.2641372,38.0753704 70.0048592,38.3164424 69.7309603,38.5438504 C69.456574,38.7722344 69.1724404,38.9703624 68.8780722,39.1387224 C68.5832166,39.3075704 68.2859242,39.4422584 67.9847329,39.5442504 C67.6835415,39.6457544 67.3808881,39.6960184 67.0767726,39.6960184 C66.6478917,39.6969944 66.2779819,39.6081784 65.9641191,39.4295704 C65.6507437,39.2504744 65.390491,39.0137944 65.1823863,38.7175784 C64.974769,38.4203864 64.8192996,38.0851304 64.7164657,37.7079064 C64.6150939,37.3321464 64.5634332,36.9427224 64.5634332,36.5406104 C64.5634332,36.1121464 64.6170433,35.6783144 64.726213,35.2391144 C64.8348953,34.7999144 64.9923141,34.3738904 65.2004188,33.9615304 C65.4080361,33.5501464 65.6380722,33.1187544 65.8929639,32.6702824 C66.1463935,32.2208344 66.4821877,31.8118904 66.9003466,31.4429624 C67.3194801,31.0740344 67.7498231,30.7953864 68.1908881,30.6075064 C68.6329278,30.4201144 69.103722,30.3025064 69.6057076,30.2556584 C69.6252022,29.3977544 69.715852,28.6418424 69.8771697,27.9879224 C70.0389747,27.3340024 70.2139386,26.6303064 70.4001119,25.8773224 C70.5862852,25.1243384 70.8275307,24.4308904 71.1218989,23.7969784 C71.4167545,23.1630664 71.7403646,22.6150424 72.0917545,22.1524184 C72.4436318,21.6907704 72.8169531,21.3291624 73.2156173,21.0685704 C73.6133069,20.8070024 74.0246426,20.6762184 74.4491372,20.6757304 C74.7591011,20.6757304 75.0227653,20.7567384 75.24013,20.9192424 C75.4579819,21.0807704 75.6348953,21.2954904 75.7703827,21.5634024 C75.9048953,21.8313144 76.0028556,22.1431464 76.0618267,22.4959704 C76.1222599,22.8497704 76.1515018,23.2152824 76.1515018,23.5920184 C76.1515018,23.8277224 76.149065,24.0702584 76.1461408,24.3186504 C76.1276209,25.2668344 75.9818989,26.1501144 75.7084874,26.9660504 C75.4350758,27.7829624 75.1655632,28.5906024 74.8989747,29.3879944 C74.6328736,30.1868504 74.311213,30.9759464 73.9335054,31.7577224 C73.3584152,32.9533224 72.9914296,33.7643784 72.8340108,34.1913784 C72.7994079,34.2860504 72.7652924,34.3992664 72.7316643,34.5320024 C72.6975487,34.6662024 72.6648953,34.8111384 72.6341913,34.9677864 C72.6034874,35.1244344 72.577657,35.2849864 72.5571877,35.4484664 C72.5357437,35.6119464 72.5259964,35.7715224 72.5259964,35.9247544 C72.5264838,36.1180024 72.5376931,36.3014904 72.5601119,36.4752184 C72.5825307,36.6489464 72.6195704,36.8046184 72.671231,36.9407704 C72.721917,37.0778984 72.7916101,37.1867224 72.8778736,37.2662664 C72.9655993,37.3462984 73.0728195,37.3863144 73.2014838,37.3863144 C73.3262491,37.3863144 73.4631986,37.3619144 73.6118448,37.3111624 C73.7595162,37.2613864 73.9164477,37.1935544 74.0806895,37.1066904 C74.2454188,37.0198264 74.4125848,36.9217384 74.5807256,36.8114504 C74.7493538,36.7021384 74.9121336,36.5898984 75.0705271,36.4766824 C75.4331264,36.2102344 75.812296,35.9076744 76.2080361,35.5675384 L76.5053285,37.6317784 Z" id="Fill-12" fill="#00AEAB" sketch:type="MSShapeGroup"></path>
                    <path d="M83.3764386,30.4585688 C83.3764386,30.6376648 83.3705903,30.8802008 83.3588935,31.1871528 C83.3467094,31.4945928 83.3067455,31.8303368 83.2404639,32.1929208 C83.1727202,32.5564808 83.090843,32.9961688 82.9958069,33.5119848 C82.9002834,34.0268248 82.8203556,34.4533368 82.7584603,34.7915208 C82.696565,35.1287288 82.6410054,35.4244568 82.5942184,35.6772408 C82.5474314,35.9305128 82.5245253,36.1135128 82.5245253,36.2291688 C82.5245253,36.4146088 82.5274495,36.5854088 82.5332978,36.7405928 C82.5386588,36.8962648 82.5547419,37.0324168 82.5834964,37.1485608 C82.6122509,37.2647048 82.6566011,37.3544968 82.7175217,37.4174488 C82.7769801,37.4799128 82.8642184,37.5116328 82.9782617,37.5116328 C83.123009,37.5116328 83.2999224,37.4745448 83.5075397,37.4013448 C83.715157,37.3291208 83.9349585,37.2315208 84.1703556,37.1080568 C84.4033159,36.9855688 84.6430993,36.8460008 84.8867816,36.6903288 C85.1314386,36.5341688 85.3624495,36.3706888 85.5842004,36.1979368 C85.8049765,36.0251848 86.0057708,35.8543848 86.1875578,35.6855368 C86.3688574,35.5166888 86.5155542,35.3585768 86.627648,35.2126648 C86.627648,35.4317768 86.6291101,35.6313688 86.6325217,35.8094888 C86.6354458,35.9890728 86.6378827,36.1598728 86.6378827,36.3218888 C86.6378827,36.4843928 86.6393448,36.6512888 86.6427563,36.8245288 C86.6461679,36.9963048 86.64763,37.1885768 86.6486047,37.4003688 C86.50337,37.5443288 86.3235325,37.6975608 86.1090921,37.8600648 C85.8946516,38.0235448 85.6577924,38.1860488 85.396565,38.3490408 C85.1358249,38.5125208 84.8599765,38.6686808 84.5660957,38.8189848 C84.2727022,38.9683128 83.9778466,39.1010488 83.6805542,39.2142648 C83.3847238,39.3294328 83.0942545,39.4202008 82.811583,39.4890088 C82.5279368,39.5573288 82.2657347,39.5914888 82.0230271,39.5914888 C81.7773953,39.5914888 81.5663664,39.5431768 81.3909152,39.4455768 C81.2159513,39.3484648 81.0653556,39.2113368 80.9396155,39.0356568 C80.8124134,38.8599768 80.7061679,38.6496488 80.6179549,38.4051608 C80.5302292,38.1616488 80.4542004,37.8903208 80.3893809,37.5902008 C80.1515469,37.8961768 79.9000668,38.1787288 79.6364025,38.4359048 C79.3732256,38.6935688 79.103713,38.9170728 78.8298141,39.1059288 C78.5559152,39.2952728 78.2781173,39.4436248 77.9978827,39.5504968 C77.7171606,39.6583448 77.4452112,39.7125128 77.1805722,39.7125128 C76.9641823,39.7125128 76.7604639,39.6768888 76.5699043,39.6041768 C76.3798321,39.5314648 76.2107166,39.4094648 76.0625578,39.2376888 C75.9143989,39.0664008 75.7974314,38.8404568 75.7116552,38.5593688 C75.6268538,38.2787688 75.5844531,37.9303368 75.5844531,37.5150488 C75.5907888,36.6503128 75.6556083,35.9876088 75.7813484,35.5249848 C75.9782437,34.8505688 76.1614928,33.8462648 76.3330451,32.5106088 C76.3501029,32.4139848 76.3749585,32.2807608 76.4061498,32.1114248 C76.4363664,31.9425768 76.4836408,31.7586008 76.5465108,31.5609608 C76.6084061,31.3633208 76.6863845,31.1612888 76.7784964,30.9563288 C76.8701209,30.7523448 76.9788032,30.5669048 77.104056,30.4019608 C77.229796,30.2365288 77.3764928,30.1013528 77.5446336,29.9954568 C77.7127744,29.8900488 77.9023592,29.8334408 78.1133881,29.8266088 C78.4628285,29.8432008 78.7133339,29.9002968 78.8649043,29.9969208 C79.0174495,30.0935448 79.092991,30.2131048 79.092991,30.3560888 C79.0340199,30.8011448 78.9672509,31.2291208 78.8936588,31.6400168 C78.8195794,32.0514008 78.7450126,32.4647368 78.6709332,32.8824648 C78.5958791,33.2987288 78.5130271,33.7628168 78.4218899,34.2727768 C78.3302653,34.7832248 78.2566733,35.1926568 78.2020884,35.5005848 C78.1470162,35.8085128 78.1026661,36.0578808 78.0675758,36.2477128 C78.034435,36.4380328 78.0168899,36.5361208 78.0168899,36.5434408 C78.0168899,36.6654408 78.0280993,36.7835368 78.0519801,36.8952888 C78.0748863,37.0085048 78.1094892,37.1080568 78.1562762,37.1968728 C78.2035505,37.2847128 78.2625217,37.3574248 78.3356264,37.4111048 C78.4082437,37.4657608 78.4940199,37.4935768 78.5939296,37.4935768 C78.7391643,37.4935768 78.8882978,37.4545368 79.040843,37.3774328 C79.1924134,37.3003288 79.3337491,37.1871128 79.467287,37.0387608 C79.6056986,36.9045608 79.7285144,36.7293688 79.8342726,36.5146488 C79.9395433,36.3067608 80.0194711,36.0637368 80.0725939,35.7885048 L81.1603917,30.3902488 C81.1925578,30.2316488 81.3207347,30.0984248 81.5468718,29.9891128 C81.773009,29.8798008 82.0293628,29.8251448 82.3159332,29.8251448 C82.6405181,29.8251448 82.8988213,29.8846808 83.0893809,30.0032648 C83.2814025,30.1223368 83.3764386,30.2741048 83.3764386,30.4585688" id="Fill-14" fill="#00AEAB" sketch:type="MSShapeGroup"></path>
                    <path d="M88.6270614,39.6886008 C88.0168809,39.6886008 87.4798051,39.5763608 87.0187581,39.3523688 C86.5577112,39.1283768 86.1707437,38.8272808 85.858343,38.4520088 C85.5464296,38.0742968 85.3105451,37.6394888 85.1516643,37.1441688 C84.9913213,36.6488488 84.9118809,36.1340088 84.9118809,35.5991608 C84.9118809,35.2160808 84.9776751,34.7568728 85.1092635,34.2220248 C85.2423141,33.6871768 85.3860866,33.2191848 85.541556,32.8200008 C85.6970253,32.4208168 85.8895343,32.0392008 86.1181083,31.6761288 C86.3461949,31.3125688 86.6118087,30.9943928 86.913,30.7196488 C87.2146787,30.4458808 87.5514477,30.2277448 87.9223321,30.0657288 C88.2932166,29.9037128 88.7016282,29.8227048 89.1456173,29.8227048 C89.5452563,29.8222168 89.9151661,29.8798008 90.2563213,29.9954568 C90.5960144,30.1111128 90.8874585,30.2706888 91.1296787,30.4756488 C91.3723863,30.6801208 91.5614838,30.9226568 91.6984332,31.2027688 C91.8348953,31.4843448 91.9036137,31.7859288 91.9036137,32.1099608 C91.9036137,32.3339528 91.871935,32.5550168 91.8071155,32.7726648 C91.7437581,32.9912888 91.6185054,33.2474888 91.4328195,33.5407768 C91.2481083,33.8350408 91.0677834,34.0346328 90.8933069,34.1400408 C90.7178556,34.2464248 90.5204729,34.2991288 90.298722,34.2991288 C89.9653646,34.2991288 89.7504368,34.2171448 89.6529639,34.0512248 C89.4931083,33.7940488 89.4429097,33.5666408 89.5013935,33.3685128 C89.5208881,33.2626168 89.5803466,33.0176408 89.6783069,32.6355368 C89.6914657,32.5828328 89.6948773,32.4632728 89.6885415,32.2783208 C89.6885415,32.1197208 89.6714838,31.9884488 89.6378556,31.8820648 C89.6056895,31.7766568 89.5335596,31.7239528 89.4219531,31.7239528 C89.1524404,31.7249288 88.9228917,31.7883688 88.7323321,31.9176888 C88.5422599,32.0465208 88.3794801,32.2148808 88.2454549,32.4222808 C88.1109422,32.6311448 87.9778917,32.9249208 87.8467906,33.3045848 C87.7156895,33.6842488 87.6226029,34.0038888 87.566556,34.2610648 C87.510509,34.5182408 87.4763935,34.7637048 87.4632347,34.9984328 C87.4500758,35.2326728 87.4437401,35.4288488 87.4437401,35.5879368 C87.4437401,35.8251048 87.4651841,36.0730088 87.5080722,36.3301848 C87.5509603,36.5883368 87.6362491,36.8250168 87.764426,37.0387608 C87.8921155,37.2539688 88.0583069,37.4316008 88.2625126,37.5736088 C88.4657437,37.7156168 88.7284332,37.7858888 89.0505812,37.7858888 C89.3668809,37.7858888 89.7163213,37.6878008 90.0993899,37.4935768 C90.4814838,37.2988648 90.8645523,37.0524248 91.2510325,36.7547448 C91.6365379,36.4580408 92.0035235,36.1310808 92.3529639,35.7743528 C92.701917,35.4171368 93.0031083,35.0809048 93.2536137,34.7632168 L93.9359242,35.9119688 C93.4422238,36.6185928 92.9075848,37.2495768 92.334444,37.8054088 C92.089787,38.0425768 91.825148,38.2738888 91.5380903,38.4983688 C91.2520072,38.7228488 90.9517906,38.9234168 90.6384152,39.0981208 C90.3250397,39.2728248 89.9985054,39.4143448 89.6583249,39.5246328 C89.3196065,39.6334568 88.9755271,39.6881128 88.6270614,39.6886008" id="Fill-16" fill="#00AEAB" sketch:type="MSShapeGroup"></path>
                    <path d="M94.9028069,36.4551128 C94.9028069,36.6254248 94.9140162,36.7903688 94.9374097,36.9509208 C94.9608032,37.1100088 95.0017419,37.2539688 95.0616877,37.3803608 C95.1216336,37.5052888 95.2005866,37.6077688 95.2995217,37.6853608 C95.398944,37.7644168 95.5241968,37.8039448 95.6767419,37.8039448 C95.9204242,37.8029688 96.1421751,37.6970728 96.3400451,37.4838168 C96.5384025,37.2710488 96.7089801,37.0153368 96.8551895,36.7161928 C97.0004242,36.4165608 97.1173917,36.1076568 97.2065794,35.7880168 C97.2957671,35.4693528 97.3527888,35.2033928 97.3800812,34.9906248 L98.1164892,31.7703128 C97.8455144,31.7703128 97.5818502,31.8376568 97.3245217,31.9713688 C97.0671931,32.1060568 96.8249729,32.2875928 96.597861,32.5169528 C96.3702617,32.7463128 96.1611823,33.0083688 95.969648,33.3026328 C95.7790884,33.5978728 95.5909657,33.9614328 95.4062545,34.3923368 C95.2220307,34.8247048 95.0923917,35.2053448 95.0158755,35.5313288 C94.9403339,35.8592648 94.9028069,36.1671928 94.9028069,36.4551128 L94.9028069,36.4551128 Z M103.390262,37.2276168 C103.238204,37.4413608 103.03546,37.6917048 102.781543,37.9791368 C102.527626,38.2665688 102.243005,38.5403368 101.926218,38.8014168 C101.610406,39.0615208 101.269738,39.2816088 100.907626,39.4621688 C100.54454,39.6417528 100.18194,39.7330088 99.8193412,39.7330088 C99.3812004,39.7334968 99.0161643,39.5949048 98.7237455,39.3167448 C98.430352,39.0390728 98.1783845,38.6359848 97.9654061,38.1065048 C97.8055505,38.2895048 97.60963,38.4754328 97.3776444,38.6652648 C97.1446841,38.8555848 96.8902798,39.0273608 96.6154061,39.1801048 C96.338583,39.3343128 96.0510379,39.4602168 95.7522834,39.5578168 C95.4530415,39.6568808 95.154287,39.7056808 94.8545578,39.7056808 C94.5382581,39.7056808 94.2297563,39.6402888 93.9300271,39.5109688 C93.6293231,39.3811608 93.3641968,39.1947448 93.1331859,38.9517208 C92.9021751,38.7082088 92.7179513,38.4124808 92.578565,38.0625848 C92.4401534,37.7126888 92.3709477,37.3183848 92.3709477,36.8782088 C92.3709477,36.3853288 92.4391787,35.8787848 92.5790523,35.3580888 C92.7184386,34.8383688 92.9333664,34.2761928 93.2257852,33.6705848 C93.5162545,33.0649768 93.8306047,32.5423288 94.1644495,32.1006888 C94.499269,31.6595368 94.8662545,31.2745048 95.2644314,30.9455928 C95.6616336,30.6166808 96.0817419,30.3546248 96.5223195,30.1604008 C96.9633845,29.9656888 97.4127347,29.8685768 97.8713448,29.8685768 C98.0234025,29.8685768 98.1428069,29.8983448 98.2290704,29.9583688 C98.3158213,30.0188808 98.3864892,30.0867128 98.4425361,30.1638168 C98.4990704,30.2404328 98.5541426,30.3155848 98.6072653,30.3882968 C98.6599007,30.4624728 98.7266697,30.5151768 98.8061101,30.5493368 C98.8855505,30.5825208 98.9674278,30.6035048 99.0507671,30.6137528 C99.1331318,30.6240008 99.2174458,30.6283928 99.3041968,30.6283928 C99.3773014,30.6283928 99.4513809,30.6274168 99.5278971,30.6235128 C99.603926,30.6200968 99.6789801,30.6186328 99.7515975,30.6186328 C99.8510199,30.6181448 99.9441065,30.6283928 100.03037,30.6479128 C100.116634,30.6688968 100.19315,30.7113528 100.259431,30.7782088 C100.325713,30.8450648 100.376399,30.9387608 100.413439,31.0583208 C100.449504,31.1793448 100.467536,31.3423368 100.467536,31.5487608 C100.467536,31.8654728 100.43537,32.2148808 100.369088,32.6004008 C100.302807,32.9844568 100.227753,33.3782728 100.142951,33.7823368 C100.05815,34.1864008 99.9616516,34.6465848 99.8524819,35.1633768 C99.7437996,35.6801688 99.6897022,36.1159528 99.6897022,36.4697528 C99.6897022,36.7723128 99.7179693,37.0089928 99.7735289,37.1793048 C99.8300632,37.3501048 99.9509296,37.4355048 100.135641,37.4355048 C100.274052,37.4355048 100.418312,37.4003688 100.570857,37.3320488 C100.722428,37.2622648 100.87546,37.1734488 101.029955,37.0621848 C101.185912,36.9509208 101.339919,36.8245288 101.494901,36.6834968 C101.65037,36.5429528 101.796579,36.3970408 101.935478,36.2462488 C102.258601,35.8934248 102.584648,35.4927768 102.913619,35.0482088 L103.390262,37.2276168 Z" id="Fill-18" fill="#00AEAB" sketch:type="MSShapeGroup"></path>
                    <path d="M107.649487,24.9185 C107.649487,24.846276 107.644126,24.766244 107.633892,24.67694 C107.624632,24.588124 107.6027,24.504188 107.56956,24.426108 C107.536906,24.347052 107.485733,24.280684 107.415552,24.22798 C107.346347,24.176252 107.248874,24.149412 107.122646,24.149412 C106.950606,24.1499 106.776617,24.300204 106.601653,24.602276 C106.425715,24.903372 106.257087,25.288892 106.095769,25.75786 C105.933477,26.22634 105.780931,26.743132 105.639108,27.30726 C105.496798,27.8709 105.366184,28.417948 105.247267,28.94938 C105.345715,28.958652 105.446112,28.967436 105.545534,28.974268 C105.644469,28.982076 105.747303,28.99086 105.853061,29.000132 C106.052394,28.667804 106.258061,28.306684 106.473964,27.918236 C106.688892,27.530276 106.881888,27.14866 107.054415,26.773388 C107.225968,26.398116 107.368278,26.047244 107.480859,25.72126 C107.592466,25.395276 107.649487,25.127364 107.649487,24.9185 L107.649487,24.9185 Z M110.819794,37.461076 C110.18622,37.83098 109.620877,38.154036 109.125715,38.43122 C108.63104,38.709868 108.190462,38.940692 107.803982,39.125644 C107.417989,39.311084 107.074397,39.449188 106.773693,39.542396 C106.473964,39.634628 106.20104,39.680988 105.95687,39.680988 C105.457809,39.680988 105.018693,39.529708 104.638061,39.226172 C104.25743,38.922636 103.939668,38.485876 103.683314,37.914428 C103.427935,37.34298 103.234939,36.650996 103.106762,35.839452 C102.978585,35.026932 102.91474,34.11242 102.913765,33.095428 C102.913765,32.699172 102.929848,32.276564 102.962502,31.827604 C102.995155,31.378156 103.040968,30.9331 103.099451,30.490484 C102.900119,30.460716 102.745137,30.433876 102.635968,30.408012 C102.52631,30.382148 102.410318,30.356772 102.287502,30.330908 C102.164686,30.305044 102.008729,30.277228 101.819632,30.248436 C101.630047,30.219156 101.356635,30.182556 100.997935,30.138636 C100.839542,30.116676 100.715751,30.07422 100.629975,30.012244 C100.543224,29.94978 100.480841,29.875604 100.440877,29.791668 C100.400426,29.706268 100.37752,29.618428 100.370209,29.526196 C100.364361,29.43494 100.360462,29.356372 100.360462,29.290004 C100.360462,29.185084 100.424794,29.106516 100.553946,29.05186 C100.683097,28.99574 100.848801,28.955236 101.05057,28.927908 C101.253314,28.900092 101.475065,28.885452 101.717285,28.881548 C101.959505,28.877644 102.191491,28.879108 102.413729,28.88594 C102.635968,28.892772 102.834325,28.897164 103.010264,28.90058 C103.185715,28.903996 103.306581,28.899116 103.37335,28.88594 C103.550264,27.996804 103.775913,27.134996 104.04835,26.302468 C104.321762,25.46994 104.627827,24.729156 104.96557,24.080116 C105.304776,23.431076 105.675661,22.911844 106.075787,22.519004 C106.477863,22.126652 106.899433,21.931452 107.340011,21.929988 C107.624632,21.929988 107.882935,22.009532 108.117357,22.167644 C108.350805,22.326244 108.551112,22.537548 108.716329,22.801068 C108.881545,23.064588 109.009235,23.373004 109.098422,23.726316 C109.18761,24.078652 109.232448,24.446604 109.232448,24.828708 C109.232448,25.14542 109.185661,25.480188 109.094036,25.832036 C109.001437,26.18486 108.876184,26.543052 108.718278,26.908076 C108.559884,27.2731 108.373224,27.643004 108.158783,28.018276 C107.945318,28.392572 107.719181,28.76394 107.481834,29.131892 C107.54178,29.109932 107.640227,29.106516 107.779126,29.119692 C107.918025,29.132868 108.077881,29.141652 108.259181,29.147508 C108.44048,29.152388 108.636401,29.158244 108.847917,29.163124 C109.059433,29.168004 109.263639,29.17386 109.461022,29.180692 C109.658892,29.187036 109.843603,29.19338 110.014668,29.200212 C110.186708,29.206556 110.328043,29.213388 110.440137,29.219244 C110.572213,29.226564 110.668224,29.300252 110.727195,29.440308 C110.787141,29.579876 110.81687,29.756044 110.81687,29.969788 C110.81687,30.21574 110.750588,30.417284 110.618513,30.57198 C110.486924,30.726676 110.341202,30.804268 110.182809,30.805244 L106.38039,30.80622 C106.188368,31.070228 105.994397,31.329356 105.798964,31.583604 C105.603531,31.838828 105.424181,32.067212 105.258477,32.27266 C105.232159,32.681604 105.208765,33.084692 105.189758,33.480948 C105.182448,33.652236 105.176599,33.82938 105.169776,34.010916 C105.162953,34.19294 105.155643,34.372524 105.149794,34.550644 C105.143946,34.729252 105.13956,34.90054 105.136148,35.065972 C105.132249,35.230916 105.130787,35.382684 105.130787,35.521764 C105.130787,35.877516 105.164415,36.178612 105.230697,36.422612 C105.296978,36.6671 105.392989,36.866692 105.518242,37.021876 C105.644469,37.176572 105.798964,37.2893 105.981238,37.35762 C106.163025,37.427892 106.366256,37.46254 106.591906,37.462052 C106.72983,37.462052 106.903332,37.429356 107.111924,37.3625 C107.319542,37.297108 107.546653,37.206828 107.794235,37.089708 C108.041816,36.975028 108.302556,36.837412 108.576455,36.678812 C108.850354,36.520212 109.121329,36.346972 109.387917,36.159092 C109.655968,35.970236 109.911347,35.772108 110.155029,35.563732 C110.400173,35.355844 110.620462,35.143076 110.819307,34.92494 L110.819794,37.461076 Z" id="Fill-20" fill="#00AEAB" sketch:type="MSShapeGroup"></path>
                    <path d="M111.646949,27.1745728 C111.646949,27.0223168 111.679603,26.8476128 111.745397,26.6543648 C111.810704,26.4616048 111.917924,26.2795808 112.066083,26.1092688 C112.215217,25.9399328 112.412599,25.7964608 112.660181,25.6798288 C112.907274,25.5627088 113.215776,25.5041488 113.585199,25.5041488 C113.815722,25.5031728 114.033574,25.5309888 114.23778,25.5836928 C114.441986,25.6368848 114.620361,25.7188688 114.771931,25.8286688 C114.923502,25.9384688 115.044856,26.0834048 115.133069,26.2629888 C115.222256,26.4435488 115.266606,26.6563168 115.267094,26.9027568 C115.267094,27.1301648 115.231029,27.3497648 115.158412,27.5630208 C115.085794,27.7757888 114.970289,27.9661088 114.81287,28.1334928 C114.653989,28.3008768 114.455144,28.4345888 114.214386,28.5380448 C113.973628,28.6419888 113.685596,28.6932288 113.349314,28.6932288 C112.768375,28.6937168 112.339495,28.5551248 112.063159,28.2794048 C111.784874,28.0022208 111.646949,27.6342688 111.646949,27.1745728 L111.646949,27.1745728 Z M116.072708,37.5675088 C115.835361,37.7851568 115.540018,38.0184208 115.187653,38.2668128 C114.833827,38.5142288 114.45417,38.7416368 114.045271,38.9500128 C113.636372,39.1583888 113.219675,39.3316288 112.793718,39.4707088 C112.368736,39.6093008 111.964224,39.6790848 111.58213,39.6790848 C111.239025,39.6790848 110.950505,39.6317488 110.71657,39.5361008 C110.481661,39.4404528 110.293051,39.3062528 110.148303,39.1344768 C110.002581,38.9631888 109.898773,38.7538368 109.835903,38.5059328 C109.772058,38.2575408 109.741841,37.9862128 109.741841,37.6880448 C109.741841,37.2727568 109.787653,36.7871968 109.879765,36.2328288 C110.06935,35.0850528 110.190704,34.4408928 110.245289,34.2993728 C110.334477,34.0173088 110.515289,33.3916928 110.783827,32.4244768 C111.033845,31.6358688 111.188339,31.1220048 111.24731,30.8838608 C111.279477,30.7174528 111.370126,30.5666608 111.518285,30.4329488 C111.654747,30.3133888 111.808267,30.2148128 111.980307,30.1381968 C112.151859,30.0610928 112.330235,30.0039968 112.515433,29.9673968 C112.69917,29.9303088 112.866823,29.9122528 113.015957,29.9117648 C113.286931,29.9117648 113.47213,29.9630048 113.569116,30.0659728 C113.666588,30.1674768 113.714838,30.3046048 113.714838,30.4758928 C113.714838,30.6213168 113.682184,30.8267648 113.613953,31.0917488 C113.546209,31.3572208 113.469206,31.6592928 113.38343,31.9994288 C113.296191,32.3381008 113.168014,32.7748608 112.998412,33.3077568 C112.828321,33.8411408 112.712816,34.2964448 112.651408,34.6722048 C112.589025,35.0494288 112.51056,35.4227488 112.415523,35.7941168 C112.320975,36.1654848 112.273213,36.5036688 112.273213,36.8067168 C112.273213,37.1034208 112.307329,37.3391248 112.372635,37.5138288 C112.438917,37.6895088 112.573917,37.7768608 112.77861,37.7768608 C113.016444,37.7763728 113.279621,37.6943888 113.569603,37.5294448 C113.860072,37.3640128 114.153466,37.1644208 114.449783,36.9292048 C114.746588,36.6949648 115.037058,36.4519408 115.319729,36.2006208 C115.603863,35.9497888 115.853881,35.7350688 116.071733,35.5564608 L116.072708,37.5675088 Z" id="Fill-22" fill="#00AEAB" sketch:type="MSShapeGroup"></path>
                    <path d="M118.397242,37.7737864 C118.621917,37.7737864 118.839282,37.6605704 119.050798,37.4326744 C119.260852,37.2042904 119.445076,36.9173464 119.603469,36.5703784 C119.76235,36.2234104 119.88809,35.8037304 119.984101,35.3123144 C120.080112,34.8204104 120.126412,34.3831624 120.126412,34.0000824 C120.126412,33.6965464 120.103505,33.4144824 120.057206,33.1529144 C120.010906,32.8923224 119.942188,32.6663784 119.849588,32.4750824 C119.756989,32.2828104 119.63856,32.1310424 119.493812,32.0188024 C119.347603,31.9065624 119.173614,31.8509304 118.968433,31.8509304 C118.697946,31.8509304 118.441105,31.9670744 118.19791,32.1978984 C117.953253,32.4296984 117.7393,32.7249384 117.554101,33.0850824 C117.370365,33.4447384 117.22513,33.8424584 117.119859,34.2782424 C117.015563,34.7135384 116.961953,35.2064184 116.961953,35.7539544 C116.962928,36.0316264 116.988758,36.2922184 117.042368,36.5362184 C117.094516,36.7807064 117.176881,36.9939624 117.289462,37.1750104 C117.401069,37.3575224 117.550202,37.5019704 117.735401,37.6107944 C117.91865,37.7205944 118.140401,37.7747624 118.397242,37.7737864 L118.397242,37.7737864 Z M121.451556,32.0383224 C121.643578,32.4209144 121.786375,32.8254664 121.882386,33.2514904 C121.978397,33.6775144 122.026159,34.1577064 122.026646,34.6925544 C122.026646,35.0819784 121.984245,35.4748184 121.898469,35.8710744 C121.813668,36.2678184 121.689877,36.6499224 121.527585,37.0203144 C121.366267,37.3902184 121.168397,37.7366984 120.934949,38.0607304 C120.701014,38.3837864 120.434426,38.6648744 120.134209,38.9025304 C119.833993,39.1406744 119.505996,39.3295304 119.149733,39.4681224 C118.793469,39.6067144 118.4143,39.6760104 118.012224,39.6760104 C117.431285,39.6764984 116.935635,39.5501064 116.523325,39.2953704 C116.111014,39.0420984 115.773271,38.7097704 115.509119,38.3008264 C115.245455,37.8913944 115.051971,37.4287704 114.929643,36.9144184 C114.807801,36.3990904 114.746881,35.8774184 114.746881,35.3494024 C114.746394,34.4768584 114.854101,33.7268024 115.071953,33.0953304 C115.289318,32.4648344 115.600256,31.9168104 116.006231,31.4507704 C116.411231,30.9852184 116.906881,30.6187304 117.493668,30.3508184 C118.08143,30.0833944 118.740834,29.9496824 119.472856,29.9491944 C120.098632,29.9487064 120.685906,30.0458184 121.233217,30.2400424 C121.781014,30.4357304 122.294209,30.6953464 122.771339,31.0227944 C123.250419,31.3487784 123.695383,31.7596744 124.107693,32.2549944 C124.520004,32.7498264 124.904534,33.2217224 125.261285,33.6711704 L125.07365,35.0678264 C124.895762,34.8301704 124.654029,34.5725064 124.350888,34.2958104 C124.04726,34.0186264 123.726087,33.7106984 123.386881,33.3749544 C123.046213,33.0377464 122.712368,32.7527544 122.381935,32.5175384 C122.051989,32.2837864 121.76883,32.0876104 121.530996,31.9290104 L121.451556,32.0383224 Z" id="Fill-24" fill="#00AEAB" sketch:type="MSShapeGroup"></path>
                    <path d="M123.908653,37.6031816 C123.907191,37.1683736 123.933022,36.6642696 123.986144,36.0937976 C124.03878,35.5218616 124.104574,34.8947816 124.18304,34.2110936 C124.26248,33.5274056 124.350693,32.9120376 124.449141,32.3640136 C124.548076,31.8159896 124.644087,31.3470216 124.735711,30.9575976 C124.807841,30.6535736 124.948202,30.3988376 125.156307,30.1938776 C125.363924,29.9898936 125.645621,29.8864376 126.001884,29.8864376 C126.357173,29.8864376 126.605242,29.9952616 126.743653,30.2133976 C126.882552,30.4310456 126.952245,30.7218936 126.952245,31.0849656 C126.952245,31.1840296 126.942011,31.3172536 126.922029,31.4861016 C126.902534,31.6544616 126.877679,31.8394136 126.848437,32.0409576 C126.818708,32.2425016 126.787029,32.4503896 126.754863,32.6655976 C126.721235,32.8793416 126.690043,33.1243176 126.660801,33.3980856 C126.63156,33.6718536 126.606704,33.8773016 126.586722,34.0119896 C126.567227,34.1471656 126.55748,34.2384216 126.55748,34.2842936 L126.75535,34.2842936 C126.794827,34.2120696 126.857209,34.0944616 126.943473,33.9334216 C127.028274,33.7709176 127.127209,33.5381416 127.239303,33.2341176 C127.35091,32.9305816 127.471289,32.6612056 127.60044,32.4269656 C127.729105,32.1922376 127.848996,31.9682456 127.960603,31.7535256 C128.073184,31.5392936 128.175531,31.3489736 128.267155,31.1840296 C128.360242,31.0185976 128.428473,30.8965976 128.47526,30.8175416 C128.685801,30.4608136 128.926072,30.2158376 129.19656,30.0840776 C129.46656,29.9513416 129.767264,29.8859496 130.097209,29.8859496 C130.426181,29.8859496 130.68887,30.0245416 130.883329,30.3012376 C131.078274,30.5784216 131.17526,30.9610136 131.17526,31.4499896 C131.17526,31.5222136 131.161126,31.6447016 131.13091,31.8164776 C131.102643,31.9882536 131.064141,32.1922376 131.018329,32.4294056 C130.972029,32.6685256 130.920368,32.9754776 130.864809,33.3522136 C130.809249,33.7284616 130.758076,34.0646936 130.711776,34.3623736 C130.665964,34.6595656 130.628437,34.9528536 130.598708,35.2437016 C130.568978,35.5345496 130.55387,35.8019736 130.554845,36.0459736 C130.554845,36.4554056 130.605531,36.7921256 130.708365,37.0566216 C130.810711,37.3201416 130.970567,37.4519016 131.188906,37.4519016 C131.267859,37.4519016 131.378978,37.4231096 131.5247,37.3625976 C131.742552,37.2835416 131.879989,37.2147336 131.939935,37.1551976 C132.230404,36.9302296 132.381975,36.8214056 132.394159,36.8277496 C132.414628,36.8345816 132.634917,36.7028216 133.056975,36.4319816 C133.584791,36.0942856 134.214466,35.6814376 134.946487,35.1929496 L134.937715,37.4109096 L134.442552,37.7881336 C134.403076,37.8208296 134.092625,37.9930936 133.513148,38.3039496 C132.675856,38.7524216 132.151451,39.0237496 131.94091,39.1159816 C131.42674,39.3472936 131.106054,39.4800296 130.981289,39.5127256 C130.65183,39.6186216 130.304827,39.6713256 129.942227,39.6713256 C129.579628,39.6713256 129.274538,39.4092696 129.027444,38.8841816 C128.779375,38.3600696 128.655585,37.5919576 128.655097,36.5817976 C128.655097,36.1855416 128.680928,35.7580536 128.734051,35.2988456 C128.786686,34.8401256 128.851993,34.3462696 128.930946,33.8182536 L128.77304,33.8182536 L126.183184,38.9700696 C126.04526,39.2467656 125.896126,39.4322056 125.737733,39.5249256 C125.573004,39.6235016 125.381957,39.6732776 125.164592,39.6732776 C124.893617,39.6732776 124.676253,39.6161816 124.511523,39.5010136 C124.346794,39.3843816 124.220079,39.2301736 124.130404,39.0359496 C124.041217,38.8402616 123.981758,38.6191976 123.952516,38.3717816 C123.9223,38.1238776 123.908653,37.8676776 123.908653,37.6031816" id="Fill-26" fill="#00AEAB" sketch:type="MSShapeGroup"></path>
                    <g id="Group-30">
                        <mask id="mask-4" sketch:name="Clip 29" fill="white">
                            <use xlink:href="#path-3"></use>
                        </mask>
                        <g id="Clip-29"></g>
                        <path d="M58.416157,44.7902016 C58.416157,45.0185856 58.3615722,45.3553056 58.2519152,45.8018256 C58.1427455,46.2483456 58.0062834,46.7636736 57.8415542,47.3473216 C57.6773123,47.9314576 57.4989368,48.5653696 57.3078899,49.2495456 C57.116843,49.9342096 56.9384675,50.6296096 56.7732509,51.3333056 C56.6085217,52.0384656 56.4715722,52.7314256 56.3628899,53.4126736 C56.2542076,54.0934336 56.2001101,54.7258816 56.2001101,55.3100176 C56.2001101,55.7858176 56.2313014,56.2308736 56.2936841,56.6442096 C56.3560668,57.0570576 56.4535397,57.4157376 56.5856155,57.7212256 C56.717204,58.0257376 56.8824206,58.2663216 57.0798032,58.4410256 C57.278648,58.6147536 57.512583,58.7030816 57.7830704,58.7030816 C58.0535578,58.7030816 58.3157599,58.6220736 58.5691895,58.4610336 C58.8235939,58.2995056 59.0692256,58.0779536 59.3070596,57.7958896 C59.5444061,57.5138256 59.7724928,57.1780816 59.9903448,56.7886576 C60.207222,56.3987456 60.4167888,55.9776016 60.6185578,55.5237616 C60.8203267,55.0699216 61.0089368,54.5941216 61.1873123,54.0934336 C61.3656877,53.5937216 61.5343159,53.0881536 61.6927094,52.5772176 C62.2463556,50.7779616 62.7385939,48.7327536 63.1669874,46.4425696 C63.2469152,46.0736416 63.3409765,45.7642496 63.4516083,45.5153696 C63.5617527,45.2674656 63.6923664,45.0688496 63.8458863,44.9219616 C63.9984314,44.7736096 64.1753448,44.6696656 64.3785758,44.6091536 C64.5813195,44.5481536 64.8162292,44.5188736 65.081843,44.5188736 C65.3333231,44.5188736 65.5394783,44.5418096 65.7012834,44.5876816 C65.8626011,44.6335536 65.9912653,44.6960176 66.0872762,44.7760496 C66.1818249,44.8551056 66.250056,44.9502656 66.2890451,45.0625056 C66.3299838,45.1752336 66.348991,45.3011376 66.348991,45.4397296 C66.348991,45.4860896 66.323648,45.6778736 66.2705253,46.0189856 C66.2174025,46.3596096 66.1491715,46.7949056 66.0668069,47.3253616 C65.9849296,47.8582576 65.8952545,48.4594736 65.799731,49.1334016 C65.7042076,49.8068416 65.6150199,50.4998016 65.5326552,51.2088656 C65.450778,51.9189056 65.3830343,52.6206496 65.3299116,53.3140976 C65.2772762,54.0075456 65.2509585,54.6443856 65.2509585,55.2255936 C65.2509585,55.8199776 65.2724025,56.3558016 65.3148032,56.8355056 C65.3576913,57.3142336 65.4298213,57.7222016 65.5321679,58.0584336 C65.6340271,58.3956416 65.7665903,58.6528176 65.9313195,58.8309376 C66.095074,59.0095456 66.2983051,59.0983616 66.5415,59.0983616 C66.9606336,59.0983616 67.3437022,58.9339056 67.6892437,58.6030416 C68.0333231,58.2736416 68.3491354,57.8329776 68.6342437,57.2810496 C68.9208141,56.7296096 69.1757058,56.0908176 69.401843,55.3646736 C69.6294422,54.6385296 69.8521679,53.6908336 70.072944,52.5225616 C70.2917708,51.3538016 70.4024025,50.7686896 70.4024025,50.7701536 C70.4024025,50.7711296 70.4794061,50.1347776 70.632926,48.8610976 C70.7869332,47.5869296 70.892204,46.7143856 70.949713,46.2424896 C71.0062473,45.7696176 71.0505975,45.3997136 71.0832509,45.1322896 C71.1046949,44.8404656 71.1704892,44.6057376 71.2816083,44.4281056 C71.3932148,44.2509616 71.5340632,44.1123696 71.7065903,44.0157456 C71.8791173,43.9181456 72.0735758,43.8542176 72.2928899,43.8234736 C72.5117166,43.7912656 72.7359043,43.7756496 72.9659404,43.7756496 C73.1448032,43.7756496 73.307583,43.7917536 73.4533051,43.8254256 C73.6009765,43.8586096 73.7286661,43.9157056 73.836861,43.9976896 C73.9435939,44.0801616 74.0259585,44.1889856 74.0829801,44.3246496 C74.1404892,44.4608016 74.1687563,44.6350176 74.1687563,44.8463216 C74.1687563,45.4333856 74.1141715,46.0794976 74.0015903,46.7831936 C73.8899838,47.4868896 73.7481606,48.1944896 73.5770957,48.9050176 C73.4055433,49.6145696 73.2988105,50.3119216 73.2578718,50.9956096 C73.2179079,51.6797856 73.0799838,52.3395616 72.845074,52.9754256 C72.611139,53.6108016 72.450796,54.1319856 72.3659946,54.5384896 C72.2811931,54.9449936 72.2397671,55.2129056 72.2397671,55.3427136 C72.2397671,55.6589376 72.27437,55.9278256 72.3479621,56.1508416 C72.4205794,56.3738576 72.517565,56.5588096 72.6389188,56.7042336 C72.7607599,56.8501456 72.9064819,56.9560416 73.0746227,57.0204576 C73.2432509,57.0858496 73.4221137,57.1175696 73.6146227,57.1175696 C73.8051823,57.1175696 74.0015903,57.0736496 74.2023845,56.9838576 C74.4036661,56.8945536 74.5961751,56.7706016 74.7808863,56.6129776 C74.9651101,56.4538896 75.1366625,56.2645456 75.2906697,56.0434816 C75.4451643,55.8214416 75.5762653,55.5764656 75.6820235,55.3046496 L75.8496769,57.3391216 C75.3618249,57.8583536 74.8578899,58.2692496 74.3412834,58.5698576 C73.8237022,58.8699776 73.3363375,59.0193056 72.8821137,59.0193056 C72.6637744,59.0193056 72.460056,58.9875856 72.269009,58.9226816 C72.0779621,58.8587536 71.9083592,58.7582256 71.7606877,58.6245136 C71.6130162,58.4898256 71.4902004,58.3151216 71.3917527,58.1013776 C71.2933051,57.8871456 71.2240993,57.6328976 71.1846227,57.3391216 C70.8551643,57.9008096 70.503287,58.4068656 70.1246047,58.8568016 C69.7478718,59.3072256 69.3462834,59.6903056 68.9232509,60.0079936 C68.4987563,60.3256816 68.0547671,60.5696816 67.5917708,60.7424336 C67.128287,60.9146976 66.6506697,61.0000976 66.1589188,61.0000976 C65.5341173,61.0000976 65.0038646,60.8346656 64.5662112,60.5052656 C64.1295325,60.1744016 63.774731,59.7259296 63.5022942,59.1574096 C63.2288827,58.5903536 63.0305253,57.9227696 62.9062473,57.1580736 C62.7809946,56.3914256 62.7186119,55.5764656 62.7186119,54.7102656 C62.7186119,54.3945296 62.7342076,54.0963616 62.7683231,53.8191776 C62.8004892,53.5424816 62.8277816,53.2945776 62.8467888,53.0759536 C62.6094422,54.5819216 62.3106877,55.8419376 61.9519874,56.8555136 C61.5923123,57.8690896 61.1702545,58.6830736 60.6858141,59.2969776 C60.2008863,59.9103936 59.6467527,60.3486176 59.0234134,60.6087216 C58.4010487,60.8702896 57.7094783,61.0000976 56.9506516,61.0000976 C56.5164097,61.0000976 56.1011751,60.8561376 55.7049477,60.5696816 C55.3092076,60.2822496 54.9612292,59.8547616 54.6615,59.2872176 C54.3612834,58.7186976 54.1210126,58.0071936 53.9392256,57.1522176 C53.7574386,56.2977296 53.6677635,55.2983056 53.6677635,54.1554096 C53.6677635,53.4565936 53.7072401,52.7382576 53.7857058,52.0013776 C53.8656336,51.2654736 53.9782148,50.5276176 54.126861,49.7878096 C54.2755072,49.0484896 54.4587563,48.3160016 54.6761209,47.5893696 C54.8929982,46.8632256 55.1415542,46.1556256 55.4188646,45.4699856 C55.5831065,45.0864176 55.7473484,44.7877616 55.912565,44.5725536 C56.0777816,44.3583216 56.2459224,44.1997216 56.4174747,44.0972416 C56.5890271,43.9952496 56.7620415,43.9342496 56.9365181,43.9132656 C57.1109946,43.8937456 57.2879079,43.8844736 57.4667708,43.8844736 C57.6110307,43.8844736 57.7435939,43.8947216 57.8605614,43.9147296 C57.9804531,43.9347376 58.0818249,43.9767056 58.1637022,44.0406336 C58.2455794,44.1045616 58.3084495,44.1948416 58.3513375,44.3119616 C58.3942256,44.4295696 58.416157,44.5896336 58.416157,44.7902016" id="Fill-28" fill="#00AEAB" sketch:type="MSShapeGroup" mask="url(#mask-4)"></path>
                    </g>
                    <path d="M76.588083,55.3322704 C76.8264043,55.3322704 77.0851949,55.2717584 77.3673791,55.1531744 C77.6485884,55.0341024 77.9098159,54.8803824 78.1515487,54.6929904 C78.3932816,54.5055984 78.6296534,54.2533024 78.861639,53.9380544 C79.0931372,53.6213424 79.2096173,53.3597744 79.2096173,53.1528624 C79.2096173,52.8620144 79.1550325,52.6233824 79.0453755,52.4364784 C78.9357184,52.2485984 78.8016931,52.1549024 78.6432996,52.1549024 C78.357704,52.1549024 78.1149964,52.2071184 77.9132274,52.3095984 C77.7114585,52.4140304 77.5428303,52.5467664 77.4063682,52.7121984 C77.2713682,52.8771424 77.1621986,53.0640464 77.0793466,53.2738864 C76.9964946,53.4842144 76.9004838,53.7433424 76.7908267,54.0537104 C76.681657,54.3631024 76.6212238,54.6183264 76.6070903,54.8184064 C76.5949061,55.0189744 76.588083,55.1892864 76.588083,55.3322704 M77.9083538,60.0497664 C77.2923249,60.0497664 76.753787,59.9355744 76.2922527,59.7062144 C75.8297437,59.4788064 75.445213,59.1713664 75.1367112,58.7843824 C74.8291841,58.3983744 74.5981733,57.9508784 74.4446534,57.4433584 C74.2901588,56.9358384 74.21413,56.4029424 74.21413,55.8456464 C74.21413,55.4806224 74.282361,55.0448384 74.4202852,54.5407344 C74.557722,54.0356544 74.7010072,53.5871824 74.8486787,53.1962944 C74.9958628,52.8049184 75.180574,52.4325744 75.403787,52.0768224 C75.627,51.7210704 75.8877401,51.4082624 76.1864946,51.1383984 C76.4847617,50.8680464 76.8200686,50.6528384 77.189491,50.4932624 C77.5608628,50.3331984 77.9726859,50.2536544 78.4249603,50.2536544 C78.7943827,50.2536544 79.1374874,50.3131904 79.4542744,50.4312864 C79.7720361,50.5503584 80.0469097,50.7167664 80.2808448,50.9309984 C80.5162419,51.1457184 80.6990036,51.4043584 80.8305921,51.7074064 C80.9636426,52.0109424 81.0289495,52.3515664 81.0289495,52.7263504 C81.0289495,53.1265104 80.8958989,53.5754704 80.6278484,54.0737184 C80.3607726,54.5700144 80.0478845,54.9960384 79.6906462,55.3508144 C79.3338953,55.7070544 78.9094007,56.0227904 78.4176498,56.3004624 C77.9249242,56.5781344 77.3912599,56.7948064 76.816657,56.9490144 C76.9155921,57.1242064 77.0125776,57.2701184 77.1081011,57.3852864 C77.2050866,57.5014304 77.3025596,57.5921984 77.4019819,57.6561264 C77.5018917,57.7210304 77.605213,57.7664144 77.71487,57.7922784 C77.8235523,57.8171664 77.9414946,57.8308304 78.0667473,57.8308304 C78.4629747,57.8308304 78.8796715,57.7532384 79.3192744,57.5980544 C79.7564404,57.4433584 80.1843466,57.2496224 80.5995812,57.0178224 C81.0148159,56.7840704 81.4076318,56.5312864 81.7770542,56.2570304 C82.1455018,55.9822864 82.459852,55.7231584 82.7166931,55.4776944 L83.9926137,56.7752864 C83.4121625,57.3940704 82.7951588,57.9416064 82.1425776,58.4169184 C81.8589314,58.6218784 81.5538412,58.8219584 81.2277942,59.0195984 C80.9017473,59.2162624 80.5581552,59.3914544 80.1994549,59.5451744 C79.8402671,59.6969424 79.4669458,59.8204064 79.0814404,59.9121504 C78.6949603,60.0034064 78.3036065,60.0497664 77.9083538,60.0497664" id="Fill-31" fill="#00AEAB" sketch:type="MSShapeGroup"></path>
                    <path d="M84.046565,55.3322704 C84.2843989,55.3322704 84.5436769,55.2717584 84.8263484,55.1531744 C85.1075578,55.0341024 85.3682978,54.8803824 85.6100307,54.6929904 C85.8512762,54.5055984 86.0881354,54.2533024 86.3201209,53.9380544 C86.5516191,53.6213424 86.6680993,53.3597744 86.6680993,53.1528624 C86.6680993,52.8620144 86.6135144,52.6233824 86.5038574,52.4364784 C86.393713,52.2485984 86.2606625,52.1549024 86.1017816,52.1549024 C85.8166733,52.1549024 85.5739657,52.2071184 85.3717094,52.3095984 C85.1699404,52.4140304 85.0013123,52.5467664 84.8653375,52.7121984 C84.7298502,52.8771424 84.6206805,53.0640464 84.5378285,53.2738864 C84.4549765,53.4842144 84.3599404,53.7433424 84.249796,54.0537104 C84.140139,54.3631024 84.0792184,54.6183264 84.0660596,54.8184064 C84.0529007,55.0189744 84.046565,55.1892864 84.046565,55.3322704 M85.3668357,60.0497664 C84.7508069,60.0497664 84.212269,59.9355744 83.7502473,59.7062144 C83.288713,59.4788064 82.9032076,59.1713664 82.5956805,58.7843824 C82.2876661,58.3983744 82.0571426,57.9508784 81.9036227,57.4433584 C81.7486408,56.9358384 81.6721245,56.4029424 81.6721245,55.8456464 C81.6721245,55.4806224 81.740843,55.0448384 81.8787671,54.5407344 C82.016204,54.0356544 82.1594892,53.5871824 82.3071606,53.1962944 C82.4538574,52.8049184 82.639056,52.4325744 82.862269,52.0768224 C83.0849946,51.7210704 83.3467094,51.4082624 83.6449765,51.1383984 C83.9432437,50.8680464 84.2780632,50.6528384 84.6474856,50.4932624 C85.0188574,50.3331984 85.4306805,50.2536544 85.8829549,50.2536544 C86.253352,50.2536544 86.5964567,50.3131904 86.9132437,50.4312864 C87.2300307,50.5503584 87.5058791,50.7167664 87.7398141,50.9309984 C87.9747238,51.1457184 88.1574856,51.4043584 88.2895614,51.7074064 C88.4211498,52.0109424 88.4879188,52.3515664 88.4879188,52.7263504 C88.4879188,53.1265104 88.3538935,53.5754704 88.085843,54.0737184 C87.8182798,54.5700144 87.5063664,54.9960384 87.1496155,55.3508144 C86.7923773,55.7070544 86.3678827,56.0227904 85.8761318,56.3004624 C85.3838935,56.5781344 84.8497419,56.7948064 84.275139,56.9490144 C84.374074,57.1242064 84.4710596,57.2701184 84.5670704,57.3852864 C84.6635686,57.5014304 84.7610415,57.5921984 84.8604639,57.6561264 C84.9598863,57.7210304 85.0632076,57.7664144 85.173352,57.7922784 C85.2825217,57.8171664 85.3990018,57.8308304 85.5257166,57.8308304 C85.9214567,57.8308304 86.3381534,57.7532384 86.777269,57.5980544 C87.2149224,57.4433584 87.6428285,57.2496224 88.0575758,57.0178224 C88.4732978,56.7840704 88.8656264,56.5312864 89.2360235,56.2570304 C89.6039838,55.9822864 89.9178466,55.7231584 90.1751751,55.4776944 L91.4506083,56.7752864 C90.8706444,57.3940704 90.2541282,57.9416064 89.6015469,58.4169184 C89.3179007,58.6218784 89.0132978,58.8219584 88.6862762,59.0195984 C88.3602292,59.2162624 88.0166372,59.3914544 87.6574495,59.5451744 C87.2977744,59.6969424 86.9254278,59.8204064 86.539435,59.9121504 C86.1539296,60.0034064 85.7620884,60.0497664 85.3668357,60.0497664" id="Fill-33" fill="#00AEAB" sketch:type="MSShapeGroup"></path>
                    <path d="M98.6366047,60.3123104 C99.5401787,60.3123104 99.8676877,59.6730304 99.04063,59.4187824 C96.6934819,58.6955664 96.0058105,58.1050864 95.1373267,57.0427104 C94.5739332,56.3536544 93.9135542,55.5303984 93.6601245,54.6754224 C93.5022184,54.1410624 96.9240054,51.6434784 97.5668394,51.1671904 C97.8046733,50.9900464 99.5538249,49.5314144 98.6024892,49.3937984 C97.6930668,49.2625264 97.1131029,49.7612624 96.3289332,50.2492624 C94.3809368,51.4570624 92.7784819,53.4207744 91.2832473,55.0907104 C91.5035361,54.8452464 93.1181751,55.4806224 93.5007563,55.0526464 C94.218157,54.2528144 94.9623628,53.4729904 95.7187527,52.7058544 C96.2704495,52.1480704 96.839204,51.6073664 97.4279404,51.0852064 C97.7573989,50.7928944 98.1034278,50.5186384 98.4684639,50.2678064 C98.8257022,50.0228304 97.7432653,50.1013984 98.7111715,50.0242944 C98.1672726,50.0130704 97.623861,50.0008704 97.0809368,49.9886704 C97.5039693,50.0862704 95.8308466,51.3194464 95.6778141,51.4370544 C94.3872726,52.4208624 93.0514061,53.3514784 91.7535542,54.3274784 C90.8207383,55.0311744 92.9217671,57.1837424 93.4807744,57.7434784 C95.5549982,59.8199184 97.6097274,60.3123104 98.6366047,60.3123104 L101.898484,51.6929188" id="Fill-35" fill="#00AEAB" sketch:type="MSShapeGroup"></path>
                    <path d="M92.8717635,52.981672 C93.1846516,51.311736 93.4049404,49.621792 93.5959874,47.934288 C93.7022329,46.990008 94.218352,44.840368 93.6120704,43.98344 C93.4380812,43.738464 91.6518899,44.648096 91.4384242,44.822312 C90.989074,45.187336 91.1118899,46.634256 91.0748502,47.137384 C90.9651931,48.645792 90.916944,50.159568 90.8643087,51.670904 C90.7634242,54.608664 90.2278105,57.524952 90.1893087,60.46564 C90.1907708,60.3412 92.3848863,60.036688 92.3907347,59.58236 C92.427287,56.748056 92.8644531,53.922536 93.0511137,51.09604 C93.1325036,49.866768 93.1456625,48.629688 93.2080451,47.398952 C93.2387491,46.786512 93.0462401,44.465584 93.5838032,44.027848 C92.8600668,44.30796 92.1348682,44.587584 91.4106444,44.867208 C91.8497599,45.487456 91.5622148,46.84068 91.5149404,47.533152 C91.3960235,49.291416 91.1299224,51.044312 90.8560235,52.783056 C90.3993628,55.676408 88.7028466,57.553744 86.3259693,59.171952 C86.1456444,59.29444 87.8806625,58.785456 88.2715289,58.519496 C90.2317094,57.185304 92.4136408,55.428016 92.8717635,52.981672 Z" id="Fill-37" fill="#00AEAB" sketch:type="MSShapeGroup"></path>
                    <path d="M0,22.4713752 L40.9898014,6.0233352 L43.2487365,11.6011752 L41.8646209,12.1457832 L42.6453791,16.2903672 C42.6453791,16.2903672 44.1103971,16.3328232 44.2658664,17.2731992 C44.4218231,18.2130872 43.3549819,18.5161352 43.3549819,18.5161352 L46.7372924,28.1790232 L42.8817509,28.8895512 L42.2905776,18.7650152 C42.2905776,18.7650152 40.7782852,18.6488712 40.6705776,17.6992232 C40.5633574,16.7490872 42.042509,16.3967512 42.042509,16.3967512 L41.2973285,12.4058872 L33.433213,15.5559272 L36.1775632,23.5430232 C36.1775632,23.5430232 36.5616065,23.8309432 37.0796751,24.5565992 C37.3555235,24.9430952 37.8745668,25.6955912 37.8745668,25.6955912 L40.161769,25.3017752 L44.5850903,49.0795752 L6.29138989,56.2326792 L1.86855596,32.4304792 L12.9731588,30.4057672 C12.9731588,30.4057672 13.3635379,29.4936952 13.7241877,28.9193192 C14.0848375,28.3449432 14.4162455,27.8481592 14.4162455,27.8481592 L14.4513357,23.2414392 L1.14725632,28.5225752 L0,22.4713752 Z" id="Fill-39" fill="#F1592A" sketch:type="MSShapeGroup"></path>
                    <path d="M35.9655108,44.0338992 C30.2628574,51.4700432 21.3509079,54.5400512 15.2476408,50.2998192 C9.1463231,46.0571472 9.05616065,36.9295952 13.7753123,28.8312352 C18.4754567,20.7645952 28.5960704,18.0293552 34.6978755,22.2700752 C40.8006552,26.5117712 41.6764495,36.5870192 35.9655108,44.0338992" id="Fill-41" fill="#FFFFFF" sketch:type="MSShapeGroup"></path>
                    <path d="M26.5618105,40.4711088 C26.1553484,40.6321488 25.7469368,40.7917248 25.2844278,40.8971328 C25.1567383,40.9195808 25.0348971,40.9473968 24.9062329,40.9683808 C24.8321534,40.9932688 24.7415036,41.0005888 24.6454928,41.0040048 C24.6099152,41.0113248 24.5436336,40.9888768 24.5275505,41.0157168 C24.4836877,41.0235248 24.4096083,41.0005888 24.3857274,41.0279168 C24.3106733,41.0352368 24.2044278,41.0118128 24.1493556,41.0391408 L23.8301318,41.0391408 C23.7740848,41.0118128 23.6688141,41.0352368 23.5932726,41.0279168 C23.5689043,41.0005888 23.4953123,41.0235248 23.4514495,41.0157168 C23.0727671,40.9883888 22.7433087,40.9112848 22.4343195,40.8141728 C22.4070271,40.7946528 22.3704747,40.7839168 22.3275866,40.7790368 C22.2851859,40.7741568 22.2486336,40.7634208 22.2218285,40.7434128 L22.2218285,40.7312128 C22.0858538,40.6980288 21.9796083,40.6341008 21.854843,40.5892048 C21.7588321,40.5594368 21.6906011,40.5013648 21.5950776,40.4711088 L21.5950776,40.4593968 L21.5950776,40.4471968 C21.2509982,40.2861568 20.9746625,40.0572848 20.6958899,39.8313408 C20.6846805,39.7952288 20.650565,39.7820528 20.6247347,39.7605808 L20.6247347,39.7488688 C20.5219007,39.7020208 20.4872978,39.5868528 20.3883628,39.5356128 C20.3581462,39.5102368 20.3362148,39.4775408 20.3172076,39.4409408 C20.2811426,39.4023888 20.2582365,39.3501728 20.2109621,39.3223568 C20.1826949,39.2911248 20.1675866,39.2476928 20.1281101,39.2276848 C19.9429116,39.0066208 19.8015758,38.7416368 19.6548791,38.4815328 C19.6090668,38.4093088 19.5695903,38.3302528 19.5369368,38.2448528 C19.5276769,38.2145968 19.5252401,38.1775088 19.5013592,38.1618928 C19.3614856,37.8598208 19.243056,37.5362768 19.1704386,37.1668608 C19.1392473,36.9931328 19.1075686,36.8194048 19.0758899,36.6461648 C19.0568827,36.5905328 19.0515217,36.5202608 19.052009,36.4446208 C19.0544458,36.3001728 19.0271534,36.1854928 19.0281282,36.0420208 C19.0203303,35.9902928 19.0437238,35.9083088 19.0169188,35.8765888 L19.0169188,35.5686608 C19.035926,35.4334848 19.0334892,35.2773248 19.0398249,35.1304368 C19.0671173,35.1138448 19.0446986,35.0479648 19.052009,35.0118528 C19.0778394,34.6629328 19.1397347,34.3496368 19.217713,34.0529328 C19.2406191,34.0046208 19.2552401,33.9485008 19.2645,33.8870128 C19.2635253,33.8504128 19.2703484,33.8211328 19.2883809,33.8040528 L19.300565,33.8040528 C19.2995903,33.7245088 19.3371173,33.6830288 19.347352,33.6147088 C19.3463773,33.5976288 19.3454025,33.5810368 19.3595361,33.5790848 C19.3795181,33.5512688 19.3902401,33.5151568 19.3951137,33.4722128 C19.4238682,33.3668048 19.4609079,33.2701808 19.5013592,33.1764848 L19.513056,33.1764848 C19.518417,33.1023088 19.5661787,33.0710768 19.5725144,32.9983648 C19.5739765,32.9768928 19.5803123,32.9593248 19.5959079,32.9515168 L19.6080921,32.9515168 C19.6115036,32.9080848 19.6368466,32.8861248 19.6436697,32.8451328 C19.6412329,32.8314688 19.6461065,32.8236608 19.6548791,32.8212208 L19.6670632,32.8212208 C19.6690126,32.7875488 19.6889946,32.7719328 19.6904567,32.7382608 C19.6899693,32.7216688 19.6889946,32.7050768 19.7026408,32.7026368 L19.7143375,32.7026368 C19.7533267,32.5962528 19.809861,32.5069488 19.8561606,32.4069088 C19.8542112,32.3927568 19.8585975,32.3859248 19.8683448,32.3829968 L19.8800415,32.3829968 C20.1027671,31.9115888 20.3927491,31.5070368 20.6958899,31.1161488 C20.7066119,31.1073648 20.7139224,31.0941888 20.7197708,31.0805248 L20.7314675,31.0805248 C20.7694819,31.0083008 20.8338141,30.9624288 20.8732906,30.8911808 C20.9249513,30.8838608 20.9191029,30.8184688 20.9561426,30.7965088 C21.0092653,30.7589328 21.040944,30.6998848 21.086269,30.6540128 C21.118435,30.6315648 21.1462148,30.6037488 21.1691209,30.5715408 C21.2237058,30.5354288 21.2548971,30.4758928 21.2987599,30.4290448 C21.3708899,30.3670688 21.4376588,30.2997248 21.5000415,30.2279888 C21.5156372,30.1928528 21.5536516,30.1787008 21.5828935,30.1567408 L21.5950776,30.1567408 C21.6525866,30.0923248 21.7271534,30.0449888 21.7836877,29.9791088 C21.8553303,29.8927328 21.9567022,29.8366128 22.0322437,29.7541408 C22.0429657,29.7448688 22.0590487,29.7414528 22.0795181,29.7424288 L22.0795181,29.7302288 C22.1794278,29.6570288 22.2788502,29.5828528 22.374861,29.5052608 C22.3763231,29.4750048 22.421648,29.4886688 22.4226227,29.4584128 L22.4465036,29.4584128 C22.5210704,29.4149808 22.5922256,29.3671568 22.6589946,29.3164048 C22.6614314,29.3066448 22.6711787,29.3042048 22.6711787,29.2924928 C22.8705108,29.1802528 23.0557094,29.0538608 23.262352,28.9489408 C23.3028032,28.9303968 23.3515397,28.9201488 23.3807816,28.8898928 L23.3807816,28.8776928 C23.4806913,28.8357248 23.5747527,28.7883888 23.6761245,28.7478848 C23.7009801,28.7249488 23.7321715,28.7093328 23.7706733,28.7005488 C23.8106372,28.7005488 23.833056,28.6839568 23.8535253,28.6649248 C23.8944639,28.6668768 23.9037238,28.6361328 23.9358899,28.6293008 C24.0557816,28.5868448 24.1829838,28.5526848 24.2789946,28.4868048 C24.3204206,28.4887568 24.3550235,28.4843648 24.3740307,28.4638688 C24.452009,28.4472768 24.5231643,28.4238528 24.5865217,28.3921328 C24.5904206,28.3765168 24.6162509,28.3828608 24.6342834,28.3809088 C24.7205469,28.3609008 24.8053484,28.3389408 24.882352,28.3096608 C24.9983448,28.2872128 25.0928935,28.2442688 25.2132726,28.2267008 C25.3224422,28.2057168 25.4345361,28.1871728 25.5446805,28.1671648 C25.6548249,28.1788768 25.7001498,28.1251968 25.8044458,28.1320288 C25.8409982,28.1242208 25.9067924,28.1471568 25.9228755,28.1198288 C25.9628394,28.1125088 26.0330199,28.1354448 26.0530018,28.1081168 C26.1246444,28.1003088 26.2265036,28.1237328 26.2776769,28.0964048 L26.6797527,28.0964048 C26.7236155,28.1237328 26.8176769,28.1003088 26.8810343,28.1081168 C26.9049152,28.1354448 26.9794819,28.1125088 27.0228574,28.1198288 C27.2787238,28.1364208 27.5068105,28.1803408 27.7207635,28.2389008 L27.7207635,28.2501248 C27.8504025,28.2667168 27.9449513,28.3179568 28.0633809,28.3447968 C28.0653303,28.3589488 28.0853123,28.3550448 28.0989585,28.3569968 L28.0989585,28.3687088 C28.1462329,28.3613888 28.1467202,28.4004288 28.1939946,28.3921328 C28.195944,28.4062848 28.2154386,28.4028688 28.2290848,28.4038448 L28.2290848,28.4160448 C28.3397166,28.4477648 28.4235433,28.5053488 28.5366119,28.5346288 C29.1619007,28.8401168 29.6575505,29.2759008 30.0742473,29.7897648 C30.0718105,29.8195328 30.0922798,29.8268528 30.1093375,29.8371008 C30.1210343,29.8849248 30.1556372,29.9093248 30.1804928,29.9439728 C30.2180199,30.0166848 30.2701679,30.0742688 30.3106191,30.1450288 C30.3276769,30.1913888 30.3520451,30.2299408 30.3817744,30.2631248 C30.401269,30.3070448 30.4270993,30.3441328 30.4524422,30.3817088 C30.4592653,30.4349008 30.4894819,30.4632048 30.5119007,30.5002928 C30.5382184,30.5329888 30.557713,30.5725168 30.5708718,30.6188768 C30.5845181,30.6564528 30.5928032,30.6998848 30.6181462,30.7252608 C30.6532365,30.7418528 30.6347166,30.8111488 30.6654206,30.8316448 C30.6746805,30.8623888 30.6771173,30.8989888 30.7009982,30.9146048 C30.7243917,30.9302208 30.7273159,30.9673088 30.7365758,30.9975648 C30.7399874,31.0370928 30.7487599,31.0722288 30.7721534,31.0922368 C30.7892112,31.0951648 30.775565,31.1278608 30.7955469,31.1278608 C30.8043195,31.2093568 30.8457455,31.2591328 30.8550054,31.3411168 C30.8623159,31.3845488 30.8667022,31.4318848 30.8900957,31.4592128 C30.9110523,31.4938608 30.9173881,31.5431488 30.9256733,31.5899968 C30.926648,31.6280608 30.932009,31.6622208 30.9495542,31.6841808 C30.9622256,31.7500608 30.968074,31.8232608 30.9968285,31.8740128 C31.0153484,31.9301328 31.0270451,31.9930848 31.0319188,32.0633568 C31.0314314,32.1155728 31.0367924,32.1614448 31.0557996,32.1936528 C31.0577491,32.2668528 31.0611606,32.3381008 31.0796805,32.3947088 C31.0865036,32.4235008 31.0645722,32.4810848 31.0913773,32.4898688 C31.0986877,32.5259808 31.076269,32.5918608 31.1025866,32.6079648 C31.1103845,32.6479808 31.0874783,32.7177648 31.1147708,32.7382608 C31.1220812,32.7899888 31.0996625,32.8724608 31.1264675,32.9041808 L31.1264675,33.0461888 L31.1264675,33.5317488 C31.128417,33.6908368 31.1025866,33.8235728 31.1025866,33.9816848 C31.0928394,34.1685888 31.0704206,34.3437808 31.0319188,34.5028688 C31.0143736,34.5360528 31.0114495,34.5843648 31.0085253,34.6331648 C31.0070632,34.7063648 30.9939043,34.7683408 30.9729477,34.8225088 L30.9607635,34.8225088 C30.9675866,34.8683808 30.9398069,34.8800928 30.9495542,34.9293808 C30.9378574,35.0201488 30.9198249,35.1050608 30.8900957,35.1777728 L30.8783989,35.1777728 C30.8681643,35.3056288 30.8165036,35.3920048 30.7955469,35.5091248 L30.7955469,35.5447488 L30.7838502,35.5447488 C30.7750776,35.6262448 30.7336516,35.6765088 30.7243917,35.7580048 L30.7131823,35.7580048 L30.7009982,35.7580048 C30.708796,35.8048528 30.6698069,35.8053408 30.6771173,35.8526768 C30.6517744,35.8507248 30.6722437,35.8946448 30.6654206,35.9117248 C30.6186336,35.9444208 30.6147347,36.0190848 30.5947527,36.0776448 L30.5947527,36.1015568 C30.5767202,36.1230288 30.5820812,36.1679248 30.5591751,36.1845168 C30.4509801,36.4070448 30.3564314,36.6442128 30.2399513,36.8594208 C30.2282545,36.9072448 30.1907274,36.9282288 30.1804928,36.9780048 L30.168796,36.9780048 C30.1132365,37.1395328 30.0045542,37.2478688 29.9436336,37.4040288 C29.945583,37.4176928 29.9416841,37.4250128 29.9324242,37.4279408 C29.7145722,37.7383088 29.4972076,38.0501408 29.2700957,38.3512368 C29.2296444,38.3502608 29.2257455,38.3863728 29.2111245,38.4102848 C29.1443556,38.4898288 29.0697888,38.5610768 29.009843,38.6474528 C28.973778,38.6586768 28.9606191,38.6923488 28.9386877,38.7182128 C28.8163592,38.8446048 28.6896444,38.9661168 28.5721895,39.0973888 C28.563417,39.1242288 28.5366119,39.1330128 28.5132184,39.1447248 C28.4406011,39.1984048 28.3743195,39.2584288 28.3119368,39.3223568 C28.2339585,39.3823808 28.1720632,39.4585088 28.0872617,39.5117008 C28.070204,39.5185328 28.0585072,39.5302448 28.0521715,39.5473248 C27.9590848,39.6083248 27.8669729,39.6698128 27.7914314,39.7488688 C27.5180199,39.9167408 27.2572798,40.0977888 26.975583,40.2578528 C26.9219729,40.2754208 26.8751859,40.2988448 26.8337599,40.3291008 C26.7850235,40.3632608 26.7299513,40.3905888 26.668056,40.4120608 C26.6329657,40.4315808 26.5720451,40.4257248 26.5618105,40.4711088" id="Fill-43" fill="#F1592A" sketch:type="MSShapeGroup"></path>
                </g>
            </g>
        </g>
    </g>
</svg>