<?xml version="1.0" encoding="UTF-8" standalone="no"?>
<svg width="131px" height="67px" viewBox="0 0 131 67" version="1.1" xmlns="http://www.w3.org/2000/svg" xmlns:xlink="http://www.w3.org/1999/xlink" xmlns:sketch="http://www.bohemiancoding.com/sketch/ns">
    <!-- Generator: Sketch 3.5.1 (25234) - http://www.bohemiancoding.com/sketch -->
    <title>oew logo</title>
    <desc>Created with Sketch.</desc>
    <defs>
        <path id="path-1" d="M0,0.11725 L130.768801,0.11725 L130.768801,67 L0,67"></path>
    </defs>
    <g id="Pages" stroke="none" stroke-width="1" fill="none" fill-rule="evenodd" sketch:type="MSPage">
        <g id="Project-Page" sketch:type="MSArtboardGroup" transform="translate(-39.000000, -25.000000)">
            <g id="top-menu" sketch:type="MSLayerGroup" transform="translate(39.000000, 25.000000)">
                <g id="oew-logo">
                    <g id="Group-20">
                        <path d="M77.349106,16.667068 C77.3771774,16.5120331 77.4173351,16.3277831 77.4676298,16.1147076 C77.5175345,15.901632 77.5771863,15.6714169 77.6454155,15.4240622 C77.7144244,15.1770971 77.7908411,14.9293529 77.8750554,14.6819983 C77.9592696,14.4346436 78.049722,14.1966378 78.1440732,13.9679808 C78.2392042,13.7393238 78.3362845,13.5379343 78.4372637,13.3642017 C78.4318054,13.4724924 78.426347,13.5998703 78.4212786,13.7471145 C78.4150405,13.8779983 78.4084125,14.042382 78.400225,14.2390971 C78.3916476,14.4350331 78.3787815,14.6753762 78.3627964,14.9581785 C78.3511,15.1210041 78.3448619,15.3040855 78.3417429,15.5085913 C78.3386238,15.7130971 78.3327756,15.9230564 78.3238083,16.1380797 C78.3148411,16.3527134 78.3023649,16.5618936 78.2867696,16.766789 C78.2707845,16.9709052 78.2446625,17.1543762 78.2080137,17.3172017 C78.1705851,17.4796378 78.1230196,17.6089634 78.0649274,17.7063471 C78.007225,17.8029517 77.9331476,17.8516436 77.843475,17.8516436 C77.7432756,17.8516436 77.6586714,17.8150273 77.5904423,17.7414052 C77.5218232,17.6681727 77.4664601,17.5844227 77.4239631,17.4901552 C77.381856,17.3958878 77.3518351,17.3012308 77.332731,17.2073529 C77.3144065,17.1126959 77.3058292,17.0445273 77.3058292,17.0024576 C77.3058292,16.934289 77.3202548,16.8221029 77.349106,16.667068 M80.1663857,10.3367366 C80.1854899,10.033289 80.2443619,9.70140523 80.3418321,9.341475 C80.4396923,8.9819343 80.5242964,8.6792657 80.5956446,8.43424826 C80.666603,8.18962035 80.7558857,7.97771337 80.8646625,7.7993064 C80.9726595,7.62050988 81.1005405,7.47910872 81.2483054,7.37471337 C81.3960702,7.26992849 81.5680077,7.21734128 81.7633381,7.21734128 C81.9364452,7.21734128 82.0717339,7.264475 82.1692042,7.35874244 C82.2662845,7.45339942 82.3349036,7.56753314 82.3742815,7.69958547 C82.4136595,7.83241686 82.4292548,7.97420756 82.421847,8.12417849 C82.4136595,8.27492849 82.3961149,8.40659128 82.3703827,8.51877733 C82.3224274,8.72795756 82.2113113,9.02945756 82.0370345,9.42171919 C81.7789333,9.88137035 81.6147935,10.1158703 81.5469542,10.1259983 C81.3777458,10.340632 81.1824155,10.5420215 80.9609631,10.7309459 C80.7282042,10.9198703 80.4541179,11.0904866 80.1367548,11.2435738 C80.1367548,10.9424634 80.1468917,10.6405738 80.1663857,10.3367366 M86.263344,9.3593936 C86.2746506,9.1996843 86.3233857,8.99595756 86.4103292,8.74860291 C86.4980524,8.50124826 86.5748589,8.2940157 86.6415286,8.12612616 C86.7074185,7.9590157 86.7947518,7.8094343 86.9035286,7.67777151 C87.0115256,7.54688779 87.1468143,7.4397657 87.3086149,7.3571843 C87.4700256,7.27460291 87.6645762,7.23331221 87.8922667,7.23331221 C88.018978,7.23331221 88.1265851,7.30771337 88.2143083,7.45729477 C88.3012518,7.6072657 88.3449185,7.79735872 88.3449185,8.02913198 C88.3449185,8.19429477 88.2525167,8.403475 88.0665435,8.6558936 C87.88135,8.90831221 87.6918679,9.10931221 87.4988768,9.2588936 C87.3054958,9.408475 87.0961298,9.53117849 86.8719482,9.626225 C86.6462071,9.72166105 86.4387905,9.76879477 86.2481387,9.76879477 C86.2481387,9.65621919 86.2532071,9.51871337 86.263344,9.3593936 M76.5650554,14.3816669 C76.4200196,14.6944634 76.2897994,15.0010273 76.1740048,15.3021378 C76.0574304,15.6044169 75.9654185,15.8926727 75.8967994,16.1672948 C75.8281804,16.4423064 75.7942607,16.6892715 75.7942607,16.9078006 C75.7942607,17.2848703 75.8188232,17.6416843 75.8691179,17.9790215 C75.9190226,18.3155797 76.0036268,18.610068 76.1225405,18.8620971 C76.2402845,19.1145157 76.4009155,19.3147366 76.6013143,19.4631494 C76.8017131,19.6119517 77.0520167,19.6863529 77.3530048,19.6863529 C77.738597,19.6863529 78.1109333,19.5348238 78.4696238,19.2337134 C78.8283143,18.9318238 79.1460673,18.5029459 79.4236625,17.9474692 C79.700478,17.3912134 79.8938589,16.7208238 80.0599482,15.935132 C80.2256476,15.1490506 80.2810107,14.2741552 80.2810107,13.311225 L80.2810107,13.1682657 C80.6708917,13.2360448 81.0904036,13.294475 81.3453857,13.3431669 C81.599978,13.3914692 81.8101238,13.4296436 81.9465821,13.4576901 C82.0834304,13.4865157 82.185969,13.506382 82.2413321,13.518068 C82.2963054,13.528975 82.3454304,13.534818 82.3828589,13.534818 C82.6881357,13.534818 83.0000405,13.4884634 83.3138946,13.3957541 C83.6277488,13.3030448 83.928347,13.1791727 84.2129601,13.0245273 C84.4979631,12.8702715 84.7611327,12.6899169 85.0012994,12.485411 C85.0137756,12.4748936 85.0235226,12.4635971 85.0356089,12.4530797 C85.0535435,12.4768413 85.0691387,12.502161 85.0874631,12.5251436 C85.3338679,12.8328762 85.6418738,13.0786727 86.0110911,13.260975 C86.3806982,13.4440564 86.8119065,13.534818 87.3043262,13.534818 C87.6209095,13.534818 87.9339839,13.4982017 88.2423798,13.4249692 C88.5511655,13.3513471 88.8490345,13.2539634 89.1367667,13.1316494 C89.4244988,13.0101145 89.6985851,12.8694924 89.9601952,12.7125099 C90.2011417,12.5668238 90.426103,12.4188006 90.6385881,12.2680506 C90.6440464,12.3432308 90.6428768,12.4219169 90.6514542,12.4951494 C90.6756268,12.6930331 90.7228024,12.8694924 90.7937607,13.0249169 C90.8658887,13.1807308 90.9672577,13.3042134 91.0990375,13.3965331 C91.2304274,13.4888529 91.4047042,13.534818 91.6210881,13.534818 C91.7957548,13.534818 91.9481982,13.4950855 92.079978,13.4160099 C92.2062994,13.3423878 92.325603,13.2200738 92.4363292,12.998818 L94.510106,8.91220756 L94.6360375,8.91220756 C94.5728768,9.30174244 94.5202429,9.70335291 94.4785256,10.0691262 C94.4352488,10.436068 94.4145851,10.7644459 94.4145851,11.0803587 C94.4145851,11.8870855 94.513225,12.4932017 94.7116744,12.9127308 C94.909344,13.3318703 95.1534095,13.5379343 95.4430911,13.5379343 C95.7331625,13.5379343 96.0103679,13.4939169 96.2747071,13.4097773 C96.3745167,13.3836785 96.6302786,13.2773355 97.0423827,13.0926959 C97.2104214,13.0194634 97.6299333,12.8024924 98.2997488,12.4441203 C98.764097,12.1963762 99.0124512,12.0592599 99.0440315,12.033161 L99.4397607,11.731661 L99.4479482,9.961225 C98.8619571,10.351539 98.358231,10.6806959 97.9359899,10.949475 C97.598353,11.1656669 97.4217369,11.2704517 97.4057518,11.2657773 C97.395225,11.2603238 97.273972,11.3475797 97.0423827,11.5263762 C96.9948173,11.574289 96.8837012,11.6296029 96.7090345,11.692318 C96.59285,11.7402308 96.5039571,11.7636029 96.4400167,11.7636029 C96.2665196,11.7636029 96.1382488,11.658818 96.0563738,11.4476901 C95.9744988,11.2369517 95.9339512,10.9681727 95.9339512,10.6405738 C95.9339512,10.4458064 95.9456476,10.2327308 95.9694304,10.0001785 C95.9932131,9.76879477 96.0232339,9.53429477 96.0602726,9.29706802 C96.0977012,9.05984128 96.1382488,8.79106221 96.183475,8.49073081 C96.2279214,8.19000988 96.2688589,7.94460291 96.3062875,7.75489942 C96.3429363,7.56558547 96.3737369,7.40237035 96.3967399,7.26486453 C96.4205226,7.12774826 96.432219,7.03075407 96.432219,6.9719343 C96.432219,6.58200988 96.3546327,6.27661453 96.1990702,6.05574826 C96.0431179,5.83371337 95.8333619,5.723475 95.5701923,5.723475 C95.305853,5.723475 95.0656863,5.77606221 94.8500821,5.88162616 C94.6336982,5.98680058 94.441097,6.18195756 94.2718887,6.46592849 C94.2352399,6.52981221 94.1798768,6.62758547 94.1057994,6.75924826 C94.0321119,6.89091105 93.9506268,7.04244012 93.8609542,7.21344593 C93.7712815,7.38484128 93.674981,7.56441686 93.5720524,7.75061453 C93.4687339,7.93798081 93.3732131,8.1533936 93.2831506,8.3956843 C93.193478,8.63836453 93.1143321,8.85806221 93.0457131,8.98699826 C92.977094,9.11632384 92.9267994,9.30174244 92.895219,9.30174244 L92.7369274,9.30174244 C92.7369274,9.30174244 92.744725,9.1583936 92.7603202,9.05049244 C92.7763054,8.94220174 92.7957994,8.76223663 92.819972,8.54331802 C92.8437548,8.32439942 92.8687071,8.12067267 92.895219,7.94966686 C92.9213411,7.77788198 92.9466833,7.60804477 92.9696863,7.44716686 C92.9942488,7.28628895 93.0141327,7.13631802 93.029728,7.00231802 C93.0457131,6.86753895 93.0539006,6.76041686 93.0539006,6.68095174 C93.0539006,6.39113779 92.9977577,6.15858547 92.8874214,5.98485291 C92.7763054,5.81073081 92.5790256,5.72386453 92.2936327,5.72386453 C92.0090196,5.72386453 91.7832786,5.80527733 91.6175792,5.96849244 C91.4511,6.13170756 91.3388143,6.33465523 91.2803321,6.57733547 C91.2070345,6.8881843 91.1306179,7.26252733 91.051472,7.69958547 C90.9723262,8.13742267 90.9013679,8.6290157 90.8382071,9.17475407 C90.792981,9.55961453 90.7555524,9.91487035 90.7212429,10.2557134 C90.619094,10.3382948 90.5149958,10.4216552 90.3988113,10.5077424 C90.1032815,10.7262715 89.7898173,10.9288297 89.4576387,11.1142483 C89.1246804,11.2996669 88.7831446,11.4547017 88.4326417,11.5781843 C88.0813589,11.7020564 87.7480107,11.7636029 87.4310375,11.7636029 C87.3308381,11.7636029 87.2368768,11.7538645 87.1495435,11.7324401 C87.0618202,11.7121843 86.9783857,11.6759576 86.8996298,11.6249285 C86.8197042,11.5738994 86.7413381,11.5010564 86.6653113,11.4079576 C86.5881149,11.3152483 86.5097488,11.1995564 86.430603,11.0601029 C86.8906625,10.9366203 87.3175821,10.7644459 87.7113619,10.5420215 C88.1051417,10.3207657 88.444728,10.0683471 88.7301208,9.78437616 C89.0159036,9.5011843 89.2654274,9.16073081 89.4798619,8.7641843 C89.6942964,8.36724826 89.8011238,8.00887616 89.8011238,7.68906802 C89.8011238,7.3895157 89.7477101,7.11839942 89.6424423,6.87649826 C89.5371744,6.63420756 89.3901893,6.42736453 89.2030464,6.25596919 C89.0151238,6.08496337 88.7948411,5.95213198 88.5410286,5.85786453 C88.2879958,5.76281802 88.0131298,5.71529477 87.7176,5.71529477 C87.3554006,5.71529477 87.0259512,5.77917849 86.7296417,5.90616686 C86.433722,6.0339343 86.1654839,6.20571919 85.9264869,6.42152151 C85.6878798,6.63771337 85.4796833,6.88740523 85.3011179,7.17059709 C85.1225524,7.45417849 84.9740077,7.75217267 84.8562637,8.06419012 C84.7377399,8.37659709 84.6242845,8.73419012 84.5139482,9.13696919 C84.4040018,9.54013779 84.3486387,9.88760291 84.3486387,10.178975 C84.3486387,10.4835913 84.3794393,10.7780797 84.4371417,11.0639983 C84.2320643,11.2038413 84.0176298,11.3358936 83.7825315,11.4500273 C83.4269601,11.6237599 83.0296714,11.7612657 82.5926149,11.8633238 C82.1551685,11.9657715 81.6709363,12.0168006 81.1403083,12.0168006 L81.0931327,11.8559227 C81.5668381,11.6518064 81.976603,11.4212017 82.3216476,11.1633297 C82.6663024,10.9054576 82.9637815,10.6284983 83.2140851,10.3324517 C83.4643887,10.0367948 83.6682964,9.68738198 83.8261982,9.28421337 C83.9314661,9.01387616 83.9844899,8.63875407 83.9844899,8.15884709 C83.9844899,7.70815523 83.9236685,7.32719012 83.8028054,7.01712035 C83.6815524,6.70666105 83.5150732,6.45307384 83.3045375,6.25713779 C83.0940018,6.06042267 82.8487667,5.91824244 82.5700018,5.83098663 C82.2900673,5.74334128 81.9898589,5.69971337 81.668597,5.69971337 C81.2245226,5.69971337 80.8463381,5.77839942 80.5328738,5.93460291 C80.2182399,6.09236453 79.9496119,6.30388198 79.7250405,6.57071337 C79.5008589,6.83754477 79.2899333,7.19202151 79.0922637,7.63453314 C78.894594,8.07665523 78.7483887,8.49930058 78.6536476,8.90169012 C78.5592964,9.30446919 78.4809304,9.71503895 78.419719,10.1341785 C78.3581179,10.5521494 78.2980762,10.960382 78.2392042,11.3580971 C77.7803143,12.0845797 77.3721089,12.7892483 77.0130286,13.4724924 C76.8594155,13.7662017 76.7108708,14.0692599 76.5650554,14.3816669" id="Fill-1" fill="#00AEAB" sketch:type="MSShapeGroup"></path>
                        <path d="M68.0307952,8.11136279 C68.162575,7.50563605 68.3473786,6.91120581 68.5848161,6.32651395 C68.8218637,5.74221163 69.1072565,5.18556628 69.4394351,4.65696744 C69.7716137,4.1283686 70.1384917,3.66326395 70.5392893,3.26204302 C70.9404768,2.86121163 71.3677863,2.54257209 71.8216077,2.30651395 C72.2750393,2.06967674 72.7448458,1.95164767 73.2302476,1.95164767 C73.6836792,1.95164767 74.080578,2.04747326 74.420944,2.23834535 C74.7617,2.42960698 75.0435839,2.69137442 75.2677655,3.02364767 C75.4927268,3.3555314 75.6595958,3.74584535 75.7707119,4.1942 C75.8810482,4.64372326 75.9364113,5.12285116 75.9364113,5.63314186 C75.9364113,5.98411279 75.9141881,6.3728686 75.8693518,6.80096744 C75.8241256,7.22828721 75.7547268,7.67352558 75.6595958,8.13551395 C75.5644649,8.59750233 75.4447714,9.06494419 75.2993458,9.53745 C75.1543101,10.0103453 74.9847119,10.4676593 74.7886018,10.9086128 C74.5940512,11.3495663 74.3710393,11.7624733 74.119956,12.1477233 C73.8696524,12.5329733 73.5928369,12.8691419 73.2891196,13.15545 C72.9857923,13.4425372 72.652444,13.668857 72.2882952,13.8328512 C71.9241464,13.998014 71.5315363,14.0802058 71.1096851,14.0802058 C70.5973815,14.0802058 70.1396613,13.9726942 69.7365244,13.7576709 C69.3326077,13.5422581 68.9899024,13.2462116 68.7072387,12.8691419 C68.4253548,12.4916826 68.2089708,12.0444965 68.0584768,11.5260256 C67.9083726,11.0083337 67.8327357,10.4489616 67.8327357,9.84868837 C67.8327357,9.29632791 67.8994054,8.71708953 68.0307952,8.11136279 M67.1839738,14.1004616 C67.6276583,14.6726884 68.1637446,15.1175372 68.794572,15.4361767 C69.4246196,15.7548163 70.1330333,15.9145256 70.9190333,15.9145256 C71.6679946,15.9145256 72.3631524,15.7661128 73.0045065,15.4692872 C73.6458607,15.1720721 74.2271732,14.7716302 74.7492238,14.2675721 C75.2720542,13.7627349 75.7336732,13.177264 76.134081,12.5096012 C76.5352685,11.8423279 76.8701762,11.139607 77.1388042,10.4014384 C77.4086018,9.6624907 77.6125095,8.91185698 77.7528667,8.1472 C77.8928339,7.38254302 77.9626226,6.64826977 77.9626226,5.94438023 C77.9626226,5.08506628 77.8479976,4.29976395 77.6183577,3.58730465 C77.3887179,2.87445581 77.0588786,2.26093837 76.6292298,1.74675233 C76.1984113,1.23256628 75.6716821,0.832124419 75.0463131,0.546984884 C74.420944,0.260676744 73.7125304,0.117327907 72.9214619,0.117327907 C72.3304024,0.117327907 71.7779411,0.195234884 71.2636881,0.351827907 C70.7490452,0.508031395 70.268322,0.72617093 69.8234679,1.00429884 C69.377444,1.28281628 68.9700185,1.61431047 68.6008012,1.99956047 C68.231194,2.38364186 67.8970661,2.80395 67.5995869,3.26009535 C67.3017179,3.71663023 67.0408875,4.20043256 66.8163161,4.71189186 C66.5917446,5.22413023 66.4046018,5.74688605 66.2544976,6.27976977 C66.1040036,6.81265349 65.9921077,7.34748488 65.9176405,7.88270581 C65.8443429,8.41831628 65.8073042,8.94107209 65.8073042,9.45019419 C65.8073042,10.3955953 65.9262179,11.2642581 66.1628756,12.055793 C66.400703,12.8473279 66.741069,13.5282349 67.1839738,14.1004616" id="Fill-3" fill="#00AEAB" sketch:type="MSShapeGroup"></path>
                        <path d="M100.716465,27.7581779 C100.694632,27.9280151 100.649015,28.1399221 100.577667,28.3946779 C100.506319,28.6498233 100.412748,28.8963988 100.296563,29.1355733 C100.179599,29.3739686 100.04314,29.5784744 99.8844589,29.7483116 C99.7261673,29.9185384 99.5487714,30.0030674 99.353831,30.0038465 C99.2317982,30.0038465 99.1315988,29.9722942 99.0520631,29.9091895 C98.9729173,29.8472535 98.9097565,29.7654512 98.8618012,29.6653407 C98.8138458,29.5648407 98.7810958,29.4499279 98.7623815,29.3229395 C98.7436673,29.1947826 98.7347,29.0631198 98.7347,28.9271721 C98.7347,28.6973465 98.7647208,28.45155 98.8251524,28.1897826 C98.8863637,27.9291837 98.990072,27.625736 99.137447,27.2806081 C99.2852119,26.9366488 99.435706,26.6464453 99.5881494,26.4107767 C99.7413726,26.1754977 99.9086315,25.966707 100.091096,25.7836256 C100.27239,25.6005442 100.466161,25.4556372 100.672018,25.3481256 C100.877876,25.241393 101.088801,25.1876372 101.305575,25.1876372 L100.716465,27.7581779 Z M80.2808548,25.6215791 L80.2808548,25.5409453 L80.2808548,25.196207 C80.2808548,25.0466256 80.3697476,24.872114 80.3759857,24.6715035 C80.3810542,24.4716721 80.4336881,24.2496372 80.4477238,24.0065674 C80.4621494,23.7631081 80.502697,23.5118581 80.5249202,23.2497012 C80.5370065,23.1207651 80.5666375,22.9045733 80.5947089,22.599957 C80.6223905,22.2957302 80.6637179,21.9533291 80.7101137,21.5743116 C80.7565095,21.1949047 80.8309768,20.8073174 80.9307863,20.4123291 C81.0298161,20.0161721 81.1233875,19.6500093 81.2079917,19.3122826 C81.2925958,18.9757244 81.4056613,18.7003233 81.5448488,18.4864686 C81.6844262,18.2730035 81.8403786,18.1662709 82.0115363,18.1662709 C82.1078369,18.1662709 82.1819143,18.2215849 82.2329887,18.3322128 C82.2840631,18.4432302 82.3101851,18.641114 82.3101851,18.9250849 C82.3101851,19.1424453 82.2938101,19.434207 82.2610601,19.803486 C82.2341583,20.0831721 82.186203,20.3784395 82.1179738,20.6900674 C82.0493548,21.0009163 81.9659202,21.3152709 81.8668905,21.6327419 C81.7678607,21.9498233 81.668831,22.2700209 81.5682417,22.5921663 C81.4672625,22.9150907 81.2801196,23.2247709 81.1771911,23.521986 C80.9300065,24.2192535 80.6707357,24.9188581 80.2808548,25.6215791 L80.2808548,25.6215791 Z M78.2468458,29.0140384 C78.1836851,29.1071372 78.1138964,29.1971198 78.0370899,29.2835965 C77.9606732,29.3704628 77.8799679,29.4475907 77.7953637,29.5157593 C77.7115393,29.5835384 77.6234262,29.6380733 77.5310244,29.6805326 C77.4386226,29.7222128 77.3446613,29.7436372 77.2495304,29.7436372 C77.0651167,29.7436372 76.9146226,29.7229919 76.7984381,29.6817012 C76.6822536,29.6404105 76.592581,29.5870442 76.5294202,29.5204337 C76.4658696,29.4546023 76.4218131,29.3805907 76.3988101,29.2980093 C76.3746375,29.2154279 76.3629411,29.1328465 76.3629411,29.0502651 C76.3629411,28.7846023 76.4101167,28.4873872 76.5044679,28.1578407 C76.5999887,27.8282942 76.7380065,27.434864 76.9204708,26.9779395 C77.1025452,26.5206256 77.3286762,26.1525151 77.6000333,25.8732186 C77.8713905,25.5939221 78.1813458,25.36955 78.5295095,25.1997128 C78.534578,25.1938698 78.5400363,25.247236 78.5454946,25.358643 C78.550953,25.4704395 78.5552417,25.6137884 78.557581,25.7890791 C78.5607,25.9647593 78.5642089,26.1587477 78.5696673,26.3710442 C78.5759054,26.5829512 78.5805839,26.8564047 78.5860423,27.1878988 C78.5918905,27.5205616 78.600078,27.7675267 78.6109946,27.9295733 C78.6207417,28.0920093 78.6347774,28.2096488 78.6503726,28.2848291 C78.5302893,28.5555558 78.3953905,28.7986256 78.2468458,29.0140384 L78.2468458,29.0140384 Z M104.360682,28.7604512 C104.249956,28.8808174 104.132602,28.9972884 104.00823,29.1094744 C103.884248,29.22205 103.761045,29.3229395 103.636283,29.4117535 C103.512691,29.5005674 103.390268,29.5714628 103.269015,29.6271663 C103.146983,29.6817012 103.031578,29.7097477 102.920852,29.7097477 C102.773087,29.7097477 102.676396,29.6415791 102.63117,29.5052419 C102.586724,29.3692942 102.564111,29.1803698 102.564111,28.9388581 C102.564111,28.6564453 102.607387,28.3085907 102.694331,27.8960733 C102.781664,27.4835558 102.858861,27.1162244 102.9267,26.7936895 C102.994539,26.4711547 103.054581,26.1568 103.107605,25.850236 C103.160629,25.5425035 103.186361,25.2635965 103.186361,25.0107884 C103.186361,24.8456256 103.171935,24.7155209 103.143084,24.6193058 C103.113453,24.5238698 103.072905,24.4490791 103.019882,24.3957128 C102.966858,24.341957 102.905646,24.308457 102.836637,24.291707 C102.767629,24.2761256 102.693161,24.2679453 102.613626,24.2683349 C102.555533,24.2683349 102.495492,24.2695035 102.43467,24.2722302 C102.373459,24.2753465 102.314197,24.2761256 102.255715,24.2761256 C102.186316,24.2761256 102.118867,24.2726198 102.052977,24.2644395 C101.986307,24.2562593 101.920807,24.2395093 101.857257,24.2126314 C101.793706,24.1857535 101.740292,24.1436837 101.698185,24.0844744 C101.655688,24.0264337 101.611632,23.9664453 101.566405,23.9052884 C101.521569,23.8437419 101.465036,23.7895965 101.395637,23.7412942 C101.326629,23.6929919 101.231108,23.6696198 101.109465,23.6696198 C100.742587,23.6696198 100.383507,23.7471372 100.030274,23.9025616 C99.677822,24.0575965 99.3417446,24.2667767 99.0239917,24.5293233 C98.7054589,24.7918698 98.4118786,25.0992128 98.1440304,25.4513523 C97.8769619,25.8034919 97.6254887,26.2210733 97.3931196,26.704486 C97.1591911,27.1878988 96.9872536,27.6362535 96.8757476,28.0514977 C96.8597625,28.111486 96.8535244,28.1695267 96.8398786,28.2291256 C96.7903637,28.2809337 96.746697,28.3304047 96.6948429,28.3833814 C96.4152982,28.6685209 96.1217179,28.9295093 95.813322,29.1663465 C95.5041464,29.4039628 95.1977,29.6002884 94.8920333,29.7561023 C94.5855869,29.9111372 94.3060423,29.9894337 94.0530095,29.9894337 C93.7952982,29.9894337 93.5851524,29.9333407 93.422572,29.819986 C93.2592119,29.7066314 93.1262625,29.5648407 93.0245036,29.3930558 C92.921575,29.2224395 92.8533458,29.0335151 92.8190363,28.8274512 C92.7847268,28.6221663 92.767572,28.4242826 92.767572,28.2349686 C92.767572,28.1079802 92.7726405,27.9513872 92.7831673,27.7644105 C92.793694,27.5770442 92.8209857,27.3811081 92.865822,27.1758233 C92.9106583,26.9705384 92.9851256,26.715393 93.0900036,26.4123349 C93.1948815,26.1092767 93.301319,25.8747767 93.4089262,25.7080558 C93.5161435,25.5425035 93.6463637,25.408114 93.7984173,25.3052767 C93.9508607,25.20205 94.1344946,25.1514105 94.3500988,25.1506314 C94.4393815,25.1506314 94.4970839,25.1927012 94.5228161,25.2768407 C94.5497179,25.3617593 94.5633637,25.4665442 94.5633637,25.593143 C94.5684321,25.7407767 94.5660929,25.8362128 94.5551762,25.8782826 C94.4768101,26.1832884 94.4292446,26.3788349 94.4136494,26.463364 C94.3668637,26.6215151 94.4070214,26.8030384 94.5349024,27.0083233 C94.6128786,27.1407651 94.7848161,27.206207 95.0514946,27.206207 C95.2288905,27.206207 95.3867923,27.1641372 95.5271494,27.0792186 C95.6667268,26.9950791 95.8109827,26.8357593 95.9587476,26.6008698 C96.1072923,26.3667593 96.2074917,26.1622535 96.2581762,25.9877419 C96.3100304,25.8140093 96.3353726,25.63755 96.3353726,25.4587535 C96.3353726,25.2001023 96.2803994,24.9589802 96.1712327,24.7346081 C96.0616762,24.5110151 95.9104024,24.3174163 95.7162417,24.1542012 C95.5224708,23.9905965 95.289322,23.8632186 95.017575,23.7708988 C94.7450482,23.6785791 94.4487387,23.632614 94.1290363,23.6330035 C93.7738548,23.6330035 93.4471345,23.6976663 93.1504351,23.8269919 C92.8537357,23.9563174 92.584328,24.1304395 92.3429917,24.3489686 C92.1020452,24.5682767 91.8895601,24.8222535 91.7070958,25.112457 C91.5242417,25.4022709 91.3702387,25.7068872 91.2458667,26.0255267 C91.1214946,26.3441663 91.0064798,26.7177302 90.9000423,27.1446605 C90.7947744,27.5715907 90.7421405,27.938143 90.7421405,28.2439279 C90.7421405,28.5169919 90.7709917,28.7830442 90.8232357,29.0432535 C90.7885363,29.066236 90.7577357,29.0919453 90.7218667,29.1145384 C90.5269262,29.2391895 90.3354946,29.3505965 90.1491315,29.4483698 C89.960819,29.5469221 89.7849827,29.6248291 89.6185036,29.6824802 C89.4524143,29.7409105 89.3112774,29.7705151 89.1950929,29.7705151 C89.1042506,29.7705151 89.0344619,29.7451953 88.9865065,29.6953349 C88.9381613,29.6450849 88.9022923,29.5734105 88.8796792,29.4807012 C88.8566762,29.3879919 88.8438101,29.2793116 88.8391315,29.15505 C88.834453,29.0311779 88.8325036,28.8948407 88.8325036,28.7468174 C88.8325036,28.6544977 88.8504381,28.5084221 88.8878667,28.3062535 C88.9256851,28.1044744 88.9697417,27.8684163 89.0196464,27.5992477 C89.0691613,27.3293 89.1327119,26.9888465 89.2091286,26.5778872 C89.2855452,26.1661488 89.3510452,25.8151779 89.4048488,25.5249744 C89.4582625,25.2351605 89.4902327,24.96755 89.4995899,24.722143 C89.5093369,24.4771256 89.5140155,24.2835267 89.5140155,24.1405674 C89.5140155,23.9933233 89.4375988,23.8717884 89.2843756,23.7771314 C89.1315423,23.6824744 88.9252952,23.6349512 88.6656345,23.6349512 C88.4363845,23.6349512 88.2313071,23.6785791 88.0504024,23.7658349 C87.8694976,23.8530907 87.766569,23.9594337 87.7412268,24.0860326 L86.8706226,28.3950674 C86.8285155,28.6147651 86.764575,28.8087535 86.6799708,28.9746953 C86.5953667,29.1460907 86.4971167,29.2859337 86.3863905,29.3930558 C86.279953,29.5114744 86.1668875,29.601457 86.0452446,29.663393 C85.9236018,29.7249395 85.8042982,29.7561023 85.6877238,29.7561023 C85.6081881,29.7561023 85.5391792,29.7338988 85.4814768,29.6902709 C85.4226048,29.6474221 85.3754292,29.5893814 85.3380006,29.5192651 C85.300572,29.4483698 85.2728905,29.3689047 85.2545661,29.2785326 C85.2354619,29.1893291 85.2264946,29.0950616 85.2264946,28.9976779 C85.2264946,28.9918349 85.2405304,28.9135384 85.2670423,28.7616198 C85.2947238,28.6100907 85.330203,28.4110384 85.3742595,28.1652419 C85.4183161,27.9194453 85.4771881,27.5926256 85.5504857,27.1851721 C85.6233935,26.7781081 85.6896732,26.4076605 85.749325,26.0753872 C85.8089768,25.7419453 85.8686286,25.4120093 85.9275006,25.0836314 C85.9867625,24.755643 86.0397863,24.4140209 86.0873518,24.0587651 C86.0873518,23.9446314 86.0265304,23.8491953 85.9048875,23.7720674 C85.7832446,23.6949395 85.5832357,23.649364 85.3036911,23.6361198 C85.1344827,23.6415733 84.9832089,23.6867593 84.8487,23.7708988 C84.7141911,23.8554279 84.596447,23.9633291 84.4958577,24.0953814 C84.3960482,24.2270442 84.3091048,24.3746779 84.2358071,24.5375035 C84.1621196,24.7014977 84.0997387,24.8623756 84.0502238,25.0205267 C83.9995393,25.1782884 83.9617208,25.325143 83.9379381,25.4599221 C83.9125958,25.5950907 83.8931018,25.7014337 83.8790661,25.7785616 C83.7422179,26.8447186 83.5956226,27.6463814 83.4381107,28.1847186 C83.4077,28.294957 83.3835274,28.4246721 83.3620839,28.563736 C83.1940452,28.6989047 83.0291256,28.8270616 82.8692744,28.9443116 C82.7425631,29.0346837 82.6123429,29.1242767 82.477444,29.2115326 C82.3429351,29.2995674 82.209206,29.377864 82.0774262,29.4472012 C81.9460363,29.5165384 81.8204946,29.5706837 81.7023607,29.6104163 C81.583447,29.6509279 81.4742804,29.6704047 81.374081,29.6704047 C81.2711524,29.6704047 81.1853786,29.6384628 81.1155899,29.5745791 C81.0461911,29.5110849 80.9904381,29.4242186 80.9498905,29.3147593 C80.9085631,29.2060791 80.8789321,29.0818174 80.8609976,28.943143 C80.8430631,28.8048581 80.8340958,28.658393 80.833706,28.5037477 C80.833706,28.3814337 80.8415036,28.2540558 80.8586583,28.1235616 C80.8750333,27.993457 80.895697,27.8649105 80.9202595,27.7398698 C80.944822,27.6148291 80.970944,27.4991372 80.9982357,27.3924047 C81.0251375,27.2860616 81.0524292,27.1956895 81.0801107,27.1201198 C81.2060423,26.7792767 81.4996226,26.1318698 81.960072,25.1775093 C82.2618399,24.5534744 82.5191613,23.9235965 82.7320363,23.2863174 C82.9453012,22.6494279 83.1609054,22.0047477 83.3796286,21.3530558 C83.5983518,20.701364 83.7149262,19.9963058 83.7297417,19.2394395 C83.732081,19.0411663 83.7340304,18.8475674 83.7340304,18.6598116 C83.7340304,18.3587012 83.7106375,18.0669395 83.6622923,17.7845267 C83.6151167,17.502893 83.5371405,17.2539802 83.4291435,17.0401256 C83.3207565,16.8266605 83.1796196,16.6548756 83.004953,16.5259395 C82.8310661,16.3962244 82.6201405,16.3315616 82.3721762,16.3315616 C82.0325899,16.3319512 81.7035304,16.436736 81.3853875,16.6451372 C81.0668548,16.8531488 80.7678161,17.1417942 80.486322,17.5102942 C80.2052179,17.8799628 79.9467268,18.3170209 79.7104589,18.8230267 C79.4749708,19.3290326 79.2819798,19.8825616 79.1334351,20.483614 C78.9841107,21.0846663 78.8441435,21.6467651 78.714703,22.1683523 C78.5856524,22.6903291 78.5131345,23.2937186 78.4975393,23.9785209 C78.0959619,24.0163058 77.7193369,24.1097942 77.3657149,24.2597651 C77.0128726,24.4093465 76.6686077,24.6317709 76.3333101,24.9262593 C75.9987923,25.2207477 75.7301643,25.5471779 75.5274262,25.9059395 C75.3235185,26.2639221 75.1394946,26.6082709 74.9734054,26.9370384 C74.8069262,27.2658058 74.6809946,27.6058698 74.5940512,27.9564512 C74.5640304,28.0768174 74.5464857,28.1960151 74.5269917,28.3156023 C74.4724083,28.3681895 74.4252327,28.4211663 74.3636315,28.4737535 C74.1086494,28.6922826 73.8138994,28.9002942 73.4793815,29.0977884 C73.143694,29.2960616 72.7807149,29.4810907 72.390444,29.6532651 C71.9993935,29.8254395 71.5974262,29.9746314 71.1861018,30.1008407 C70.7739976,30.2266605 70.3607238,30.3252128 69.9455006,30.3972767 C69.531447,30.4693407 69.1349381,30.5055674 68.7571435,30.5055674 C68.4518667,30.5055674 68.1668637,30.472457 67.9029143,30.406236 C67.6389649,30.339236 67.409325,30.2282186 67.2155542,30.071236 C67.0217833,29.9150326 66.8685601,29.7078 66.7570542,29.451486 C66.6451583,29.1947826 66.5897952,28.8734163 66.5897952,28.4881663 C66.5897952,28.0826605 66.6876554,27.7270151 66.8833756,27.4220093 C67.0794857,27.1162244 67.3364173,26.8591314 67.6557298,26.6511198 C67.9746524,26.4423291 68.3345125,26.2861256 68.7372595,26.1809512 C69.1392268,26.0753872 69.5497714,26.0224105 69.9677238,26.0224105 C70.1556464,26.0224105 70.3525363,26.0298116 70.5591732,26.0457826 C70.7662,26.0617535 70.9389173,26.0691547 71.0781048,26.0691547 C71.404825,26.0691547 71.6251077,25.9970907 71.7377833,25.8517942 C71.850069,25.7076663 71.9062119,25.475893 71.905822,25.1553058 C71.905822,25.0466256 71.9007536,24.9336605 71.8902268,24.8164105 C71.8797,24.6987709 71.8691732,24.5834686 71.8578667,24.4693349 C71.8149798,24.2889802 71.7268667,24.1393988 71.5935274,24.0194221 C71.4597982,23.8998349 71.2956583,23.7981663 71.1007179,23.7132477 C70.9061673,23.6291081 70.6925125,23.5550965 70.4601435,23.4916023 C70.2281643,23.4284977 69.9915065,23.3630558 69.7513399,23.2944977 C69.5107833,23.2251605 69.2784143,23.147643 69.0546226,23.0603872 C68.8304411,22.9739105 68.6316018,22.862114 68.4577149,22.7242186 C68.2842179,22.5878814 68.1450304,22.4211605 68.041322,22.2260035 C67.9372238,22.0308465 67.8849798,21.7912826 67.8849798,21.5057535 C67.8842,21.1571198 67.9578875,20.8638 68.1040929,20.6254047 C68.2499083,20.3877884 68.4467982,20.1957477 68.693203,20.0504512 C68.9407774,19.9055442 69.2261702,19.8007593 69.5501613,19.736486 C69.8749321,19.6733814 70.2152982,19.6414395 70.5720393,19.6414395 C70.9545125,19.6414395 71.342444,19.6718233 71.7358339,19.7322012 C72.1292238,19.7929686 72.5003905,19.870486 72.8481643,19.965143 C73.1967179,20.0605791 73.5097923,20.1665326 73.785828,20.2822244 C74.0622536,20.3986953 74.2727893,20.5143872 74.4162655,20.6308581 C74.2833161,21.042986 74.1893548,21.3869453 74.1332119,21.6615674 C74.077069,21.9365791 74.0493875,22.1609512 74.0501673,22.3354628 C74.0501673,22.5313988 74.1059202,22.6287826 74.2174262,22.6287826 C74.3503756,22.6287826 74.5168548,22.5847651 74.7164738,22.4975093 C74.915703,22.4102535 75.1059649,22.2937826 75.2860899,22.1488756 C75.4669946,22.0035791 75.6233369,21.8384163 75.7531673,21.6529977 C75.8837774,21.4679686 75.9488875,21.2802128 75.9481077,21.0901198 C75.9481077,20.5533407 75.8069708,20.0831721 75.5254768,19.6807826 C75.2428131,19.2780035 74.8704768,18.942614 74.4076881,18.674614 C73.9448994,18.4062244 73.4166107,18.2052244 72.8204827,18.0708349 C72.2247446,17.9368349 71.6153607,17.8698349 70.9938905,17.8702244 C70.5681405,17.8702244 70.1462893,17.9033349 69.7291167,17.9695558 C69.311944,18.0357767 68.9130958,18.1331605 68.5317923,18.262486 C68.1512685,18.3914221 67.7980363,18.5530791 67.4724857,18.7486256 C67.1469351,18.943393 66.8650512,19.1716605 66.626444,19.4322593 C66.387447,19.6928581 66.1995244,19.986957 66.063456,20.3133872 C65.9266077,20.6394279 65.8583786,21.0001372 65.8591583,21.3955151 C65.8591583,21.8173814 65.9293369,22.2166547 66.0708637,22.594114 C66.2116107,22.9715733 66.4233161,23.3015093 66.7052,23.5835326 C66.9870839,23.8659453 67.3414857,24.0903174 67.7703548,24.2562593 C68.198444,24.4222012 68.699831,24.5047826 69.2737357,24.504393 C68.3988429,24.5265965 67.6494917,24.654364 67.0237327,24.8892535 C66.3975839,25.124143 65.8845006,25.4338233 65.4840929,25.8182942 C65.0829054,26.2015965 64.7881554,26.6421605 64.5967238,27.1376488 C64.406072,27.6339163 64.3101613,28.1516081 64.3109411,28.6899453 C64.3109411,29.3085267 64.4302446,29.8433581 64.668072,30.2928814 C64.9062893,30.7427942 65.2291107,31.1144105 65.6369262,31.4085093 C66.0455214,31.7014395 66.5211762,31.9199686 67.0646702,32.0633174 C67.608944,32.2054977 68.188697,32.2771721 68.8062685,32.2767826 C69.3751048,32.2767826 69.9626554,32.2187419 70.5689202,32.1034395 C71.1747952,31.9881372 71.7720929,31.8175209 72.3596435,31.589643 C72.9464143,31.3625442 73.5101821,31.0805209 74.0501673,30.7431837 C74.2821464,30.5982767 74.4993101,30.4373988 74.7114054,30.271457 C74.7808042,30.4354512 74.85995,30.5916547 74.9593696,30.7330558 C75.1254589,30.9695035 75.3336554,31.1584279 75.5843488,31.3013872 C75.8354321,31.443957 76.1313518,31.5152419 76.474447,31.5144628 C76.7177327,31.5144628 76.9598488,31.4739512 77.2011851,31.3929279 C77.4417417,31.3115151 77.679569,31.2040035 77.915447,31.0692244 C78.1509351,30.9348349 78.3782357,30.7766837 78.5977387,30.5943814 C78.8168518,30.4128581 79.0242685,30.2204279 79.2203786,30.0194279 C79.349819,30.3443 79.5026524,30.6048988 79.6784887,30.8000558 C79.854325,30.9963814 80.0293815,31.1459628 80.2056077,31.2491895 C80.3810542,31.3528058 80.5428548,31.4209744 80.6913994,31.4544744 C80.839944,31.4887535 80.9518399,31.5047244 81.0278667,31.5047244 C81.1565274,31.5047244 81.2968845,31.4817419 81.4520571,31.4338291 C81.6056702,31.3863058 81.7651315,31.3243698 81.9284917,31.2488 C82.0918518,31.1732302 82.2579411,31.0859744 82.4271494,30.9882012 C82.5959679,30.8900384 82.7569887,30.790707 82.9094321,30.6898174 C83.0509589,30.5959395 83.1944351,30.4927128 83.3379113,30.388707 C83.351947,30.4623291 83.3624738,30.5417942 83.3823577,30.6068465 C83.4509768,30.8312186 83.5441583,31.0115733 83.663072,31.1483 C83.781206,31.2854163 83.9164946,31.3828 84.0689381,31.4408407 C84.2209917,31.4988814 84.3839619,31.5273174 84.5574589,31.5273174 C84.7691643,31.5273174 84.986328,31.4840791 85.2108994,31.3979919 C85.4354708,31.3126837 85.657703,31.1942651 85.8764262,31.0431256 C86.0959292,30.8923756 86.3115333,30.7139686 86.522069,30.5082942 C86.7329946,30.3030093 86.9337833,30.0774686 87.1244351,29.8332302 C87.1762893,30.0724047 87.2371107,30.2893756 87.3068994,30.4837535 C87.3774679,30.6789105 87.4628518,30.8468 87.5646107,30.9870326 C87.6648101,31.1268756 87.7856732,31.2367244 87.9252506,31.3142419 C88.0659976,31.3921488 88.2344262,31.4307128 88.4309262,31.4307128 C88.6250869,31.4307128 88.8348429,31.4034453 89.0617536,31.3489105 C89.2878845,31.293986 89.5202536,31.2215326 89.7573012,31.1296023 C89.9951286,31.0392302 90.2306167,30.9332767 90.4657149,30.8140791 C90.7008131,30.6941023 90.9214857,30.5694512 91.130072,30.438957 C91.2022,30.3941605 91.2692595,30.3489744 91.3367089,30.3041779 C91.3881732,30.3785791 91.4415869,30.4514221 91.4992893,30.5211488 C91.749203,30.8207012 92.0587685,31.0610442 92.4275958,31.2398407 C92.7968131,31.4182477 93.226072,31.5082302 93.714203,31.5082302 C93.9929679,31.5078407 94.2682238,31.4642128 94.5391911,31.3773465 C94.811328,31.2893116 95.0725482,31.1763465 95.3232417,31.036893 C95.5739351,30.8974395 95.8141018,30.7373407 96.0429619,30.5581547 C96.2726018,30.3789686 96.484697,30.1943291 96.6800274,30.0050151 C96.7166762,29.9695674 96.7513756,29.9317826 96.7876345,29.8955558 C96.8129768,30.0030674 96.8363696,30.1117477 96.8753577,30.2103 C96.9868637,30.4895965 97.1342387,30.7256547 97.3190423,30.9200326 C97.5038458,31.1140209 97.7159411,31.2628233 97.9564976,31.3664395 C98.1962744,31.4696663 98.443069,31.521864 98.6961018,31.521864 C98.9358786,31.521864 99.1748756,31.4829105 99.4142625,31.4038349 C99.6532595,31.3259279 99.8832893,31.2250384 100.104742,31.1023349 C100.324635,30.9800209 100.528152,30.8432942 100.714515,30.6913756 C100.900099,30.5398465 101.056831,30.3914337 101.184712,30.2453581 C101.35509,30.6680035 101.556658,30.9897593 101.791367,31.2114047 C102.025295,31.4334395 102.317316,31.5440674 102.667819,31.5436779 C102.95789,31.5436779 103.247962,31.4708349 103.538423,31.327486 C103.828105,31.1833581 104.100632,31.0076779 104.353274,30.8000558 C104.606697,30.5912651 104.834777,30.3731256 105.037515,30.1436895 C105.240643,29.9142535 105.402834,29.7144221 105.524477,29.5438058 L105.143173,27.804143 C104.880004,28.1590093 104.619173,28.4788174 104.360682,28.7604512 L104.360682,28.7604512 Z" id="Fill-5" fill="#00AEAB" sketch:type="MSShapeGroup"></path>
                        <path d="M113.491538,22.7315029 C113.760166,22.7315029 113.990976,22.6906017 114.183187,22.6076308 C114.376178,22.5250494 114.535249,22.4179273 114.662351,22.2847064 C114.788282,22.1510959 114.880684,21.9991773 114.938776,21.8293401 C114.996479,21.6591134 115.02572,21.4838227 115.02572,21.3022994 C115.02533,21.1055843 114.989851,20.9357471 114.918502,20.7916192 C114.847934,20.6478808 114.750464,20.532189 114.629601,20.4449331 C114.507958,20.3568983 114.365651,20.2914564 114.202291,20.2493866 C114.038931,20.2073169 113.864654,20.1851134 113.679851,20.1858924 C113.384711,20.1858924 113.137916,20.2326366 112.940246,20.3257355 C112.742187,20.4188343 112.584285,20.5333576 112.464982,20.6689157 C112.346068,20.8048634 112.260684,20.9501599 112.20844,21.1036366 C112.155806,21.258282 112.129684,21.3973459 112.129684,21.5192703 C112.129684,21.8862122 112.24002,22.1799215 112.462252,22.4007878 C112.683705,22.6212645 113.0268,22.7318924 113.491538,22.7315029" id="Fill-7" fill="#00AEAB" sketch:type="MSShapeGroup"></path>
                        <g id="Group-11">
                            <mask id="mask-2" sketch:name="Clip 10" fill="white">
                                <use xlink:href="#path-1"></use>
                            </mask>
                            <g id="Clip-10"></g>
                            <path d="M118.799104,28.0149203 C118.722688,28.407182 118.621709,28.742182 118.494997,29.0191413 C118.368286,29.2961006 118.220911,29.5251471 118.052482,29.7074494 C117.883274,29.8893622 117.709387,29.9797343 117.529652,29.9797343 C117.324185,29.9805134 117.147179,29.937275 117.000194,29.8496297 C116.852039,29.7627634 116.732735,29.647461 116.643453,29.501775 C116.55339,29.3572576 116.4875,29.1870308 116.445783,28.9918738 C116.402896,28.7971064 116.382232,28.5890948 116.381453,28.3674494 C116.381453,27.9303913 116.42434,27.536961 116.507774,27.1894959 C116.591988,26.8416413 116.708173,26.5241703 116.855548,26.2370831 C117.003703,25.9496064 117.174471,25.7139378 117.370191,25.5289087 C117.564741,25.3446587 117.770209,25.2519494 117.986593,25.2519494 C118.150732,25.2519494 118.28992,25.2963564 118.406884,25.3859494 C118.522679,25.4755424 118.61742,25.5966878 118.691887,25.7501645 C118.765575,25.9028622 118.820938,26.0832169 118.857587,26.2912285 C118.894625,26.5000192 118.91295,26.7247808 118.91295,26.967461 C118.91295,27.2732459 118.875911,27.6222692 118.799104,28.0149203 M107.323349,21.6249901 C107.436804,21.1746878 107.559226,20.7621703 107.688667,20.3882169 C107.817718,20.0138738 107.953006,19.7061413 108.093363,19.4657983 C108.233331,19.2250657 108.372908,19.1046994 108.510146,19.1043099 C108.611125,19.1043099 108.689101,19.1257343 108.744854,19.167025 C108.800607,19.2094843 108.841545,19.2620715 108.867667,19.3251762 C108.894569,19.3878913 108.912113,19.4545017 108.919131,19.5253971 C108.927709,19.5970715 108.931607,19.6605657 108.931607,19.7182169 C108.931607,19.8849378 108.885991,20.0987924 108.797099,20.3590017 C108.706646,20.6196006 108.592801,20.8992866 108.455953,21.198839 C108.317545,21.4983913 108.163542,21.8030076 107.991215,22.1130773 C107.818887,22.4231471 107.653968,22.7110134 107.494896,22.9762866 C107.409902,22.9688855 107.327637,22.9618738 107.248491,22.9560308 C107.168956,22.9501878 107.08903,22.9431762 107.010274,22.935775 C107.105405,22.5115715 107.209503,22.0749029 107.323349,21.6249901 M129.257271,28.9085134 C128.919634,29.1250948 128.743408,29.2298797 128.727033,29.2244262 C128.716896,29.2197517 128.596033,29.3062285 128.363664,29.4858041 C128.315709,29.5333273 128.205762,29.5882517 128.031485,29.6513564 C127.914911,29.6996587 127.826018,29.7230308 127.762468,29.7230308 C127.588191,29.7230308 127.46031,29.6174669 127.378435,29.407118 C127.29617,29.1959901 127.255232,28.9276006 127.255232,28.6003913 C127.254843,28.4056238 127.266929,28.1921587 127.290322,27.9599959 C127.314494,27.7282227 127.344515,27.4937227 127.381164,27.2568855 C127.417813,27.0188797 127.45914,26.7504901 127.503587,26.4501587 C127.547643,26.1494378 127.58936,25.9044203 127.626399,25.7139378 C127.662658,25.5242343 127.693459,25.3614087 127.716462,25.2242924 C127.740634,25.0871762 127.751941,24.9894029 127.751941,24.9317517 C127.751941,24.5414378 127.674354,24.2360424 127.518402,24.0147866 C127.36284,23.7939203 127.152694,23.6832924 126.889524,23.6832924 C126.625575,23.6832924 126.385018,23.7358797 126.169024,23.8414436 C125.95264,23.9470076 125.760039,24.1425541 125.592,24.4269145 C125.554572,24.4900192 125.499988,24.5874029 125.425521,24.7194552 C125.352224,24.851118 125.270349,25.0034262 125.180286,25.1740424 C125.091003,25.3454378 124.995093,25.5242343 124.892164,25.7116006 C124.788456,25.8985773 124.692545,26.1136006 124.603262,26.3558913 C124.51359,26.5985715 124.434444,26.7976238 124.366215,26.927339 C124.297596,27.0554959 124.247691,27.2202692 124.21611,27.2202692 L124.057429,27.2202692 C124.057429,27.2202692 124.065616,27.0979552 124.081212,26.9896645 C124.097197,26.8825424 124.117081,26.7119262 124.140474,26.4933971 C124.163866,26.274868 124.188429,26.0762052 124.215721,25.9051994 C124.241453,25.7338041 124.266405,25.5659145 124.290578,25.4050366 C124.313971,25.2445483 124.333465,25.0957459 124.34906,24.9613564 C124.365045,24.8265773 124.373622,24.7198448 124.373622,24.6407692 C124.373622,24.3513448 124.317479,24.1187924 124.206753,23.9450599 C124.096027,23.7709378 123.897578,23.6840715 123.613354,23.6840715 C123.328351,23.6840715 123.103,23.7666529 122.936521,23.9294785 C122.770432,24.0930831 122.657756,24.2960308 122.600444,24.538711 C122.527146,24.8495599 122.44995,25.2239029 122.371194,25.6613506 C122.359497,25.7256238 122.34936,25.7992459 122.338444,25.8654669 C122.258128,25.7684727 122.180932,25.6738157 122.097887,25.5744843 C121.768048,25.1791064 121.412087,24.851118 121.029224,24.5909087 C120.64714,24.3295308 120.236985,24.1222983 119.798369,23.9660948 C119.360533,23.8110599 118.890726,23.7335424 118.390119,23.733932 C117.804518,23.7343215 117.277009,23.8410541 116.807203,24.0545192 C116.337786,24.2683738 115.940887,24.5609145 115.616896,24.9325308 C115.292125,25.3045366 115.043381,25.7419843 114.869494,26.2452634 C114.695607,26.7493215 114.609054,27.3480366 114.609444,28.044525 C114.609444,28.3748506 114.648432,28.7005017 114.708084,29.0245948 C114.595798,29.1184727 114.486631,29.2154669 114.372006,29.3054494 C114.134569,29.4932052 113.90025,29.652525 113.667881,29.7845773 C113.435512,29.9162401 113.224976,29.981682 113.035104,29.9820715 C112.871354,29.9820715 112.763357,29.9123448 112.710334,29.7725017 C112.65809,29.6326587 112.630798,29.4445134 112.630798,29.2080657 C112.630798,28.965775 112.668616,28.6958273 112.744643,28.3993913 C112.82028,28.1033448 112.883051,27.804961 112.932956,27.5038506 C112.982081,27.2039087 113.074482,26.8404727 113.210941,26.4151006 C113.346619,25.989339 113.448768,25.6407052 113.518557,25.370368 C113.587566,25.0992517 113.649167,24.8581297 113.70336,24.6462227 C113.757554,24.4347052 113.784066,24.270711 113.784066,24.1542401 C113.784066,24.0175134 113.745078,23.9080541 113.667491,23.8270308 C113.589905,23.744839 113.44175,23.7043273 113.224587,23.7043273 C113.105283,23.7047169 112.971554,23.7191297 112.824569,23.7483448 C112.676414,23.7775599 112.533718,23.8231355 112.39609,23.884682 C112.258851,23.945839 112.135649,24.024525 112.026872,24.119961 C111.907959,24.2266936 111.835831,24.3470599 111.809709,24.4798913 C111.762533,24.6699843 111.639331,25.0801645 111.438932,25.7096529 C111.224107,26.481711 111.079462,26.9814843 111.008503,27.2062459 C110.971854,27.3005134 110.897387,27.6783622 110.786271,28.3316122 C110.635387,28.4543157 110.484503,28.5770192 110.322703,28.6907634 C110.109048,28.8407343 109.892274,28.9794087 109.673551,29.105618 C109.454048,29.2322169 109.245462,29.3420657 109.047402,29.4339959 C108.849343,29.5270948 108.668048,29.5991587 108.501959,29.6513564 C108.3347,29.7047227 108.196292,29.7308215 108.085566,29.7308215 C107.905441,29.731211 107.74286,29.7035541 107.597435,29.647461 C107.451619,29.5929262 107.327637,29.5029436 107.226658,29.379461 C107.126849,29.2559785 107.049652,29.0962692 106.997018,28.9011122 C106.943994,28.7063448 106.916703,28.4660017 106.916703,28.1820308 C106.916703,28.0714029 106.917872,27.949868 106.920991,27.8182052 C106.923721,27.6861529 106.927619,27.5494262 106.931908,27.4068564 C106.936587,27.2646762 106.942825,27.1213273 106.948283,26.9760308 C106.953351,26.8311238 106.95842,26.6901122 106.964268,26.5529959 C106.979474,26.2370831 106.997798,25.9149378 107.018851,25.5885076 C107.151411,25.4249029 107.294887,25.242211 107.451619,25.0384843 C107.607962,24.8355366 107.762744,24.6290831 107.916747,24.4183448 L110.958599,24.4171762 C111.08531,24.4163971 111.201884,24.3548506 111.306762,24.2309785 C111.41281,24.1074959 111.465444,23.9470076 111.465444,23.7502924 C111.465444,23.5796762 111.442051,23.4390541 111.394096,23.3276471 C111.34692,23.2162401 111.269724,23.1570308 111.164066,23.1515773 C111.074393,23.1465134 110.961328,23.1410599 110.8237,23.1363855 C110.686851,23.1305424 110.539087,23.1254785 110.380795,23.1208041 C110.222893,23.114961 110.059533,23.1102866 109.890325,23.1063913 C109.721506,23.1024959 109.564384,23.0978215 109.419349,23.0939262 C109.274313,23.0892517 109.146432,23.0822401 109.035316,23.0721122 C108.92459,23.0612052 108.845834,23.063932 108.797878,23.081461 C108.98736,22.7877517 109.168655,22.4913157 109.339033,22.1925424 C109.510971,21.8929901 109.660295,21.5977227 109.787006,21.3063506 C109.912938,21.0149785 110.013527,20.7290599 110.087215,20.4474262 C110.160902,20.166961 110.197941,19.8993506 110.197941,19.646932 C110.197941,19.3415366 110.162462,19.0478273 110.090724,18.7665831 C110.019375,18.4845599 109.917616,18.2383738 109.785447,18.028025 C109.652887,17.8176762 109.493036,17.6493971 109.305893,17.5224087 C109.11875,17.3961994 108.912113,17.3327052 108.684423,17.3327052 C108.331581,17.3338738 107.994334,17.4896878 107.673072,17.8028738 C107.352979,18.1164494 107.05628,18.5309145 106.784923,19.0489959 C106.514346,19.5670773 106.2695,20.1583913 106.051167,20.8229378 C105.832834,21.4874843 105.652319,22.1754029 105.510792,22.8851355 C105.457378,22.8956529 105.360688,22.8995483 105.220721,22.8968215 C105.079974,22.8940948 104.920902,22.890589 104.743116,22.8851355 C104.565331,22.879682 104.380137,22.8785134 104.186366,22.8816297 C103.992206,22.8847459 103.81481,22.896432 103.652619,22.9186355 C103.491209,22.940839 103.358649,22.9731703 103.255721,23.0175773 C103.152012,23.0612052 103.100548,23.1239203 103.100548,23.2076703 C103.100548,23.2606471 103.103667,23.3233622 103.108735,23.3965948 C103.114584,23.4698273 103.132518,23.5403331 103.164878,23.6081122 C103.196849,23.6751122 103.246753,23.7343215 103.316152,23.7845715 C103.385161,23.8340424 103.484191,23.867932 103.610512,23.8850715 C103.897465,23.9201297 104.116578,23.9493448 104.267851,23.9727169 C104.419125,23.996089 104.543887,24.0179029 104.642137,24.0385483 C104.740387,24.0591936 104.833569,24.0794494 104.920902,24.1000948 C105.008625,24.1207401 105.132218,24.1425541 105.291679,24.1659262 C105.244893,24.5192343 105.208634,24.8744901 105.182122,25.2332517 C105.15639,25.5916238 105.143524,25.9293506 105.143524,26.2452634 C105.144304,27.0570541 105.194988,27.7870424 105.297527,28.435618 C105.400456,29.0834145 105.554459,29.635775 105.759146,30.0919203 C105.963834,30.5480657 106.218036,30.8966994 106.522923,31.1393797 C106.82703,31.3816703 107.178313,31.5020366 107.577941,31.5020366 C107.773271,31.5020366 107.991215,31.4650308 108.231381,31.3914087 C108.471938,31.3173971 108.746804,31.2067692 109.05559,31.0587459 C109.364765,30.9115017 109.716828,30.7268622 110.112947,30.5048273 C110.271238,30.4160134 110.445515,30.3170715 110.622131,30.2165715 C110.634607,30.3381064 110.652542,30.4545773 110.681003,30.5640366 C110.731298,30.7619203 110.814343,30.9290308 110.930527,31.0657576 C111.046322,31.2032634 111.197596,31.3099959 111.385128,31.3863448 C111.572661,31.4630831 111.803471,31.5004785 112.077947,31.5004785 C112.383613,31.5004785 112.707215,31.4451645 113.046801,31.3341471 C113.387557,31.2231297 113.721295,31.0848448 114.048015,30.9185134 C114.375125,30.752182 114.679232,30.5710483 114.961896,30.3731645 C115.025447,30.328368 115.078081,30.2866878 115.136563,30.2434494 C115.166194,30.2944785 115.187637,30.3513506 115.219218,30.400432 C115.430533,30.7268622 115.70111,30.9921355 116.03056,31.1943041 C116.360399,31.3976413 116.757298,31.4985308 117.221646,31.4981413 C117.543298,31.4981413 117.847015,31.4428273 118.131628,31.3321994 C118.417021,31.221182 118.679021,31.0708215 118.919578,30.8807285 C119.159354,30.691025 119.373009,30.4666529 119.559762,30.2087808 C119.746905,29.9501297 119.904807,29.6735599 120.033857,29.3782924 C120.163688,29.0826355 120.262718,28.7776297 120.330557,28.4609378 C120.399176,28.1446355 120.433096,27.8310599 120.433096,27.5198215 C120.432706,27.0932808 120.394497,26.7099785 120.318081,26.3699145 C120.240884,26.0298506 120.126649,25.7069262 119.973036,25.4015308 L120.036587,25.314275 C120.226849,25.4408738 120.453369,25.5974669 120.717319,25.7840541 C120.981658,25.9718099 121.248726,26.1992983 121.521253,26.4684669 C121.746994,26.6908913 121.959479,26.893839 122.164947,27.0843215 C122.162997,27.1022401 122.160658,27.1178215 122.158319,27.1357401 C122.095548,27.681868 122.042524,28.1824203 122.000807,28.6389552 C121.95831,29.0943215 121.937646,29.496711 121.938816,29.8433971 C121.938816,30.054525 121.949732,30.2594203 121.973905,30.4573041 C121.997298,30.6544087 122.044863,30.830868 122.116212,30.9870715 C122.18756,31.1421064 122.289319,31.265589 122.421099,31.3582983 C122.552878,31.4502285 122.726765,31.4961936 122.943539,31.4961936 C123.117426,31.4961936 123.270259,31.4560715 123.402039,31.3773855 C123.52875,31.3033738 123.648054,31.1596355 123.75839,30.9387692 L125.830218,26.8307343 L125.956149,26.8307343 C125.893378,27.2202692 125.841134,27.6421355 125.799027,28.0082983 C125.75653,28.3748506 125.735866,28.7137459 125.735866,29.0304378 C125.736256,29.8363855 125.835286,30.4487343 126.033735,30.8670948 C126.231405,31.2862343 126.475081,31.495025 126.765542,31.495025 C127.055613,31.495025 127.333209,31.4525657 127.596378,31.3680366 C127.696578,31.3419378 127.953119,31.2359843 128.364444,31.0509552 C128.532872,30.9777227 128.952384,30.7611413 129.6222,30.4027692 C130.085768,30.1546355 130.334122,30.0175192 130.365703,29.9910308 L130.761822,29.6903099 L130.76884,27.9194843 C130.182849,28.3097983 129.679122,28.6393448 129.257271,28.9085134" id="Fill-9" fill="#00AEAB" sketch:type="MSShapeGroup" mask="url(#mask-2)"></path>
                        </g>
                        <path d="M90.0655411,43.5852919 C90.0760679,43.4255826 90.124803,43.2214663 90.2125262,42.9748907 C90.3006393,42.7271465 90.3766661,42.5203035 90.4429458,42.352414 C90.5092256,42.1845244 90.5965589,42.0353326 90.7049458,41.9040593 C90.8137226,41.772007 90.9486214,41.665664 91.1100321,41.5823035 C91.2718327,41.5005012 91.4659935,41.4592105 91.6940738,41.4592105 C91.821175,41.4592105 91.9276125,41.5336116 92.0157256,41.6839721 C92.1034488,41.833164 92.1471155,42.023257 92.1471155,42.2558093 C92.1471155,42.4209721 92.0539339,42.6297628 91.8687405,42.8821814 C91.6827673,43.1342105 91.493675,43.3352105 91.3006839,43.4851814 C91.107303,43.6347628 90.8987167,43.7570767 90.6737554,43.8525128 C90.4476244,43.9471698 90.2402077,43.9954721 90.0499458,43.9954721 C90.0499458,43.8813384 90.0550143,43.7453907 90.0655411,43.5852919 M84.0984131,43.5852919 C84.1101095,43.4255826 84.1584548,43.2214663 84.2453982,42.9748907 C84.3331214,42.7271465 84.409928,42.5203035 84.4762077,42.352414 C84.5424875,42.1845244 84.6302107,42.0353326 84.7378179,41.9040593 C84.8469845,41.772007 84.9818833,41.665664 85.143294,41.5823035 C85.3047048,41.5005012 85.4988655,41.4592105 85.7273357,41.4592105 C85.854047,41.4592105 85.9616542,41.5336116 86.0489875,41.6839721 C86.1367107,41.833164 86.1803774,42.023257 86.1803774,42.2558093 C86.1803774,42.4209721 86.0871958,42.6297628 85.9020024,42.8821814 C85.7168089,43.1342105 85.5273268,43.3352105 85.3339458,43.4851814 C85.1405649,43.6347628 84.9315887,43.7570767 84.7066274,43.8525128 C84.4812762,43.9471698 84.2742494,43.9954721 84.0832077,43.9954721 C84.0832077,43.8813384 84.0886661,43.7453907 84.0984131,43.5852919 M102.045023,47.2574372 C100.166967,46.6801465 99.6172345,46.2084198 98.9224667,45.3607919 C98.4974964,44.8423209 98.0074161,44.2288035 97.7824548,43.5887977 C98.3045054,43.0150128 98.8409815,42.4521349 99.3872048,41.8989953 C99.5618714,41.722536 99.7408268,41.5499721 99.920172,41.3777977 C100.345532,41.0529256 100.709291,40.7864837 100.865633,40.6707919 C101.055895,40.5293907 102.455178,39.3650709 101.69413,39.2552221 C100.967002,39.1504372 100.503044,39.5485419 99.8753357,39.9380767 C98.849169,40.5726291 97.9442554,41.4693384 97.103672,42.3882512 C97.1196571,42.2230884 97.1344726,42.0579256 97.1492881,41.8927628 C97.3777583,40.633007 97.5450173,39.360786 97.6892732,38.0901233 C97.7742673,37.3363733 98.1871512,35.6204721 97.7021393,34.9364488 C97.5625619,34.7409023 96.1340381,35.4669953 95.9632702,35.6060593 C95.6038,35.8974314 95.70205,37.0524023 95.672419,37.4540128 C95.5846958,38.6580651 95.5460976,39.8664023 95.5039905,41.0727919 C95.4899548,41.487257 95.4622732,41.900943 95.430303,42.3146291 C95.2618744,43.11785 94.9663446,43.8194023 94.5663268,44.4477221 C94.4524815,44.5408209 94.3327881,44.6354779 94.2010083,44.7332512 C93.9050887,44.9525593 93.5912345,45.1543384 93.2586661,45.3409256 C92.9268774,45.5255651 92.5845619,45.6806 92.2344488,45.8040826 C91.8831661,45.9279547 91.5498179,45.9898907 91.2332345,45.9898907 C91.1318655,45.9898907 91.0386839,45.9789837 90.9509607,45.9591174 C90.8632375,45.9384721 90.7805827,45.9022453 90.701047,45.8500477 C90.6215113,45.7994081 90.5435351,45.7269547 90.4663387,45.6342453 C90.3895321,45.5419256 90.3119458,45.4258442 90.2328,45.2860012 C90.6920798,45.1629081 91.1197792,44.9895651 91.5135589,44.7683093 C91.9069488,44.546664 92.2465351,44.2942453 92.5323179,44.0102744 C92.8177107,43.7270826 93.0672345,43.3866291 93.2812792,42.9908616 C93.4957137,42.5931465 93.602931,42.2347744 93.602931,41.9153558 C93.602931,41.6158035 93.5495173,41.3442977 93.4442494,41.102007 C93.3385917,40.8601058 93.1923863,40.6536523 93.0044637,40.482257 C92.8173208,40.3112512 92.5966482,40.1784198 92.3432256,40.0833733 C92.0894131,39.9891058 91.8153268,39.9415826 91.5190173,39.9415826 C91.1572077,39.9415826 90.8277583,40.0050767 90.530669,40.1328442 C90.2351393,40.2602221 89.9672911,40.432007 89.7286839,40.6478093 C89.4896869,40.8632221 89.2807107,41.112914 89.1025351,41.3968849 C88.9239696,41.6804663 88.7758149,41.9780709 88.6584607,42.2904779 C88.5403268,42.6024953 88.4257018,42.9604779 88.3157554,43.3636465 C88.205419,43.766036 88.1504458,44.1135012 88.1504458,44.4048733 C88.1504458,44.5318616 88.1566839,44.6565128 88.1668208,44.7799953 C87.8903952,44.9809953 87.5999339,45.1683616 87.2927077,45.3409256 C86.9601393,45.5255651 86.6178238,45.6806 86.2681006,45.8040826 C85.916428,45.9279547 85.5830798,45.9898907 85.2661065,45.9898907 C85.166297,45.9898907 85.071556,45.9789837 84.9846125,45.9591174 C84.8968893,45.9384721 84.8142345,45.9022453 84.7343089,45.8500477 C84.6547732,45.7994081 84.576797,45.7269547 84.4996006,45.6342453 C84.422794,45.5419256 84.3452077,45.4258442 84.2660619,45.2860012 C84.7261214,45.1629081 85.1526512,44.9895651 85.5468208,44.7683093 C85.9402107,44.546664 86.279797,44.2942453 86.5651899,44.0102744 C86.8509726,43.7270826 87.1012762,43.3866291 87.314931,42.9908616 C87.5293655,42.5931465 87.6361929,42.2347744 87.6361929,41.9153558 C87.6361929,41.6158035 87.5835589,41.3442977 87.4771214,41.102007 C87.3718536,40.8601058 87.2256482,40.6536523 87.0373357,40.482257 C86.8501929,40.3112512 86.6303,40.1784198 86.3760976,40.0833733 C86.1230649,39.9891058 85.8485887,39.9415826 85.552669,39.9415826 C85.1908595,39.9415826 84.8614101,40.0050767 84.5647107,40.1328442 C84.2687911,40.2602221 84.000553,40.432007 83.7619458,40.6478093 C83.5229488,40.8632221 83.3147524,41.112914 83.1361869,41.3968849 C82.9576214,41.6804663 82.8098565,41.9780709 82.6917226,42.2904779 C82.5735887,42.6024953 82.4589637,42.9604779 82.3490173,43.3636465 C82.238681,43.766036 82.1840976,44.1135012 82.1840976,44.4048733 C82.1840976,44.7001407 82.2137286,44.9860593 82.2675321,45.2637977 C82.2363417,45.2797686 82.2063208,45.2996349 82.1747405,45.3140477 C82.0141095,45.3853326 81.8569875,45.4203907 81.704544,45.4203907 C81.5505411,45.4203907 81.4074548,45.3950709 81.272556,45.3432628 C81.1384369,45.2914547 81.0214726,45.2069256 80.9240024,45.0904547 C80.826922,44.9743733 80.7493357,44.8271291 80.6912435,44.6487221 C80.6323714,44.4707047 80.6046899,44.2564605 80.6046899,44.0036523 C80.6046899,43.9004256 80.6378298,43.6861814 80.705669,43.3616988 C80.7735083,43.0372163 80.9017792,42.621193 81.0893119,42.1144081 C81.2768446,41.6064547 81.387181,41.0798035 81.4191512,40.5336756 C81.4519012,39.9883267 81.5372851,39.4312919 81.6749131,38.8649081 C81.8113714,38.2977453 81.9248268,37.7333093 82.0141095,37.1712105 C82.104172,36.6095012 82.1478387,36.0941465 82.1478387,35.6251465 C82.1478387,35.4564779 82.1252256,35.317414 82.0796095,35.2087337 C82.0336036,35.100443 81.9677137,35.0135767 81.8823298,34.9477453 C81.7957762,34.8823035 81.6936274,34.8367279 81.5758833,34.8106291 C81.458919,34.7833616 81.3286988,34.770507 81.1856125,34.770507 C81.0015887,34.770507 80.8222435,34.7829721 80.6471869,34.8086814 C80.4721304,34.8332221 80.316178,34.8842512 80.1781601,34.9621581 C80.0401423,35.0396756 79.9274667,35.149914 79.8385738,35.2913151 C79.7492911,35.4331058 79.6966571,35.6204721 79.6795024,35.853414 C79.6533804,36.0668791 79.6179012,36.3621465 79.572675,36.7396058 C79.526669,37.1166756 79.4424548,37.813164 79.3192524,38.82985 C79.1964399,39.846536 79.1348387,40.3544895 79.1348387,40.3537105 C79.1348387,40.3525419 79.0463357,40.8195942 78.8712792,41.7525302 C78.6946631,42.6850767 78.5164875,43.4415535 78.3344131,44.0211814 C78.1535083,44.6008093 77.9496006,45.1107105 77.7203506,45.5508849 C77.4922702,45.9914488 77.2400173,46.3431988 76.9643714,46.6061349 C76.6879458,46.8706291 76.3814994,47.0019023 76.0462018,47.0019023 C75.8516512,47.0019023 75.6890708,46.9306174 75.5580708,46.7884372 C75.4262911,46.6458674 75.3202435,46.4405826 75.2387583,46.1718035 C75.1568833,45.9030244 75.099181,45.5773733 75.0648714,45.1952395 C75.0309518,44.8123267 75.0141869,44.3846174 75.0141869,43.910164 C75.0141869,43.4466174 75.0348506,42.9378849 75.0773476,42.3843558 C75.1194548,41.8308267 75.1736482,41.2710651 75.2395381,40.7042919 C75.305428,40.1379081 75.3763863,39.5847686 75.4531929,39.0476 C75.5292196,38.5092628 75.6009577,38.0293558 75.6664577,37.6043733 C75.7323476,37.1809488 75.786931,36.8330942 75.829428,36.5611988 C75.871925,36.2893035 75.8921988,36.1358267 75.8921988,36.0988209 C75.8921988,35.988193 75.8769935,35.887693 75.8442435,35.7977105 C75.813053,35.7081174 75.7584696,35.6321581 75.6828327,35.5690535 C75.6060262,35.5051698 75.5030976,35.4553093 75.374047,35.418693 C75.2446065,35.3820767 75.0796869,35.3641581 74.8785083,35.3641581 C74.6660232,35.3641581 74.4784905,35.3871407 74.3159101,35.4358326 C74.1533298,35.4841349 74.011803,35.5671058 73.8897702,35.685914 C73.7669577,35.8027744 73.6624696,35.9613151 73.5743565,36.1595884 C73.4862435,36.3578616 73.4106065,36.6048267 73.3466661,36.8993151 C73.0039607,38.7274023 72.610181,40.359943 72.1672762,41.7961581 C72.0405649,42.2040012 71.9056661,42.6075593 71.7629696,43.0068326 C71.6202732,43.4061058 71.4693893,43.7862919 71.3079786,44.1481698 C71.1469577,44.5104372 70.978919,44.8466058 70.805422,45.1578442 C70.6311452,45.468693 70.4490708,45.736693 70.2588089,45.9622337 C70.068547,46.1873849 69.872047,46.3638442 69.668919,46.4927802 C69.4657911,46.6213267 69.2560351,46.6859895 69.0396512,46.6859895 C68.8232673,46.6859895 68.6361244,46.6154837 68.477053,46.4768093 C68.3191512,46.3373558 68.1869815,46.1453151 68.0817137,45.9022453 C67.976056,45.6583965 67.8984696,45.3720884 67.848175,45.0425419 C67.7982702,44.7129953 67.7733179,44.35735 67.7733179,43.9775535 C67.7733179,43.5116698 67.8165946,43.0068326 67.9035381,42.4630419 C67.9904815,41.9196407 68.1000381,41.3661116 68.2318179,40.8032337 C68.3639875,40.2415244 68.5066839,39.6864372 68.6595173,39.1399198 C68.8123506,38.5941814 68.955047,38.0881756 69.0864369,37.6215128 C69.2182167,37.1556291 69.3277732,36.7442802 69.4147167,36.3878558 C69.5024399,36.0314314 69.5461065,35.7626523 69.5461065,35.58035 C69.5461065,35.4202512 69.5285619,35.2924837 69.4942524,35.1989953 C69.4599429,35.1051174 69.4100381,35.0330535 69.3445381,34.9820244 C69.2786482,34.9309953 69.1979429,34.8974953 69.1016423,34.8815244 C69.0080708,34.8655535 68.9020232,34.8573733 68.7866185,34.8573733 C68.6435321,34.8573733 68.5020054,34.8647744 68.362428,34.8803558 C68.2232405,34.8971058 68.0844429,34.9457977 67.9475946,35.0272105 C67.8099667,35.1090128 67.6754577,35.2356116 67.5432881,35.4066174 C67.4115083,35.5784023 67.2797286,35.8171872 67.1483387,36.1229721 C66.9264964,36.6702686 66.728047,37.2350942 66.5541601,37.8151116 C66.3802732,38.3947395 66.233678,38.9794314 66.1147643,39.5695767 C65.9958506,40.1601116 65.9057881,40.7490884 65.8418476,41.3368965 C65.7790768,41.9247047 65.7474964,42.4981 65.7474964,43.0563035 C65.7474964,43.9682047 65.8196244,44.7659721 65.9646601,45.4480477 C66.1100857,46.1305128 66.302297,46.6984547 66.5424637,47.1522628 C66.7822405,47.6052919 67.0606155,47.9465244 67.3771988,48.1759605 C67.694172,48.4046174 68.0263506,48.5195302 68.3737345,48.5195302 C68.9807792,48.5195302 69.5340202,48.415914 70.0318982,48.2071233 C70.5309458,47.9995012 70.9738506,47.6500884 71.3617821,47.1600535 C71.7493238,46.6700186 72.0869607,46.0202744 72.3746929,45.2112105 C72.6616452,44.402536 72.9006423,43.396757 73.0905143,42.1946523 C73.0753089,42.3687744 73.0534756,42.5666581 73.0277435,42.7875244 C73.0004518,43.0091698 72.9879756,43.246786 72.9879756,43.4988151 C72.9879756,44.1902395 73.0378804,44.8411523 73.1380798,45.4527221 C73.2374994,46.0631233 73.396181,46.596007 73.6149042,47.049036 C73.8328476,47.5028442 74.116681,47.8608267 74.4660143,48.1245419 C74.8161274,48.3874779 75.2407077,48.5195302 75.7401452,48.5195302 C76.133925,48.5195302 76.5156185,48.4513616 76.8863952,48.3142453 C77.2567821,48.1759605 77.6123536,47.981193 77.95155,47.7276058 C78.2899667,47.4740186 78.6112286,47.1682337 78.9129964,46.808693 C79.215544,46.4499314 79.497428,46.0455942 79.7605976,45.5972395 C79.792178,45.8321291 79.8475411,46.0346872 79.926297,46.2060826 C80.005053,46.3763093 80.103303,46.5157628 80.2214369,46.6232744 C80.3395708,46.730007 80.4752494,46.8102512 80.6280827,46.8612802 C80.781306,46.9130884 80.9438863,46.9384081 81.118553,46.9384081 C81.481922,46.9384081 81.871803,46.8192105 82.2858565,46.580036 C82.4082792,46.5087512 82.529922,46.4273384 82.6503952,46.3404721 C82.7314905,46.4849895 82.8203833,46.6232744 82.9225321,46.7510419 C83.1693268,47.059943 83.4769429,47.30535 83.84655,47.4868733 C84.2157673,47.6695651 84.6469756,47.7611058 85.1393952,47.7611058 C85.4555887,47.7611058 85.7686631,47.7241 86.0778387,47.651257 C86.3862345,47.5780244 86.6848833,47.4794721 86.9722256,47.3583267 C87.2595679,47.2356233 87.534044,47.0957802 87.7948744,46.9384081 C88.0560946,46.781036 88.3001601,46.6213267 88.5270708,46.4577221 C88.5637196,46.4308442 88.5980292,46.3985128 88.6350679,46.3708558 C88.7114845,46.5040767 88.7941393,46.6322337 88.8888804,46.7510419 C89.1352851,47.059943 89.443681,47.30535 89.8128982,47.4868733 C90.1825054,47.6695651 90.6133238,47.7611058 91.1061333,47.7611058 C91.4223268,47.7611058 91.7357911,47.7241 92.0441869,47.651257 C92.3529726,47.5780244 92.6508417,47.4794721 92.9385738,47.3583267 C93.2259161,47.2356233 93.5007821,47.0957802 93.7616125,46.9384081 C94.0228327,46.781036 94.2668982,46.6213267 94.493419,46.4577221 C94.6949875,46.3116465 94.8879786,46.1492105 95.0805798,45.9856058 C95.0201482,46.6871581 94.9729726,47.3891 94.9636155,48.0929895 C94.965175,47.9936581 96.720419,47.7505884 96.7250976,47.3879314 C96.7348446,46.6256116 96.7828,45.8644605 96.8455708,45.1033093 C97.1426601,45.4601233 97.4428685,45.7662977 97.5968714,45.920164 C99.2562048,47.5776349 100.899943,47.9706756 101.721422,47.9706756 C102.444261,47.9706756 102.706651,47.4603849 102.045023,47.2574372" id="Fill-12" fill="#00AEAB" sketch:type="MSShapeGroup"></path>
                        <path d="M0,22.291757 L53.8257946,0.74035 L56.7920089,8.04880349 L54.9743839,8.7624314 L55.999381,14.1929372 C55.999381,14.1929372 57.9230536,14.2486407 58.1277411,15.48035 C58.3320387,16.7124488 56.9311964,17.1097744 56.9311964,17.1097744 L61.3731101,29.7704372 L56.3101161,30.7014256 L55.5338631,17.4354256 C55.5338631,17.4354256 53.5478095,17.2831174 53.4062827,16.0385535 C53.2651458,14.7939895 55.2079226,14.3320012 55.2079226,14.3320012 L54.2297113,9.10327442 L43.9021548,13.230786 L47.5066042,23.6960302 C47.5066042,23.6960302 48.0103304,24.0731 48.6910625,25.0243442 C49.0532619,25.53035 49.7347738,26.5166523 49.7347738,26.5166523 L52.7384167,26.0001291 L58.5468631,57.1559081 L8.26157738,66.5281174 L2.45352083,35.3411756 L17.0358482,32.687664 C17.0358482,32.687664 17.5481518,31.4925709 18.0218571,30.7399895 C18.4955625,29.9877977 18.9306696,29.3364953 18.9306696,29.3364953 L18.9770655,23.3006523 L1.50611012,30.2207395 L0,22.291757 Z" id="Fill-14" fill="#F1592A" sketch:type="MSShapeGroup"></path>
                        <path d="M47.2279562,50.5444494 C39.7395128,60.288275 28.0364562,64.3106122 20.0224533,58.7542866 C12.0103997,53.1960134 11.8922658,41.2361238 18.0890336,30.6248041 C24.261239,20.0555541 37.5507211,16.4714436 45.5635545,22.0281587 C53.5771676,27.5856529 54.7269265,40.7873797 47.2279562,50.5444494" id="Fill-16" fill="#FFFFFF" sketch:type="MSShapeGroup"></path>
                        <path d="M34.8794908,45.8763023 C34.3457438,46.0874302 33.8096574,46.2966105 33.2022229,46.4345058 C33.0345741,46.4637209 32.8747229,46.5003372 32.7051247,46.5276047 C32.6084342,46.5607151 32.4891307,46.570064 32.3631991,46.5743488 C32.3164134,46.5844767 32.2298598,46.5544826 32.2084164,46.5899302 C32.150714,46.6000581 32.0532438,46.570064 32.0220533,46.6055116 C31.9234134,46.6156395 31.7842259,46.5848663 31.711708,46.6207035 L31.2921961,46.6207035 C31.2188985,46.5848663 31.0801009,46.6156395 30.981461,46.6055116 C30.9494908,46.570064 30.8528003,46.6000581 30.7950979,46.5899302 C30.2979997,46.5537035 29.8652318,46.4532035 29.4597557,46.3258256 C29.4234967,46.3001163 29.3759313,46.286093 29.3197884,46.2798605 C29.2636455,46.2736279 29.2160801,46.2588256 29.180211,46.2327267 L29.180211,46.2171453 C29.0016455,46.1735174 28.8620682,46.0897674 28.6983182,46.0309477 C28.5723866,45.9916047 28.482714,45.9156453 28.3571723,45.8763023 L28.3571723,45.8607209 L28.3571723,45.8451395 C27.9053003,45.6340116 27.5431009,45.3340698 27.1766128,45.0384128 C27.1617973,44.9908895 27.1173509,44.9733605 27.0834313,44.945314 L27.0834313,44.9297326 C26.9477527,44.8685756 26.9029164,44.717436 26.773086,44.650436 C26.7333182,44.6173256 26.7040771,44.5744767 26.6799045,44.5261744 C26.632339,44.4755349 26.6019283,44.4073663 26.5399372,44.3715291 C26.5028985,44.3302384 26.4830146,44.2733663 26.4311604,44.2472674 C26.1878747,43.9574535 26.0022914,43.6103779 25.8096902,43.2695349 C25.7496485,43.1748779 25.6977943,43.0712616 25.6549074,42.9590756 C25.643211,42.9197326 25.6393122,42.8710407 25.6081217,42.8503953 C25.4244878,42.4550174 25.2693152,42.0312035 25.1734045,41.5470116 C25.132467,41.3191337 25.0911396,41.0912558 25.0494223,40.8645465 C25.0244699,40.7917035 25.0174521,40.6997733 25.0182318,40.6004419 C25.020961,40.4115174 24.9854818,40.2607674 24.9866515,40.0730116 C24.9769045,40.0056221 25.0073152,39.8981105 24.971836,39.8560407 L24.971836,39.4528721 C24.9967884,39.2756337 24.9936693,39.0711279 25.0026366,38.8783081 C25.0381158,38.8568837 25.0084848,38.770407 25.0182318,38.7236628 C25.0517616,38.2655698 25.1328568,37.8553895 25.2353955,37.4666337 C25.2654164,37.4035291 25.2849104,37.329907 25.2973866,37.2492733 C25.296217,37.2009709 25.3047943,37.163186 25.3285771,37.140593 L25.3441723,37.140593 C25.3430027,37.0361977 25.3925176,36.9820523 25.4061634,36.8924593 C25.4049938,36.8702558 25.4034342,36.8484419 25.4217586,36.8457151 C25.4478807,36.8094884 25.4623063,36.7623547 25.4685443,36.7058721 C25.5059729,36.5679767 25.554708,36.4413779 25.6081217,36.3182849 L25.623717,36.3182849 C25.6303449,36.2212907 25.6927259,36.18 25.7016932,36.085343 C25.7036426,36.0565174 25.7118301,36.0339244 25.7324938,36.023407 L25.748089,36.023407 C25.7527676,35.9665349 25.7859074,35.9377093 25.7948747,35.884343 C25.7917557,35.8660349 25.7979938,35.855907 25.8096902,35.8531802 L25.8252854,35.8531802 C25.8280146,35.8087733 25.8541366,35.7881279 25.8564759,35.7445 C25.8553063,35.722686 25.8541366,35.7004826 25.8720711,35.6977558 L25.8880563,35.6977558 C25.9391307,35.5583023 26.0135979,35.4406628 26.0744193,35.3097791 C26.0716902,35.2918605 26.0771485,35.2821221 26.0900146,35.2786163 L26.1056098,35.2786163 C26.3980205,34.660814 26.7785443,34.1310465 27.1766128,33.6188081 C27.1910384,33.6067326 27.2003955,33.5899826 27.2078033,33.572064 L27.2233985,33.572064 C27.2736932,33.4777965 27.3579074,33.4170291 27.4097616,33.3239302 C27.477211,33.3138023 27.4698033,33.2284942 27.5185384,33.2000581 C27.5879372,33.1505872 27.6296545,33.0730698 27.6893063,33.0130814 C27.7318033,32.9838663 27.7680622,32.9476395 27.7976932,32.9051802 C27.8698211,32.857657 27.9107586,32.7793605 27.968461,32.718593 C28.0628122,32.6371802 28.1509253,32.5491453 28.2328003,32.4548779 C28.253464,32.4085233 28.3029789,32.3906047 28.3415771,32.3617791 L28.3571723,32.3617791 C28.4328092,32.2776395 28.5310592,32.2149244 28.6055265,32.1288372 C28.6990979,32.0158721 28.8320473,31.94225 28.931467,31.8343488 C28.9455027,31.8222733 28.9665563,31.8172093 28.993458,31.8187674 L28.993458,31.803186 C29.1248479,31.7069709 29.255458,31.6095872 29.3813896,31.5083081 C29.383339,31.468186 29.4429908,31.4864942 29.4441604,31.4463721 L29.4753509,31.4463721 C29.5736009,31.3895 29.6663926,31.3271744 29.7545057,31.260564 C29.7580146,31.2477093 29.7704908,31.244593 29.7704908,31.2290116 C30.0321009,31.082157 30.2753866,30.9162151 30.5467438,30.7790988 C30.5997676,30.7545581 30.6640979,30.741314 30.7023063,30.7015814 L30.7023063,30.686 C30.8336961,30.6310756 30.9572884,30.5683605 31.0902378,30.5153837 C31.1229878,30.4853895 31.1639253,30.4655233 31.2146098,30.4534477 C31.266464,30.4534477 31.2964848,30.4316337 31.3233866,30.4067035 C31.3771902,30.4090407 31.3888866,30.3693081 31.4313836,30.3603488 C31.5892854,30.3050349 31.7557646,30.2602384 31.882086,30.1737616 C31.9366693,30.1764884 31.9815057,30.1702558 32.006458,30.1433779 C32.1089967,30.1219535 32.202958,30.0907907 32.2860027,30.0495 C32.2906813,30.0288547 32.3246009,30.0370349 32.3483836,30.0346977 C32.4614491,30.0085988 32.5725652,29.9797733 32.6739342,29.9415988 C32.8263777,29.9123837 32.9507497,29.8559012 33.1090414,29.8329186 C33.2521277,29.8056512 33.3991128,29.7811105 33.5441485,29.7550116 C33.6884045,29.769814 33.7476664,29.7000872 33.8852943,29.708657 C33.9328598,29.6985291 34.0194134,29.7285233 34.0408568,29.6930756 C34.0931009,29.6829477 34.1851128,29.7129419 34.2116247,29.6774942 C34.3051961,29.6673663 34.4389253,29.6981395 34.5063747,29.6619128 L35.0346634,29.6619128 C35.0919759,29.6981395 35.215958,29.6673663 35.2990027,29.6774942 C35.3301932,29.7129419 35.4276634,29.6829477 35.4853658,29.6930756 C35.8206634,29.7141105 36.120092,29.7725407 36.4011961,29.8485 L36.4011961,29.8636919 C36.5711842,29.8855058 36.6959461,29.9521163 36.8515086,29.987564 C36.8538479,30.0058721 36.8799699,30.0008081 36.8982943,30.0031453 L36.8982943,30.0191163 C36.9598955,30.0089884 36.9606753,30.0600174 37.0226664,30.0495 C37.0250057,30.0681977 37.0507378,30.0631337 37.0690622,30.0650814 L37.0690622,30.0806628 C37.213708,30.1227326 37.3244342,30.1983023 37.472589,30.2364767 C38.2936783,30.6365291 38.9443896,31.2071977 39.4921723,31.881093 C39.4886634,31.919657 39.5155652,31.9290058 39.5381783,31.9426395 C39.5529938,32.0053547 39.5986098,32.037686 39.6313598,32.0828721 C39.6804848,32.1783081 39.7494938,32.2538779 39.8025176,32.3461977 C39.8243509,32.4065756 39.8571009,32.4572151 39.8956991,32.5012326 C39.9214313,32.5584942 39.954961,32.607186 39.9884908,32.656657 C39.997458,32.7259942 40.036836,32.7633895 40.066467,32.8120814 C40.1011664,32.8545407 40.1268985,32.9063488 40.1436634,32.9667267 C40.1619878,33.0161977 40.1725146,33.0730698 40.2064342,33.1069593 C40.2520503,33.1279942 40.2274878,33.2191453 40.2680354,33.2460233 C40.2801217,33.2861453 40.2836307,33.3340581 40.3148211,33.3547035 C40.3456217,33.3753488 40.3495205,33.4240407 40.361217,33.4633837 C40.3662854,33.5151919 40.377592,33.5615465 40.4080027,33.5876453 C40.4306158,33.5911512 40.4130711,33.6336105 40.4388033,33.6336105 C40.4508896,33.7411221 40.505083,33.8061744 40.5167795,33.913686 C40.5269164,33.9705581 40.5327646,34.0321047 40.5631753,34.0683314 C40.590467,34.1135174 40.5986545,34.1781802 40.609961,34.2393372 C40.6111307,34.2891977 40.6181485,34.3343837 40.6411515,34.3632093 C40.6583063,34.4492965 40.665714,34.5455116 40.7031426,34.6117326 C40.7277051,34.6853547 40.7433003,34.7675465 40.7495384,34.8602558 C40.7487586,34.9284244 40.7557765,34.9880233 40.7807289,35.0304826 C40.7830682,35.1266977 40.7881366,35.2197965 40.8119193,35.2941977 C40.8212765,35.331593 40.7924253,35.4071628 40.8275146,35.4184593 C40.8368717,35.4659826 40.8076307,35.5520698 40.8423301,35.5731047 C40.852467,35.6256919 40.8224461,35.7176221 40.8579253,35.7445 C40.8680622,35.8118895 40.8380414,35.9197907 40.8739104,35.9614709 L40.8739104,36.1476686 L40.8739104,36.7841686 C40.8762497,36.9925698 40.8423301,37.1663023 40.8423301,37.3735349 C40.829464,37.6181628 40.8002229,37.8479884 40.7495384,38.056 C40.7261455,38.0996279 40.7226366,38.1635116 40.7187378,38.2270058 C40.7167884,38.3232209 40.6992438,38.4042442 40.6719521,38.4751395 L40.6563568,38.4751395 C40.6649342,38.5347384 40.6286753,38.5503198 40.6411515,38.614593 C40.6255563,38.7341802 40.6025533,38.8451977 40.5631753,38.9406337 L40.5475801,38.9406337 C40.5343241,39.1081337 40.4664848,39.2210988 40.4388033,39.3749651 L40.4388033,39.4217093 L40.4235979,39.4217093 C40.4119015,39.5284419 40.3573182,39.5938837 40.3456217,39.7006163 L40.3304164,39.7006163 L40.3148211,39.7006163 C40.324958,39.7625523 40.2738836,39.7633314 40.2836307,39.8248779 C40.2501009,39.8225407 40.2770027,39.8798023 40.2680354,39.9023953 C40.2068241,39.9448547 40.2017557,40.0430174 40.1752438,40.1197558 L40.1752438,40.1509186 C40.1518509,40.1789651 40.1588688,40.2377849 40.1288479,40.2595988 C39.9861515,40.5513605 39.8625592,40.8622093 39.709336,41.143843 C39.6945205,41.2069477 39.6450057,41.2342151 39.6313598,41.2992674 L39.6161545,41.2992674 C39.5432467,41.5107849 39.4001604,41.6525756 39.3206247,41.8574709 C39.322964,41.8753895 39.3175057,41.8847384 39.3058092,41.8886337 C39.0196366,42.2956977 38.7346336,42.7043198 38.4355949,43.0989186 C38.3825711,43.09775 38.3775027,43.1444942 38.3580086,43.1760465 C38.2706753,43.2804419 38.1724253,43.3735407 38.0940592,43.4865058 C38.0468836,43.5016977 38.029339,43.5461047 38.0004878,43.5796047 C37.8402467,43.745157 37.6737676,43.9040872 37.5193747,44.0758721 C37.5080682,44.1117093 37.472589,44.1230058 37.4417884,44.1385872 C37.3462676,44.208314 37.2593241,44.287 37.177839,44.3715291 C37.0749104,44.449436 36.9938152,44.5495465 36.8826991,44.6192733 C36.860086,44.627843 36.8452705,44.6434244 36.8363033,44.666407 C36.7146604,44.7462616 36.5934074,44.8265058 36.4947676,44.9297326 C36.1352973,45.1502093 35.792592,45.387436 35.4225949,45.5966163 C35.3528063,45.6195988 35.2908152,45.6507616 35.2366217,45.6901047 C35.1726813,45.7352907 35.1001634,45.7707384 35.0186783,45.7987849 C34.9726723,45.8244942 34.8927467,45.817093 34.8794908,45.8763023" id="Fill-18" fill="#F1592A" sketch:type="MSShapeGroup"></path>
                    </g>
                    <text id="2016" sketch:type="MSTextLayer" font-family="Myriad Pro" font-size="14.4195128" font-weight="526" letter-spacing="-0.05" fill="#F1592A">
                        <tspan x="65.0754586" y="59.9546114">2016</tspan>
                    </text>
                </g>
            </g>
        </g>
    </g>
</svg>